<svg xmlns="http://www.w3.org/2000/svg" viewBox="0 0 341.5 354.18">
  <title>intro-flowchart</title>
  <line x1="37.25" y1="51.52" x2="37.25" y2="294.02" style="fill: none;stroke: #047;stroke-miterlimit: 10;stroke-width: 1.5px"/>
  <polyline points="262.25 147.03 340.75 147.03 340.75 289.52 257.25 289.52 257.25 333.02" style="fill: none;stroke: #047;stroke-miterlimit: 10;stroke-width: 1.5px"/>
  <polyline points="257.25 19.52 257.25 259.02 173.25 259.02 173.25 147.03 246.75 147.03" style="fill: none;stroke: #047;stroke-miterlimit: 10;stroke-width: 1.5px"/>
  <rect x="278.64" y="138.55" width="26.73" height="26.73" transform="translate(158.18 -166.86) rotate(45)" style="fill: #fff;stroke: #047;stroke-miterlimit: 10;stroke-width: 1.5px"/>
  <rect x="220.75" y="194.69" width="73.33" height="33.83" style="fill: #fff;stroke: #047;stroke-miterlimit: 10;stroke-width: 1.5px"/>
  <rect x="220.75" y="0.75" width="73.36" height="33.68" rx="16.84" ry="16.84" style="fill: #fff;stroke: #047;stroke-miterlimit: 10;stroke-width: 1.5px"/>
  <rect x="220.75" y="319.75" width="73.36" height="33.68" rx="16.84" ry="16.84" style="fill: #fff;stroke: #047;stroke-miterlimit: 10;stroke-width: 1.5px"/>
  <rect x="220.75" y="64.69" width="73.33" height="33.83" style="fill: #fff;stroke: #047;stroke-miterlimit: 10;stroke-width: 1.5px"/>
  <rect x="0.75" y="160.69" width="73.33" height="33.83" style="fill: #fff;stroke: #047;stroke-miterlimit: 10;stroke-width: 1.5px"/>
  <rect x="0.75" y="32.75" width="73.36" height="33.68" rx="16.84" ry="16.84" style="fill: #fff;stroke: #047;stroke-miterlimit: 10;stroke-width: 1.5px"/>
  <rect x="0.75" y="288.75" width="73.36" height="33.68" rx="16.84" ry="16.84" style="fill: #fff;stroke: #047;stroke-miterlimit: 10;stroke-width: 1.5px"/>
  <rect x="0.75" y="96.69" width="73.33" height="33.83" style="fill: #fff;stroke: #047;stroke-miterlimit: 10;stroke-width: 1.5px"/>
  <polygon points="257.26 65.34 251.77 56.86 262.76 56.86 257.26 65.34" style="fill: #047"/>
  <polygon points="257.26 128.97 251.77 120.48 262.76 120.48 257.26 128.97" style="fill: #047"/>
  <polygon points="257.26 195.36 251.77 186.88 262.76 186.88 257.26 195.36" style="fill: #047"/>
  <polygon points="257.26 320.47 251.77 311.98 262.76 311.98 257.26 320.47" style="fill: #047"/>
  <polygon points="239.37 147 230.88 152.5 230.88 141.51 239.37 147" style="fill: #047"/>
  <rect x="0.75" y="224.69" width="73.33" height="33.83" style="fill: #fff;stroke: #047;stroke-miterlimit: 10;stroke-width: 1.5px"/>
  <polygon points="37.26 97.34 31.77 88.86 42.76 88.86 37.26 97.34" style="fill: #047"/>
  <polygon points="37.26 161.34 31.77 152.86 42.76 152.86 37.26 161.34" style="fill: #047"/>
  <polygon points="37.26 225.34 31.77 216.86 42.76 216.86 37.26 225.34" style="fill: #047"/>
  <polygon points="37.26 289.34 31.77 280.86 42.76 280.86 37.26 289.34" style="fill: #047"/>
</svg>
