<svg xmlns="http://www.w3.org/2000/svg" viewBox="0 0 1096 484">
  <title>intro-circles</title>
  <circle cx="75.16" cy="75.16" r="72.66" style="fill: #fff;stroke: #047;stroke-miterlimit: 10;stroke-width: 5px"/>
  <circle cx="242" cy="75.16" r="72.66" style="fill: #fff;stroke: #047;stroke-miterlimit: 10;stroke-width: 5px"/>
  <circle cx="408.84" cy="75.16" r="72.66" style="fill: #fff;stroke: #047;stroke-miterlimit: 10;stroke-width: 5px"/>
  <circle cx="75.16" cy="242" r="72.66" style="fill: #fff;stroke: #047;stroke-miterlimit: 10;stroke-width: 5px"/>
  <circle cx="242" cy="242" r="72.66" style="fill: #fff;stroke: #047;stroke-miterlimit: 10;stroke-width: 5px"/>
  <circle cx="408.84" cy="242" r="72.66" style="fill: #fff;stroke: #047;stroke-miterlimit: 10;stroke-width: 5px"/>
  <circle cx="75.16" cy="408.84" r="72.66" style="fill: #fff;stroke: #047;stroke-miterlimit: 10;stroke-width: 5px"/>
  <circle cx="242" cy="408.84" r="72.66" style="fill: #fff;stroke: #047;stroke-miterlimit: 10;stroke-width: 5px"/>
  <circle cx="408.84" cy="408.84" r="72.66" style="fill: #fff;stroke: #047;stroke-miterlimit: 10;stroke-width: 5px"/>
  <circle cx="631.93" cy="19.93" r="17.43" style="fill: #fff;stroke: #047;stroke-miterlimit: 10;stroke-width: 5px"/>
  <circle cx="687.45" cy="19.93" r="17.43" style="fill: #fff;stroke: #047;stroke-miterlimit: 10;stroke-width: 5px"/>
  <circle cx="742.97" cy="19.93" r="17.43" style="fill: #fff;stroke: #047;stroke-miterlimit: 10;stroke-width: 5px"/>
  <circle cx="631.93" cy="75.45" r="17.43" style="fill: #fff;stroke: #047;stroke-miterlimit: 10;stroke-width: 5px"/>
  <circle cx="687.45" cy="75.45" r="17.43" style="fill: #fff;stroke: #047;stroke-miterlimit: 10;stroke-width: 5px"/>
  <circle cx="742.97" cy="75.45" r="17.43" style="fill: #fff;stroke: #047;stroke-miterlimit: 10;stroke-width: 5px"/>
  <circle cx="631.93" cy="130.97" r="17.43" style="fill: #fff;stroke: #047;stroke-miterlimit: 10;stroke-width: 5px"/>
  <circle cx="687.45" cy="130.97" r="17.43" style="fill: #fff;stroke: #047;stroke-miterlimit: 10;stroke-width: 5px"/>
  <circle cx="742.97" cy="130.97" r="17.43" style="fill: #fff;stroke: #047;stroke-miterlimit: 10;stroke-width: 5px"/>
  <circle cx="798.48" cy="19.93" r="17.43" style="fill: #fff;stroke: #047;stroke-miterlimit: 10;stroke-width: 5px"/>
  <circle cx="854" cy="19.93" r="17.43" style="fill: #fff;stroke: #047;stroke-miterlimit: 10;stroke-width: 5px"/>
  <circle cx="909.52" cy="19.93" r="17.43" style="fill: #fff;stroke: #047;stroke-miterlimit: 10;stroke-width: 5px"/>
  <circle cx="798.48" cy="75.45" r="17.43" style="fill: #fff;stroke: #047;stroke-miterlimit: 10;stroke-width: 5px"/>
  <circle cx="854" cy="75.45" r="17.43" style="fill: #fff;stroke: #047;stroke-miterlimit: 10;stroke-width: 5px"/>
  <circle cx="909.52" cy="75.45" r="17.43" style="fill: #fff;stroke: #047;stroke-miterlimit: 10;stroke-width: 5px"/>
  <circle cx="798.48" cy="130.97" r="17.43" style="fill: #fff;stroke: #047;stroke-miterlimit: 10;stroke-width: 5px"/>
  <circle cx="854" cy="130.97" r="17.43" style="fill: #fff;stroke: #047;stroke-miterlimit: 10;stroke-width: 5px"/>
  <circle cx="909.52" cy="130.97" r="17.43" style="fill: #fff;stroke: #047;stroke-miterlimit: 10;stroke-width: 5px"/>
  <circle cx="965.03" cy="19.93" r="17.43" style="fill: #fff;stroke: #047;stroke-miterlimit: 10;stroke-width: 5px"/>
  <circle cx="1020.55" cy="19.93" r="17.43" style="fill: #fff;stroke: #047;stroke-miterlimit: 10;stroke-width: 5px"/>
  <circle cx="1076.07" cy="19.93" r="17.43" style="fill: #fff;stroke: #047;stroke-miterlimit: 10;stroke-width: 5px"/>
  <circle cx="965.03" cy="75.45" r="17.43" style="fill: #fff;stroke: #047;stroke-miterlimit: 10;stroke-width: 5px"/>
  <circle cx="1020.55" cy="75.45" r="17.43" style="fill: #fff;stroke: #047;stroke-miterlimit: 10;stroke-width: 5px"/>
  <circle cx="1076.07" cy="75.45" r="17.43" style="fill: #fff;stroke: #047;stroke-miterlimit: 10;stroke-width: 5px"/>
  <circle cx="965.03" cy="130.97" r="17.43" style="fill: #fff;stroke: #047;stroke-miterlimit: 10;stroke-width: 5px"/>
  <circle cx="1020.55" cy="130.97" r="17.43" style="fill: #fff;stroke: #047;stroke-miterlimit: 10;stroke-width: 5px"/>
  <circle cx="1076.07" cy="130.97" r="17.43" style="fill: #fff;stroke: #047;stroke-miterlimit: 10;stroke-width: 5px"/>
  <circle cx="631.93" cy="186.48" r="17.43" style="fill: #fff;stroke: #047;stroke-miterlimit: 10;stroke-width: 5px"/>
  <circle cx="687.45" cy="186.48" r="17.43" style="fill: #fff;stroke: #047;stroke-miterlimit: 10;stroke-width: 5px"/>
  <circle cx="742.97" cy="186.48" r="17.43" style="fill: #fff;stroke: #047;stroke-miterlimit: 10;stroke-width: 5px"/>
  <circle cx="631.93" cy="242" r="17.43" style="fill: #fff;stroke: #047;stroke-miterlimit: 10;stroke-width: 5px"/>
  <circle cx="687.45" cy="242" r="17.43" style="fill: #fff;stroke: #047;stroke-miterlimit: 10;stroke-width: 5px"/>
  <circle cx="742.97" cy="242" r="17.43" style="fill: #fff;stroke: #047;stroke-miterlimit: 10;stroke-width: 5px"/>
  <circle cx="631.93" cy="297.52" r="17.43" style="fill: #fff;stroke: #047;stroke-miterlimit: 10;stroke-width: 5px"/>
  <circle cx="687.45" cy="297.52" r="17.43" style="fill: #fff;stroke: #047;stroke-miterlimit: 10;stroke-width: 5px"/>
  <circle cx="742.97" cy="297.52" r="17.43" style="fill: #fff;stroke: #047;stroke-miterlimit: 10;stroke-width: 5px"/>
  <circle cx="798.48" cy="186.48" r="17.43" style="fill: #fff;stroke: #047;stroke-miterlimit: 10;stroke-width: 5px"/>
  <circle cx="854" cy="186.48" r="17.43" style="fill: #fff;stroke: #047;stroke-miterlimit: 10;stroke-width: 5px"/>
  <circle cx="909.52" cy="186.48" r="17.43" style="fill: #fff;stroke: #047;stroke-miterlimit: 10;stroke-width: 5px"/>
  <circle cx="798.48" cy="242" r="17.43" style="fill: #fff;stroke: #047;stroke-miterlimit: 10;stroke-width: 5px"/>
  <circle cx="854" cy="242" r="17.43" style="fill: #fff;stroke: #047;stroke-miterlimit: 10;stroke-width: 5px"/>
  <circle cx="909.52" cy="242" r="17.43" style="fill: #fff;stroke: #047;stroke-miterlimit: 10;stroke-width: 5px"/>
  <circle cx="798.48" cy="297.52" r="17.43" style="fill: #fff;stroke: #047;stroke-miterlimit: 10;stroke-width: 5px"/>
  <circle cx="854" cy="297.52" r="17.43" style="fill: #fff;stroke: #047;stroke-miterlimit: 10;stroke-width: 5px"/>
  <circle cx="909.52" cy="297.52" r="17.43" style="fill: #fff;stroke: #047;stroke-miterlimit: 10;stroke-width: 5px"/>
  <circle cx="965.03" cy="186.48" r="17.43" style="fill: #fff;stroke: #047;stroke-miterlimit: 10;stroke-width: 5px"/>
  <circle cx="1020.55" cy="186.48" r="17.43" style="fill: #fff;stroke: #047;stroke-miterlimit: 10;stroke-width: 5px"/>
  <circle cx="1076.07" cy="186.48" r="17.43" style="fill: #fff;stroke: #047;stroke-miterlimit: 10;stroke-width: 5px"/>
  <circle cx="965.03" cy="242" r="17.43" style="fill: #fff;stroke: #047;stroke-miterlimit: 10;stroke-width: 5px"/>
  <circle cx="1020.55" cy="242" r="17.43" style="fill: #fff;stroke: #047;stroke-miterlimit: 10;stroke-width: 5px"/>
  <circle cx="1076.07" cy="242" r="17.43" style="fill: #fff;stroke: #047;stroke-miterlimit: 10;stroke-width: 5px"/>
  <circle cx="965.03" cy="297.52" r="17.43" style="fill: #fff;stroke: #047;stroke-miterlimit: 10;stroke-width: 5px"/>
  <circle cx="1020.55" cy="297.52" r="17.43" style="fill: #fff;stroke: #047;stroke-miterlimit: 10;stroke-width: 5px"/>
  <circle cx="1076.07" cy="297.52" r="17.43" style="fill: #fff;stroke: #047;stroke-miterlimit: 10;stroke-width: 5px"/>
  <circle cx="631.93" cy="353.03" r="17.43" style="fill: #fff;stroke: #047;stroke-miterlimit: 10;stroke-width: 5px"/>
  <circle cx="687.45" cy="353.03" r="17.43" style="fill: #fff;stroke: #047;stroke-miterlimit: 10;stroke-width: 5px"/>
  <circle cx="742.97" cy="353.03" r="17.43" style="fill: #fff;stroke: #047;stroke-miterlimit: 10;stroke-width: 5px"/>
  <circle cx="631.93" cy="408.55" r="17.43" style="fill: #fff;stroke: #047;stroke-miterlimit: 10;stroke-width: 5px"/>
  <circle cx="687.45" cy="408.55" r="17.43" style="fill: #fff;stroke: #047;stroke-miterlimit: 10;stroke-width: 5px"/>
  <circle cx="742.97" cy="408.55" r="17.43" style="fill: #fff;stroke: #047;stroke-miterlimit: 10;stroke-width: 5px"/>
  <circle cx="631.93" cy="464.07" r="17.43" style="fill: #fff;stroke: #047;stroke-miterlimit: 10;stroke-width: 5px"/>
  <circle cx="687.45" cy="464.07" r="17.43" style="fill: #fff;stroke: #047;stroke-miterlimit: 10;stroke-width: 5px"/>
  <circle cx="742.97" cy="464.07" r="17.43" style="fill: #fff;stroke: #047;stroke-miterlimit: 10;stroke-width: 5px"/>
  <circle cx="798.48" cy="353.03" r="17.43" style="fill: #fff;stroke: #047;stroke-miterlimit: 10;stroke-width: 5px"/>
  <circle cx="854" cy="353.03" r="17.43" style="fill: #fff;stroke: #047;stroke-miterlimit: 10;stroke-width: 5px"/>
  <circle cx="909.52" cy="353.03" r="17.43" style="fill: #fff;stroke: #047;stroke-miterlimit: 10;stroke-width: 5px"/>
  <circle cx="798.48" cy="408.55" r="17.43" style="fill: #fff;stroke: #047;stroke-miterlimit: 10;stroke-width: 5px"/>
  <circle cx="854" cy="408.55" r="17.43" style="fill: #fff;stroke: #047;stroke-miterlimit: 10;stroke-width: 5px"/>
  <circle cx="909.52" cy="408.55" r="17.43" style="fill: #fff;stroke: #047;stroke-miterlimit: 10;stroke-width: 5px"/>
  <circle cx="798.48" cy="464.07" r="17.43" style="fill: #fff;stroke: #047;stroke-miterlimit: 10;stroke-width: 5px"/>
  <circle cx="854" cy="464.07" r="17.43" style="fill: #fff;stroke: #047;stroke-miterlimit: 10;stroke-width: 5px"/>
  <circle cx="909.52" cy="464.07" r="17.43" style="fill: #fff;stroke: #047;stroke-miterlimit: 10;stroke-width: 5px"/>
  <circle cx="965.03" cy="353.03" r="17.43" style="fill: #fff;stroke: #047;stroke-miterlimit: 10;stroke-width: 5px"/>
  <circle cx="1020.55" cy="353.03" r="17.43" style="fill: #fff;stroke: #047;stroke-miterlimit: 10;stroke-width: 5px"/>
  <circle cx="1076.07" cy="353.03" r="17.43" style="fill: #fff;stroke: #047;stroke-miterlimit: 10;stroke-width: 5px"/>
  <circle cx="965.03" cy="408.55" r="17.43" style="fill: #fff;stroke: #047;stroke-miterlimit: 10;stroke-width: 5px"/>
  <circle cx="1020.55" cy="408.55" r="17.43" style="fill: #fff;stroke: #047;stroke-miterlimit: 10;stroke-width: 5px"/>
  <circle cx="1076.07" cy="408.55" r="17.43" style="fill: #fff;stroke: #047;stroke-miterlimit: 10;stroke-width: 5px"/>
  <circle cx="965.03" cy="464.07" r="17.43" style="fill: #fff;stroke: #047;stroke-miterlimit: 10;stroke-width: 5px"/>
  <circle cx="1020.55" cy="464.07" r="17.43" style="fill: #fff;stroke: #047;stroke-miterlimit: 10;stroke-width: 5px"/>
  <circle cx="1076.07" cy="464.07" r="17.43" style="fill: #fff;stroke: #047;stroke-miterlimit: 10;stroke-width: 5px"/>
</svg>
