<svg xmlns="http://www.w3.org/2000/svg" width="8.5mm" height="48mm" viewBox="0 0 24 136">
  <defs>
    <style>
      .a {
        fill: gray;
      }

      .b {
        fill: #fff;
      }
    </style>
  </defs>
  <title>RM-Close-24x24</title>
  <path class="a" d="M19.3,44H6.3a2,2,0,0,1-2-2V40l2,2h12a0.9,0.9,0,0,0,1-1V27a0.9,0.9,0,0,0-1-1H6.3l-2,2V26a2,2,0,0,1,2-2h13a2,2,0,0,1,2,2V42A2,2,0,0,1,19.3,44Zm-6-9H5.7l4.2,4.2L8.5,40.7,1.9,34l6.4-6.6,1.5,1.5L5.7,33h7.6v2Z"/>
  <path class="b" d="M19.5,112H6.5a2,2,0,0,1-2-2v-2l2,2h12a0.9,0.9,0,0,0,1-1V95a0.9,0.9,0,0,0-1-1H6.5l-2,2V94a2,2,0,0,1,2-2h13a2,2,0,0,1,2,2v16A2,2,0,0,1,19.5,112Zm-6-9H5.9l4.2,4.2-1.4,1.5L2.1,102l6.4-6.6L10,96.9,5.9,101h7.6v2Z"/>
</svg>
