<?xml version="1.0" encoding="utf-8"?>
<!-- Generator: Adobe Illustrator 21.1.0, SVG Export Plug-In . SVG Version: 6.00 Build 0)  -->
<svg version="1.1" id="Layer_1" xmlns="http://www.w3.org/2000/svg" xmlns:xlink="http://www.w3.org/1999/xlink" x="0px" y="0px"
	 viewBox="0 0 24.1 136.1" style="enable-background:new 0 0 24.1 136.1;" xml:space="preserve">
<style type="text/css">
	.st0{fill:#808080;}
	.st1{fill:#FFFFFF;}
</style>
<title>RM-Close-24x24</title>
<g>
	<path class="st0" d="M17.1,35.9V42c0,0.1,0,0.1,0,0.2c-0.1,0.5-0.5,0.8-1,0.8H8c-0.1,0-0.1,0-0.2,0C7.3,43,7,42.5,7,42v-6l-2,2v5
		c0,1.1,0.9,2,2,2h10c1.1,0,2-0.9,2-2v-5.1L17.1,35.9z"/>
</g>
<polygon class="st0" points="3.9,37.1 2.4,35.7 12.1,26.1 21.7,35.5 20.2,37 12,28.9 "/>
<g>
	<path class="st1" d="M17.1,103.9v6.1c0,0.1,0,0.1,0,0.2c-0.1,0.5-0.5,0.8-1,0.8H8c-0.1,0-0.1,0-0.2,0c-0.5-0.1-0.8-0.5-0.8-1v-6
		l-2,2v5c0,1.1,0.9,2,2,2h10c1.1,0,2-0.9,2-2v-5.1L17.1,103.9z"/>
</g>
<polygon class="st1" points="3.9,105.2 2.4,103.8 12.1,94.2 21.7,103.6 20.2,105.1 12,97 "/>
</svg>
