<svg xmlns="http://www.w3.org/2000/svg" viewBox="0 0 3234.05 1416"><defs><style>.a,.g{fill:none;}.a,.c{stroke:#004775;}.a,.c,.f,.g{stroke-width:18px;}.b{fill:lime;}.c,.d,.f{fill:#004775;}.c,.f{stroke-miterlimit:10;}.e{fill:#fff;}.f,.g{stroke:#fff;}</style></defs><title>image-formats-decimal-counting-26</title><path class="a" d="M2963,466.56a271.83,271.83,0,0,1,31.21,17.81"/><path class="a" d="M3103.62,550.67v-119A54.83,54.83,0,0,0,3048.94,377h0a54.85,54.85,0,0,0-54.68,54.68v240a54.85,54.85,0,0,0,54.68,54.68h0c27.38,0,48.22-17.39,52.1-43.73"/><rect class="a" x="2853.69" y="336.04" width="109.36" height="409.96" rx="54.68" ry="54.68"/><path class="a" d="M2128.24,38.93a54.56,54.56,0,0,1,54.68,54.44v345q5.92-.42,11.87-.6,9.69.13,19.34.95V128.07a54.68,54.68,0,1,1,109.36,0V469.83a270.86,270.86,0,0,1,31.21,19.76V235.93a54.68,54.68,0,1,1,109.36,0V697.47c-.07,7.95.16,11.12-.63,18.5-14.71,138.76-125.88,248.3-268.64,248.47-79.67-.1-149-42.28-206.32-94.39s-254.89-279.67-254.89-279.67a66.38,66.38,0,1,1,96.1-91.6c.69.72,1.36,1.46,2,2.22L1933,612.07V163.92a54.68,54.68,0,1,1,109.36,0v320.5a271.83,271.83,0,0,1,31.21-17.81V93.61A54.56,54.56,0,0,1,2128,38.93h.23Z"/><path class="a" d="M2822.47,438.76q9.65-.81,19.33-.95,5.94.18,11.87.6"/><path class="a" d="M3121.63,693.15l-63.05-29.26c-33.93-15.76-50.16-53.5-36-83.88h0c14.1-30.38,53.4-42.35,87.33-26.59,0,0,28.8,15.3,63,33.26,37.06,19.44,50.17,64.5,12.89,116.26-14.53,20.16-80.35,115-137.68,167.11s-126.65,94.29-206.32,94.39C2699,964.27,2587.87,854.73,2573.16,716c-.79-7.38-.56-10.55-.63-18.5V235.93a54.68,54.68,0,0,1,109.36,0V489.59a270.86,270.86,0,0,1,31.21-19.76"/><path d="M810.12,1364.16h131v31.6H765v-31.6q21.38-22.12,58.18-59.3,37-37.36,46.47-48.15,18-20.25,25.1-34.2,7.25-14.13,7.24-27.69,0-22.12-15.61-36.07-15.43-13.93-40.34-13.94a125.78,125.78,0,0,0-37.36,6.14q-19.51,6.13-41.82,18.58v-37.92a298.49,298.49,0,0,1,42.38-13.75,158.28,158.28,0,0,1,36.06-4.65q43.13,0,68.78,21.56t25.65,57.63a82.78,82.78,0,0,1-6.51,32.53Q926.91,1240.17,910,1261q-4.65,5.38-29.56,31.23Q855.48,1317.87,810.12,1364.16Z"/><path class="b" d="M794.77,1350.15h131v31.6H749.6v-31.6q21.38-22.12,58.18-59.3,37-37.35,46.47-48.14,18-20.26,25.09-34.2,7.26-14.13,7.25-27.7,0-22.12-15.61-36.06-15.43-13.95-40.34-13.94a125.77,125.77,0,0,0-37.36,6.13q-19.51,6.13-41.83,18.59v-37.92a299.07,299.07,0,0,1,42.39-13.76,158.83,158.83,0,0,1,36.06-4.64q43.13,0,68.78,21.56t25.65,57.62a82.78,82.78,0,0,1-6.51,32.53q-6.32,15.25-23.23,36.07-4.65,5.38-29.56,31.22Q840.12,1303.88,794.77,1350.15Z"/><rect class="a" x="2713.1" y="344.11" width="109.36" height="390.36" rx="54.68" ry="54.68"/><path class="c" d="M784.06,565.93V697.47c-.07,7.95.16,11.12-.63,18.5-14.71,138.76-125.88,248.3-268.64,248.47-79.67-.1-149-42.28-206.32-94.39S53.58,590.38,53.58,590.38a66.38,66.38,0,0,1,96.11-91.59c.69.72,1.36,1.46,2,2.21L253,612.07V163.92a54.68,54.68,0,1,1,109.36,0v320.5"/><path class="c" d="M1342.53,580h0c14.1-30.38,53.4-42.35,87.33-26.59,0,0,28.8,15.3,63.05,33.26,37.06,19.44,50.17,64.5,12.89,116.26-14.53,20.16-80.35,115-137.68,167.11s-126.65,94.29-206.32,94.39C1019,964.27,907.87,854.73,893.16,716c-.79-7.38-.56-10.55-.63-18.5V565.93"/><ellipse class="c" cx="515.01" cy="650.83" rx="245.51" ry="212.17"/><ellipse class="c" cx="1165.01" cy="650.83" rx="245.51" ry="212.17"/><path d="M2519.94,1235.67a48.42,48.42,0,0,0-38.78,16.73,80.67,80.67,0,0,0,0,91.91,48.42,48.42,0,0,0,38.78,16.73,47.82,47.82,0,0,0,38.52-16.73,79.78,79.78,0,0,0,0-91.91A47.82,47.82,0,0,0,2519.94,1235.67Zm72-113.42v33a151.33,151.33,0,0,0-27.57-9.83,113,113,0,0,0-27.58-3.4,65.61,65.61,0,0,0-55.14,24.26c-12.6,16.09-19.77,40.54-21.6,73.54a71.59,71.59,0,0,1,26.56-23.81,73.47,73.47,0,0,1,35.2-8.46,83.64,83.64,0,0,1,63.7,24.55,91.9,91.9,0,0,1,23.53,66.63,90.61,90.61,0,0,1-24.36,66.27,86.71,86.71,0,0,1-65,24.91,81.16,81.16,0,0,1-71.14-35.57q-24.54-35.65-24.54-103.4c0-42.28,10-76.11,30.14-101.11a98,98,0,0,1,81-37.87,146.72,146.72,0,0,1,27.58,2.67,204.14,204.14,0,0,1,29.13,8.09Z"/><path class="b" d="M2510.41,1221.33a48.51,48.51,0,0,0-38.78,16.63,81.07,81.07,0,0,0,0,91.92,48.63,48.63,0,0,0,38.78,16.73,48.08,48.08,0,0,0,38.61-16.73,80.27,80.27,0,0,0,0-91.92A48,48,0,0,0,2510.41,1221.33Zm72-113.7v33.09a144.47,144.47,0,0,0-27.57-9.93,117.59,117.59,0,0,0-27.58-3.4,65.59,65.59,0,0,0-55.14,24.27c-12.6,16.17-19.77,40.53-21.6,73.53a71,71,0,0,1,26.56-23.9,74.6,74.6,0,0,1,35.2-8.46,83.38,83.38,0,0,1,63.7,24.64,91.86,91.86,0,0,1,23.53,66.54,90.61,90.61,0,0,1-24.36,66.27,86.82,86.82,0,0,1-65,25,81.14,81.14,0,0,1-71.14-35.57q-24.54-35.65-24.54-103.4,0-63.51,30.14-101.11a98.11,98.11,0,0,1,81-37.87,146.72,146.72,0,0,1,27.58,2.67,202.83,202.83,0,0,1,29.13,8.09Z"/><rect class="d" x="380.61" y="327.1" width="131.26" height="427.96" rx="63.68" ry="63.68"/><path class="e" d="M448.19,336.1a54.85,54.85,0,0,1,54.68,54.68v300.6a54.85,54.85,0,0,1-54.68,54.68h-3.9a54.83,54.83,0,0,1-54.68-54.68V390.78a54.85,54.85,0,0,1,54.68-54.68h3.9m0-18h-3.9a72.76,72.76,0,0,0-72.68,72.68v300.6a72.76,72.76,0,0,0,72.68,72.68h3.9a72.76,72.76,0,0,0,72.68-72.68V390.78A72.77,72.77,0,0,0,448.19,318.1Z"/><path class="d" d="M588.78,743.54a63.76,63.76,0,0,1-63.68-63.68v-281a63.68,63.68,0,0,1,127.36,0v281A63.76,63.76,0,0,1,588.78,743.54Z"/><path class="e" d="M588.78,344.18a54.85,54.85,0,0,1,54.68,54.68v281a54.85,54.85,0,0,1-54.68,54.68h0a54.85,54.85,0,0,1-54.68-54.68v-281a54.83,54.83,0,0,1,54.68-54.68h0m0-18a72.76,72.76,0,0,0-72.68,72.68v281a72.68,72.68,0,0,0,145.36,0v-281A72.76,72.76,0,0,0,588.78,326.18Z"/><path class="d" d="M729.37,724.07a63.76,63.76,0,0,1-63.68-63.68V471.61a63.68,63.68,0,0,1,127.36-.06V660.39A63.76,63.76,0,0,1,729.37,724.07Z"/><path class="e" d="M729.37,416.93a54.85,54.85,0,0,1,54.68,54.68V660.39a54.85,54.85,0,0,1-54.68,54.68h0a54.85,54.85,0,0,1-54.68-54.68V471.61a54.85,54.85,0,0,1,54.68-54.68h0m0-18a72.76,72.76,0,0,0-72.68,72.68V660.39a72.68,72.68,0,0,0,145.36,0V471.61A72.76,72.76,0,0,0,729.37,398.93Z"/><path class="f" d="M1421,557V431c0-30.08-25.12-53.68-58.43-53.68h0c-33.31,0-60.57,24.6-60.57,54.68V672c0,30.07,27.26,54.68,60.57,54.68h0c30.32,0,53.41-17.39,57.7-43.73"/><path class="d" d="M1228.37,755a63.76,63.76,0,0,1-63.68-63.68V390.72a63.68,63.68,0,0,1,127.36,0v300.6A63.76,63.76,0,0,1,1228.37,755Z"/><path class="e" d="M1228.37,336a54.85,54.85,0,0,1,54.68,54.68v300.6A54.84,54.84,0,0,1,1228.37,746h0a54.85,54.85,0,0,1-54.68-54.68V390.72A54.84,54.84,0,0,1,1228.37,336h0m0-18a72.76,72.76,0,0,0-72.68,72.68v300.6a72.68,72.68,0,0,0,145.36,0V390.72A72.75,72.75,0,0,0,1228.37,318Z"/><path class="d" d="M1087.78,743.47a63.76,63.76,0,0,1-63.68-63.68v-281a63.68,63.68,0,0,1,127.36-.06V679.79A63.73,63.73,0,0,1,1087.78,743.47Z"/><path class="e" d="M1087.78,344.12a54.83,54.83,0,0,1,54.68,54.68v281a54.83,54.83,0,0,1-54.68,54.68h0a54.85,54.85,0,0,1-54.68-54.68v-281a54.85,54.85,0,0,1,54.68-54.68h0m0-18a72.76,72.76,0,0,0-72.68,72.68v281a72.68,72.68,0,0,0,145.36,0v-281A72.76,72.76,0,0,0,1087.78,326.12Z"/><path class="d" d="M947.19,724a63.73,63.73,0,0,1-63.68-63.68V471.55a63.68,63.68,0,0,1,127.36-.06V660.32A63.76,63.76,0,0,1,947.19,724Z"/><path class="e" d="M947.19,416.87a54.85,54.85,0,0,1,54.68,54.68V660.32A54.85,54.85,0,0,1,947.19,715h0a54.83,54.83,0,0,1-54.68-54.68V471.55a54.85,54.85,0,0,1,54.68-54.68h0m0-18a72.76,72.76,0,0,0-72.68,72.68V660.32a72.68,72.68,0,1,0,145.36.06V471.55A72.76,72.76,0,0,0,947.19,398.87Z"/><path class="g" d="M1441.63,693.15l-63.05-29.26c-33.93-15.76-50.16-53.5-36-83.88h0c12-25.89,42.34-38.41,72-31.79"/></svg>