<svg xmlns="http://www.w3.org/2000/svg" viewBox="0 0 1546.05 1000"><defs><style>.a,.b{fill:none;stroke:#004775;}.a{stroke-width:7px;}.b{stroke-width:10px;}.c{fill:lime;}</style></defs><title>image-formats-decimal-counting-7</title><path class="a" d="M1275,466.56a271.83,271.83,0,0,1,31.21,17.81"/><path class="b" d="M1415.62,550.67v-119A54.83,54.83,0,0,0,1360.94,377h0a54.85,54.85,0,0,0-54.68,54.68v240a54.85,54.85,0,0,0,54.68,54.68h0c27.38,0,48.22-17.39,52.1-43.73"/><path class="b" d="M1220.37,746h0a54.68,54.68,0,0,1-54.68-54.68V390.72A54.68,54.68,0,0,1,1220.37,336h0a54.68,54.68,0,0,1,54.68,54.68v300.6A54.68,54.68,0,0,1,1220.37,746Z"/><path class="b" d="M440.24,38.93a54.56,54.56,0,0,1,54.68,54.44v345q5.93-.42,11.87-.6,9.69.13,19.34.95V128.07a54.68,54.68,0,1,1,109.36,0V469.83a270.86,270.86,0,0,1,31.21,19.76V235.93a54.68,54.68,0,0,1,109.36,0V697.47c-.07,7.95.16,11.12-.63,18.5-14.71,138.76-125.88,248.3-268.64,248.47-79.67-.1-149-42.28-206.32-94.39S45.58,590.38,45.58,590.38a66.38,66.38,0,0,1,96.11-91.59c.69.72,1.36,1.46,2,2.21L245,612.07V163.92a54.68,54.68,0,1,1,109.36,0v320.5a271.83,271.83,0,0,1,31.21-17.81V93.61A54.56,54.56,0,0,1,440,38.93h.23Z"/><path class="b" d="M1433.63,693.15l-63.05-29.26c-33.93-15.76-50.16-53.5-36-83.88h0c14.1-30.38,53.4-42.35,87.33-26.59,0,0,28.8,15.3,63,33.26,37.06,19.44,50.17,64.5,12.89,116.26-14.53,20.16-80.35,115-137.68,167.11s-126.65,94.29-206.32,94.39C1011,964.27,899.87,854.73,885.16,716c-.79-7.38-.56-10.55-.63-18.5V235.93a54.68,54.68,0,1,1,109.36-.05V489.59a270.86,270.86,0,0,1,31.21-19.76V128.07a54.69,54.69,0,0,1,109.37-1.48c0,.49,0,1,0,1.48V438.76q9.65-.81,19.33-.95,5.94.18,11.87.6"/><path d="M96.36,572.09h8.55V542.56l-9.29,1.87v-4.77l9.29-1.86h5.31v34.29h8.55v4.41H96.36Z"/><path class="c" d="M94,568.55h8.55V539l-9.29,1.87v-4.76l9.29-1.87h5.24v34.29h8.55V573H94Z"/><path d="M294.49,211.24h18.28v4.41H288.19v-4.41q3-3.08,8.12-8.28c3.44-3.46,5.6-5.71,6.48-6.7a24.87,24.87,0,0,0,3.5-4.78,8.53,8.53,0,0,0,1-3.86,6.43,6.43,0,0,0-2.18-5,8.08,8.08,0,0,0-5.62-1.94,17.39,17.39,0,0,0-5.22.85,31.25,31.25,0,0,0-5.83,2.65v-5.31a42,42,0,0,1,5.91-1.91,21.81,21.81,0,0,1,5-.65,14.46,14.46,0,0,1,9.6,3,10,10,0,0,1,3.57,8,11.76,11.76,0,0,1-.91,4.54,21.51,21.51,0,0,1-3.24,5c-.43.5-1.8,2-4.12,4.36Z"/><path class="c" d="M292.05,207.7h18.32v4.41H285.79V207.7q3-3.09,8.12-8.27t6.48-6.71a25.12,25.12,0,0,0,3.5-4.77,8.53,8.53,0,0,0,1-3.86,6.43,6.43,0,0,0-2.18-5,8.07,8.07,0,0,0-5.62-1.95,17.51,17.51,0,0,0-5.22.86,32,32,0,0,0-5.83,2.66v-5.31a42.41,42.41,0,0,1,5.91-1.91,21.35,21.35,0,0,1,5-.65,14.43,14.43,0,0,1,9.66,3,9.92,9.92,0,0,1,3.57,8,11.25,11.25,0,0,1-.9,4.54,21.51,21.51,0,0,1-3.24,5c-.44.5-1.8,1.95-4.12,4.35S296.31,203.4,292.05,207.7Z"/><path d="M445,125.59a10.15,10.15,0,0,1,5.83,3.39,9.38,9.38,0,0,1,2.07,6.29,10.7,10.7,0,0,1-4.05,8.84c-2.67,2.06-6.39,3.08-11.22,3a25.72,25.72,0,0,1-5-.53,35,35,0,0,1-5.3-1.46l0-5a18.61,18.61,0,0,0,4.76,1.94,22,22,0,0,0,5.41.7,12.44,12.44,0,0,0,7.52-1.88,6.65,6.65,0,0,0,2.63-5.64,6.46,6.46,0,0,0-2.37-5.32,10.29,10.29,0,0,0-6.62-2l-4.46,0,0-4.3,4.72,0a9.72,9.72,0,0,0,5.92-1.5,5.91,5.91,0,0,0,0-9,9.68,9.68,0,0,0-6-1.65,23.76,23.76,0,0,0-4.61.43,42.56,42.56,0,0,0-5.44,1.4l0-4.66a53.47,53.47,0,0,1,5.59-1.2,31.29,31.29,0,0,1,4.93-.37,14.91,14.91,0,0,1,9.41,2.72,8.76,8.76,0,0,1,3.42,7.34,8.25,8.25,0,0,1-1.89,5.43A9.67,9.67,0,0,1,445,125.59Z"/><path class="c" d="M442.59,122a10.15,10.15,0,0,1,5.83,3.39,9.47,9.47,0,0,1,2.08,6.3,10.58,10.58,0,0,1-4.05,8.83c-2.67,2.08-6.38,3.09-11.22,3.05a27.44,27.44,0,0,1-5-.53,36.17,36.17,0,0,1-5.3-1.46l0-5.06a17.75,17.75,0,0,0,4.75,2,22,22,0,0,0,5.41.69,12.32,12.32,0,0,0,7.52-1.88,6.64,6.64,0,0,0,2.63-5.63,6.46,6.46,0,0,0-2.38-5.33,10.19,10.19,0,0,0-6.62-2l-4.5,0,0-4.3,4.76,0a9.79,9.79,0,0,0,5.92-1.48,5.91,5.91,0,0,0,0-9,9.76,9.76,0,0,0-6-1.65,25.4,25.4,0,0,0-4.6.43,40.5,40.5,0,0,0-5.43,1.42l0-4.68a52.56,52.56,0,0,1,5.57-1.2,31.33,31.33,0,0,1,4.94-.37,14.84,14.84,0,0,1,9.4,2.79,8.75,8.75,0,0,1,3.42,7.34A8.3,8.3,0,0,1,447.9,119a9.7,9.7,0,0,1-5.27,3Z"/><path d="M585.15,141.31,571.88,162h13.27Zm-1.33-4.57h6.64V162H596v4.36h-5.52v9.11h-5.2v-9.1H567.67v-5.06Z"/><path class="c" d="M582.75,137.73l-13.27,20.65h13.27Zm-1.32-4.57h6.63v25.22h5.52v4.36h-5.52v9.13h-5.2v-9.13H565.27v-5.06Z"/><path d="M712,245.25h20.56v4.4H716.79v9.49a14.91,14.91,0,0,1,2.28-.57,13.3,13.3,0,0,1,2.27-.2,14.45,14.45,0,0,1,10.28,3.55,12.55,12.55,0,0,1,3.78,9.69,12.34,12.34,0,0,1-3.89,9.71c-2.66,2.3-6.25,3.45-11,3.45a30.7,30.7,0,0,1-5-.41,38.87,38.87,0,0,1-5.22-1.25V277.8a20.63,20.63,0,0,0,4.83,1.89,22.09,22.09,0,0,0,5.31.62,10.14,10.14,0,0,0,7.1-2.36,9.15,9.15,0,0,0,0-12.81,10.23,10.23,0,0,0-7.1-2.35,19,19,0,0,0-4.19.47A22,22,0,0,0,712,264.7Z"/><path class="c" d="M709.59,241.72h20.56v4.41H714.39v9.49a12.89,12.89,0,0,1,2.28-.57,11.77,11.77,0,0,1,2.29-.22,14.41,14.41,0,0,1,10.26,3.56A12.54,12.54,0,0,1,733,268a12.38,12.38,0,0,1-3.89,9.73q-3.89,3.45-11,3.44a30.8,30.8,0,0,1-5-.42,39.2,39.2,0,0,1-5.22-1.24V274.2a20.5,20.5,0,0,0,4.84,1.88,21.06,21.06,0,0,0,5.3.63,10.27,10.27,0,0,0,7.11-2.35,9.13,9.13,0,0,0,0-12.81,10.17,10.17,0,0,0-7.11-2.36,19.7,19.7,0,0,0-4.19.46,22.33,22.33,0,0,0-4.26,1.46Z"/><path d="M940.93,263.08a7,7,0,0,0-5.6,2.42,11.67,11.67,0,0,0,0,13.27,7,7,0,0,0,5.6,2.42,7,7,0,0,0,5.57-2.42,11.53,11.53,0,0,0,0-13.27A7,7,0,0,0,940.93,263.08Zm10.4-16.38v4.77a21.69,21.69,0,0,0-4-1.42,16.27,16.27,0,0,0-4-.49,9.48,9.48,0,0,0-8,3.5c-1.82,2.33-2.85,5.86-3.12,10.62a10.42,10.42,0,0,1,3.84-3.44A10.67,10.67,0,0,1,941.2,259a12.07,12.07,0,0,1,9.2,3.55,13.28,13.28,0,0,1,3.4,9.62,13.14,13.14,0,0,1-3.52,9.57,12.52,12.52,0,0,1-9.39,3.59,11.7,11.7,0,0,1-10.27-5.13q-3.54-5.14-3.54-14.93c0-6.11,1.44-11,4.35-14.6a14.13,14.13,0,0,1,11.69-5.47,21.4,21.4,0,0,1,4,.38,30.39,30.39,0,0,1,4.2,1.17Z"/><path class="c" d="M938.54,259.56a7,7,0,0,0-5.6,2.4,11.7,11.7,0,0,0,0,13.27,7.65,7.65,0,0,0,11.17,0,11.57,11.57,0,0,0,0-13.27A6.9,6.9,0,0,0,938.54,259.56Zm10.39-16.42v4.78a21.76,21.76,0,0,0-4-1.44,17.27,17.27,0,0,0-4-.49,9.49,9.49,0,0,0-8,3.51c-1.82,2.33-2.85,5.85-3.12,10.61a10.45,10.45,0,0,1,3.84-3.45,10.94,10.94,0,0,1,5.08-1.22A12.06,12.06,0,0,1,948,259a13.26,13.26,0,0,1,3.4,9.61,13.08,13.08,0,0,1-3.52,9.57,12.53,12.53,0,0,1-9.38,3.61,11.73,11.73,0,0,1-10.28-5.14q-3.54-5.14-3.54-14.93,0-9.17,4.35-14.6a14.18,14.18,0,0,1,11.7-5.47,20.5,20.5,0,0,1,4,.39,28.28,28.28,0,0,1,4.21,1.17Z"/><path d="M1068,134.94h24.86v2.23l-14.05,36.47h-5.47l13.27-34.29h-18.58Z"/><path class="c" d="M1065.63,131.4h24.88v2.23l-14,36.47H1071l13.27-34.29h-18.58Z"/></svg>