<svg xmlns="http://www.w3.org/2000/svg" viewBox="0 0 1118 768">
  <title>sequence</title>
  <g>
    <path d="M378.12,89.56h6.28V65.47L377.54,67V63.1l6.82-1.53h3.85v28h6.28v3.6H378.12Z"/>
    <path d="M377.48,679h15.11v3.59H381v7.75a11,11,0,0,1,1.69-.48,9.38,9.38,0,0,1,1.68-.16,10,10,0,0,1,7.54,2.9,10.88,10.88,0,0,1,2.78,7.85q0,5.1-2.85,7.93t-8.06,2.82a19.84,19.84,0,0,1-3.65-.34,27.33,27.33,0,0,1-3.84-1v-4.3a13.79,13.79,0,0,0,3.54,1.54,14.33,14.33,0,0,0,3.86.51,7.16,7.16,0,1,0,0-14.3,12.92,12.92,0,0,0-3.08.38,14.51,14.51,0,0,0-3.12,1.19Z"/>
    <path d="M164.57,167.33a6.77,6.77,0,0,1-3.85-2.56,7.53,7.53,0,0,1-1.38-4.59,7.69,7.69,0,0,1,2.43-6,11.17,11.17,0,0,1,13.31,0,7.72,7.72,0,0,1,2.42,6,7.53,7.53,0,0,1-1.38,4.59,6.79,6.79,0,0,1-3.83,2.56,7.56,7.56,0,0,1,4.33,2.82,8.37,8.37,0,0,1,1.55,5.12q0,4.59-2.53,7t-7.22,2.46q-4.69,0-7.23-2.46t-2.52-7a8.31,8.31,0,0,1,1.56-5.12A7.59,7.59,0,0,1,164.57,167.33Zm3.85,1.82a5.75,5.75,0,0,0-4.32,1.63,7.23,7.23,0,0,0,0,9,6.54,6.54,0,0,0,8.65,0,7.18,7.18,0,0,0,0-9A5.78,5.78,0,0,0,168.42,169.15Zm-5.25-8.57a4.79,4.79,0,0,0,5.25,5.21,5.26,5.26,0,0,0,3.87-1.38,5.94,5.94,0,0,0,0-7.66,5.3,5.3,0,0,0-3.87-1.37,5.24,5.24,0,0,0-3.87,1.37A5.18,5.18,0,0,0,163.17,160.58Z"/>
    <path d="M599.53,180.56h13.41v3.59h-18v-3.59q2.18-2.52,6-6.76c2.53-2.83,4.11-4.65,4.76-5.47a19.54,19.54,0,0,0,2.57-3.91,7.44,7.44,0,0,0,.73-3.14,5.53,5.53,0,0,0-1.58-4.1,5.61,5.61,0,0,0-4.15-1.59,11.51,11.51,0,0,0-3.81.7,21.68,21.68,0,0,0-4.29,2.11v-4.31a29.69,29.69,0,0,1,4.34-1.57,14.85,14.85,0,0,1,3.7-.53,9.89,9.89,0,0,1,7,2.46A8.54,8.54,0,0,1,612.8,161a10.32,10.32,0,0,1-.66,3.69,18.16,18.16,0,0,1-2.39,4.11q-.5.62-3,3.55Z"/>
    <path d="M176.52,590.36v3.9a14.14,14.14,0,0,0-2.92-1.17,11.41,11.41,0,0,0-2.92-.4,6.66,6.66,0,0,0-5.82,2.86q-2,2.85-2.28,8.63a8,8,0,0,1,2.81-2.82,7.25,7.25,0,0,1,3.73-1,8.47,8.47,0,0,1,6.78,2.89c1.66,1.92,2.48,4.54,2.48,7.86a11.38,11.38,0,0,1-2.59,7.81,8.76,8.76,0,0,1-6.91,2.94,8.35,8.35,0,0,1-7.53-4.2q-2.59-4.2-2.6-12.18,0-7.49,3.2-11.94a10,10,0,0,1,8.59-4.46,14.11,14.11,0,0,1,2.92.32A19.36,19.36,0,0,1,176.52,590.36Zm-7.64,13.4a4.89,4.89,0,0,0-4.09,2,10.37,10.37,0,0,0,0,10.78,5.25,5.25,0,0,0,8.21,0,10.37,10.37,0,0,0,0-10.78A4.92,4.92,0,0,0,168.88,603.76Z"/>
    <path d="M605.77,589.67h4.85v20.58h4v3.56h-4v7.44h-3.83v-7.44H593.94v-4.13Zm1,3.72-9.71,16.86h9.71Z"/>
    <path d="M70.39,370.3H88.67v1.82L78.34,401.89h-4l9.69-28H70.39Z"/>
    <path d="M698.86,384.86a7.35,7.35,0,0,1,4.31,2.73,8.33,8.33,0,0,1,1.55,5.12,9.12,9.12,0,0,1-2.89,7.23q-2.88,2.56-8.22,2.56a18.24,18.24,0,0,1-3.69-.39,25,25,0,0,1-3.92-1.17v-4.13a12.64,12.64,0,0,0,3.51,1.57,14.88,14.88,0,0,0,4,.53,8.38,8.38,0,0,0,5.51-1.59,5.68,5.68,0,0,0,1.89-4.61,5.58,5.58,0,0,0-1.76-4.37,7.08,7.08,0,0,0-4.9-1.58h-3.31v-3.51h3.45a6.64,6.64,0,0,0,4.35-1.26,4.45,4.45,0,0,0,1.51-3.63,4.58,4.58,0,0,0-1.55-3.73,6.75,6.75,0,0,0-4.45-1.3,16,16,0,0,0-3.39.38,29.46,29.46,0,0,0-4,1.18v-3.81a34.82,34.82,0,0,1,4.1-1,20.3,20.3,0,0,1,3.6-.34,10.27,10.27,0,0,1,6.94,2.21,7.5,7.5,0,0,1,2.56,6,7.18,7.18,0,0,1-1.35,4.43A7,7,0,0,1,698.86,384.86Z"/>
  </g>
  <circle cx="384" cy="76.27" r="65.27" style="fill: none;stroke: #004775;stroke-miterlimit: 10;stroke-width: 7px"/>
  <circle cx="384" cy="693.73" r="65.27" style="fill: none;stroke: #004775;stroke-miterlimit: 10;stroke-width: 7px"/>
  <circle cx="602.31" cy="166.69" r="65.27" style="fill: none;stroke: #004775;stroke-miterlimit: 10;stroke-width: 7px"/>
  <circle cx="165.69" cy="603.31" r="65.27" style="fill: none;stroke: #004775;stroke-miterlimit: 10;stroke-width: 7px"/>
  <circle cx="602.31" cy="603.31" r="65.27" style="fill: none;stroke: #004775;stroke-miterlimit: 10;stroke-width: 7px"/>
  <circle cx="165.69" cy="166.69" r="65.27" style="fill: none;stroke: #004775;stroke-miterlimit: 10;stroke-width: 7px"/>
  <circle cx="692.73" cy="385" r="65.27" style="fill: none;stroke: #004775;stroke-miterlimit: 10;stroke-width: 7px"/>
  <circle cx="75.27" cy="385" r="65.27" style="fill: none;stroke: #004775;stroke-miterlimit: 10;stroke-width: 7px"/>
  <g>
    <path d="M376.12,86.56h6.28V62.47L375.54,64V60.1l6.82-1.53h3.85v28h6.28v3.6H376.12Z" style="fill: lime"/>
    <path d="M375.48,676h15.11v3.59H379v7.75a11,11,0,0,1,1.69-.48,9.38,9.38,0,0,1,1.68-.16,10,10,0,0,1,7.54,2.9,10.88,10.88,0,0,1,2.78,7.85q0,5.1-2.85,7.93t-8.06,2.82a19.84,19.84,0,0,1-3.65-.34,27.33,27.33,0,0,1-3.84-1v-4.3a13.79,13.79,0,0,0,3.54,1.54,14.33,14.33,0,0,0,3.86.51,7.16,7.16,0,1,0,0-14.3,12.92,12.92,0,0,0-3.08.38,14.51,14.51,0,0,0-3.12,1.19Z" style="fill: lime"/>
    <path d="M162.57,164.33a6.77,6.77,0,0,1-3.85-2.56,7.53,7.53,0,0,1-1.38-4.59,7.69,7.69,0,0,1,2.43-6,11.17,11.17,0,0,1,13.31,0,7.72,7.72,0,0,1,2.42,6,7.53,7.53,0,0,1-1.38,4.59,6.79,6.79,0,0,1-3.83,2.56,7.56,7.56,0,0,1,4.33,2.82,8.37,8.37,0,0,1,1.55,5.12q0,4.59-2.53,7t-7.22,2.46q-4.69,0-7.23-2.46t-2.52-7a8.31,8.31,0,0,1,1.56-5.12A7.59,7.59,0,0,1,162.57,164.33Zm3.85,1.82a5.75,5.75,0,0,0-4.32,1.63,7.23,7.23,0,0,0,0,9,6.54,6.54,0,0,0,8.65,0,7.18,7.18,0,0,0,0-9A5.78,5.78,0,0,0,166.42,166.15Zm-5.25-8.57a4.79,4.79,0,0,0,5.25,5.21,5.26,5.26,0,0,0,3.87-1.38,5.94,5.94,0,0,0,0-7.66,5.3,5.3,0,0,0-3.87-1.37,5.24,5.24,0,0,0-3.87,1.37A5.18,5.18,0,0,0,161.17,157.58Z" style="fill: lime"/>
    <path d="M597.53,177.56h13.41v3.59h-18v-3.59q2.18-2.52,6-6.76c2.53-2.83,4.11-4.65,4.76-5.47a19.54,19.54,0,0,0,2.57-3.91,7.44,7.44,0,0,0,.73-3.14,5.53,5.53,0,0,0-1.58-4.1,5.61,5.61,0,0,0-4.15-1.59,11.51,11.51,0,0,0-3.81.7,21.68,21.68,0,0,0-4.29,2.11v-4.31a29.69,29.69,0,0,1,4.34-1.57,14.85,14.85,0,0,1,3.7-.53,9.89,9.89,0,0,1,7,2.46A8.54,8.54,0,0,1,610.8,158a10.32,10.32,0,0,1-.66,3.69,18.16,18.16,0,0,1-2.39,4.11q-.5.62-3,3.55Z" style="fill: lime"/>
    <path d="M174.52,587.36v3.9a14.14,14.14,0,0,0-2.92-1.17,11.41,11.41,0,0,0-2.92-.4,6.66,6.66,0,0,0-5.82,2.86q-2,2.85-2.28,8.63a8,8,0,0,1,2.81-2.82,7.25,7.25,0,0,1,3.73-1,8.47,8.47,0,0,1,6.78,2.89c1.66,1.92,2.48,4.54,2.48,7.86a11.38,11.38,0,0,1-2.59,7.81,8.76,8.76,0,0,1-6.91,2.94,8.35,8.35,0,0,1-7.53-4.2q-2.59-4.2-2.6-12.18,0-7.49,3.2-11.94a10,10,0,0,1,8.59-4.46,14.11,14.11,0,0,1,2.92.32A19.36,19.36,0,0,1,174.52,587.36Zm-7.64,13.4a4.89,4.89,0,0,0-4.09,2,10.37,10.37,0,0,0,0,10.78,5.25,5.25,0,0,0,8.21,0,10.37,10.37,0,0,0,0-10.78A4.92,4.92,0,0,0,166.88,600.76Z" style="fill: lime"/>
    <path d="M603.77,586.67h4.85v20.58h4v3.56h-4v7.44h-3.83v-7.44H591.94v-4.13Zm1,3.72-9.71,16.86h9.71Z" style="fill: lime"/>
    <path d="M68.39,367.3H86.67v1.82L76.34,398.89h-4l9.69-28H68.39Z" style="fill: lime"/>
    <path d="M696.86,381.86a7.35,7.35,0,0,1,4.31,2.73,8.33,8.33,0,0,1,1.55,5.12,9.12,9.12,0,0,1-2.89,7.23q-2.88,2.56-8.22,2.56a18.24,18.24,0,0,1-3.69-.39,25,25,0,0,1-3.92-1.17v-4.13a12.64,12.64,0,0,0,3.51,1.57,14.88,14.88,0,0,0,4,.53,8.38,8.38,0,0,0,5.51-1.59,5.68,5.68,0,0,0,1.89-4.61,5.58,5.58,0,0,0-1.76-4.37,7.08,7.08,0,0,0-4.9-1.58h-3.31v-3.51h3.45a6.64,6.64,0,0,0,4.35-1.26,4.45,4.45,0,0,0,1.51-3.63,4.58,4.58,0,0,0-1.55-3.73,6.75,6.75,0,0,0-4.45-1.3,16,16,0,0,0-3.39.38,29.46,29.46,0,0,0-4,1.18v-3.81a34.82,34.82,0,0,1,4.1-1,20.3,20.3,0,0,1,3.6-.34,10.27,10.27,0,0,1,6.94,2.21,7.5,7.5,0,0,1,2.56,6,7.18,7.18,0,0,1-1.35,4.43A7,7,0,0,1,696.86,381.86Z" style="fill: lime"/>
  </g>
</svg>
