<?xml version="1.0" encoding="UTF-8" standalone="no"?>
<svg
   xmlns:dc="http://purl.org/dc/elements/1.1/"
   xmlns:cc="http://creativecommons.org/ns#"
   xmlns:rdf="http://www.w3.org/1999/02/22-rdf-syntax-ns#"
   xmlns:svg="http://www.w3.org/2000/svg"
   xmlns="http://www.w3.org/2000/svg"
   viewBox="0 0 1000 1000"
   version="1.1"
   id="svg56"
   width="1000"
   height="1000">
  <metadata
     id="metadata62">
    <rdf:RDF>
      <cc:Work
         rdf:about="">
        <dc:format>image/svg+xml</dc:format>
        <dc:type
           rdf:resource="http://purl.org/dc/dcmitype/StillImage" />
        <dc:title>sequence</dc:title>
      </cc:Work>
    </rdf:RDF>
  </metadata>
  <defs
     id="defs60" />
  <title
     id="title2">sequence</title>
  <g
     id="text4599-8"
     style="font-style:normal;font-weight:normal;font-size:40px;line-height:1.25;font-family:sans-serif;letter-spacing:0px;word-spacing:0px;fill:#000000;fill-opacity:1;stroke:none"
     aria-label="1">
    <path
       id="path4955"
       style="font-style:normal;font-variant:normal;font-weight:normal;font-stretch:normal;font-family:'DejaVu Sans';-inkscape-font-specification:'DejaVu Sans';fill:#000000"
       d="m 627.73773,437.49945 h 6.44531 v -22.24609 l -7.01171,1.40625 v -3.59375 l 6.97265,-1.40625 h 3.94531 v 25.83984 h 6.44532 v 3.32031 h -16.79688 z" />
  </g>
  <g
     id="text4599"
     style="font-style:normal;font-weight:normal;font-size:40px;line-height:1.25;font-family:sans-serif;letter-spacing:0px;word-spacing:0px;fill:#000000;fill-opacity:1;stroke:none"
     aria-label="1">
    <path
       id="path4952"
       style="font-style:normal;font-variant:normal;font-weight:normal;font-stretch:normal;font-family:'DejaVu Sans';-inkscape-font-specification:'DejaVu Sans';fill:#00ff00"
       d="m 625.17902,435.08234 h 6.44531 v -22.2461 l -7.01172,1.40625 v -3.59375 l 6.97266,-1.40625 h 3.94531 v 25.83985 h 6.44531 v 3.32031 h -16.79687 z" />
  </g>
  <path
     id="rect3779"
     d="m 493.55207,39.488909 c 30.2932,0 54.6816,24.3865 54.6816,54.67973 V 467.11786 c 10.79988,5.24795 21.22701,11.19883 31.211,17.8125 V 164.48114 c 0,-30.29323 24.3864,-54.68164 54.6797,-54.68164 30.2932,0 54.6816,24.38841 54.6816,54.68164 v 448.15235 l 101.28321,-111.125 c 13.1606,-14.43939 31.1327,-21.75541 49.166,-21.72657 15.9117,0.0254 31.8708,5.76854 44.6114,17.38086 27.17996,24.77295 29.11664,66.59928 4.3437,93.7793 0,0 -197.5622,227.55098 -254.89651,279.66406 -57.33431,52.11308 -126.64843,94.2952 -206.3183,94.39448 -142.75973,-0.17166 -253.93153,-109.7062 -268.64259,-248.4726 -0.78224,-7.37869 -0.55625,-10.54797 -0.627,-18.50196 V 236.48895 c 0,-30.29323 24.3884,-54.67968 54.6817,-54.67968 30.2932,0 54.6816,24.38646 54.6816,54.67968 v 253.66211 c 9.92489,-7.28196 20.35272,-13.88492 31.209,-19.76171 V 128.62567 c 0,-30.293231 24.38839,-54.681641 54.68159,-54.681641 30.2933,0 54.6817,24.38841 54.6817,54.681641 v 310.69141 c 6.431,-0.54139 12.87983,-0.85669 19.334,-0.94531 3.96239,0.11575 7.92169,0.31697 11.875,0.60351 V 94.168639 c 0,-30.29323 24.3884,-54.67973 54.6816,-54.67973 z"
     style="fill:none;fill-opacity:1;stroke:#004775;stroke-width:7;stroke-miterlimit:4;stroke-dasharray:none" />
  <g
     id="text4599-8-3"
     style="font-style:normal;font-weight:normal;font-size:40px;line-height:1.25;font-family:sans-serif;letter-spacing:0px;word-spacing:0px;fill:#000000;fill-opacity:1;stroke:none"
     aria-label="2">
    <path
       id="path4949"
       style="font-style:normal;font-variant:normal;font-weight:normal;font-stretch:normal;font-family:'DejaVu Sans';-inkscape-font-specification:'DejaVu Sans';fill:#000000"
       d="m 630.45258,317.49945 h 13.76953 v 3.32031 h -18.51563 v -3.32031 q 2.2461,-2.32422 6.11328,-6.23047 3.88672,-3.92578 4.88282,-5.05859 1.89453,-2.12891 2.63671,-3.59375 0.76172,-1.48438 0.76172,-2.91016 0,-2.32422 -1.64062,-3.78906 -1.6211,-1.46484 -4.23828,-1.46484 -1.85547,0 -3.92578,0.64453 -2.05079,0.64453 -4.39454,1.95312 v -3.98437 q 2.38282,-0.95703 4.45313,-1.44532 2.07031,-0.48828 3.78906,-0.48828 4.53125,0 7.22656,2.26563 2.69532,2.26562 2.69532,6.05469 0,1.79687 -0.6836,3.41796 -0.66406,1.60157 -2.4414,3.78907 -0.48828,0.5664 -3.10547,3.28125 -2.61719,2.69531 -7.38281,7.55859 z" />
  </g>
  <g
     id="text4599-0"
     style="font-style:normal;font-weight:normal;font-size:40px;line-height:1.25;font-family:sans-serif;letter-spacing:0px;word-spacing:0px;fill:#000000;fill-opacity:1;stroke:none"
     aria-label="2">
    <path
       id="path4946"
       style="font-style:normal;font-variant:normal;font-weight:normal;font-stretch:normal;font-family:'DejaVu Sans';-inkscape-font-specification:'DejaVu Sans';fill:#00ff00"
       d="m 627.89386,315.08234 h 13.76953 v 3.32031 h -18.51562 v -3.32031 q 2.24609,-2.32422 6.11328,-6.23047 3.88672,-3.92578 4.88281,-5.0586 1.89453,-2.1289 2.63672,-3.59375 0.76172,-1.48437 0.76172,-2.91015 0,-2.32422 -1.64063,-3.78906 -1.62109,-1.46485 -4.23828,-1.46485 -1.85547,0 -3.92578,0.64453 -2.05078,0.64453 -4.39453,1.95313 v -3.98438 q 2.38281,-0.95703 4.45312,-1.44531 2.07032,-0.48828 3.78907,-0.48828 4.53125,0 7.22656,2.26562 2.69531,2.26563 2.69531,6.05469 0,1.79688 -0.68359,3.41797 -0.66407,1.60156 -2.44141,3.78906 -0.48828,0.56641 -3.10547,3.28125 -2.61719,2.69532 -7.38281,7.5586 z" />
  </g>
  <g
     id="text4599-8-3-2"
     style="font-style:normal;font-weight:normal;font-size:40px;line-height:1.25;font-family:sans-serif;letter-spacing:0px;word-spacing:0px;fill:#000000;fill-opacity:1;stroke:none"
     aria-label="3">
    <path
       id="path4943"
       style="font-style:normal;font-variant:normal;font-weight:normal;font-stretch:normal;font-family:'DejaVu Sans';-inkscape-font-specification:'DejaVu Sans';fill:#000000"
       d="m 639.00726,185.09711 q 2.83203,0.60547 4.41407,2.51953 1.60156,1.91406 1.60156,4.72656 0,4.31641 -2.96875,6.67969 -2.96875,2.36328 -8.4375,2.36328 -1.83594,0 -3.78906,-0.37109 -1.9336,-0.35157 -4.00391,-1.07422 v -3.8086 q 1.64062,0.95703 3.59375,1.44532 1.95312,0.48828 4.08203,0.48828 3.71094,0 5.64453,-1.46485 1.95313,-1.46484 1.95313,-4.25781 0,-2.57812 -1.81641,-4.02344 -1.79687,-1.46484 -5.01953,-1.46484 h -3.39844 v -3.24219 h 3.55469 q 2.91016,0 4.45312,-1.15234 1.54297,-1.17188 1.54297,-3.35938 0,-2.24609 -1.60156,-3.4375 -1.58203,-1.21093 -4.55078,-1.21093 -1.62109,0 -3.47656,0.35156 -1.85547,0.35156 -4.08203,1.09375 v -3.51563 q 2.24609,-0.625 4.19921,-0.9375 1.97266,-0.3125 3.71094,-0.3125 4.49219,0 7.10938,2.05078 2.61718,2.03125 2.61718,5.50782 0,2.42187 -1.38671,4.10156 -1.38672,1.66016 -3.94532,2.30469 z" />
  </g>
  <g
     id="text4599-0-7"
     style="font-style:normal;font-weight:normal;font-size:40px;line-height:1.25;font-family:sans-serif;letter-spacing:0px;word-spacing:0px;fill:#000000;fill-opacity:1;stroke:none"
     aria-label="3">
    <path
       id="path4940"
       style="font-style:normal;font-variant:normal;font-weight:normal;font-stretch:normal;font-family:'DejaVu Sans';-inkscape-font-specification:'DejaVu Sans';fill:#00ff00"
       d="m 636.44855,182.67999 q 2.83203,0.60547 4.41406,2.51953 1.60156,1.91407 1.60156,4.72657 0,4.3164 -2.96875,6.67968 -2.96875,2.36329 -8.4375,2.36329 -1.83594,0 -3.78906,-0.3711 -1.93359,-0.35156 -4.00391,-1.07422 v -3.80859 q 1.64063,0.95703 3.59375,1.44531 1.95313,0.48828 4.08203,0.48828 3.71094,0 5.64454,-1.46484 1.95312,-1.46484 1.95312,-4.25781 0,-2.57813 -1.81641,-4.02344 -1.79687,-1.46484 -5.01953,-1.46484 h -3.39843 v -3.24219 h 3.55468 q 2.91016,0 4.45313,-1.15235 1.54297,-1.17187 1.54297,-3.35937 0,-2.24609 -1.60157,-3.4375 -1.58203,-1.21094 -4.55078,-1.21094 -1.62109,0 -3.47656,0.35156 -1.85547,0.35157 -4.08203,1.09375 v -3.51562 q 2.24609,-0.625 4.19922,-0.9375 1.97265,-0.3125 3.71094,-0.3125 4.49218,0 7.10937,2.05078 2.61719,2.03125 2.61719,5.50781 0,2.42188 -1.38672,4.10157 -1.38672,1.66015 -3.94531,2.30468 z" />
  </g>
  <g
     id="text4599-8-7"
     style="font-style:normal;font-weight:normal;font-size:40px;line-height:1.25;font-family:sans-serif;letter-spacing:0px;word-spacing:0px;fill:#000000;fill-opacity:1;stroke:none"
     aria-label="4">
    <path
       id="path4961"
       style="font-style:normal;font-variant:normal;font-weight:normal;font-stretch:normal;font-family:'DejaVu Sans';-inkscape-font-specification:'DejaVu Sans';fill:#000000"
       d="m 498.08307,346.10834 -9.96094,15.5664 h 9.96094 z m -1.03516,-3.4375 h 4.96094 v 19.0039 h 4.16016 v 3.28125 h -4.16016 v 6.875 h -3.92578 v -6.875 h -13.16406 v -3.80859 z" />
  </g>
  <g
     id="text4599-23"
     style="font-style:normal;font-weight:normal;font-size:40px;line-height:1.25;font-family:sans-serif;letter-spacing:0px;word-spacing:0px;fill:#000000;fill-opacity:1;stroke:none"
     aria-label="4">
    <path
       id="path4958"
       style="font-style:normal;font-variant:normal;font-weight:normal;font-stretch:normal;font-family:'DejaVu Sans';-inkscape-font-specification:'DejaVu Sans';fill:#00ff00"
       d="m 495.52435,343.69122 -9.96093,15.56641 h 9.96093 z m -1.03515,-3.4375 h 4.96093 v 19.00391 h 4.16016 v 3.28125 h -4.16016 v 6.875 h -3.92578 v -6.875 h -13.16406 v -3.80859 z" />
  </g>
  <g
     id="text4599-8-3-9"
     style="font-style:normal;font-weight:normal;font-size:40px;line-height:1.25;font-family:sans-serif;letter-spacing:0px;word-spacing:0px;fill:#000000;fill-opacity:1;stroke:none"
     aria-label="5">
    <path
       id="path4967"
       style="font-style:normal;font-variant:normal;font-weight:normal;font-stretch:normal;font-family:'DejaVu Sans';-inkscape-font-specification:'DejaVu Sans';fill:#000000"
       d="m 487.28229,222.67084 h 15.48828 v 3.32031 h -11.875 v 7.14844 q 0.85937,-0.29297 1.71875,-0.42969 0.85937,-0.15625 1.71875,-0.15625 4.88281,0 7.73437,2.67578 2.85157,2.67578 2.85157,7.24609 0,4.70704 -2.92969,7.32422 -2.92969,2.59766 -8.26172,2.59766 -1.83594,0 -3.75,-0.3125 -1.89453,-0.3125 -3.92578,-0.9375 v -3.96484 q 1.75781,0.95703 3.63281,1.42578 1.875,0.46875 3.96485,0.46875 3.3789,0 5.35156,-1.77735 1.97265,-1.77734 1.97265,-4.82422 0,-3.04687 -1.97265,-4.82421 -1.97266,-1.77735 -5.35156,-1.77735 -1.58204,0 -3.16407,0.35156 -1.5625,0.35157 -3.20312,1.09375 z" />
  </g>
  <g
     id="text4599-0-0"
     style="font-style:normal;font-weight:normal;font-size:40px;line-height:1.25;font-family:sans-serif;letter-spacing:0px;word-spacing:0px;fill:#000000;fill-opacity:1;stroke:none"
     aria-label="5">
    <path
       id="path4964"
       style="font-style:normal;font-variant:normal;font-weight:normal;font-stretch:normal;font-family:'DejaVu Sans';-inkscape-font-specification:'DejaVu Sans';fill:#00ff00"
       d="m 484.72357,220.25372 h 15.48828 v 3.32032 h -11.875 v 7.14843 q 0.85938,-0.29297 1.71875,-0.42968 0.85938,-0.15625 1.71875,-0.15625 4.88282,0 7.73438,2.67578 2.85156,2.67578 2.85156,7.24609 0,4.70703 -2.92969,7.32422 -2.92968,2.59766 -8.26172,2.59766 -1.83593,0 -3.75,-0.3125 -1.89453,-0.3125 -3.92578,-0.9375 v -3.96485 q 1.75782,0.95703 3.63282,1.42578 1.875,0.46875 3.96484,0.46875 3.37891,0 5.35156,-1.77734 1.97266,-1.77734 1.97266,-4.82422 0,-3.04687 -1.97266,-4.82422 -1.97265,-1.77734 -5.35156,-1.77734 -1.58203,0 -3.16406,0.35156 -1.5625,0.35156 -3.20313,1.09375 z" />
  </g>
  <g
     id="text4599-8-3-2-8"
     style="font-style:normal;font-weight:normal;font-size:40px;line-height:1.25;font-family:sans-serif;letter-spacing:0px;word-spacing:0px;fill:#000000;fill-opacity:1;stroke:none"
     aria-label="6">
    <path
       id="path4973"
       style="font-style:normal;font-variant:normal;font-weight:normal;font-stretch:normal;font-family:'DejaVu Sans';-inkscape-font-specification:'DejaVu Sans';fill:#000000"
       d="m 496.16901,115.67865 q -2.65625,0 -4.21875,1.81641 -1.54297,1.8164 -1.54297,4.98046 0,3.14454 1.54297,4.98047 1.5625,1.81641 4.21875,1.81641 2.65625,0 4.19922,-1.81641 1.5625,-1.83593 1.5625,-4.98047 0,-3.16406 -1.5625,-4.98046 -1.54297,-1.81641 -4.19922,-1.81641 z m 7.83203,-12.36328 v 3.59375 q -1.48438,-0.70313 -3.00781,-1.07422 -1.50391,-0.37109 -2.98829,-0.37109 -3.90625,0 -5.97656,2.63671 -2.05078,2.63672 -2.34375,7.96875 1.15235,-1.69921 2.89063,-2.59765 1.73828,-0.91797 3.82812,-0.91797 4.39453,0 6.9336,2.67578 2.55859,2.65625 2.55859,7.24609 0,4.49219 -2.65625,7.20704 -2.65625,2.71484 -7.07031,2.71484 -5.0586,0 -7.73438,-3.86719 -2.67578,-3.88672 -2.67578,-11.25 0,-6.91406 3.28125,-11.01562 3.28125,-4.1211 8.80859,-4.1211 1.48438,0 2.98829,0.29297 1.52343,0.29297 3.16406,0.87891 z" />
  </g>
  <g
     id="text4599-0-7-5"
     style="font-style:normal;font-weight:normal;font-size:40px;line-height:1.25;font-family:sans-serif;letter-spacing:0px;word-spacing:0px;fill:#000000;fill-opacity:1;stroke:none"
     aria-label="6">
    <path
       id="path4970"
       style="font-style:normal;font-variant:normal;font-weight:normal;font-stretch:normal;font-family:'DejaVu Sans';-inkscape-font-specification:'DejaVu Sans';fill:#00ff00"
       d="m 493.61029,113.26154 q -2.65625,0 -4.21875,1.8164 -1.54297,1.81641 -1.54297,4.98047 0,3.14453 1.54297,4.98047 1.5625,1.81641 4.21875,1.81641 2.65625,0 4.19922,-1.81641 1.5625,-1.83594 1.5625,-4.98047 0,-3.16406 -1.5625,-4.98047 -1.54297,-1.8164 -4.19922,-1.8164 z m 7.83203,-12.36329 v 3.59375 q -1.48437,-0.70312 -3.00781,-1.07421 -1.50391,-0.3711 -2.98828,-0.3711 -3.90625,0 -5.97656,2.63672 -2.05079,2.63672 -2.34375,7.96875 1.15234,-1.69922 2.89062,-2.59766 1.73828,-0.91796 3.82813,-0.91796 4.39453,0 6.93359,2.67578 2.55859,2.65625 2.55859,7.24609 0,4.49219 -2.65625,7.20703 -2.65625,2.71485 -7.07031,2.71485 -5.05859,0 -7.73437,-3.86719 -2.67579,-3.88672 -2.67579,-11.25 0,-6.91406 3.28125,-11.01563 3.28125,-4.121091 8.8086,-4.121091 1.48437,0 2.98828,0.292971 1.52344,0.29297 3.16406,0.8789 z" />
  </g>
  <g
     id="text4599-8-7-6"
     style="font-style:normal;font-weight:normal;font-size:40px;line-height:1.25;font-family:sans-serif;letter-spacing:0px;word-spacing:0px;fill:#000000;fill-opacity:1;stroke:none"
     aria-label="7">
    <path
       id="path4991"
       style="font-style:normal;font-variant:normal;font-weight:normal;font-stretch:normal;font-family:'DejaVu Sans';-inkscape-font-specification:'DejaVu Sans';fill:#000000"
       d="m 343.57764,374.90814 h 18.75 v 1.67969 L 351.7417,404.0683 h -4.12109 l 9.96093,-25.83985 h -14.0039 z" />
  </g>
  <g
     id="text4599-23-7"
     style="font-style:normal;font-weight:normal;font-size:40px;line-height:1.25;font-family:sans-serif;letter-spacing:0px;word-spacing:0px;fill:#000000;fill-opacity:1;stroke:none"
     aria-label="7">
    <path
       id="path4988"
       style="font-style:normal;font-variant:normal;font-weight:normal;font-stretch:normal;font-family:'DejaVu Sans';-inkscape-font-specification:'DejaVu Sans';fill:#00ff00"
       d="m 341.01892,372.49103 h 18.75 v 1.67969 l -10.58594,27.48046 h -4.12109 l 9.96094,-25.83984 h -14.00391 z" />
  </g>
  <g
     id="text4599-8-3-9-3"
     style="font-style:normal;font-weight:normal;font-size:40px;line-height:1.25;font-family:sans-serif;letter-spacing:0px;word-spacing:0px;fill:#000000;fill-opacity:1;stroke:none"
     aria-label="8">
    <path
       id="path4985"
       style="font-style:normal;font-variant:normal;font-weight:normal;font-stretch:normal;font-family:'DejaVu Sans';-inkscape-font-specification:'DejaVu Sans';fill:#000000"
       d="m 353.01123,270.22064 q -2.8125,0 -4.43359,1.50391 -1.60157,1.5039 -1.60157,4.14062 0,2.63672 1.60157,4.14063 1.62109,1.5039 4.43359,1.5039 2.8125,0 4.43359,-1.5039 1.6211,-1.52344 1.6211,-4.14063 0,-2.63672 -1.6211,-4.14062 -1.60156,-1.50391 -4.43359,-1.50391 z m -3.94531,-1.67969 q -2.53906,-0.625 -3.96485,-2.36328 -1.40625,-1.73828 -1.40625,-4.23828 0,-3.49609 2.48047,-5.52734 2.5,-2.03125 6.83594,-2.03125 4.35547,0 6.83594,2.03125 2.48047,2.03125 2.48047,5.52734 0,2.5 -1.42578,4.23828 -1.40625,1.73828 -3.92579,2.36328 2.85157,0.66407 4.4336,2.59766 1.60156,1.93359 1.60156,4.72656 0,4.23828 -2.59766,6.50391 -2.57812,2.26562 -7.40234,2.26562 -4.82422,0 -7.42187,-2.26562 -2.57813,-2.26563 -2.57813,-6.50391 0,-2.79297 1.60156,-4.72656 1.60157,-1.93359 4.45313,-2.59766 z m -1.44531,-6.23046 q 0,2.26562 1.40625,3.53515 1.42578,1.26953 3.98437,1.26953 2.53906,0 3.96484,-1.26953 1.44532,-1.26953 1.44532,-3.53515 0,-2.26563 -1.44532,-3.53516 -1.42578,-1.26953 -3.96484,-1.26953 -2.55859,0 -3.98437,1.26953 -1.40625,1.26953 -1.40625,3.53516 z" />
  </g>
  <g
     id="text4599-0-0-9"
     style="font-style:normal;font-weight:normal;font-size:40px;line-height:1.25;font-family:sans-serif;letter-spacing:0px;word-spacing:0px;fill:#000000;fill-opacity:1;stroke:none"
     aria-label="8">
    <path
       id="path4982"
       style="font-style:normal;font-variant:normal;font-weight:normal;font-stretch:normal;font-family:'DejaVu Sans';-inkscape-font-specification:'DejaVu Sans';fill:#00ff00"
       d="m 350.45251,267.80353 q -2.8125,0 -4.43359,1.5039 -1.60156,1.50391 -1.60156,4.14063 0,2.63672 1.60156,4.14062 1.62109,1.50391 4.43359,1.50391 2.8125,0 4.4336,-1.50391 1.62109,-1.52343 1.62109,-4.14062 0,-2.63672 -1.62109,-4.14063 -1.60156,-1.5039 -4.4336,-1.5039 z m -3.94531,-1.67969 q -2.53906,-0.625 -3.96484,-2.36328 -1.40625,-1.73828 -1.40625,-4.23828 0,-3.4961 2.48047,-5.52735 2.5,-2.03125 6.83593,-2.03125 4.35547,0 6.83594,2.03125 2.48047,2.03125 2.48047,5.52735 0,2.5 -1.42578,4.23828 -1.40625,1.73828 -3.92578,2.36328 2.85156,0.66406 4.43359,2.59766 1.60156,1.93359 1.60156,4.72656 0,4.23828 -2.59765,6.50391 -2.57813,2.26562 -7.40235,2.26562 -4.82421,0 -7.42187,-2.26562 -2.57813,-2.26563 -2.57813,-6.50391 0,-2.79297 1.60157,-4.72656 1.60156,-1.9336 4.45312,-2.59766 z m -1.44531,-6.23047 q 0,2.26563 1.40625,3.53516 1.42578,1.26953 3.98437,1.26953 2.53907,0 3.96485,-1.26953 1.44531,-1.26953 1.44531,-3.53516 0,-2.26562 -1.44531,-3.53515 -1.42578,-1.26954 -3.96485,-1.26954 -2.55859,0 -3.98437,1.26954 -1.40625,1.26953 -1.40625,3.53515 z" />
  </g>
  <g
     id="text4599-8-3-2-8-1"
     style="font-style:normal;font-weight:normal;font-size:40px;line-height:1.25;font-family:sans-serif;letter-spacing:0px;word-spacing:0px;fill:#000000;fill-opacity:1;stroke:none"
     aria-label="9">
    <path
       id="path4979"
       style="font-style:normal;font-variant:normal;font-weight:normal;font-stretch:normal;font-family:'DejaVu Sans';-inkscape-font-specification:'DejaVu Sans';fill:#000000"
       d="m 344.69092,163.46283 v -3.59375 q 1.48437,0.70312 3.00781,1.07422 1.52344,0.37109 2.98828,0.37109 3.90625,0 5.95703,-2.61719 2.07032,-2.63671 2.36328,-7.98828 -1.13281,1.67969 -2.87109,2.57813 -1.73828,0.89844 -3.84766,0.89844 -4.375,0 -6.93359,-2.63672 -2.53906,-2.65625 -2.53906,-7.2461 0,-4.49218 2.65625,-7.20703 2.65625,-2.71484 7.07031,-2.71484 5.05859,0 7.71484,3.88672 2.67579,3.86718 2.67579,11.25 0,6.89453 -3.28125,11.01562 -3.26172,4.10156 -8.78907,4.10156 -1.48437,0 -3.00781,-0.29296 -1.52344,-0.29297 -3.16406,-0.87891 z m 7.85156,-12.36328 q 2.65625,0 4.19922,-1.81641 1.5625,-1.8164 1.5625,-4.98047 0,-3.14453 -1.5625,-4.96093 -1.54297,-1.83594 -4.19922,-1.83594 -2.65625,0 -4.21875,1.83594 -1.54297,1.8164 -1.54297,4.96093 0,3.16407 1.54297,4.98047 1.5625,1.81641 4.21875,1.81641 z" />
  </g>
  <g
     id="text4599-0-7-5-2"
     style="font-style:normal;font-weight:normal;font-size:40px;line-height:1.25;font-family:sans-serif;letter-spacing:0px;word-spacing:0px;fill:#000000;fill-opacity:1;stroke:none"
     aria-label="9">
    <path
       id="path4976"
       style="font-style:normal;font-variant:normal;font-weight:normal;font-stretch:normal;font-family:'DejaVu Sans';-inkscape-font-specification:'DejaVu Sans';fill:#00ff00"
       d="m 342.1322,161.04572 v -3.59375 q 1.48438,0.70312 3.00781,1.07421 1.52344,0.3711 2.98829,0.3711 3.90625,0 5.95703,-2.61719 2.07031,-2.63672 2.36328,-7.98828 -1.13281,1.67969 -2.8711,2.57812 -1.73828,0.89844 -3.84765,0.89844 -4.375,0 -6.9336,-2.63672 -2.53906,-2.65625 -2.53906,-7.24609 0,-4.49219 2.65625,-7.20703 2.65625,-2.71485 7.07031,-2.71485 5.0586,0 7.71485,3.88672 2.67578,3.86719 2.67578,11.25 0,6.89453 -3.28125,11.01563 -3.26172,4.10156 -8.78906,4.10156 -1.48438,0 -3.00782,-0.29297 -1.52343,-0.29297 -3.16406,-0.8789 z m 7.85156,-12.36329 q 2.65625,0 4.19922,-1.8164 1.5625,-1.81641 1.5625,-4.98047 0,-3.14453 -1.5625,-4.96094 -1.54297,-1.83594 -4.19922,-1.83594 -2.65625,0 -4.21875,1.83594 -1.54296,1.81641 -1.54296,4.96094 0,3.16406 1.54296,4.98047 1.5625,1.8164 4.21875,1.8164 z" />
  </g>
  <g
     id="text4599-8-7-6-6"
     style="font-style:normal;font-weight:normal;font-size:40px;line-height:1.25;font-family:sans-serif;letter-spacing:0px;word-spacing:0px;fill:#000000;fill-opacity:1;stroke:none"
     aria-label="10">
    <path
       id="path4999"
       style="font-style:normal;font-variant:normal;font-weight:normal;font-stretch:normal;font-family:'DejaVu Sans';-inkscape-font-specification:'DejaVu Sans';fill:#000000"
       d="m 190.9438,508.19714 h 6.44531 v -22.24609 l -7.01171,1.40625 v -3.59375 l 6.97265,-1.40625 h 3.94531 v 25.83984 h 6.44532 v 3.32032 H 190.9438 Z" />
    <path
       id="path5001"
       style="font-style:normal;font-variant:normal;font-weight:normal;font-stretch:normal;font-family:'DejaVu Sans';-inkscape-font-specification:'DejaVu Sans';fill:#000000"
       d="m 224.16646,484.95496 q -3.04688,0 -4.58985,3.00781 -1.52343,2.98828 -1.52343,9.0039 0,5.9961 1.52343,9.00391 1.54297,2.98828 4.58985,2.98828 3.0664,0 4.58984,-2.98828 1.54297,-3.00781 1.54297,-9.00391 0,-6.01562 -1.54297,-9.0039 -1.52344,-3.00781 -4.58984,-3.00781 z m 0,-3.125 q 4.90234,0 7.48047,3.88671 2.59765,3.86719 2.59765,11.25 0,7.36329 -2.59765,11.25 -2.57813,3.86719 -7.48047,3.86719 -4.90235,0 -7.5,-3.86719 -2.57813,-3.88671 -2.57813,-11.25 0,-7.38281 2.57813,-11.25 2.59765,-3.88671 7.5,-3.88671 z" />
  </g>
  <g
     id="text4599-23-7-5"
     style="font-style:normal;font-weight:normal;font-size:40px;line-height:1.25;font-family:sans-serif;letter-spacing:0px;word-spacing:0px;fill:#000000;fill-opacity:1;stroke:none"
     aria-label="10">
    <path
       id="path4994"
       style="font-style:normal;font-variant:normal;font-weight:normal;font-stretch:normal;font-family:'DejaVu Sans';-inkscape-font-specification:'DejaVu Sans';fill:#00ff00"
       d="m 188.38509,505.78003 h 6.44531 v -22.24609 l -7.01172,1.40625 v -3.59375 l 6.97266,-1.40625 h 3.94531 v 25.83984 h 6.44531 v 3.32031 h -16.79687 z" />
    <path
       id="path4996"
       style="font-style:normal;font-variant:normal;font-weight:normal;font-stretch:normal;font-family:'DejaVu Sans';-inkscape-font-specification:'DejaVu Sans';fill:#00ff00"
       d="m 221.60774,482.53784 q -3.04687,0 -4.58984,3.00781 -1.52344,2.98829 -1.52344,9.00391 0,5.99609 1.52344,9.00391 1.54297,2.98828 4.58984,2.98828 3.06641,0 4.58985,-2.98828 1.54296,-3.00782 1.54296,-9.00391 0,-6.01562 -1.54296,-9.00391 -1.52344,-3.00781 -4.58985,-3.00781 z m 0,-3.125 q 4.90235,0 7.48047,3.88672 2.59766,3.86719 2.59766,11.25 0,7.36328 -2.59766,11.25 -2.57812,3.86719 -7.48047,3.86719 -4.90234,0 -7.5,-3.86719 -2.57812,-3.88672 -2.57812,-11.25 0,-7.38281 2.57812,-11.25 2.59766,-3.88672 7.5,-3.88672 z" />
  </g>
  <g
     id="text4599-8-3-9-3-1"
     style="font-style:normal;font-weight:normal;font-size:40px;line-height:1.25;font-family:sans-serif;letter-spacing:0px;word-spacing:0px;fill:#000000;fill-opacity:1;stroke:none"
     aria-label="11">
    <path
       id="path5009"
       style="font-style:normal;font-variant:normal;font-weight:normal;font-stretch:normal;font-family:'DejaVu Sans';-inkscape-font-specification:'DejaVu Sans';fill:#000000"
       d="m 190.9438,388.19714 h 6.44531 v -22.24609 l -7.01171,1.40625 v -3.59375 l 6.97265,-1.40625 h 3.94531 v 25.83984 h 6.44532 v 3.32032 H 190.9438 Z" />
    <path
       id="path5011"
       style="font-style:normal;font-variant:normal;font-weight:normal;font-stretch:normal;font-family:'DejaVu Sans';-inkscape-font-specification:'DejaVu Sans';fill:#000000"
       d="m 216.41255,388.19714 h 6.44531 v -22.24609 l -7.01171,1.40625 v -3.59375 l 6.97265,-1.40625 h 3.94531 v 25.83984 h 6.44532 v 3.32032 h -16.79688 z" />
  </g>
  <g
     id="text4599-0-0-9-7"
     style="font-style:normal;font-weight:normal;font-size:40px;line-height:1.25;font-family:sans-serif;letter-spacing:0px;word-spacing:0px;fill:#000000;fill-opacity:1;stroke:none"
     aria-label="11">
    <path
       id="path5004"
       style="font-style:normal;font-variant:normal;font-weight:normal;font-stretch:normal;font-family:'DejaVu Sans';-inkscape-font-specification:'DejaVu Sans';fill:#00ff00"
       d="m 188.38509,385.78003 h 6.44531 v -22.24609 l -7.01172,1.40625 v -3.59375 l 6.97266,-1.40625 h 3.94531 v 25.83984 h 6.44531 v 3.32031 h -16.79687 z" />
    <path
       id="path5006"
       style="font-style:normal;font-variant:normal;font-weight:normal;font-stretch:normal;font-family:'DejaVu Sans';-inkscape-font-specification:'DejaVu Sans';fill:#00ff00"
       d="m 213.85384,385.78003 h 6.44531 v -22.24609 l -7.01172,1.40625 v -3.59375 l 6.97266,-1.40625 h 3.94531 v 25.83984 h 6.44531 v 3.32031 h -16.79687 z" />
  </g>
  <g
     id="text4599-8-3-2-8-1-3"
     style="font-style:normal;font-weight:normal;font-size:40px;line-height:1.25;font-family:sans-serif;letter-spacing:0px;word-spacing:0px;fill:#000000;fill-opacity:1;stroke:none"
     aria-label="12">
    <path
       id="path5019"
       style="font-style:normal;font-variant:normal;font-weight:normal;font-stretch:normal;font-family:'DejaVu Sans';-inkscape-font-specification:'DejaVu Sans';fill:#000000"
       d="m 190.9438,268.19714 h 6.44531 v -22.24609 l -7.01171,1.40625 v -3.59375 l 6.97265,-1.40625 h 3.94531 v 25.83984 h 6.44532 v 3.32032 H 190.9438 Z" />
    <path
       id="path5021"
       style="font-style:normal;font-variant:normal;font-weight:normal;font-stretch:normal;font-family:'DejaVu Sans';-inkscape-font-specification:'DejaVu Sans';fill:#000000"
       d="m 219.1274,268.19714 h 13.76953 v 3.32032 H 214.3813 v -3.32032 q 2.2461,-2.32422 6.11328,-6.23047 3.88672,-3.92578 4.88282,-5.05859 1.89453,-2.12891 2.63671,-3.59375 0.76172,-1.48437 0.76172,-2.91016 0,-2.32421 -1.64062,-3.78906 -1.6211,-1.46484 -4.23828,-1.46484 -1.85547,0 -3.92578,0.64453 -2.05079,0.64453 -4.39454,1.95312 v -3.98437 q 2.38282,-0.95703 4.45313,-1.44531 2.07031,-0.48828 3.78906,-0.48828 4.53125,0 7.22656,2.26562 2.69532,2.26563 2.69532,6.05469 0,1.79687 -0.6836,3.41797 -0.66406,1.60156 -2.4414,3.78906 -0.48828,0.56641 -3.10547,3.28125 -2.61719,2.69531 -7.38281,7.55859 z" />
  </g>
  <g
     id="text4599-0-7-5-2-4"
     style="font-style:normal;font-weight:normal;font-size:40px;line-height:1.25;font-family:sans-serif;letter-spacing:0px;word-spacing:0px;fill:#000000;fill-opacity:1;stroke:none"
     aria-label="12">
    <path
       id="path5014"
       style="font-style:normal;font-variant:normal;font-weight:normal;font-stretch:normal;font-family:'DejaVu Sans';-inkscape-font-specification:'DejaVu Sans';fill:#00ff00"
       d="m 188.38509,265.78003 h 6.44531 v -22.24609 l -7.01172,1.40625 v -3.59375 l 6.97266,-1.40625 h 3.94531 v 25.83984 h 6.44531 v 3.32031 h -16.79687 z" />
    <path
       id="path5016"
       style="font-style:normal;font-variant:normal;font-weight:normal;font-stretch:normal;font-family:'DejaVu Sans';-inkscape-font-specification:'DejaVu Sans';fill:#00ff00"
       d="m 216.56868,265.78003 h 13.76953 v 3.32031 h -18.51562 v -3.32031 q 2.24609,-2.32422 6.11328,-6.23047 3.88672,-3.92578 4.88281,-5.05859 1.89453,-2.12891 2.63672,-3.59375 0.76172,-1.48438 0.76172,-2.91016 0,-2.32422 -1.64063,-3.78906 -1.62109,-1.46485 -4.23828,-1.46485 -1.85547,0 -3.92578,0.64454 -2.05078,0.64453 -4.39453,1.95312 v -3.98437 q 2.38281,-0.95704 4.45312,-1.44532 2.07032,-0.48828 3.78907,-0.48828 4.53125,0 7.22656,2.26563 2.69531,2.26562 2.69531,6.05468 0,1.79688 -0.68359,3.41797 -0.66407,1.60157 -2.44141,3.78907 -0.48828,0.5664 -3.10547,3.28125 -2.61719,2.69531 -7.38281,7.55859 z" />
  </g>
  <path
     id="path4859"
     d="m 190.91525,316.12712 h 43.43221"
     style="fill:none;fill-opacity:1;stroke:#004775;stroke-width:7;stroke-linecap:butt;stroke-linejoin:miter;stroke-miterlimit:4;stroke-dasharray:none;stroke-opacity:1" />
  <path
     id="path4859-0"
     d="m 190.91525,436.12711 h 43.43221"
     style="fill:none;fill-opacity:1;stroke:#004775;stroke-width:7;stroke-linecap:butt;stroke-linejoin:miter;stroke-miterlimit:4;stroke-dasharray:none;stroke-opacity:1" />
  <path
     id="path4859-4"
     d="m 330.91525,208.12711 h 43.43221"
     style="fill:none;fill-opacity:1;stroke:#004775;stroke-width:7;stroke-linecap:butt;stroke-linejoin:miter;stroke-miterlimit:4;stroke-dasharray:none;stroke-opacity:1" />
  <path
     id="path4859-0-6"
     d="m 330.91525,328.1271 h 43.43221"
     style="fill:none;fill-opacity:1;stroke:#004775;stroke-width:7;stroke-linecap:butt;stroke-linejoin:miter;stroke-miterlimit:4;stroke-dasharray:none;stroke-opacity:1" />
  <path
     id="path4859-4-0"
     d="m 471.94458,177.02571 h 43.43221"
     style="fill:none;fill-opacity:1;stroke:#004775;stroke-width:7;stroke-linecap:butt;stroke-linejoin:miter;stroke-miterlimit:4;stroke-dasharray:none;stroke-opacity:1" />
  <path
     id="path4859-0-6-3"
     d="m 471.94458,297.0257 h 43.43221"
     style="fill:none;fill-opacity:1;stroke:#004775;stroke-width:7;stroke-linecap:butt;stroke-linejoin:miter;stroke-miterlimit:4;stroke-dasharray:none;stroke-opacity:1" />
  <path
     id="path4859-4-0-2"
     d="m 612.38855,245.00564 h 43.43221"
     style="fill:none;fill-opacity:1;stroke:#004775;stroke-width:7;stroke-linecap:butt;stroke-linejoin:miter;stroke-miterlimit:4;stroke-dasharray:none;stroke-opacity:1" />
  <path
     id="path4859-0-6-3-6"
     d="m 612.38855,365.00563 h 43.43221"
     style="fill:none;fill-opacity:1;stroke:#004775;stroke-width:7;stroke-linecap:butt;stroke-linejoin:miter;stroke-miterlimit:4;stroke-dasharray:none;stroke-opacity:1" />
</svg>
