<?xml version="1.0" encoding="utf-8"?>
<!-- Generator: Adobe Illustrator 19.2.1, SVG Export Plug-In . SVG Version: 6.00 Build 0)  -->
<svg version="1.1" id="Layer_1" xmlns="http://www.w3.org/2000/svg" xmlns:xlink="http://www.w3.org/1999/xlink" x="0px" y="0px"
	 viewBox="0 0 600 565.1" style="enable-background:new 0 0 600 565.1;" xml:space="preserve">
<style type="text/css">
	.st0{fill:none;stroke:#000000;stroke-width:2;stroke-miterlimit:10;stroke-dasharray:6;}
	.st1{fill:none;stroke:#BBBBBB;stroke-width:2;stroke-miterlimit:10;stroke-dasharray:6;}
	.st2{fill:url(#SVGID_1_);stroke:#000000;stroke-width:2;stroke-miterlimit:10;}
	.st3{fill:url(#SVGID_2_);stroke:#000000;stroke-width:2;stroke-miterlimit:10;}
	.st4{fill:#FFFFFF;stroke:#000000;stroke-width:2;stroke-miterlimit:10;}
</style>
<title>cc-sepia-graph</title>
<line class="st0" x1="221.2" y1="333.5" x2="528.9" y2="257.6"/>
<polyline class="st1" points="528.9,257.6 528.9,333.5 221.2,333.5 "/>
<path d="M36.5,500.4c1.5-0.1,2.9,0.7,3.7,1.9c1.7,3.6,1.7,7.7,0,11.2c-0.8,1.3-2.2,2-3.7,1.9c-1.5,0.1-2.9-0.7-3.7-1.9
	c-1.7-3.6-1.7-7.7,0-11.2C33.6,501,35,500.3,36.5,500.4z M36.5,501.9c-1,0-1.9,0.6-2.3,1.5c-1,2.9-1,6.1,0,9c0.6,1.3,2,1.8,3.3,1.3
	c0.6-0.3,1-0.7,1.3-1.3c1-2.9,1-6.1,0-9C38.4,502.5,37.5,501.9,36.5,501.9L36.5,501.9z"/>
<linearGradient id="SVGID_1_" gradientUnits="userSpaceOnUse" x1="81.897" y1="44.6305" x2="581" y2="44.6305" gradientTransform="matrix(1 0 0 -1 0 565.89)">
	<stop  offset="0" style="stop-color:#FFFFFF"/>
	<stop  offset="1" style="stop-color:#000000"/>
</linearGradient>
<rect x="81.9" y="506.9" class="st2" width="499.1" height="28.6"/>
<g>
	<path d="M219.8,356.7h2.2l5.6,14.6h-2.1l-1.3-3.7h-6.6l-1.3,3.7h-2.1L219.8,356.7z M221,358.6l-2.7,7.3h5.4L221,358.6z"/>
	<path d="M222.7,380.1c-1.5,1.9-2.8,3.9-3.9,6.1c-0.8,1.8-1.2,3.7-1.3,5.6c0,1,0.1,2.1,0.4,3.1c0.3,1,0.6,2.1,1.1,3h-1.6
		c-0.6-1-1-2.1-1.3-3.3c-0.3-1-0.4-2.1-0.4-3.1c0-2,0.5-4,1.3-5.7c1-2.1,2.4-4,4.1-5.7L222.7,380.1L222.7,380.1z"/>
	<path d="M225.1,381c0.7-0.2,1.4-0.4,2.1-0.5c0.7-0.1,1.3-0.2,2-0.2c1.1-0.1,2.2,0.2,3.1,0.9c0.7,0.5,1.2,1.4,1.1,2.3
		c0,0.9-0.3,1.8-0.9,2.4c-0.7,0.7-1.5,1.2-2.5,1.4c0.7,0.2,1.3,0.5,1.8,1.1c0.4,0.6,0.6,1.3,0.6,2c0,0.8-0.2,1.5-0.6,2.2
		c-0.4,0.7-0.9,1.3-1.6,1.8c-0.6,0.4-1.2,0.7-1.9,0.8c-0.8,0.2-1.7,0.3-2.6,0.3c-0.6,0-1.2-0.1-1.9-0.2c-0.6-0.1-1.3-0.3-1.9-0.5
		l0.4-1.9c0.6,0.3,1.2,0.6,1.9,0.8c0.6,0.2,1.3,0.2,1.9,0.2c1.1,0.1,2.2-0.3,3.1-1c0.8-0.6,1.2-1.6,1.2-2.6c0-0.6-0.3-1.2-0.8-1.6
		c-0.7-0.4-1.4-0.6-2.2-0.6h-1.7l0.3-1.6h1.8c0.9,0.1,1.8-0.2,2.6-0.7c0.6-0.5,1-1.2,0.9-2c0-0.6-0.2-1.1-0.7-1.4
		c-0.6-0.4-1.2-0.5-1.9-0.5c-0.6,0-1.3,0.1-1.9,0.2c-0.7,0.1-1.4,0.3-2,0.6L225.1,381z"/>
	<path d="M242.3,380.4c1.2-0.1,2.3,0.4,3,1.3c0.8,1.1,1.1,2.4,1.1,3.8c0,1.3-0.2,2.5-0.5,3.7c-0.3,1.2-0.8,2.3-1.4,3.3
		c-0.5,0.9-1.3,1.7-2.1,2.2c-0.8,0.5-1.8,0.8-2.7,0.8c-1.1,0.1-2.2-0.4-3-1.3c-0.8-1.1-1.1-2.4-1-3.8c0-1.3,0.2-2.5,0.5-3.7
		c0.3-1.2,0.8-2.3,1.4-3.3c0.5-0.9,1.2-1.7,2.1-2.2C240.4,380.7,241.4,380.4,242.3,380.4z M242.2,382c-0.5,0-1,0.1-1.4,0.4
		c-0.5,0.3-0.9,0.7-1.2,1.2c-0.7,1-1.1,2.1-1.4,3.2c-0.4,1.3-0.5,2.6-0.5,4c-0.1,0.9,0.1,1.7,0.6,2.4c0.4,0.5,1,0.9,1.7,0.8
		c0.5,0,1-0.1,1.4-0.4c0.5-0.3,0.9-0.7,1.2-1.2c0.6-1,1.1-2.1,1.4-3.2c0.3-1.3,0.5-2.6,0.5-4c0.1-0.9-0.1-1.7-0.6-2.4
		C243.5,382.3,242.8,382,242.2,382L242.2,382z"/>
	<path d="M249.2,392.8h2.1l-0.3,1.7l-2.2,3.1h-1.3l1.4-3.1L249.2,392.8z"/>
	<path d="M263.3,381c0.7-0.2,1.4-0.4,2.1-0.5c0.7-0.1,1.3-0.2,2-0.2c1.1-0.1,2.2,0.2,3.1,0.9c0.7,0.5,1.2,1.4,1.1,2.3
		c0,0.9-0.3,1.8-0.9,2.4c-0.7,0.7-1.5,1.2-2.5,1.4c0.7,0.2,1.3,0.5,1.8,1.1c0.4,0.6,0.6,1.3,0.6,2c0,0.8-0.2,1.5-0.6,2.2
		c-0.4,0.7-0.9,1.3-1.6,1.8c-0.6,0.4-1.2,0.7-1.9,0.8c-0.8,0.2-1.7,0.3-2.6,0.3c-0.6,0-1.2-0.1-1.9-0.2c-0.6-0.1-1.3-0.3-1.9-0.5
		l0.4-1.9c0.6,0.3,1.2,0.6,1.9,0.8c0.6,0.2,1.3,0.2,1.9,0.2c1.1,0.1,2.2-0.3,3.1-1c0.8-0.6,1.2-1.6,1.2-2.6c0-0.6-0.3-1.2-0.8-1.6
		c-0.7-0.4-1.4-0.6-2.2-0.6h-1.7l0.3-1.6h1.8c0.9,0.1,1.8-0.2,2.6-0.7c0.6-0.5,1-1.2,0.9-2c0-0.6-0.2-1.1-0.7-1.4
		c-0.6-0.4-1.2-0.5-1.9-0.5c-0.6,0-1.3,0.1-1.9,0.2c-0.7,0.1-1.4,0.3-2,0.6L263.3,381z"/>
	<path d="M284.4,380.7l-0.3,1.6h-6l-0.7,3.6c0.3-0.1,0.6-0.2,0.9-0.2c0.3,0,0.6-0.1,0.9-0.1c1.2-0.1,2.3,0.3,3.2,1.1
		c0.8,0.8,1.2,1.8,1.2,2.9c0,0.9-0.2,1.7-0.6,2.5c-0.4,0.8-1,1.5-1.7,2.1c-0.6,0.4-1.2,0.8-1.9,1c-0.8,0.2-1.6,0.3-2.5,0.3
		c-0.6,0-1.2-0.1-1.8-0.2c-0.7-0.1-1.3-0.3-1.9-0.5l0.4-1.8c0.6,0.3,1.2,0.5,1.8,0.7c0.6,0.1,1.2,0.2,1.8,0.2c1.2,0,2.3-0.4,3.1-1.1
		c0.8-0.7,1.3-1.8,1.2-2.9c0-0.7-0.3-1.5-0.8-2c-0.6-0.5-1.5-0.8-2.3-0.7c-0.5,0-1.1,0.1-1.6,0.2c-0.6,0.1-1.2,0.3-1.7,0.5l1.4-7.3
		H284.4L284.4,380.7z"/>
	<path d="M284.3,397.9c1.6-1.9,2.9-3.9,3.9-6.1c0.8-1.8,1.2-3.7,1.3-5.6c0-1-0.1-2.1-0.4-3.1c-0.3-1-0.6-2.1-1.1-3h1.6
		c0.6,1,1,2.1,1.3,3.3c0.3,1,0.4,2.1,0.4,3.1c0,2-0.5,4-1.4,5.8c-1,2.1-2.4,4-4,5.7L284.3,397.9L284.3,397.9z"/>
</g>
<g>
	<path d="M524,197.7h5c1.2-0.1,2.5,0.3,3.5,0.9c0.8,0.6,1.3,1.6,1.2,2.7c0,0.8-0.2,1.5-0.6,2.1c-0.5,0.6-1.1,0.9-1.8,1
		c1.8,0.3,3.2,1.9,3.1,3.8c0.1,1.2-0.4,2.3-1.3,3c-1.1,0.8-2.4,1.2-3.8,1.1H524L524,197.7L524,197.7z M525.9,199.3v4.4h2.9
		c0.8,0.1,1.5-0.1,2.2-0.5c0.9-0.9,0.9-2.3,0.1-3.2c0,0-0.1-0.1-0.1-0.1c-0.6-0.4-1.4-0.6-2.2-0.5L525.9,199.3L525.9,199.3z
		 M525.9,205.3v5.3h3.2c0.8,0.1,1.7-0.2,2.4-0.7c1-1.2,1-2.9,0-4c-0.7-0.5-1.5-0.7-2.4-0.6L525.9,205.3L525.9,205.3z"/>
	<path d="M530.5,221.1c-1.5,1.9-2.8,3.9-3.9,6.1c-0.8,1.8-1.2,3.7-1.3,5.6c0,1,0.1,2.1,0.4,3.1c0.3,1,0.6,2.1,1.1,3h-1.6
		c-0.6-1-1-2.1-1.3-3.3c-0.3-1-0.4-2.1-0.4-3.1c0-2,0.5-4,1.3-5.7c1-2.1,2.4-4,4.1-5.7L530.5,221.1L530.5,221.1z"/>
	<path d="M530.7,235.9l0.4-1.8c0.4,0.3,0.8,0.4,1.3,0.6c0.5,0.1,1,0.2,1.6,0.2c1.2,0.1,2.4-0.4,3.3-1.3c1-1.1,1.6-2.5,1.8-4
		c-0.9,1.1-2.3,1.7-3.7,1.7c-1,0.1-2.1-0.3-2.8-1c-0.7-0.7-1.1-1.7-1-2.8c0-0.9,0.2-1.8,0.5-2.7c0.3-0.8,0.9-1.5,1.5-2.1
		c0.5-0.4,1-0.8,1.6-1c0.6-0.2,1.3-0.3,1.9-0.3c1.2-0.1,2.4,0.4,3.2,1.3c0.8,1,1.2,2.2,1.2,3.5c0,1.3-0.2,2.7-0.5,4
		c-0.3,1.2-0.8,2.3-1.5,3.3c-0.6,0.9-1.5,1.7-2.4,2.3c-1,0.5-2.1,0.8-3.2,0.8C532.6,236.6,531.6,236.3,530.7,235.9z M533.3,227.1
		c0,0.7,0.2,1.4,0.6,2c0.4,0.5,1.1,0.8,1.7,0.7c1,0,1.9-0.4,2.5-1.2c0.7-0.8,1.1-1.8,1-2.9c0-0.7-0.2-1.4-0.6-2
		c-0.4-0.5-1.1-0.8-1.7-0.7c-1,0-1.9,0.4-2.5,1.2C533.7,225,533.3,226,533.3,227.1L533.3,227.1z"/>
	<path d="M550.2,221.4c1.2-0.1,2.3,0.4,3,1.3c0.8,1.1,1.1,2.4,1,3.8c0,1.3-0.2,2.5-0.5,3.7c-0.3,1.2-0.8,2.3-1.4,3.3
		c-0.5,0.9-1.3,1.7-2.1,2.2c-0.8,0.5-1.8,0.8-2.7,0.8c-1.1,0.1-2.2-0.4-3-1.3c-0.8-1.1-1.1-2.4-1-3.8c0-1.3,0.2-2.5,0.5-3.7
		c0.3-1.2,0.8-2.3,1.4-3.3c0.5-0.9,1.2-1.7,2.1-2.2C548.3,221.7,549.2,221.4,550.2,221.4z M550,223c-0.5,0-1,0.1-1.4,0.4
		c-0.5,0.3-0.9,0.7-1.2,1.2c-0.7,1-1.1,2.1-1.4,3.2c-0.4,1.3-0.5,2.6-0.5,4c-0.1,0.9,0.1,1.7,0.6,2.4c0.4,0.5,1,0.9,1.7,0.8
		c0.5,0,1-0.1,1.4-0.4c0.5-0.3,0.9-0.7,1.2-1.2c0.7-1,1.1-2.1,1.4-3.2c0.3-1.3,0.5-2.6,0.5-4c0.1-0.9-0.1-1.7-0.6-2.4
		C551.4,223.3,550.7,223,550,223z"/>
	<path d="M557,233.8h2.1l-0.3,1.7l-2.2,3.1h-1.3l1.4-3.1L557,233.8z"/>
	<path d="M579.6,221.7l-0.3,1.6h-6l-0.7,3.6c0.3-0.1,0.6-0.2,0.9-0.2c0.3,0,0.6-0.1,0.9-0.1c1.2-0.1,2.3,0.3,3.2,1.1
		c0.8,0.8,1.2,1.8,1.2,2.9c0,0.9-0.2,1.7-0.6,2.5c-0.4,0.8-1,1.5-1.7,2.1c-0.6,0.4-1.2,0.8-1.9,1c-0.8,0.2-1.6,0.3-2.5,0.3
		c-0.6,0-1.2-0.1-1.8-0.2c-0.7-0.1-1.3-0.3-1.9-0.5l0.4-1.8c0.6,0.3,1.2,0.5,1.8,0.7c0.6,0.1,1.2,0.2,1.8,0.2c1.2,0,2.3-0.4,3.1-1.1
		c0.8-0.7,1.3-1.8,1.2-2.9c0-0.7-0.3-1.5-0.8-2c-0.6-0.5-1.5-0.8-2.3-0.7c-0.5,0-1.1,0.1-1.6,0.2c-0.6,0.1-1.2,0.3-1.7,0.5l1.4-7.3
		L579.6,221.7L579.6,221.7z"/>
	<path d="M588.3,221.4c1.2-0.1,2.3,0.4,3,1.3c0.8,1.1,1.1,2.4,1,3.8c0,1.3-0.2,2.5-0.5,3.7c-0.3,1.2-0.8,2.3-1.4,3.3
		c-0.5,0.9-1.3,1.7-2.1,2.2c-0.8,0.5-1.8,0.8-2.7,0.8c-1.1,0.1-2.2-0.4-3-1.3c-0.8-1.1-1.1-2.4-1-3.8c0-1.3,0.2-2.5,0.5-3.7
		c0.3-1.2,0.8-2.3,1.4-3.3c0.5-0.9,1.2-1.7,2.1-2.2C586.5,221.7,587.4,221.4,588.3,221.4z M588.2,223c-0.5,0-1,0.1-1.4,0.4
		c-0.5,0.3-0.9,0.7-1.2,1.2c-0.7,1-1.1,2.1-1.4,3.2c-0.4,1.3-0.5,2.6-0.5,4c-0.1,0.9,0.1,1.7,0.6,2.4c0.4,0.5,1,0.9,1.7,0.8
		c0.5,0,1-0.1,1.4-0.4c0.5-0.3,0.9-0.7,1.2-1.2c0.7-1,1.1-2.1,1.4-3.2c0.3-1.3,0.5-2.6,0.5-4c0.1-0.9-0.1-1.7-0.6-2.4
		C589.5,223.3,588.9,223,588.2,223z"/>
	<path d="M592.2,238.9c1.6-1.9,2.9-3.9,3.9-6.1c0.8-1.8,1.2-3.7,1.3-5.6c0-1-0.1-2.1-0.4-3.1c-0.3-1-0.6-2.1-1.1-3h1.6
		c0.6,1,1,2.1,1.3,3.3c0.3,1,0.4,2.1,0.4,3.1c0,2-0.5,4-1.4,5.8c-1,2.1-2.4,4-4,5.7L592.2,238.9L592.2,238.9z"/>
</g>
<linearGradient id="SVGID_2_" gradientUnits="userSpaceOnUse" x1="-93.771" y1="523.4015" x2="403.75" y2="523.4015" gradientTransform="matrix(6.123234e-17 -1 -1 -6.123234e-17 590.975 413.165)">
	<stop  offset="0" style="stop-color:#FFFFFF"/>
	<stop  offset="1" style="stop-color:#64350D"/>
</linearGradient>
<rect x="53.2" y="9.4" class="st3" width="28.6" height="497.5"/>
<path d="M81.9,548.8c1.5-0.1,2.9,0.7,3.7,1.9c1.7,3.6,1.7,7.7,0,11.2c-1.5,2.1-4.3,2.6-6.4,1.1c-0.4-0.3-0.8-0.7-1.1-1.1
	c-1.7-3.6-1.7-7.7,0-11.2C79,549.4,80.4,548.7,81.9,548.8z M81.9,550.3c-1,0-1.9,0.6-2.3,1.5c-1,2.9-1,6.1,0,9
	c0.6,1.3,2,1.8,3.3,1.3c0.6-0.3,1-0.7,1.3-1.3c1-2.9,1-6.1,0-9C83.8,550.9,82.9,550.3,81.9,550.3L81.9,550.3z"/>
<g>
	<path d="M564.1,561.9h3.2v-11.1l-3.5,0.7v-1.8l3.5-0.7h2v12.9h3.2v1.7h-8.4L564.1,561.9L564.1,561.9z"/>
	<path d="M580.7,548.8c1.5-0.1,2.9,0.7,3.7,1.9c1.7,3.6,1.7,7.7,0,11.2c-1.5,2.1-4.3,2.6-6.4,1.1c-0.4-0.3-0.8-0.7-1.1-1.1
		c-1.7-3.6-1.7-7.7,0-11.2C577.7,549.4,579.2,548.7,580.7,548.8z M580.7,550.3c-1,0-1.9,0.6-2.3,1.5c-1,2.9-1,6.1,0,9
		c0.6,1.3,2,1.8,3.3,1.3c0.6-0.3,1-0.7,1.3-1.3c1-2.9,1-6.1,0-9C582.6,550.9,581.7,550.3,580.7,550.3L580.7,550.3z"/>
	<path d="M593.4,548.8c1.5-0.1,2.9,0.7,3.7,1.9c1.7,3.6,1.7,7.7,0,11.2c-1.5,2.1-4.3,2.6-6.4,1.1c-0.4-0.3-0.8-0.7-1.1-1.1
		c-1.7-3.6-1.7-7.7,0-11.2C590.4,549.4,591.9,548.7,593.4,548.8z M593.4,550.3c-1,0-1.9,0.6-2.3,1.5c-1,2.9-1,6.1,0,9
		c0.6,1.3,2,1.8,3.3,1.3c0.6-0.3,1-0.7,1.3-1.3c1-2.9,1-6.1,0-9C595.3,550.9,594.4,550.3,593.4,550.3L593.4,550.3z"/>
</g>
<g>
	<path d="M6.7,15.5h3.2V4.4L6.4,5.1V3.3l3.5-0.7h2v12.9h3.2v1.7H6.7L6.7,15.5L6.7,15.5z"/>
	<path d="M23.3,2.4C24.8,2.3,26.2,3,27,4.3C28,6,28.4,8,28.3,9.9c0.1,2-0.3,3.9-1.3,5.6c-0.8,1.3-2.2,2-3.7,1.9
		c-1.5,0.1-2.9-0.7-3.7-1.9c-1-1.7-1.4-3.7-1.3-5.6c-0.1-2,0.3-3.9,1.3-5.6C20.3,3,21.8,2.3,23.3,2.4z M23.3,3.9
		c-1,0-1.9,0.6-2.3,1.5c-0.6,1.4-0.9,3-0.8,4.5c-0.1,1.5,0.2,3.1,0.8,4.5c0.6,1.3,2,1.8,3.3,1.3c0.6-0.3,1-0.7,1.3-1.3
		c0.6-1.4,0.9-3,0.8-4.5c0.1-1.5-0.2-3.1-0.8-4.5C25.2,4.5,24.3,3.9,23.3,3.9L23.3,3.9z"/>
	<path d="M36,2.4c1.5-0.1,2.9,0.7,3.7,1.9C40.7,6,41.2,8,41,9.9c0.1,2-0.3,3.9-1.3,5.6c-0.8,1.3-2.2,2-3.7,1.9
		c-1.5,0.1-2.9-0.7-3.7-1.9c-1-1.7-1.4-3.7-1.3-5.6c-0.1-2,0.3-3.9,1.3-5.6C33.1,3,34.5,2.3,36,2.4z M36,3.9c-1,0-1.9,0.6-2.3,1.5
		c-0.6,1.4-0.9,3-0.8,4.5c-0.1,1.5,0.2,3.1,0.8,4.5c0.6,1.3,2,1.8,3.3,1.3c0.6-0.3,1-0.7,1.3-1.3c0.6-1.4,0.9-3,0.8-4.5
		c0.1-1.5-0.2-3.1-0.8-4.5C37.9,4.5,37,3.9,36,3.9L36,3.9z"/>
</g>
<circle class="st4" cx="221.2" cy="333.5" r="8"/>
<circle class="st4" cx="528.9" cy="257.6" r="8"/>
<polyline class="st1" points="513,333.7 513,317.3 528.6,317.3 "/>
</svg>
