<svg xmlns="http://www.w3.org/2000/svg" viewBox="0 0 635 452.02"><defs><style>.a,.b{fill:none;}.a{stroke:#ccc;}.a,.b,.d{stroke-miterlimit:10;}.b{stroke:#888;stroke-width:3px;}.c{fill:#888;}.d{fill:#047;stroke:#047;}</style></defs><title>dimension-3-dimensional</title><line class="a" x1="457.35" y1="351.78" x2="238.34" y2="220.14"/><line class="a" x1="436.01" y1="362.45" x2="218.18" y2="231.56"/><line class="a" x1="414.68" y1="373.12" x2="199.4" y2="243.83"/><line class="a" x1="393.34" y1="383.79" x2="179.67" y2="255.45"/><line class="a" x1="372.01" y1="394.45" x2="160.04" y2="267.08"/><line class="a" x1="350.67" y1="405.12" x2="140.62" y2="279.03"/><line class="a" x1="329.34" y1="415.79" x2="121.42" y2="290.87"/><line class="a" x1="308" y1="426.46" x2="101.47" y2="302.39"/><line class="a" x1="286.66" y1="437.12" x2="82.06" y2="314.23"/><line class="a" x1="265.33" y1="447.79" x2="62.64" y2="326.07"/><line class="a" x1="276.42" y1="220.14" x2="57.31" y2="351.78"/><line class="a" x1="296.48" y1="231.56" x2="78.64" y2="362.45"/><line class="a" x1="315.25" y1="243.83" x2="99.98" y2="373.12"/><line class="a" x1="334.99" y1="255.45" x2="121.31" y2="383.79"/><line class="a" x1="354.62" y1="267.08" x2="142.65" y2="394.45"/><line class="a" x1="374.03" y1="279.03" x2="163.99" y2="405.12"/><line class="a" x1="393.24" y1="290.87" x2="185.32" y2="415.79"/><line class="a" x1="413.18" y1="302.39" x2="206.66" y2="426.46"/><line class="a" x1="432.6" y1="314.23" x2="227.99" y2="437.12"/><line class="a" x1="452.01" y1="326.07" x2="249.33" y2="447.79"/><line class="a" x1="476.44" y1="293.96" x2="257.43" y2="162.32"/><line class="a" x1="476.44" y1="269.85" x2="257.43" y2="138.21"/><line class="a" x1="476.44" y1="245.75" x2="257.43" y2="114.11"/><line class="a" x1="476.44" y1="221.64" x2="257.43" y2="90"/><line class="a" x1="476.44" y1="197.42" x2="257.43" y2="65.89"/><line class="a" x1="476.44" y1="173.31" x2="257.43" y2="41.78"/><line class="a" x1="276.42" y1="220.14" x2="276.42" y2="11.16"/><line class="a" x1="295.95" y1="231.34" x2="295.95" y2="22.36"/><line class="a" x1="315.47" y1="242.76" x2="315.47" y2="33.67"/><line class="a" x1="335.1" y1="256.41" x2="335.1" y2="47.43"/><line class="a" x1="354.62" y1="267.61" x2="354.62" y2="58.63"/><line class="a" x1="374.14" y1="279.03" x2="374.14" y2="69.94"/><line class="a" x1="393.77" y1="290.55" x2="393.77" y2="81.57"/><line class="a" x1="413.29" y1="301.75" x2="413.29" y2="92.77"/><line class="a" x1="432.81" y1="313.17" x2="432.81" y2="104.08"/><line class="a" x1="452.44" y1="324.69" x2="452.44" y2="115.71"/><line class="a" x1="238.02" y1="220.14" x2="238.02" y2="11.16"/><line class="a" x1="218.39" y1="231.34" x2="218.39" y2="22.36"/><line class="a" x1="198.87" y1="242.76" x2="198.87" y2="33.67"/><line class="a" x1="179.35" y1="256.41" x2="179.35" y2="47.43"/><line class="a" x1="159.72" y1="267.61" x2="159.72" y2="58.63"/><line class="a" x1="140.2" y1="279.03" x2="140.2" y2="69.94"/><line class="a" x1="120.67" y1="290.55" x2="120.67" y2="81.57"/><line class="a" x1="101.05" y1="301.75" x2="101.05" y2="92.77"/><line class="a" x1="81.52" y1="313.17" x2="81.52" y2="104.08"/><line class="a" x1="62" y1="324.69" x2="62" y2="115.71"/><line class="a" x1="256.69" y1="186.43" x2="37.68" y2="318.07"/><line class="a" x1="256.69" y1="162.32" x2="37.68" y2="293.96"/><line class="a" x1="256.69" y1="138.21" x2="37.68" y2="269.85"/><line class="a" x1="256.69" y1="114.11" x2="37.68" y2="245.75"/><line class="a" x1="256.69" y1="90" x2="37.68" y2="221.64"/><line class="a" x1="256.69" y1="65.89" x2="37.68" y2="197.42"/><line class="a" x1="256.69" y1="41.78" x2="37.68" y2="173.31"/><line class="a" x1="256.69" y1="17.56" x2="37.68" y2="149.2"/><line class="a" x1="476.44" y1="318.07" x2="257.43" y2="186.43"/><line class="a" x1="476.44" y1="149.2" x2="257.43" y2="17.56"/><polyline class="b" points="257.12 4.23 257.12 208.19 35.12 341.54"/><line class="b" x1="478.68" y1="341.11" x2="257.33" y2="208.19"/><path class="c" d="M357,435.47l1.62.89a10.82,10.82,0,0,0-2.54.29,9,9,0,0,0-2.07.75c-1.07.55-1.54,1.39-1.26,2.26,1,1.91,3.77,3.45,7.12,3.92a6,6,0,0,0,3.83-.95,4.35,4.35,0,0,0,1.32-1.17,2.49,2.49,0,0,0,.38-1.48l1.62.89a4.68,4.68,0,0,1-.69,1.42,4.58,4.58,0,0,1-1.31,1.17,8.88,8.88,0,0,1-5.18,1.26c-4.37-.4-8.06-2.43-9-4.92-.23-1.2.43-2.33,1.83-3.11a7.57,7.57,0,0,1,2-.81A15.14,15.14,0,0,1,357,435.47Z"/><path class="c" d="M363.79,433.49a6.49,6.49,0,0,1,3.75-.89c3.23.41,5.93,1.89,6.8,3.74.22,1.73-2,3.09-5,3h0c-3.24-.41-5.94-1.9-6.8-3.74A2.23,2.23,0,0,1,363.79,433.49Zm1.3.71a1.1,1.1,0,0,0-.61,1.42l0,.06a3.58,3.58,0,0,0,1.93,1.7,9.91,9.91,0,0,0,3,1c1.66.13,3-.49,3.17-1.42.08-.17-.05-.34-.06-.46a7.48,7.48,0,0,0-5-2.73,3.24,3.24,0,0,0-2.52.4Z"/><path class="c" d="M369.86,426.08l1.19.65-1.19.72a1.07,1.07,0,0,0-.58.73,2.09,2.09,0,0,0,.8.76l.76.41,2-1.21,1.08.59-2,1.22,7.77,4.27-1.19.72-7.5-4.16-1.19.72-1.08-.59,1.19-.72-.65-.36a3.12,3.12,0,0,1-1.61-1.51,1.66,1.66,0,0,1,1.18-1.47Z"/><path class="c" d="M374.7,423.15l1.19.65-1.19.72a1.11,1.11,0,0,0-.59.73,2.19,2.19,0,0,0,.81.76l.75.41,2-1.21,1.08.59-2,1.22,7.77,4.27-1.18.72-7.56-4.15-1.18.71-1.08-.59,1.18-.72-.64-.35a3.12,3.12,0,0,1-1.62-1.52,1.69,1.69,0,0,1,1.18-1.46Z"/><path class="c" d="M389.65,422.83l.75.41-5.65,3.43a7.28,7.28,0,0,0,3,.8,4.5,4.5,0,0,0,2.67-.74,6.89,6.89,0,0,0,1.16-1,2,2,0,0,0,.63-1.13l1.4.77a5.06,5.06,0,0,1-.83,1.13,6.63,6.63,0,0,1-1.24,1,7.5,7.5,0,0,1-4,1.06,9.59,9.59,0,0,1-4.44-1.18,4,4,0,0,1-2.45-2.5,2.32,2.32,0,0,1,1.35-2.32,5.49,5.49,0,0,1,3.56-.78A7,7,0,0,1,389.65,422.83Zm-1.62.48a6.59,6.59,0,0,0-2.49-.74,4.39,4.39,0,0,0-2.22.47,1.75,1.75,0,0,0-1,1.35,2.13,2.13,0,0,0,1.21,1.51Z"/><path class="c" d="M398,417.75l.76.41-5.66,3.43a7.28,7.28,0,0,0,3,.8,4.5,4.5,0,0,0,2.67-.74,6.53,6.53,0,0,0,1.15-.95,1.92,1.92,0,0,0,.63-1.13l1.41.77a5.77,5.77,0,0,1-.83,1.13,6.13,6.13,0,0,1-1.16.94c-1.87,1.29-5.36,1.36-7.91.18l-.54-.29a4.11,4.11,0,0,1-2.45-2.51,2.31,2.31,0,0,1,1.35-2.32,5.49,5.49,0,0,1,3.56-.78A7.22,7.22,0,0,1,398,417.75Zm-1.61.48a6.69,6.69,0,0,0-2.5-.74,4.35,4.35,0,0,0-2.21.47,1.75,1.75,0,0,0-1,1.35,2.12,2.12,0,0,0,1.22,1.51Z"/><circle class="d" cx="365.94" cy="239.98" r="2.77"/><circle class="d" cx="208.84" cy="252.25" r="2.77"/><circle class="d" cx="183.65" cy="160.35" r="2.77" transform="translate(-4.05 315.94) rotate(-80.78)"/><circle class="d" cx="258.87" cy="150.37" r="2.77"/><circle class="d" cx="312.48" cy="194.65" r="2.77"/><circle class="d" cx="338.02" cy="287.09" r="2.77"/><circle class="d" cx="305.39" cy="213.52" r="2.77"/><circle class="d" cx="373.65" cy="222.01" r="2.77"/><circle class="d" cx="269.88" cy="279.03" r="2.77"/><circle class="d" cx="319.53" cy="177.26" r="2.77"/><circle class="d" cx="155.62" cy="207.54" r="2.77"/><circle class="d" cx="244.89" cy="187.13" r="2.77"/><circle class="d" cx="250.9" cy="168.82" r="2.77"/><circle class="d" cx="277.42" cy="260.25" r="2.77"/><circle class="d" cx="190.33" cy="142.04" r="2.77"/><circle class="d" cx="148.58" cy="225.41" r="2.77"/><circle class="d" cx="223.33" cy="215.47" r="2.77"/><circle class="d" cx="331.3" cy="305.1" r="2.77"/><circle class="d" cx="284.97" cy="242.76" r="2.77"/><circle class="d" cx="216.62" cy="234.33" r="2.77"/><path class="c" d="M14.13,229.12l-1.54.89a16.37,16.37,0,0,0,.64-2.06,7.7,7.7,0,0,0,.21-1.66,2.22,2.22,0,0,0-.5-1.71,1.24,1.24,0,0,0-1.42.13,3.17,3.17,0,0,0-1.17,1.13A7.34,7.34,0,0,0,9.71,228l-.19,1a8.72,8.72,0,0,1-1.19,3.31c-1.43,2.06-3.57,3.16-4.84,2.5A3.55,3.55,0,0,1,2.61,232a9.92,9.92,0,0,1,.2-1.88,19.42,19.42,0,0,1,.55-2.25L5,227a17.49,17.49,0,0,0-.81,2.34,8,8,0,0,0-.26,2,2.29,2.29,0,0,0,.52,1.83A1.35,1.35,0,0,0,6,233a3.66,3.66,0,0,0,1.35-1.3,6.82,6.82,0,0,0,.72-2.15l.18-1.06a9.14,9.14,0,0,1,1.07-3.18,5.84,5.84,0,0,1,2.13-2A2.39,2.39,0,0,1,13.9,223a2.87,2.87,0,0,1,.88,2.55,10.37,10.37,0,0,1-.15,1.76A16.66,16.66,0,0,1,14.13,229.12Z"/><path class="c" d="M11.27,240.17,9.92,241a8.91,8.91,0,0,0,.5-1.51,6.07,6.07,0,0,0,.17-1.34,1.47,1.47,0,0,0-.89-1.62c-1.5-.17-3.48,1-5,2.87A4.68,4.68,0,0,0,3.81,242,3.73,3.73,0,0,0,4,243.15a2.94,2.94,0,0,0,.5.92l-1.33.77a3.66,3.66,0,0,1-.42-1,6.31,6.31,0,0,1,1.1-5.14c2-2.7,4.75-4.3,6.72-3.88a2.38,2.38,0,0,1,1.23,2.49A9.31,9.31,0,0,1,11.27,240.17Z"/><path class="c" d="M11.81,245.77a6.33,6.33,0,0,1-1.22,3.66c-2,2.59-4.72,4.14-6.75,3.89-1.62-.68-1.63-3.31,0-5.88h0c2-2.59,4.73-4.15,6.75-3.9A2,2,0,0,1,11.81,245.77Zm-1.22.7c0-.74-.31-1.23-.9-1.3-1.53,0-3.42,1.08-5,2.86-1,1.34-1.2,2.88-.44,3.45a1.34,1.34,0,0,0,.44.19,4.09,4.09,0,0,0,2.46-.75,8.3,8.3,0,0,0,2.47-2.1,3.86,3.86,0,0,0,.92-2.36Z"/><path class="c" d="M10.25,258.13a5.11,5.11,0,0,0,.22-.66,3.79,3.79,0,0,0,.06-.67c0-.73-.25-1.26-.8-1.4a3.41,3.41,0,0,0-2.27.66l-4.61,2.66v-1.45l8.75-5v1.45l-1.36.78a1.46,1.46,0,0,1,1.19.49,2.56,2.56,0,0,1,.38,1.55v.76Z"/><path class="c" d="M7.65,268.27l-.7.41v-6.62a7.23,7.23,0,0,0-2.27,2.2,5,5,0,0,0-.77,2.68,4.76,4.76,0,0,0,.2,1.5,3.49,3.49,0,0,0,.61,1.18l-1.34.77a4.61,4.61,0,0,1-.5-1.29,6.77,6.77,0,0,1-.18-1.55c-.16-2.22,1.57-5.24,3.88-6.78a6.22,6.22,0,0,1,.56-.32,4.37,4.37,0,0,1,3.41-.81,2.23,2.23,0,0,1,1.26,2.4,5.94,5.94,0,0,1-1.14,3.45A9,9,0,0,1,7.65,268.27ZM8,266.66a5.66,5.66,0,0,0,1.89-1.75,3.81,3.81,0,0,0,.71-2.11,1.57,1.57,0,0,0-.69-1.54,2.32,2.32,0,0,0-1.92.28Z"/><path class="c" d="M123.82,417l2.72,1.68a4.61,4.61,0,0,1,2.8,3.38c-.21,1.25-1.35,2.44-3.13,3.26a11.78,11.78,0,0,1-5.85,1.59,10.84,10.84,0,0,1-5.67-1.83L112,423.42Zm0,1.54-9.21,5,1.62,1a7.59,7.59,0,0,0,4.1,1.27c3.35-.35,6.18-1.87,7-3.79a3,3,0,0,0-1.93-2.43Z"/><path class="c" d="M133.3,430.69l-5.07,2.74-1.22-.75,1.35-.73a7.08,7.08,0,0,1-2.25,0,5.24,5.24,0,0,1-1.91-.74,1.69,1.69,0,0,1-1.06-1.53,2.29,2.29,0,0,1,1.39-1.52,5.55,5.55,0,0,1,3.09-.7,6.89,6.89,0,0,1,3.28,1.13l1.72,1.06.14-.08a1.56,1.56,0,0,0,1-1.18,1.73,1.73,0,0,0-1-1.27,7.42,7.42,0,0,0-1.43-.66,8.47,8.47,0,0,0-1.72-.42l1.36-.73a15.59,15.59,0,0,1,1.76.55,8.13,8.13,0,0,1,1.39.68,2.17,2.17,0,0,1,1.42,2A4.07,4.07,0,0,1,133.3,430.69Zm-3.05-1.17a6.42,6.42,0,0,0-2.45-1,3.18,3.18,0,0,0-2,.39,1.27,1.27,0,0,0-.81.93,1.15,1.15,0,0,0,.71,1,4,4,0,0,0,2.49.55,7,7,0,0,0,2.91-.86l.28-.15Z"/><path class="c" d="M143.38,429.57l-2.53,1.36,2.52,1.55-1.09.59-2.51-1.55-4.84,2.61a2.44,2.44,0,0,0-1.15.9,1.1,1.1,0,0,0,.72.79l1.25.78-1.18.63-1.26-.77a2.1,2.1,0,0,1-1.33-1.54,3.18,3.18,0,0,1,1.76-1.58l4.84-2.61-.91-.56,1.08-.58.91.56,2.52-1.37Z"/><path class="c" d="M147.28,439.6l-.72.38-5.63-3.46a2.76,2.76,0,0,0-1.53,1.71,1.75,1.75,0,0,0,1.1,1.59,7.33,7.33,0,0,0,1.58.74A12.71,12.71,0,0,0,144,441l-1.38.75a13.7,13.7,0,0,1-1.86-.56,9.23,9.23,0,0,1-1.58-.77,2.53,2.53,0,0,1-1.59-2.41,3.9,3.9,0,0,1,2.31-2.45,9.94,9.94,0,0,1,4.45-1.27,6.87,6.87,0,0,1,4,1,2,2,0,0,1,1.23,2.08A4.2,4.2,0,0,1,147.28,439.6Zm-.81-1a2.4,2.4,0,0,0,1.36-1.38,1.16,1.16,0,0,0-.74-1.28,4.34,4.34,0,0,0-2.33-.63,6.09,6.09,0,0,0-2.65.61Z"/></svg>