<svg xmlns="http://www.w3.org/2000/svg" viewBox="0 0 1088.82 452"><defs><style>.a{fill:#f90;opacity:0.2;isolation:isolate;}.b,.c{fill:none;}.b{stroke:#ccc;}.b,.c,.e{stroke-miterlimit:10;}.c{stroke:#888;stroke-width:3px;}.d{fill:#888;}.e{fill:#047;stroke:#047;}</style></defs><title>dimension-3-dimensional-facets</title><rect class="a" x="736.22" y="318.59" width="159.08" height="127.97"/><polygon class="a" points="62.28 113.53 62.28 325.5 257.38 443.2 257.38 231.24 62.28 113.53"/><line class="b" x1="457.66" y1="351.59" x2="238.66" y2="219.95"/><line class="b" x1="436.33" y1="362.26" x2="218.49" y2="231.36"/><line class="b" x1="414.99" y1="372.93" x2="199.72" y2="243.63"/><line class="b" x1="393.66" y1="383.59" x2="179.98" y2="255.26"/><line class="b" x1="372.32" y1="394.26" x2="160.35" y2="266.89"/><line class="b" x1="350.99" y1="404.93" x2="140.94" y2="278.84"/><line class="b" x1="329.65" y1="415.6" x2="121.74" y2="290.68"/><line class="b" x1="308.32" y1="426.26" x2="101.79" y2="302.2"/><line class="b" x1="286.98" y1="436.93" x2="82.37" y2="314.04"/><line class="b" x1="265.65" y1="447.6" x2="62.96" y2="325.88"/><line class="b" x1="276.74" y1="219.95" x2="57.62" y2="351.59"/><line class="b" x1="296.79" y1="231.36" x2="78.96" y2="362.26"/><line class="b" x1="315.57" y1="243.63" x2="100.3" y2="372.93"/><line class="b" x1="335.31" y1="255.26" x2="121.63" y2="383.59"/><line class="b" x1="354.93" y1="266.89" x2="142.97" y2="394.26"/><line class="b" x1="374.35" y1="278.84" x2="164.3" y2="404.93"/><line class="b" x1="393.55" y1="290.68" x2="185.64" y2="415.6"/><line class="b" x1="413.5" y1="302.2" x2="206.97" y2="426.26"/><line class="b" x1="432.92" y1="314.04" x2="228.31" y2="436.93"/><line class="b" x1="452.33" y1="325.88" x2="249.64" y2="447.6"/><line class="b" x1="476.76" y1="293.77" x2="257.75" y2="162.13"/><line class="b" x1="476.76" y1="269.66" x2="257.75" y2="138.02"/><line class="b" x1="476.76" y1="245.55" x2="257.75" y2="113.91"/><line class="b" x1="476.76" y1="221.44" x2="257.75" y2="89.8"/><line class="b" x1="476.76" y1="197.23" x2="257.75" y2="65.69"/><line class="b" x1="476.76" y1="173.12" x2="257.75" y2="41.59"/><line class="b" x1="276.74" y1="219.95" x2="276.74" y2="10.97"/><line class="b" x1="296.26" y1="231.15" x2="296.26" y2="22.17"/><line class="b" x1="315.78" y1="242.57" x2="315.78" y2="33.48"/><line class="b" x1="335.41" y1="256.22" x2="335.41" y2="47.24"/><line class="b" x1="354.93" y1="267.42" x2="354.93" y2="58.44"/><line class="b" x1="374.46" y1="278.84" x2="374.46" y2="69.75"/><line class="b" x1="394.08" y1="290.36" x2="394.08" y2="81.38"/><line class="b" x1="413.61" y1="301.56" x2="413.61" y2="92.58"/><line class="b" x1="433.13" y1="312.97" x2="433.13" y2="103.89"/><line class="b" x1="452.76" y1="324.49" x2="452.76" y2="115.51"/><line class="b" x1="238.34" y1="219.95" x2="238.34" y2="10.97"/><line class="b" x1="218.71" y1="231.15" x2="218.71" y2="22.17"/><line class="b" x1="199.19" y1="242.57" x2="199.19" y2="33.48"/><line class="b" x1="179.66" y1="256.22" x2="179.66" y2="47.24"/><line class="b" x1="160.03" y1="267.42" x2="160.03" y2="58.44"/><line class="b" x1="140.51" y1="278.84" x2="140.51" y2="69.75"/><line class="b" x1="120.99" y1="290.36" x2="120.99" y2="81.38"/><line class="b" x1="101.36" y1="301.56" x2="101.36" y2="92.58"/><line class="b" x1="81.84" y1="312.97" x2="81.84" y2="103.89"/><line class="b" x1="62.32" y1="324.49" x2="62.32" y2="115.51"/><line class="b" x1="257" y1="186.24" x2="38" y2="317.88"/><line class="b" x1="257" y1="162.13" x2="38" y2="293.77"/><line class="b" x1="257" y1="138.02" x2="38" y2="269.66"/><line class="b" x1="257" y1="113.91" x2="38" y2="245.55"/><line class="b" x1="257" y1="89.8" x2="38" y2="221.44"/><line class="b" x1="257" y1="65.69" x2="38" y2="197.23"/><line class="b" x1="257" y1="41.59" x2="38" y2="173.12"/><line class="b" x1="257" y1="17.37" x2="38" y2="149.01"/><line class="b" x1="476.76" y1="317.88" x2="257.75" y2="186.24"/><line class="b" x1="476.76" y1="149.01" x2="257.75" y2="17.37"/><polyline class="c" points="257.43 4.04 257.43 208 35.44 341.35"/><line class="c" x1="479" y1="340.92" x2="257.64" y2="208"/><path class="d" d="M357.35,435.27l1.62.89a12,12,0,0,0-2.54.3,8.63,8.63,0,0,0-2.08.75c-1.06.55-1.53,1.39-1.26,2.26,1,1.91,3.77,3.45,7.13,3.92a6,6,0,0,0,3.83-.95,4.62,4.62,0,0,0,1.32-1.17,2.56,2.56,0,0,0,.38-1.48l1.62.89a5.28,5.28,0,0,1-.69,1.41,4.27,4.27,0,0,1-1.32,1.18,8.88,8.88,0,0,1-5.18,1.26c-4.36-.4-8.05-2.43-8.95-4.93-.24-1.19.43-2.32,1.83-3.1a8.1,8.1,0,0,1,2-.82A19.6,19.6,0,0,1,357.35,435.27Z"/><path class="d" d="M364.11,433.3a6.45,6.45,0,0,1,3.74-.89c3.24.41,5.94,1.89,6.8,3.74.23,1.73-2,3.08-5,3h0c-3.23-.41-5.93-1.89-6.8-3.74A2.24,2.24,0,0,1,364.11,433.3Zm1.3.71a1.09,1.09,0,0,0-.62,1.4s0,0,0,.08a3.45,3.45,0,0,0,1.93,1.69,9.91,9.91,0,0,0,3,1c1.65.13,3-.49,3.17-1.42a.52.52,0,0,0-.07-.46,7.44,7.44,0,0,0-5-2.73,3.2,3.2,0,0,0-2.52.4Z"/><path class="d" d="M370.18,425.88l1.19.66-1.19.72a1.09,1.09,0,0,0-.59.73,2.19,2.19,0,0,0,.81.76l.75.41,2-1.21,1.08.59-2,1.21L380,434l-1.18.72-7.56-4.16-1.18.72-1.08-.59,1.18-.72-.64-.36a3.12,3.12,0,0,1-1.62-1.52,1.69,1.69,0,0,1,1.18-1.46Z"/><path class="d" d="M375,423l1.18.65-1.18.72a1.06,1.06,0,0,0-.59.73,2.09,2.09,0,0,0,.8.76l.76.41,2-1.21,1.08.59-2,1.22,7.77,4.27-1.19.72-7.55-4.16-1.19.72-1.08-.59,1.19-.72-.65-.36a3.1,3.1,0,0,1-1.61-1.52,1.66,1.66,0,0,1,1.18-1.46Z"/><path class="d" d="M390,422.64l.76.41-5.66,3.43a7.28,7.28,0,0,0,3,.8,4.5,4.5,0,0,0,2.67-.74,6.45,6.45,0,0,0,1.15-1,1.92,1.92,0,0,0,.63-1.13l1.41.77a5.77,5.77,0,0,1-.83,1.13,6.69,6.69,0,0,1-1.25,1,7.5,7.5,0,0,1-4,1.06,9.71,9.71,0,0,1-4.44-1.18,4,4,0,0,1-2.45-2.5,2.29,2.29,0,0,1,1.35-2.32,5.43,5.43,0,0,1,3.56-.78A6.89,6.89,0,0,1,390,422.64Zm-1.61.48a6.59,6.59,0,0,0-2.49-.74,4.39,4.39,0,0,0-2.22.47,1.77,1.77,0,0,0-1,1.35,2.12,2.12,0,0,0,1.22,1.51Z"/><path class="d" d="M398.36,417.55l.76.42-5.66,3.42a7.29,7.29,0,0,0,3,.81,4.47,4.47,0,0,0,2.68-.75,5.77,5.77,0,0,0,1.15-.94,2,2,0,0,0,.63-1.13l1.4.77a4.79,4.79,0,0,1-.83,1.12,6.07,6.07,0,0,1-1.15,1c-1.87,1.28-5.37,1.36-7.92.18l-.54-.3a4.1,4.1,0,0,1-2.45-2.5,2.32,2.32,0,0,1,1.35-2.32,5.49,5.49,0,0,1,3.56-.78A7.36,7.36,0,0,1,398.36,417.55Zm-1.62.48a6.76,6.76,0,0,0-2.49-.73,4.33,4.33,0,0,0-2.21.47,1.73,1.73,0,0,0-1,1.35,2.13,2.13,0,0,0,1.21,1.51Z"/><line class="b" x1="693.55" y1="445.78" x2="693.55" y2="318.59"/><line class="b" x1="679.13" y1="445.78" x2="679.13" y2="318.59"/><line class="b" x1="664.75" y1="445.78" x2="664.75" y2="318.59"/><line class="b" x1="650.33" y1="445.78" x2="650.33" y2="318.59"/><line class="b" x1="635.95" y1="445.78" x2="635.95" y2="318.59"/><line class="b" x1="621.53" y1="445.78" x2="621.53" y2="318.59"/><line class="b" x1="607.15" y1="445.78" x2="607.15" y2="318.59"/><line class="b" x1="592.73" y1="445.78" x2="592.73" y2="318.59"/><line class="b" x1="578.35" y1="445.78" x2="578.35" y2="318.59"/><line class="b" x1="563.93" y1="445.78" x2="563.93" y2="318.59"/><line class="b" x1="549.55" y1="431.63" x2="708.16" y2="431.63"/><line class="b" x1="549.55" y1="417.56" x2="708.16" y2="417.56"/><line class="b" x1="549.55" y1="403.45" x2="708.16" y2="403.45"/><line class="b" x1="549.55" y1="389.37" x2="708.16" y2="389.37"/><line class="b" x1="549.55" y1="375.3" x2="708.16" y2="375.3"/><line class="b" x1="549.55" y1="361.19" x2="708.16" y2="361.19"/><line class="b" x1="549.55" y1="347.12" x2="708.16" y2="347.12"/><line class="b" x1="549.55" y1="333.04" x2="708.16" y2="333.04"/><polyline class="c" points="708.43 446.39 549.32 446.39 549.32 318.28"/><line class="b" x1="880.42" y1="445.78" x2="880.42" y2="318.59"/><line class="b" x1="866" y1="445.78" x2="866" y2="318.59"/><line class="b" x1="851.62" y1="445.78" x2="851.62" y2="318.59"/><line class="b" x1="837.2" y1="445.78" x2="837.2" y2="318.59"/><line class="b" x1="822.82" y1="445.78" x2="822.82" y2="318.59"/><line class="b" x1="808.4" y1="445.78" x2="808.4" y2="318.59"/><line class="b" x1="794.02" y1="445.78" x2="794.02" y2="318.59"/><line class="b" x1="779.6" y1="445.78" x2="779.6" y2="318.59"/><line class="b" x1="765.22" y1="445.78" x2="765.22" y2="318.59"/><line class="b" x1="750.8" y1="445.78" x2="750.8" y2="318.59"/><line class="b" x1="736.42" y1="431.63" x2="895.03" y2="431.63"/><line class="b" x1="736.42" y1="417.56" x2="895.03" y2="417.56"/><line class="b" x1="736.42" y1="403.45" x2="895.03" y2="403.45"/><line class="b" x1="736.42" y1="389.37" x2="895.03" y2="389.37"/><line class="b" x1="736.42" y1="375.3" x2="895.03" y2="375.3"/><line class="b" x1="736.42" y1="361.19" x2="895.03" y2="361.19"/><line class="b" x1="736.42" y1="347.12" x2="895.03" y2="347.12"/><line class="b" x1="736.42" y1="333.04" x2="895.03" y2="333.04"/><line class="c" x1="895.3" y1="446.39" x2="736.19" y2="446.39"/><line class="b" x1="693.55" y1="289.29" x2="693.55" y2="162.09"/><line class="b" x1="679.13" y1="289.29" x2="679.13" y2="162.09"/><line class="b" x1="664.75" y1="289.29" x2="664.75" y2="162.09"/><line class="b" x1="650.33" y1="289.29" x2="650.33" y2="162.09"/><line class="b" x1="635.95" y1="289.29" x2="635.95" y2="162.09"/><line class="b" x1="621.53" y1="289.29" x2="621.53" y2="162.09"/><line class="b" x1="607.15" y1="289.29" x2="607.15" y2="162.09"/><line class="b" x1="592.73" y1="289.29" x2="592.73" y2="162.09"/><line class="b" x1="578.35" y1="289.29" x2="578.35" y2="162.09"/><line class="b" x1="563.93" y1="289.29" x2="563.93" y2="162.09"/><line class="b" x1="549.55" y1="275.14" x2="708.16" y2="275.14"/><line class="b" x1="549.55" y1="261.06" x2="708.16" y2="261.06"/><line class="b" x1="549.55" y1="246.95" x2="708.16" y2="246.95"/><line class="b" x1="549.55" y1="232.88" x2="708.16" y2="232.88"/><line class="b" x1="549.55" y1="218.81" x2="708.16" y2="218.81"/><line class="b" x1="549.55" y1="204.69" x2="708.16" y2="204.69"/><line class="b" x1="549.55" y1="190.62" x2="708.16" y2="190.62"/><line class="b" x1="549.55" y1="176.55" x2="708.16" y2="176.55"/><line class="c" x1="549.32" y1="289.9" x2="549.32" y2="161.78"/><line class="b" x1="1067.29" y1="289.29" x2="1067.29" y2="162.09"/><line class="b" x1="1052.87" y1="289.29" x2="1052.87" y2="162.09"/><line class="b" x1="1038.49" y1="289.29" x2="1038.49" y2="162.09"/><line class="b" x1="1024.07" y1="289.29" x2="1024.07" y2="162.09"/><line class="b" x1="1009.69" y1="289.29" x2="1009.69" y2="162.09"/><line class="b" x1="995.27" y1="289.29" x2="995.27" y2="162.09"/><line class="b" x1="980.89" y1="289.29" x2="980.89" y2="162.09"/><line class="b" x1="966.47" y1="289.29" x2="966.47" y2="162.09"/><line class="b" x1="952.09" y1="289.29" x2="952.09" y2="162.09"/><line class="b" x1="937.67" y1="289.29" x2="937.67" y2="162.09"/><line class="b" x1="923.29" y1="275.14" x2="1081.9" y2="275.14"/><line class="b" x1="923.29" y1="261.06" x2="1081.9" y2="261.06"/><line class="b" x1="923.29" y1="246.95" x2="1081.9" y2="246.95"/><line class="b" x1="923.29" y1="232.88" x2="1081.9" y2="232.88"/><line class="b" x1="923.29" y1="218.81" x2="1081.9" y2="218.81"/><line class="b" x1="923.29" y1="204.69" x2="1081.9" y2="204.69"/><line class="b" x1="923.29" y1="190.62" x2="1081.9" y2="190.62"/><line class="b" x1="923.29" y1="176.55" x2="1081.9" y2="176.55"/><line class="c" x1="1082.17" y1="161.78" x2="1082.17" y2="289.9"/><line class="b" x1="880.42" y1="133.18" x2="880.42" y2="5.98"/><line class="b" x1="866" y1="133.18" x2="866" y2="5.98"/><line class="b" x1="851.62" y1="133.18" x2="851.62" y2="5.98"/><line class="b" x1="837.2" y1="133.18" x2="837.2" y2="5.98"/><line class="b" x1="822.82" y1="133.18" x2="822.82" y2="5.98"/><line class="b" x1="808.4" y1="133.18" x2="808.4" y2="5.98"/><line class="b" x1="794.02" y1="133.18" x2="794.02" y2="5.98"/><line class="b" x1="779.6" y1="133.18" x2="779.6" y2="5.98"/><line class="b" x1="765.22" y1="133.18" x2="765.22" y2="5.98"/><line class="b" x1="750.8" y1="133.18" x2="750.8" y2="5.98"/><line class="b" x1="736.42" y1="119.03" x2="895.03" y2="119.03"/><line class="b" x1="736.42" y1="104.95" x2="895.03" y2="104.95"/><line class="b" x1="736.42" y1="90.84" x2="895.03" y2="90.84"/><line class="b" x1="736.42" y1="76.77" x2="895.03" y2="76.77"/><line class="b" x1="736.42" y1="62.7" x2="895.03" y2="62.7"/><line class="b" x1="736.42" y1="48.59" x2="895.03" y2="48.59"/><line class="b" x1="736.42" y1="34.51" x2="895.03" y2="34.51"/><line class="b" x1="736.42" y1="20.44" x2="895.03" y2="20.44"/><line class="c" x1="736.19" y1="5.68" x2="895.3" y2="5.68"/><line class="b" x1="1067.29" y1="133.18" x2="1067.29" y2="5.98"/><line class="b" x1="1052.87" y1="133.18" x2="1052.87" y2="5.98"/><line class="b" x1="1038.49" y1="133.18" x2="1038.49" y2="5.98"/><line class="b" x1="1024.07" y1="133.18" x2="1024.07" y2="5.98"/><line class="b" x1="1009.69" y1="133.18" x2="1009.69" y2="5.98"/><line class="b" x1="995.27" y1="133.18" x2="995.27" y2="5.98"/><line class="b" x1="980.89" y1="133.18" x2="980.89" y2="5.98"/><line class="b" x1="966.47" y1="133.18" x2="966.47" y2="5.98"/><line class="b" x1="952.09" y1="133.18" x2="952.09" y2="5.98"/><line class="b" x1="937.67" y1="133.18" x2="937.67" y2="5.98"/><line class="b" x1="923.29" y1="119.03" x2="1081.9" y2="119.03"/><line class="b" x1="923.29" y1="104.95" x2="1081.9" y2="104.95"/><line class="b" x1="923.29" y1="90.84" x2="1081.9" y2="90.84"/><line class="b" x1="923.29" y1="76.77" x2="1081.9" y2="76.77"/><line class="b" x1="923.29" y1="62.7" x2="1081.9" y2="62.7"/><line class="b" x1="923.29" y1="48.59" x2="1081.9" y2="48.59"/><line class="b" x1="923.29" y1="34.51" x2="1081.9" y2="34.51"/><line class="b" x1="923.29" y1="20.44" x2="1081.9" y2="20.44"/><polyline class="c" points="923.06 5.67 1082.17 5.67 1082.17 133.79"/><polyline class="c" points="549.32 133.79 549.32 5.67 708.43 5.67"/><polyline class="c" points="1082.4 318.28 1082.4 446.39 923.29 446.39"/><circle class="e" cx="366.26" cy="239.79" r="2.77"/><circle class="e" cx="209.16" cy="252.06" r="2.77"/><circle class="e" cx="183.96" cy="160.16" r="2.77"/><circle class="e" cx="259.19" cy="150.17" r="2.77"/><circle class="e" cx="312.8" cy="194.45" r="2.77"/><circle class="e" cx="338.33" cy="286.9" r="2.77"/><circle class="e" cx="305.71" cy="213.33" r="2.77"/><circle class="e" cx="373.96" cy="221.82" r="2.77"/><circle class="e" cx="270.19" cy="278.84" r="2.77"/><circle class="e" cx="319.85" cy="177.07" r="2.77"/><circle class="e" cx="155.94" cy="207.35" r="2.77"/><circle class="e" cx="245.21" cy="186.93" r="2.77"/><circle class="e" cx="251.22" cy="168.63" r="2.77" transform="translate(44.53 389.59) rotate(-80.78)"/><circle class="e" cx="277.74" cy="260.06" r="2.77"/><circle class="e" cx="190.65" cy="141.85" r="2.77"/><circle class="e" cx="148.9" cy="225.22" r="2.77"/><circle class="e" cx="223.65" cy="215.27" r="2.77"/><circle class="e" cx="331.61" cy="304.91" r="2.77"/><circle class="e" cx="285.29" cy="242.57" r="2.77"/><circle class="e" cx="216.93" cy="234.14" r="2.77"/><path class="d" d="M14.44,228.93l-1.53.89a17,17,0,0,0,.64-2.07,7.7,7.7,0,0,0,.21-1.66,2.28,2.28,0,0,0-.5-1.7,1.24,1.24,0,0,0-1.42.12,3.12,3.12,0,0,0-1.17,1.14,7.34,7.34,0,0,0-.64,2.14l-.2,1.06a8.71,8.71,0,0,1-1.18,3.31c-1.43,2.05-3.58,3.16-4.84,2.5a3.49,3.49,0,0,1-.88-2.83A10.24,10.24,0,0,1,3.12,230a19.46,19.46,0,0,1,.56-2.25l1.62-.94a16.31,16.31,0,0,0-.81,2.35,7.48,7.48,0,0,0-.27,2A2.37,2.37,0,0,0,4.74,233a1.35,1.35,0,0,0,1.53-.16,3.6,3.6,0,0,0,1.34-1.29,6.37,6.37,0,0,0,.73-2.15l.18-1.07a9.15,9.15,0,0,1,1.07-3.17,5.76,5.76,0,0,1,2.13-2,2.4,2.4,0,0,1,2.44-.35,2.9,2.9,0,0,1,.89,2.55A11.5,11.5,0,0,1,14.9,227,15.93,15.93,0,0,1,14.44,228.93Z"/><path class="d" d="M11.58,240l-1.34.78a11.13,11.13,0,0,0,.5-1.51,5.55,5.55,0,0,0,.17-1.35,1.48,1.48,0,0,0-.9-1.61c-1.49-.17-3.47,1-5,2.87a4.57,4.57,0,0,0-.88,2.64,3.4,3.4,0,0,0,.2,1.18,3,3,0,0,0,.5.93l-1.33.77a4,4,0,0,1-.42-1,5.53,5.53,0,0,1-.15-1.28,6.88,6.88,0,0,1,1.25-3.87c2-2.69,4.75-4.3,6.72-3.88a2.4,2.4,0,0,1,1.23,2.5A9.11,9.11,0,0,1,11.58,240Z"/><path class="d" d="M12.13,245.58a6.39,6.39,0,0,1-1.22,3.65c-2,2.59-4.72,4.15-6.75,3.9-1.63-.68-1.63-3.31,0-5.88h0c2-2.59,4.72-4.14,6.75-3.89A2,2,0,0,1,12.13,245.58Zm-1.22.7c0-.74-.31-1.23-.91-1.3-1.52,0-3.42,1.08-4.95,2.86-1,1.34-1.19,2.88-.43,3.45a1.16,1.16,0,0,0,.43.18,4,4,0,0,0,2.47-.75A8.33,8.33,0,0,0,10,248.63a3.93,3.93,0,0,0,.93-2.36Z"/><path class="d" d="M10.57,257.93a3.79,3.79,0,0,0,.21-.65,3,3,0,0,0,.07-.67c0-.74-.26-1.26-.8-1.4a3.4,3.4,0,0,0-2.28.66l-4.6,2.66v-1.45l8.74-5v1.45l-1.35.78a1.44,1.44,0,0,1,1.18.49,2.64,2.64,0,0,1,.39,1.55v.32l-.06.43Z"/><path class="d" d="M8,268.08l-.71.4v-6.61A7,7,0,0,0,5,264.07a5,5,0,0,0-.78,2.68,5.35,5.35,0,0,0,.2,1.49A3.76,3.76,0,0,0,5,269.43l-1.33.77a4,4,0,0,1-.5-1.29A6.24,6.24,0,0,1,3,267.36c-.16-2.23,1.56-5.24,3.88-6.79l.55-.32a4.44,4.44,0,0,1,3.42-.8,2.23,2.23,0,0,1,1.26,2.4A6.08,6.08,0,0,1,11,265.3,9.17,9.17,0,0,1,8,268.08Zm.38-1.61a5.86,5.86,0,0,0,1.89-1.75,3.84,3.84,0,0,0,.7-2.12,1.56,1.56,0,0,0-.68-1.53,2.36,2.36,0,0,0-1.92.27Z"/><path class="d" d="M124.13,416.82l2.73,1.68a4.57,4.57,0,0,1,2.79,3.38c-.2,1.24-1.34,2.43-3.12,3.25a11.69,11.69,0,0,1-5.85,1.6A10.87,10.87,0,0,1,115,424.9l-2.72-1.68Zm0,1.54-9.22,5,1.63,1a7.44,7.44,0,0,0,4.09,1.26c3.36-.34,6.19-1.87,7-3.78a3,3,0,0,0-1.92-2.43Z"/><path class="d" d="M133.62,430.5l-5.07,2.74-1.23-.75,1.36-.74a7.08,7.08,0,0,1-2.25,0,5.36,5.36,0,0,1-1.92-.74,1.72,1.72,0,0,1-1.05-1.53,2.26,2.26,0,0,1,1.38-1.52,5.73,5.73,0,0,1,3.09-.71,7,7,0,0,1,3.29,1.14l1.72,1.05.14-.07c.62-.31,1-.74,1-1.19a1.7,1.7,0,0,0-1-1.26,7.42,7.42,0,0,0-1.43-.66,8.38,8.38,0,0,0-1.71-.42l1.35-.73a13.88,13.88,0,0,1,1.77.54,10.51,10.51,0,0,1,1.39.68,2.16,2.16,0,0,1,1.41,2A4,4,0,0,1,133.62,430.5Zm-3.05-1.18a6.82,6.82,0,0,0-2.45-1,3,3,0,0,0-2,.39,1.27,1.27,0,0,0-.81.93,1.15,1.15,0,0,0,.71,1,4.08,4.08,0,0,0,2.49.54,6.72,6.72,0,0,0,2.9-.85l.28-.15Z"/><path class="d" d="M143.69,429.37l-2.52,1.37,2.51,1.55-1.08.58-2.52-1.55-4.83,2.62a2.38,2.38,0,0,0-1.15.9,1.09,1.09,0,0,0,.71.79l1.26.77-1.19.64-1.25-.77a2.09,2.09,0,0,1-1.33-1.55,3.23,3.23,0,0,1,1.76-1.57l4.83-2.61L138,430l1.09-.58.91.55,2.52-1.36Z"/><path class="d" d="M147.59,439.41l-.71.38-5.63-3.47a2.77,2.77,0,0,0-1.54,1.72,1.75,1.75,0,0,0,1.11,1.59,7.8,7.8,0,0,0,1.58.73,13,13,0,0,0,1.93.48l-1.37.75a17.46,17.46,0,0,1-1.87-.56,9.28,9.28,0,0,1-1.58-.78,2.53,2.53,0,0,1-1.59-2.4,3.89,3.89,0,0,1,2.32-2.45,10,10,0,0,1,4.44-1.27,7,7,0,0,1,3.95.95,2,2,0,0,1,1.24,2.09A4.17,4.17,0,0,1,147.59,439.41Zm-.8-1a2.43,2.43,0,0,0,1.36-1.38,1.16,1.16,0,0,0-.74-1.28,4.26,4.26,0,0,0-2.33-.63,6.09,6.09,0,0,0-2.65.61Z"/><path class="d" d="M800.07,220h3a6.92,6.92,0,0,1,4.67,1.32,6.53,6.53,0,0,1,0,8.29,6.88,6.88,0,0,1-4.66,1.32h-3Zm1.48,1.21v8.51h1.79a4.6,4.6,0,0,0,3.31-1,5.48,5.48,0,0,0,0-6.45,4.6,4.6,0,0,0-3.31-1Z"/><path class="d" d="M818,226.29V231h-1.35v-1.24a3,3,0,0,1-1.15,1.1,3.61,3.61,0,0,1-1.68.36,2.83,2.83,0,0,1-2-.71,2.52,2.52,0,0,1-.74-1.89,2.45,2.45,0,0,1,.93-2.09,4.49,4.49,0,0,1,2.76-.7h1.89v-.14a1.76,1.76,0,0,0-.61-1.44,2.66,2.66,0,0,0-1.72-.5,5.76,5.76,0,0,0-1.37.16,5.7,5.7,0,0,0-1.28.51v-1.25a9.12,9.12,0,0,1,1.44-.42,6.14,6.14,0,0,1,1.35-.15,3.51,3.51,0,0,1,2.66.92A4,4,0,0,1,818,226.29Zm-2.69.56a4.86,4.86,0,0,0-2.26.37,1.37,1.37,0,0,0-.63,1.28,1.45,1.45,0,0,0,.47,1.14,1.82,1.82,0,0,0,1.28.42,2.27,2.27,0,0,0,1.8-.8,3.22,3.22,0,0,0,.68-2.11v-.3Z"/><path class="d" d="M822.09,220.44v2.33h2.77v1h-2.77v4.45a2,2,0,0,0,.27,1.29,1.59,1.59,0,0,0,1.12.29h1.38V231h-1.38a3.08,3.08,0,0,1-2.16-.58,3,3,0,0,1-.59-2.12v-4.45h-1v-1h1v-2.33Z"/><path class="d" d="M833.65,226.53v.66h-6.19a3,3,0,0,0,.83,2.12,2.86,2.86,0,0,0,2.09.73,5.9,5.9,0,0,0,1.51-.19,6.25,6.25,0,0,0,1.45-.57v1.28a7.78,7.78,0,0,1-1.49.46,7.36,7.36,0,0,1-1.55.17,4,4,0,0,1-4.25-3.73,4.34,4.34,0,0,1,0-.51,4.53,4.53,0,0,1,1.09-3.19,3.78,3.78,0,0,1,2.93-1.19,3.32,3.32,0,0,1,2.62,1.07A4.17,4.17,0,0,1,833.65,226.53Zm-1.35-.39a2.54,2.54,0,0,0-.62-1.77,2,2,0,0,0-1.6-.65,2.52,2.52,0,0,0-1.8.63,2.75,2.75,0,0,0-.78,1.8Z"/><path class="d" d="M612.58,64.86v1.5a5.32,5.32,0,0,0-1.6-1,5.81,5.81,0,0,0-1.8-.4,3.31,3.31,0,0,0-2.8,1.2,6.07,6.07,0,0,0,0,6.6,3.43,3.43,0,0,0,2.88,1.1,5.53,5.53,0,0,0,1.8-.3,5.32,5.32,0,0,0,1.6-1v1.5a9.76,9.76,0,0,1-1.7.8,5.53,5.53,0,0,1-1.8.3,5,5,0,0,1-3.9-1.5,6.76,6.76,0,0,1,0-8.3,5.12,5.12,0,0,1,3.9-1.6,5.53,5.53,0,0,1,1.8.3A7.63,7.63,0,0,1,612.58,64.86Z"/><path class="d" d="M618,66.6a3.66,3.66,0,0,1,2.8,1.1,5.58,5.58,0,0,1,0,6.3,3.92,3.92,0,0,1-5.5,0h0a5.58,5.58,0,0,1,0-6.3A3.84,3.84,0,0,1,618,66.6Zm0,1.2a2,2,0,0,0-1.7.9,3.2,3.2,0,0,0-.6,2.3,4.62,4.62,0,0,0,.6,2.3,2.2,2.2,0,0,0,3,.4c.2-.1.3-.3.4-.4a4.71,4.71,0,0,0,0-4.6A1.67,1.67,0,0,0,618,67.8Z"/><path class="d" d="M628.18,63.6v1.1h-1.3a1.68,1.68,0,0,0-1,.3,2,2,0,0,0-.3,1v.7h2.2v1h-2.2v7.16h-1.32v-7H623v-1h1.3v-.6a3,3,0,0,1,.6-2,2.52,2.52,0,0,1,2-.6Z"/><path class="d" d="M633.48,63.6v1.1h-1.3a1.68,1.68,0,0,0-1,.3,2,2,0,0,0-.3,1v.7h2.2v1h-2.2v7.16h-1.3v-7h-1.32v-1h1.3v-.6a3,3,0,0,1,.6-2,2.52,2.52,0,0,1,2-.6Z"/><path class="d" d="M641.58,70.6v.7h-6.2a3.25,3.25,0,0,0,.8,2.1,2.7,2.7,0,0,0,2.1.7,7.52,7.52,0,0,0,1.5-.2,3.63,3.63,0,0,0,1.4-.6v1.3a8.8,8.8,0,0,1-1.5.5,7.87,7.87,0,0,1-1.6.2,4.35,4.35,0,0,1-3.1-1.1,4.31,4.31,0,0,1-1.2-3.1,4.2,4.2,0,0,1,1.1-3.2,4,4,0,0,1,2.9-1.2,3,3,0,0,1,2.6,1.1A3.08,3.08,0,0,1,641.58,70.6Zm-1.3-.4a3,3,0,0,0-.6-1.8,2.35,2.35,0,0,0-1.6-.7,2.79,2.79,0,0,0-1.8.6,2.53,2.53,0,0,0-.8,1.8Z"/><path class="d" d="M650.78,70.6v.7h-6.2a3.25,3.25,0,0,0,.8,2.1,2.7,2.7,0,0,0,2.1.7,7.52,7.52,0,0,0,1.5-.2,3.63,3.63,0,0,0,1.4-.6v1.3a8.8,8.8,0,0,1-1.5.5,7.52,7.52,0,0,1-1.5.2,4.1,4.1,0,0,1-4.3-3.7v-.5a4.2,4.2,0,0,1,1.1-3.2,4,4,0,0,1,2.9-1.2,3,3,0,0,1,2.6,1.1A3.27,3.27,0,0,1,650.78,70.6Zm-1.3-.4a3,3,0,0,0-.6-1.8,2.35,2.35,0,0,0-1.6-.7,2.79,2.79,0,0,0-1.8.6,2.53,2.53,0,0,0-.8,1.8Z"/><path class="d" d="M988.94,377.53V379a9,9,0,0,0-1.59-.6,5.82,5.82,0,0,0-1.44-.2,3.23,3.23,0,0,0-1.87.47,1.55,1.55,0,0,0-.65,1.33,1.38,1.38,0,0,0,.43,1.1,4.1,4.1,0,0,0,1.66.6l.89.18a4.53,4.53,0,0,1,2.44,1.11,3.26,3.26,0,0,1-.28,4.54,5.13,5.13,0,0,1-3.12.82,7.58,7.58,0,0,1-1.65-.18,12.49,12.49,0,0,1-1.81-.52v-1.54a8.83,8.83,0,0,0,1.76.76,6.08,6.08,0,0,0,1.7.25,3.35,3.35,0,0,0,2-.49,1.67,1.67,0,0,0,.68-1.43,1.61,1.61,0,0,0-.49-1.26,3.54,3.54,0,0,0-1.62-.68l-.9-.17a4.92,4.92,0,0,1-2.4-1,2.61,2.61,0,0,1-.74-2,2.83,2.83,0,0,1,1-2.29,4.38,4.38,0,0,1,2.82-.83,9.16,9.16,0,0,1,1.57.14A8.86,8.86,0,0,1,988.94,377.53Z"/><path class="d" d="M997.75,380.19v1.26a5.17,5.17,0,0,0-1.14-.47,4.59,4.59,0,0,0-1.17-.16,2.57,2.57,0,0,0-2,.84,4.09,4.09,0,0,0,0,4.66,2.53,2.53,0,0,0,2,.83,4.18,4.18,0,0,0,1.17-.16,5.14,5.14,0,0,0,1.14-.46v1.25a6.18,6.18,0,0,1-1.17.39,6.12,6.12,0,0,1-1.28.14,3.84,3.84,0,0,1-3-1.17,5.08,5.08,0,0,1,0-6.3,4,4,0,0,1,3-1.15,6.19,6.19,0,0,1,2.4.51Z"/><path class="d" d="M1003.29,379.68a3.5,3.5,0,0,1,2.77,1.14,5.52,5.52,0,0,1,0,6.33,3.9,3.9,0,0,1-5.52,0h0a5.52,5.52,0,0,1,0-6.33A3.49,3.49,0,0,1,1003.29,379.68Zm0,1.14a2,2,0,0,0-1.71.85,4.59,4.59,0,0,0,0,4.64,2.15,2.15,0,0,0,3,.41,2.65,2.65,0,0,0,.41-.41,3.71,3.71,0,0,0,.63-2.31,3.85,3.85,0,0,0-.63-2.31,2,2,0,0,0-1.71-.87Z"/><path class="d" d="M1014,381.14a2.37,2.37,0,0,0-.5-.2,2.88,2.88,0,0,0-.59-.06,2.13,2.13,0,0,0-1.75.75,3.25,3.25,0,0,0-.61,2.13v4.32h-1.36v-8.2h1.36v1.27a2.93,2.93,0,0,1,1.1-1.11,3.56,3.56,0,0,1,1.66-.36h.68Z"/><path class="d" d="M1022.13,383.61v.66h-6.2a3.08,3.08,0,0,0,.84,2.12,2.86,2.86,0,0,0,2.09.73,5.8,5.8,0,0,0,1.49-.19,6.18,6.18,0,0,0,1.44-.57v1.25a6.89,6.89,0,0,1-1.48.47,7.36,7.36,0,0,1-1.55.17,4,4,0,0,1-4.24-3.72,4.51,4.51,0,0,1,0-.52,4.56,4.56,0,0,1,1.09-3.2,3.8,3.8,0,0,1,2.93-1.18,3.32,3.32,0,0,1,2.62,1.07A4.12,4.12,0,0,1,1022.13,383.61Zm-1.35-.39a2.59,2.59,0,0,0-.62-1.77,2.1,2.1,0,0,0-1.6-.66,2.57,2.57,0,0,0-1.81.64,2.75,2.75,0,0,0-.78,1.8Z"/><circle class="e" cx="854.09" cy="430.38" r="2.77"/><circle class="e" cx="875.59" cy="403.46" r="2.77"/><circle class="e" cx="845.67" cy="409.96" r="2.77"/><circle class="e" cx="826.75" cy="415.51" r="2.77"/><circle class="e" cx="867.25" cy="383.35" r="2.77"/><circle class="e" cx="848.09" cy="388.43" r="2.77"/><circle class="e" cx="799.25" cy="400.18" r="2.77"/><circle class="e" cx="818.5" cy="395.18" r="2.77"/><circle class="e" cx="771.67" cy="385.35" r="2.77"/><circle class="e" cx="763.5" cy="364.85" r="2.77"/><circle class="e" cx="790.92" cy="379.8" r="2.77"/><circle class="e" cx="793.25" cy="358.46" r="2.77"/><circle class="e" cx="820.67" cy="373.46" r="2.77"/><circle class="e" cx="784.92" cy="338.12" r="2.77"/><circle class="e" cx="812.42" cy="353.29" r="2.77"/><circle class="e" cx="839.75" cy="368.24" r="2.77"/><circle class="e" cx="870.03" cy="361.58" r="2.77"/><circle class="e" cx="842.52" cy="347.12" r="2.77"/><circle class="e" cx="834.2" cy="326.37" r="2.77"/><circle class="e" cx="861.71" cy="341.57" r="2.77"/><circle class="e" cx="676.36" cy="385.11" r="2.77"/><circle class="e" cx="667.52" cy="373.79" r="2.77"/><circle class="e" cx="652.25" cy="399.99" r="2.77"/><circle class="e" cx="627.96" cy="415.43" r="2.77"/><circle class="e" cx="683.34" cy="347.12" r="2.77"/><circle class="e" cx="644.05" cy="388.33" r="2.77"/><circle class="e" cx="581.12" cy="383.33" r="2.77"/><circle class="e" cx="619.58" cy="403.46" r="2.77"/><circle class="e" cx="603.62" cy="430.25" r="2.77"/><circle class="e" cx="565.2" cy="409.88" r="2.77"/><circle class="e" cx="589.37" cy="394.95" r="2.77"/><circle class="e" cx="605.36" cy="368.24" r="2.77"/><circle class="e" cx="613.62" cy="379.56" r="2.77"/><circle class="e" cx="692.19" cy="358.46" r="2.77"/><circle class="e" cx="620.52" cy="341.32" r="2.77"/><circle class="e" cx="637.96" cy="364.9" r="2.77"/><circle class="e" cx="659.21" cy="361.19" r="2.77"/><circle class="e" cx="629.61" cy="353.14" r="2.77"/><circle class="e" cx="645.07" cy="326.58" r="2.77"/><circle class="e" cx="653.66" cy="337.97" r="2.77"/><circle class="e" cx="691.97" cy="244.55" r="2.77"/><circle class="e" cx="627.8" cy="218.67" r="2.77"/><circle class="e" cx="645.07" cy="211.75" r="2.77"/><circle class="e" cx="676.36" cy="262.42" r="2.77"/><circle class="e" cx="659.21" cy="183.47" r="2.77"/><circle class="e" cx="652.32" cy="239.92" r="2.77"/><circle class="e" cx="581.12" cy="185.32" r="2.77"/><circle class="e" cx="653.66" cy="252.06" r="2.77"/><circle class="e" cx="638.09" cy="269.11" r="2.77"/><circle class="e" cx="565.14" cy="203.01" r="2.77"/><circle class="e" cx="613.8" cy="247.33" r="2.77"/><circle class="e" cx="589.46" cy="225.5" r="2.77"/><circle class="e" cx="629.61" cy="230.11" r="2.77"/><circle class="e" cx="643.64" cy="200.24" r="2.77"/><circle class="e" cx="619.35" cy="178.86" r="2.77"/><circle class="e" cx="667.52" cy="222.72" r="2.77"/><circle class="e" cx="683.34" cy="204.94" r="2.77"/><circle class="e" cx="605.42" cy="207.71" r="2.77"/><circle class="e" cx="603.56" cy="196.26" r="2.77"/><circle class="e" cx="620.52" cy="189.62" r="2.77"/><circle class="e" cx="875.45" cy="76.77" r="2.77"/><circle class="e" cx="791.1" cy="81.43" r="2.77"/><circle class="e" cx="848.55" cy="57.53" r="2.77"/><circle class="e" cx="854.1" cy="89.49" r="2.77"/><circle class="e" cx="869.8" cy="45.17" r="2.77"/><circle class="e" cx="839.95" cy="88.47" r="2.77"/><circle class="e" cx="772.41" cy="31.18" r="2.77"/><circle class="e" cx="827.04" cy="70.2" r="2.77"/><circle class="e" cx="861.48" cy="75.31" r="2.77"/><circle class="e" cx="763.77" cy="61.81" r="2.77"/><circle class="e" cx="800.07" cy="50.72" r="2.77"/><circle class="e" cx="833.66" cy="56.26" r="2.77"/><circle class="e" cx="812.41" cy="69.23" r="2.77"/><circle class="e" cx="845.78" cy="120.42" r="2.77"/><circle class="e" cx="842.73" cy="25.63" r="2.77"/><circle class="e" cx="818.01" cy="101.43" r="2.77"/><circle class="e" cx="867.02" cy="107.72" r="2.77"/><circle class="e" cx="785.55" cy="48.79" r="2.77"/><circle class="e" cx="792.9" cy="17.67" r="2.77"/><circle class="e" cx="819.91" cy="38.17" r="2.77"/><circle class="e" cx="1021.48" cy="88.47" r="2.77"/><circle class="e" cx="977.01" cy="76.77" r="2.77"/><circle class="e" cx="1024.09" cy="61.81" r="2.77"/><circle class="e" cx="999.35" cy="31.18" r="2.77"/><circle class="e" cx="1058.14" cy="49.1" r="2.77"/><circle class="e" cx="1002.12" cy="107.72" r="2.77"/><circle class="e" cx="962.5" cy="70.39" r="2.77"/><circle class="e" cx="1028.29" cy="44.17" r="2.77"/><circle class="e" cx="1040.41" cy="69.23" r="2.77"/><circle class="e" cx="943.51" cy="89.62" r="2.77"/><circle class="e" cx="981.41" cy="51.87" r="2.77"/><circle class="e" cx="1053.87" cy="76.94" r="2.77"/><circle class="e" cx="995.27" cy="57.53" r="2.77"/><circle class="e" cx="987.08" cy="100.43" r="2.77"/><circle class="e" cx="1032.66" cy="18.79" r="2.77"/><circle class="e" cx="1005.92" cy="81.43" r="2.77"/><circle class="e" cx="1013.61" cy="38.17" r="2.77"/><circle class="e" cx="969.05" cy="120.42" r="2.77"/><circle class="e" cx="1046.74" cy="25.63" r="2.77"/><circle class="e" cx="1072.5" cy="56.26" r="2.77"/><circle class="e" cx="1032.6" cy="245.01" r="2.77"/><circle class="e" cx="987.47" cy="224.93" r="2.77"/><circle class="e" cx="1020.54" cy="207.42" r="2.77"/><circle class="e" cx="976.26" cy="178.74" r="2.77"/><circle class="e" cx="1057.76" cy="251.42" r="2.77"/><circle class="e" cx="1024.07" cy="269.11" r="2.77"/><circle class="e" cx="961.95" cy="218.79" r="2.77"/><circle class="e" cx="1046.91" cy="204.65" r="2.77"/><circle class="e" cx="1039.36" cy="229.66" r="2.77"/><circle class="e" cx="943.13" cy="196.34" r="2.77"/><circle class="e" cx="969.05" cy="202.87" r="2.77"/><circle class="e" cx="1006.16" cy="246.97" r="2.77"/><circle class="e" cx="995.27" cy="200.9" r="2.77"/><circle class="e" cx="1013.55" cy="222.57" r="2.77"/><circle class="e" cx="1002.48" cy="185.45" r="2.77"/><circle class="e" cx="980.87" cy="239.92" r="2.77"/><circle class="e" cx="1053.26" cy="189.88" r="2.77"/><circle class="e" cx="999.71" cy="262.49" r="2.77"/><circle class="e" cx="1027.97" cy="183.58" r="2.77"/><circle class="e" cx="1072.31" cy="211.75" r="2.77"/></svg>