<svg xmlns="http://www.w3.org/2000/svg" viewBox="0 0 635 106"><defs><style>.a{fill:none;stroke:#888;stroke-width:3px;}.a,.b{stroke-miterlimit:10;}.b{fill:#047;stroke:#047;}.c{fill:#888;}</style></defs><title>dimension-1-dimensional</title><line class="a" x1="427.2" y1="49.9" x2="11.5" y2="49.9"/><circle class="b" cx="90.5" cy="11.4" r="2.6"/><circle class="b" cx="109.3" cy="11.4" r="2.6"/><circle class="b" cx="143.5" cy="11.4" r="2.6"/><circle class="b" cx="264.6" cy="11.4" r="2.6"/><circle class="b" cx="332.5" cy="11.4" r="2.6"/><circle class="b" cx="352.1" cy="11.4" r="2.6"/><circle class="b" cx="211.3" cy="11.4" r="2.6"/><circle class="b" cx="345.1" cy="11.4" r="2.6"/><circle class="b" cx="366.1" cy="11.4" r="2.6"/><circle class="b" cx="312.1" cy="11.4" r="2.6"/><circle class="b" cx="279.4" cy="11.4" r="2.6"/><circle class="b" cx="157.7" cy="11.4" r="2.6"/><circle class="b" cx="176.9" cy="11.4" r="2.6"/><circle class="b" cx="245.4" cy="11.4" r="2.6"/><circle class="b" cx="292.9" cy="11.4" r="2.6"/><circle class="b" cx="225.3" cy="11.4" r="2.6"/><circle class="b" cx="230.5" cy="11.4" r="2.6"/><circle class="b" cx="298.1" cy="11.4" r="2.6"/><circle class="b" cx="162.7" cy="11.4" r="2.6"/><circle class="b" cx="283.3" cy="11.4" r="2.6"/><path class="c" d="M203.22,92.77h3a6.9,6.9,0,0,1,4.67,1.32,6.53,6.53,0,0,1,0,8.29,6.83,6.83,0,0,1-4.66,1.33h-3ZM204.7,94v8.5h1.79a4.6,4.6,0,0,0,3.31-1,5.55,5.55,0,0,0,0-6.5,4.6,4.6,0,0,0-3.31-1Z"/><path class="c" d="M221.13,99v4.68h-1.35v-1.25a2.83,2.83,0,0,1-1.15,1.1,3.61,3.61,0,0,1-1.68.36,2.83,2.83,0,0,1-2-.71,2.52,2.52,0,0,1-.74-1.89,2.47,2.47,0,0,1,.93-2.09,4.55,4.55,0,0,1,2.76-.7h1.89v-.1a1.76,1.76,0,0,0-.61-1.44,2.58,2.58,0,0,0-1.72-.51,5.3,5.3,0,0,0-1.37.17,5.24,5.24,0,0,0-1.28.5V95.88a8.2,8.2,0,0,1,1.44-.43,6.8,6.8,0,0,1,1.35-.14,3.48,3.48,0,0,1,2.66.92A3.87,3.87,0,0,1,221.13,99Zm-2.69.55a4.74,4.74,0,0,0-2.26.38,1.35,1.35,0,0,0-.63,1.27,1.45,1.45,0,0,0,.47,1.14,1.83,1.83,0,0,0,1.29.42,2.2,2.2,0,0,0,1.79-.79,3.12,3.12,0,0,0,.68-2.12v-.3Z"/><path class="c" d="M225.24,93.17V95.5H228v1h-2.77V101a2,2,0,0,0,.27,1.29,1.59,1.59,0,0,0,1.12.29H228v1.13h-1.38a3,3,0,0,1-2.15-.59,2.89,2.89,0,0,1-.6-2.12V96.55h-1v-1h1V93.17Z"/><path class="c" d="M236.8,99.27v.66h-6.19a3.08,3.08,0,0,0,.84,2.12,2.9,2.9,0,0,0,2.09.73,6.29,6.29,0,0,0,1.5-.19,7.53,7.53,0,0,0,1.45-.57v1.27a8.6,8.6,0,0,1-1.49.47,7.26,7.26,0,0,1-1.54.16,4,4,0,0,1-4.26-3.72,4.34,4.34,0,0,1,0-.51,4.56,4.56,0,0,1,1.09-3.2,3.8,3.8,0,0,1,2.93-1.18,3.35,3.35,0,0,1,2.62,1.06A4.19,4.19,0,0,1,236.8,99.27Zm-1.34-.4a2.58,2.58,0,0,0-.62-1.76,2.1,2.1,0,0,0-1.6-.66,2.47,2.47,0,0,0-1.81.64,2.69,2.69,0,0,0-.78,1.79Z"/><path class="c" d="M3.9,64.51H5.38V74.68a4.46,4.46,0,0,1-.75,2.88,3,3,0,0,1-2.41.89H1.65V77.2h.46a1.6,1.6,0,0,0,1.39-.54,3.48,3.48,0,0,0,.4-2Z"/><path class="c" d="M14.68,70.77v4.68H13.33V74.2a2.83,2.83,0,0,1-1.15,1.1,3.61,3.61,0,0,1-1.68.36A2.63,2.63,0,0,1,8.62,71l.06-.06a4.55,4.55,0,0,1,2.76-.7h1.89v-.13a1.76,1.76,0,0,0-.61-1.44A2.58,2.58,0,0,0,11,68.16a5.3,5.3,0,0,0-1.37.17,5.24,5.24,0,0,0-1.28.5V67.62a9.15,9.15,0,0,1,1.44-.43,6.8,6.8,0,0,1,1.35-.14A3.48,3.48,0,0,1,13.8,68,3.9,3.9,0,0,1,14.68,70.77ZM12,71.32a4.74,4.74,0,0,0-2.26.38A1.36,1.36,0,0,0,9.1,73a1.45,1.45,0,0,0,.47,1.14,1.94,1.94,0,0,0,1.29.42,2.23,2.23,0,0,0,1.8-.79,3.18,3.18,0,0,0,.67-2.12v-.3Z"/><path class="c" d="M24.28,70.5v5H22.93v-5a2.68,2.68,0,0,0-.46-1.74,1.61,1.61,0,0,0-1.36-.58,2.21,2.21,0,0,0-1.72.69,2.73,2.73,0,0,0-.63,1.9v4.64H17.41V67.24h1.35v1.28a3.19,3.19,0,0,1,1.14-1.11,3,3,0,0,1,1.51-.36,2.63,2.63,0,0,1,2.14.87A4,4,0,0,1,24.28,70.5Z"/><path class="c" d="M415.6,64.51h1.48V74.68a4.46,4.46,0,0,1-.75,2.88,3,3,0,0,1-2.41.89h-.56V77.2h.46a1.64,1.64,0,0,0,1.38-.54,3.48,3.48,0,0,0,.4-2Z"/><path class="c" d="M419.83,72.21v-5h1.35v4.92a2.83,2.83,0,0,0,.45,1.74,1.65,1.65,0,0,0,1.36.59,2.22,2.22,0,0,0,1.73-.7,2.73,2.73,0,0,0,.63-1.9V67.24h1.35v8.21h-1.35V74.19a3.36,3.36,0,0,1-1.14,1.11,3,3,0,0,1-1.5.36,2.66,2.66,0,0,1-2.15-.88A3.86,3.86,0,0,1,419.83,72.21Z"/><path class="c" d="M436.3,70.5v5H435v-5a2.68,2.68,0,0,0-.46-1.74,1.61,1.61,0,0,0-1.36-.58,2.21,2.21,0,0,0-1.72.69,2.73,2.73,0,0,0-.63,1.9v4.64h-1.35V67.24h1.35v1.28A3.19,3.19,0,0,1,432,67.41a3,3,0,0,1,1.51-.36,2.63,2.63,0,0,1,2.14.87A4.05,4.05,0,0,1,436.3,70.5Z"/><line class="a" x1="13" y1="57" x2="13" y2="51.23"/><line class="a" x1="425.7" y1="57" x2="425.7" y2="51.23"/><line class="a" x1="95.54" y1="57" x2="95.54" y2="51.23"/><line class="a" x1="178.08" y1="57" x2="178.08" y2="51.23"/><line class="a" x1="260.62" y1="57" x2="260.62" y2="51.23"/><line class="a" x1="343.16" y1="57" x2="343.16" y2="51.23"/></svg>