<svg xmlns="http://www.w3.org/2000/svg" viewBox="0 0 635 106"><defs><style>.a{fill:none;stroke:#888;stroke-width:3px;}.a,.b{stroke-miterlimit:10;}.b{fill:#047;stroke:#047;}.c{fill:#888;}</style></defs><title>scatterplot-1</title><line class="a" x1="521.2" y1="49.9" x2="105.5" y2="49.9"/><circle class="b" cx="184.5" cy="11.4" r="2.6"/><circle class="b" cx="203.3" cy="11.4" r="2.6"/><circle class="b" cx="237.5" cy="11.4" r="2.6"/><circle class="b" cx="358.6" cy="11.4" r="2.6"/><circle class="b" cx="426.5" cy="11.4" r="2.6"/><circle class="b" cx="446.1" cy="11.4" r="2.6"/><circle class="b" cx="305.3" cy="11.4" r="2.6"/><circle class="b" cx="439.1" cy="11.4" r="2.6"/><circle class="b" cx="460.1" cy="11.4" r="2.6"/><circle class="b" cx="406.1" cy="11.4" r="2.6"/><circle class="b" cx="373.4" cy="11.4" r="2.6"/><circle class="b" cx="251.7" cy="11.4" r="2.6"/><circle class="b" cx="270.9" cy="11.4" r="2.6"/><circle class="b" cx="339.4" cy="11.4" r="2.6"/><circle class="b" cx="386.9" cy="11.4" r="2.6"/><circle class="b" cx="319.3" cy="11.4" r="2.6"/><circle class="b" cx="324.5" cy="11.4" r="2.6"/><circle class="b" cx="392.1" cy="11.4" r="2.6"/><circle class="b" cx="256.7" cy="11.4" r="2.6"/><circle class="b" cx="377.3" cy="11.4" r="2.6"/><path class="c" d="M297.22,92.77h3a6.91,6.91,0,0,1,4.67,1.32,6.53,6.53,0,0,1,0,8.29,6.86,6.86,0,0,1-4.66,1.33h-3ZM298.7,94v8.5h1.79a4.6,4.6,0,0,0,3.31-1,4.38,4.38,0,0,0,1.05-3.24A4.32,4.32,0,0,0,303.8,95a4.6,4.6,0,0,0-3.31-1Z"/><path class="c" d="M315.13,99v4.68h-1.35v-1.25a2.88,2.88,0,0,1-1.15,1.1,3.6,3.6,0,0,1-1.68.36,2.82,2.82,0,0,1-2-.71,2.5,2.5,0,0,1-.74-1.89,2.46,2.46,0,0,1,.93-2.09,4.53,4.53,0,0,1,2.76-.7h1.89V98.4a1.76,1.76,0,0,0-.61-1.44,2.61,2.61,0,0,0-1.72-.51,5.25,5.25,0,0,0-1.37.17,5.57,5.57,0,0,0-1.28.5V95.88a8.37,8.37,0,0,1,1.44-.43,6.32,6.32,0,0,1,1.35-.14,3.48,3.48,0,0,1,2.66.92A3.9,3.9,0,0,1,315.13,99Zm-2.69.55a4.77,4.77,0,0,0-2.26.38,1.35,1.35,0,0,0-.63,1.27,1.46,1.46,0,0,0,.47,1.14,1.87,1.87,0,0,0,1.29.42,2.23,2.23,0,0,0,1.79-.79,3.12,3.12,0,0,0,.68-2.12v-.3Z"/><path class="c" d="M319.24,93.17V95.5H322v1h-2.77V101a2,2,0,0,0,.27,1.29,1.6,1.6,0,0,0,1.12.29H322v1.13h-1.38a3,3,0,0,1-2.15-.59,2.9,2.9,0,0,1-.6-2.12V96.55h-1v-1h1V93.17Z"/><path class="c" d="M330.8,99.27v.66h-6.19a3.12,3.12,0,0,0,.84,2.12,2.89,2.89,0,0,0,2.09.73,6.23,6.23,0,0,0,1.5-.19,7,7,0,0,0,1.45-.57v1.27a8.88,8.88,0,0,1-1.49.47,7.26,7.26,0,0,1-1.54.16,4.21,4.21,0,0,1-3.11-1.14,4.14,4.14,0,0,1-1.15-3.09,4.52,4.52,0,0,1,1.09-3.2,3.77,3.77,0,0,1,2.93-1.18,3.34,3.34,0,0,1,2.62,1.06A4.18,4.18,0,0,1,330.8,99.27Zm-1.34-.4a2.58,2.58,0,0,0-.62-1.76,2.08,2.08,0,0,0-1.6-.66,2.5,2.5,0,0,0-1.81.64,2.68,2.68,0,0,0-.78,1.79Z"/><path class="c" d="M97.9,64.51h1.48V74.68a4.48,4.48,0,0,1-.75,2.88,3,3,0,0,1-2.41.89h-.57V77.2h.46a1.62,1.62,0,0,0,1.39-.54,3.53,3.53,0,0,0,.4-2Z"/><path class="c" d="M108.68,70.77v4.68h-1.35V74.2a2.82,2.82,0,0,1-1.15,1.1,3.6,3.6,0,0,1-1.68.36,2.78,2.78,0,0,1-2-.71,2.79,2.79,0,0,1,.18-4,4.53,4.53,0,0,1,2.76-.7h1.89v-.13a1.76,1.76,0,0,0-.61-1.44,2.61,2.61,0,0,0-1.72-.51,5.3,5.3,0,0,0-1.37.17,5.57,5.57,0,0,0-1.28.5V67.62a8.64,8.64,0,0,1,1.44-.43,6.32,6.32,0,0,1,1.35-.14,3.48,3.48,0,0,1,2.66.92A3.9,3.9,0,0,1,108.68,70.77Zm-2.69.55a4.77,4.77,0,0,0-2.26.38A1.35,1.35,0,0,0,103.1,73a1.46,1.46,0,0,0,.47,1.14,1.89,1.89,0,0,0,1.29.42,2.25,2.25,0,0,0,1.8-.79,3.17,3.17,0,0,0,.67-2.12v-.3Z"/><path class="c" d="M118.28,70.5v5h-1.35V70.54a2.72,2.72,0,0,0-.46-1.74,1.6,1.6,0,0,0-1.36-.58,2.21,2.21,0,0,0-1.72.69,2.74,2.74,0,0,0-.63,1.9v4.64h-1.35V67.24h1.35v1.28a3.25,3.25,0,0,1,1.14-1.11,3.09,3.09,0,0,1,1.51-.36,2.63,2.63,0,0,1,2.14.87A4,4,0,0,1,118.28,70.5Z"/><path class="c" d="M509.6,64.51h1.48V74.68a4.48,4.48,0,0,1-.75,2.88,3,3,0,0,1-2.41.89h-.56V77.2h.46a1.62,1.62,0,0,0,1.38-.54,3.53,3.53,0,0,0,.4-2Z"/><path class="c" d="M513.83,72.21v-5h1.35v4.92a2.81,2.81,0,0,0,.45,1.74,1.63,1.63,0,0,0,1.36.59,2.2,2.2,0,0,0,1.73-.7,2.71,2.71,0,0,0,.63-1.9V67.24h1.35v8.21h-1.35V74.19a3.34,3.34,0,0,1-1.14,1.11,3,3,0,0,1-1.5.36,2.64,2.64,0,0,1-2.15-.88A3.92,3.92,0,0,1,513.83,72.21Z"/><path class="c" d="M530.3,70.5v5H529V70.54a2.72,2.72,0,0,0-.46-1.74,1.6,1.6,0,0,0-1.36-.58,2.21,2.21,0,0,0-1.72.69,2.74,2.74,0,0,0-.63,1.9v4.64h-1.35V67.24h1.35v1.28a3.25,3.25,0,0,1,1.14-1.11,3.09,3.09,0,0,1,1.51-.36,2.63,2.63,0,0,1,2.14.87A4,4,0,0,1,530.3,70.5Z"/><line class="a" x1="107" y1="57" x2="107" y2="51.23"/><line class="a" x1="519.7" y1="57" x2="519.7" y2="51.23"/><line class="a" x1="189.54" y1="57" x2="189.54" y2="51.23"/><line class="a" x1="272.08" y1="57" x2="272.08" y2="51.23"/><line class="a" x1="354.62" y1="57" x2="354.62" y2="51.23"/><line class="a" x1="437.16" y1="57" x2="437.16" y2="51.23"/></svg>