<svg xmlns="http://www.w3.org/2000/svg" viewBox="0 0 635 452.02"><defs><style>.a,.b{fill:none;}.a{stroke:#ccc;}.a,.b,.c{stroke-miterlimit:10;}.b{stroke:#888;stroke-width:3px;}.c{fill:#047;stroke:#047;}.d{fill:#888;}</style></defs><title>scatterplot-4</title><line class="a" x1="504.68" y1="357.63" x2="299.35" y2="234.25"/><line class="a" x1="484.68" y1="367.63" x2="280.48" y2="244.93"/><line class="a" x1="464.68" y1="377.63" x2="262.88" y2="256.37"/><line class="a" x1="444.68" y1="387.63" x2="244.42" y2="267.3"/><line class="a" x1="424.68" y1="397.63" x2="226" y2="278.25"/><line class="a" x1="404.68" y1="407.63" x2="207.82" y2="289.35"/><line class="a" x1="384.68" y1="417.63" x2="189.8" y2="300.53"/><line class="a" x1="364.68" y1="427.63" x2="171.13" y2="311.33"/><line class="a" x1="344.68" y1="437.63" x2="152.9" y2="322.39"/><line class="a" x1="324.68" y1="447.63" x2="134.73" y2="333.5"/><line class="a" x1="335.06" y1="234.25" x2="129.73" y2="357.63"/><line class="a" x1="353.93" y1="244.93" x2="149.73" y2="367.63"/><line class="a" x1="371.53" y1="256.37" x2="169.73" y2="377.63"/><line class="a" x1="389.99" y1="267.3" x2="189.73" y2="387.63"/><line class="a" x1="408.41" y1="278.25" x2="209.73" y2="397.63"/><line class="a" x1="426.59" y1="289.35" x2="229.73" y2="407.63"/><line class="a" x1="444.61" y1="300.53" x2="249.73" y2="417.63"/><line class="a" x1="463.28" y1="311.33" x2="269.73" y2="427.63"/><line class="a" x1="481.51" y1="322.39" x2="289.73" y2="437.63"/><line class="a" x1="499.68" y1="333.5" x2="309.73" y2="447.63"/><line class="a" x1="522.62" y1="303.37" x2="317.29" y2="180"/><line class="a" x1="522.62" y1="280.76" x2="317.29" y2="157.39"/><line class="a" x1="522.62" y1="258.16" x2="317.29" y2="134.78"/><line class="a" x1="522.62" y1="235.55" x2="317.29" y2="112.18"/><line class="a" x1="522.62" y1="212.94" x2="317.29" y2="89.57"/><line class="a" x1="522.62" y1="190.34" x2="317.29" y2="66.96"/><line class="a" x1="335.06" y1="234.25" x2="335.06" y2="38.33"/><line class="a" x1="353.4" y1="244.71" x2="353.4" y2="48.79"/><line class="a" x1="371.73" y1="255.35" x2="371.73" y2="59.43"/><line class="a" x1="390.06" y1="268.25" x2="390.06" y2="72.33"/><line class="a" x1="408.4" y1="278.71" x2="408.4" y2="82.79"/><line class="a" x1="426.73" y1="289.35" x2="426.73" y2="93.43"/><line class="a" x1="445.06" y1="300.25" x2="445.06" y2="104.33"/><line class="a" x1="463.4" y1="310.71" x2="463.4" y2="114.79"/><line class="a" x1="481.73" y1="321.35" x2="481.73" y2="125.43"/><line class="a" x1="500.06" y1="332.25" x2="500.06" y2="136.33"/><line class="a" x1="299.06" y1="234.25" x2="299.06" y2="38.33"/><line class="a" x1="280.73" y1="244.71" x2="280.73" y2="48.79"/><line class="a" x1="262.4" y1="255.35" x2="262.4" y2="59.43"/><line class="a" x1="244.06" y1="268.25" x2="244.06" y2="72.33"/><line class="a" x1="225.73" y1="278.71" x2="225.73" y2="82.79"/><line class="a" x1="207.4" y1="289.35" x2="207.4" y2="93.43"/><line class="a" x1="189.06" y1="300.25" x2="189.06" y2="104.33"/><line class="a" x1="170.73" y1="310.71" x2="170.73" y2="114.79"/><line class="a" x1="152.4" y1="321.35" x2="152.4" y2="125.43"/><line class="a" x1="134.06" y1="332.25" x2="134.06" y2="136.33"/><line class="a" x1="316.62" y1="202.6" x2="111.29" y2="325.98"/><line class="a" x1="316.62" y1="180" x2="111.29" y2="303.37"/><line class="a" x1="316.62" y1="157.39" x2="111.29" y2="280.76"/><line class="a" x1="316.62" y1="134.78" x2="111.29" y2="258.16"/><line class="a" x1="316.62" y1="112.18" x2="111.29" y2="235.55"/><line class="a" x1="316.62" y1="89.57" x2="111.29" y2="212.94"/><line class="a" x1="316.62" y1="66.96" x2="111.29" y2="190.34"/><line class="a" x1="316.62" y1="44.35" x2="111.29" y2="167.73"/><line class="a" x1="522.62" y1="325.98" x2="317.29" y2="202.6"/><line class="a" x1="522.62" y1="167.73" x2="317.29" y2="44.35"/><polyline class="b" points="317 31.75 317 222.99 108.87 348.04"/><line class="b" x1="524.68" y1="347.63" x2="317.24" y2="222.99"/><circle class="c" cx="175.31" cy="193.2" r="2.61"/><circle class="c" cx="189.8" cy="280.07" r="2.61"/><circle class="c" cx="239.89" cy="89.86" r="2.61"/><circle class="c" cx="318.16" cy="72.19" r="2.61"/><circle class="c" cx="353.3" cy="74.81" r="2.61"/><circle class="c" cx="413.92" cy="141.52" r="2.61"/><circle class="c" cx="273.85" cy="91.53" r="2.61"/><circle class="c" cx="450.24" cy="144.14" r="2.61"/><circle class="c" cx="465.33" cy="230.66" r="2.61"/><circle class="c" cx="336.1" cy="158.5" r="2.61"/><circle class="c" cx="208.76" cy="195.81" r="2.61"/><circle class="c" cx="384.82" cy="247.27" r="2.61"/><circle class="c" cx="253.58" cy="175.93" r="2.61" transform="translate(6.48 360.85) rotate(-71.56)"/><circle class="c" cx="368.86" cy="161.12" r="2.61"/><circle class="c" cx="288.47" cy="177.59" r="2.61"/><circle class="c" cx="431.51" cy="229.6" r="2.61"/><path class="d" d="M87.23,364v1.55a5.13,5.13,0,0,0-1.6-1,4.81,4.81,0,0,0-1.8-.35A3.56,3.56,0,0,0,81,365.35,6,6,0,0,0,81,372a3.61,3.61,0,0,0,2.87,1.14,4.61,4.61,0,0,0,1.8-.34,5.13,5.13,0,0,0,1.6-1v1.55a6.27,6.27,0,0,1-1.65.79,6.63,6.63,0,0,1-1.83.26,5.11,5.11,0,0,1-3.91-1.52,6.74,6.74,0,0,1,0-8.31A5.13,5.13,0,0,1,83.75,363a6.08,6.08,0,0,1,1.85.26A5.72,5.72,0,0,1,87.23,364Z"/><path class="d" d="M92.63,365.72a3.51,3.51,0,0,1,2.76,1.14,5.44,5.44,0,0,1,0,6.32,3.91,3.91,0,0,1-5.5,0h0a5.5,5.5,0,0,1,0-6.32A3.46,3.46,0,0,1,92.63,365.72Zm0,1.14a2,2,0,0,0-1.71.85,3.71,3.71,0,0,0-.63,2.31,3.89,3.89,0,0,0,.62,2.32,2.16,2.16,0,0,0,3.43,0,4.57,4.57,0,0,0,0-4.63A2,2,0,0,0,92.63,366.86Z"/><path class="d" d="M102.78,362.72v1.12h-1.29a1.34,1.34,0,0,0-1,.3,1.47,1.47,0,0,0-.29,1.05v.73h2.22v1H100.2v7.16H98.85V367H97.56v-1h1.29v-.58a2.65,2.65,0,0,1,.64-2,2.8,2.8,0,0,1,2-.63Z"/><path class="d" d="M108.06,362.72v1.12h-1.29a1.34,1.34,0,0,0-1,.3,1.47,1.47,0,0,0-.29,1.05v.73h2.22v1h-2.22v7.16h-1.35V367h-1.29v-1h1.29v-.58a2.65,2.65,0,0,1,.64-2,2.8,2.8,0,0,1,2-.63Z"/><path class="d" d="M116.21,369.68v.66H110a3.08,3.08,0,0,0,.84,2.12,2.86,2.86,0,0,0,2.09.73,6.37,6.37,0,0,0,1.51-.19,7.44,7.44,0,0,0,1.44-.57v1.27a8.49,8.49,0,0,1-1.48.47,7.35,7.35,0,0,1-1.55.16,4,4,0,0,1-4.26-3.72,4.34,4.34,0,0,1,0-.51,4.56,4.56,0,0,1,1.09-3.2,3.83,3.83,0,0,1,2.94-1.18,3.34,3.34,0,0,1,2.61,1.06A4.08,4.08,0,0,1,116.21,369.68Zm-1.35-.4a2.58,2.58,0,0,0-.62-1.76,2.1,2.1,0,0,0-1.6-.66,2.57,2.57,0,0,0-1.81.64,2.69,2.69,0,0,0-.78,1.79Z"/><path class="d" d="M125.44,369.68v.66h-6.2a3.08,3.08,0,0,0,.84,2.12,2.82,2.82,0,0,0,2.09.73,6.29,6.29,0,0,0,1.5-.19,7.53,7.53,0,0,0,1.45-.57v1.27a7.81,7.81,0,0,1-1.49.47,7.26,7.26,0,0,1-1.54.16,4,4,0,0,1-4.26-3.72,4.34,4.34,0,0,1,0-.51,4.56,4.56,0,0,1,1.09-3.2,3.8,3.8,0,0,1,2.93-1.18,3.35,3.35,0,0,1,2.62,1.06A4.2,4.2,0,0,1,125.44,369.68Zm-1.35-.4a2.58,2.58,0,0,0-.62-1.76,2.1,2.1,0,0,0-1.6-.66,2.57,2.57,0,0,0-1.81.64,2.69,2.69,0,0,0-.78,1.79Z"/><circle class="c" cx="350.69" cy="246.33" r="2.61"/><circle class="c" cx="223.38" cy="282.68" r="2.61"/><circle class="c" cx="304.03" cy="265.07" r="2.61"/><circle class="c" cx="269.57" cy="263.4" r="2.61"/><path class="d" d="M303.52,8.08V9.52a9,9,0,0,0-1.59-.6,5.82,5.82,0,0,0-1.44-.2,3.27,3.27,0,0,0-1.87.47,1.58,1.58,0,0,0-.65,1.33,1.41,1.41,0,0,0,.43,1.1,4.15,4.15,0,0,0,1.66.6l.89.18a4.53,4.53,0,0,1,2.44,1.11,3.25,3.25,0,0,1-.28,4.54,5.11,5.11,0,0,1-3.12.82,7.72,7.72,0,0,1-1.65-.18,12.86,12.86,0,0,1-1.81-.52V16.65a8.83,8.83,0,0,0,1.76.76,6.19,6.19,0,0,0,1.7.25,3.32,3.32,0,0,0,2-.49,1.65,1.65,0,0,0,.68-1.43,1.61,1.61,0,0,0-.49-1.26,3.54,3.54,0,0,0-1.62-.68l-.9-.17a5,5,0,0,1-2.4-1,2.61,2.61,0,0,1-.74-2,2.83,2.83,0,0,1,1-2.29,4.4,4.4,0,0,1,2.82-.83,9.08,9.08,0,0,1,1.57.14A9.79,9.79,0,0,1,303.52,8.08Z"/><path class="d" d="M312.33,10.76V12a5.17,5.17,0,0,0-1.14-.47,4.59,4.59,0,0,0-1.17-.16,2.55,2.55,0,0,0-2,.84,4.09,4.09,0,0,0,0,4.66,2.54,2.54,0,0,0,2,.83,4.18,4.18,0,0,0,1.17-.16,5.17,5.17,0,0,0,1.14-.47v1.25a5.74,5.74,0,0,1-1.17.39,6.12,6.12,0,0,1-1.28.14,3.85,3.85,0,0,1-2.95-1.17,5.08,5.08,0,0,1,0-6.3,4,4,0,0,1,3-1.15,6.15,6.15,0,0,1,2.4.51Z"/><path class="d" d="M317.87,10.25a3.49,3.49,0,0,1,2.77,1.14,5.52,5.52,0,0,1,0,6.33,3.89,3.89,0,0,1-5.51,0h0a5.52,5.52,0,0,1,0-6.33A3.51,3.51,0,0,1,317.87,10.25Zm0,1.14a2,2,0,0,0-1.71.85,4.59,4.59,0,0,0,0,4.64,2.15,2.15,0,0,0,3,.41,2,2,0,0,0,.41-.41,3.65,3.65,0,0,0,.63-2.31,3.85,3.85,0,0,0-.63-2.31,2,2,0,0,0-1.71-.87Z"/><path class="d" d="M328.61,11.71a2,2,0,0,0-.5-.2,2.88,2.88,0,0,0-.59-.06,2.15,2.15,0,0,0-1.75.75,3.31,3.31,0,0,0-.61,2.13v4.32H323.8v-8.2h1.36v1.27a2.93,2.93,0,0,1,1.1-1.11,3.56,3.56,0,0,1,1.66-.36h.3l.38.05Z"/><path class="d" d="M336.71,14.18v.66h-6.2a3.08,3.08,0,0,0,.84,2.12,2.87,2.87,0,0,0,2.09.73A5.9,5.9,0,0,0,335,17.5a6,6,0,0,0,1.44-.57v1.25a6.89,6.89,0,0,1-1.48.47,7.29,7.29,0,0,1-1.55.17,4,4,0,0,1-4.26-3.72,4.51,4.51,0,0,1,0-.52,4.56,4.56,0,0,1,1.09-3.2,3.8,3.8,0,0,1,2.93-1.18,3.32,3.32,0,0,1,2.62,1.07A4.07,4.07,0,0,1,336.71,14.18Zm-1.35-.39a2.54,2.54,0,0,0-.62-1.77,2.09,2.09,0,0,0-1.6-.66,2.57,2.57,0,0,0-1.81.64,2.75,2.75,0,0,0-.78,1.8Z"/><path class="d" d="M513.69,363.29h3a6.91,6.91,0,0,1,4.67,1.33,6.51,6.51,0,0,1,0,8.28,6.86,6.86,0,0,1-4.66,1.33h-3Zm1.48,1.22V373H517a4.6,4.6,0,0,0,3.31-1,5.49,5.49,0,0,0,0-6.46,4.6,4.6,0,0,0-3.31-1Z"/><path class="d" d="M531.6,369.55v4.68h-1.35V373a2.91,2.91,0,0,1-1.15,1.11,3.73,3.73,0,0,1-1.68.35,2.77,2.77,0,0,1-2-.7,2.51,2.51,0,0,1-.75-1.9,2.43,2.43,0,0,1,.93-2.08,4.53,4.53,0,0,1,2.76-.71h1.89v-.13a1.76,1.76,0,0,0-.61-1.44,2.61,2.61,0,0,0-1.72-.51,5.78,5.78,0,0,0-1.37.17,5.19,5.19,0,0,0-1.28.51V366.4a9.7,9.7,0,0,1,1.44-.43,7,7,0,0,1,1.35-.14,3.52,3.52,0,0,1,2.66.92A3.92,3.92,0,0,1,531.6,369.55Zm-2.69.56a4.79,4.79,0,0,0-2.26.37,1.35,1.35,0,0,0-.63,1.27,1.46,1.46,0,0,0,.47,1.14,1.89,1.89,0,0,0,1.29.42,2.27,2.27,0,0,0,1.8-.79,3.14,3.14,0,0,0,.67-2.11v-.3Z"/><path class="d" d="M535.71,363.7V366h2.78v1h-2.78v4.46a2,2,0,0,0,.27,1.29,1.61,1.61,0,0,0,1.12.28h1.39v1.13H537.1a3,3,0,0,1-2.15-.58,2.93,2.93,0,0,1-.6-2.12v-4.46h-1v-1h1V363.7Z"/><path class="d" d="M547.27,369.79v.66h-6.19a3.1,3.1,0,0,0,.84,2.12,2.85,2.85,0,0,0,2.09.73,5.77,5.77,0,0,0,1.5-.19,7,7,0,0,0,1.45-.57v1.27a7.81,7.81,0,0,1-1.49.47,7.26,7.26,0,0,1-1.54.16,4.21,4.21,0,0,1-3.11-1.14,4.14,4.14,0,0,1-1.15-3.09,4.53,4.53,0,0,1,1.09-3.2,3.77,3.77,0,0,1,2.93-1.18,3.34,3.34,0,0,1,2.62,1.06A4.18,4.18,0,0,1,547.27,369.79Zm-1.34-.39a2.59,2.59,0,0,0-.62-1.77,2.08,2.08,0,0,0-1.6-.66,2.52,2.52,0,0,0-1.81.64,2.68,2.68,0,0,0-.78,1.79Z"/></svg>