<svg xmlns="http://www.w3.org/2000/svg" viewBox="0 0 635 380.02"><defs><style>.a{fill:#888;}.b{fill:none;stroke:#888;stroke-miterlimit:10;stroke-width:3px;}.c{fill:#047;}.d{fill:#f90;}</style></defs><title>dimension-4-dimensional-colour</title><circle class="a" cx="607.84" cy="28.89" r="6.5"/><circle class="a" cx="532.78" cy="28.89" r="2"/><path class="a" d="M539.09,3.88V5.44a5,5,0,0,0-1.59-1,4.61,4.61,0,0,0-1.8-.34,3.61,3.61,0,0,0-2.87,1.14,5,5,0,0,0-1,3.32,4.93,4.93,0,0,0,1,3.31A3.6,3.6,0,0,0,535.7,13a4.61,4.61,0,0,0,1.8-.34,5,5,0,0,0,1.59-1V13.2a5.53,5.53,0,0,1-1.64.79,6.29,6.29,0,0,1-1.83.27,5.11,5.11,0,0,1-3.91-1.52,5.78,5.78,0,0,1-1.43-4.15,5.82,5.82,0,0,1,1.43-4.16,5.11,5.11,0,0,1,3.91-1.52,6.78,6.78,0,0,1,1.85.26A6.33,6.33,0,0,1,539.09,3.88Z"/><path class="a" d="M544.5,5.57a3.48,3.48,0,0,1,2.76,1.15,4.62,4.62,0,0,1,1,3.16,4.62,4.62,0,0,1-1,3.16,3.91,3.91,0,0,1-5.5,0h0a4.62,4.62,0,0,1-1-3.16,4.62,4.62,0,0,1,1-3.16A3.44,3.44,0,0,1,544.5,5.57Zm0,1.15a2,2,0,0,0-1.71.84,3.9,3.9,0,0,0-.63,2.32,3.89,3.89,0,0,0,.62,2.32,2.16,2.16,0,0,0,3.43,0,3.71,3.71,0,0,0,.63-2.31,3.85,3.85,0,0,0-.63-2.31A2,2,0,0,0,544.5,6.72Z"/><path class="a" d="M554.65,2.58V3.7h-1.29a1.38,1.38,0,0,0-1,.29,1.55,1.55,0,0,0-.29,1.06v.72h2.22V6.82h-2.22V14h-1.35V6.82h-1.29V5.77h1.29V5.2a2.65,2.65,0,0,1,.64-2,2.79,2.79,0,0,1,2-.62Z"/><path class="a" d="M559.93,2.58V3.7h-1.29a1.38,1.38,0,0,0-1,.29,1.55,1.55,0,0,0-.29,1.06v.72h2.22V6.82h-2.22V14H556V6.82h-1.29V5.77H556V5.2a2.65,2.65,0,0,1,.64-2,2.79,2.79,0,0,1,2-.62Z"/><path class="a" d="M568.08,9.54v.66h-6.2a3.08,3.08,0,0,0,.84,2.12,2.87,2.87,0,0,0,2.09.72,5.9,5.9,0,0,0,1.51-.19,6.18,6.18,0,0,0,1.44-.57v1.28a8.49,8.49,0,0,1-1.48.47,8.07,8.07,0,0,1-1.55.16,4,4,0,0,1-4.26-3.72h0a3.53,3.53,0,0,1,0-.46,4.53,4.53,0,0,1,1.09-3.19,3.79,3.79,0,0,1,2.94-1.19,3.34,3.34,0,0,1,2.61,1.07A4.08,4.08,0,0,1,568.08,9.54Zm-1.35-.4a2.58,2.58,0,0,0-.62-1.76,2.1,2.1,0,0,0-1.6-.66,2.56,2.56,0,0,0-1.81.63,2.75,2.75,0,0,0-.78,1.8Z"/><path class="a" d="M577.3,9.54v.66h-6.19a3.08,3.08,0,0,0,.84,2.12,2.92,2.92,0,0,0,2,.68,5.82,5.82,0,0,0,1.5-.19,6.25,6.25,0,0,0,1.45-.57v1.28a8.6,8.6,0,0,1-1.49.47,8,8,0,0,1-1.54.16,4,4,0,0,1-4.22-3.77h0V10a4.53,4.53,0,0,1,1.09-3.19,3.81,3.81,0,0,1,2.93-1.19,3.32,3.32,0,0,1,2.62,1.07A4.19,4.19,0,0,1,577.3,9.54Zm-1.3-.4a2.58,2.58,0,0,0-.62-1.76,2.1,2.1,0,0,0-1.6-.66,2.56,2.56,0,0,0-1.81.63,2.75,2.75,0,0,0-.78,1.8Z"/><polyline class="b" points="519.24 323.89 103.27 323.89 103.27 7.75"/><circle class="c" cx="185" cy="129.79" r="4"/><circle class="c" cx="203.77" cy="183.24" r="6"/><circle class="c" cx="238.04" cy="67.53" r="5"/><circle class="c" cx="359.1" cy="39.23" r="4"/><circle class="c" cx="427.01" cy="74.13" r="3.5"/><circle class="c" cx="446.56" cy="127.17" r="5"/><circle class="c" cx="305.81" cy="102.07" r="5"/><circle class="c" cx="439.59" cy="170.35" r="2.5"/><circle class="c" cx="460.66" cy="222.54" r="3"/><circle class="c" cx="406.57" cy="285.33" r="3"/><circle class="c" cx="373.87" cy="136.39" r="4"/><circle class="c" cx="252.19" cy="165.64" r="4"/><circle class="c" cx="271.37" cy="217.32" r="5.5"/><circle class="c" cx="339.92" cy="251.78" r="4.5"/><circle class="c" cx="387.39" cy="233.23" r="2"/><circle class="c" cx="319.79" cy="198.65" r="3.5"/><circle class="c" cx="325.02" cy="155.26" r="6"/><circle class="c" cx="392.62" cy="188.78" r="5"/><circle class="c" cx="257.27" cy="120.72" r="6.5"/><circle class="c" cx="377.84" cy="91.62" r="6.5"/><path class="a" d="M80.1,314.64a3.17,3.17,0,0,1,2.81,1.45,9.69,9.69,0,0,1,0,8.44,3.43,3.43,0,0,1-4.78.84h0a3.35,3.35,0,0,1-.84-.84,9.69,9.69,0,0,1,0-8.44A3.17,3.17,0,0,1,80.1,314.64Zm0,1.17a1.84,1.84,0,0,0-1.72,1.13,10.28,10.28,0,0,0,0,6.75,1.89,1.89,0,0,0,2.5.95h0a1.89,1.89,0,0,0,1-.95,10.28,10.28,0,0,0,0-6.75,1.87,1.87,0,0,0-1.73-1.13Z"/><path class="a" d="M295.26,366.82h3a6.88,6.88,0,0,1,4.66,1.32,5.23,5.23,0,0,1,1.49,4.13,5.3,5.3,0,0,1-1.49,4.16,6.88,6.88,0,0,1-4.66,1.32h-3Zm1.48,1.21v8.51h1.79a4.6,4.6,0,0,0,3.31-1,5.48,5.48,0,0,0,0-6.45,4.6,4.6,0,0,0-3.31-1Z"/><path class="a" d="M313.17,373.07v4.68h-1.35v-1.24a3,3,0,0,1-1.15,1.1A3.6,3.6,0,0,1,309,378a2.79,2.79,0,0,1-2-.71,2.54,2.54,0,0,1-.74-1.9,2.46,2.46,0,0,1,.92-2.08,4.51,4.51,0,0,1,2.77-.71h1.89v-.13a1.79,1.79,0,0,0-.61-1.44,2.58,2.58,0,0,0-1.72-.51,5.44,5.44,0,0,0-2.65.68V370a10.22,10.22,0,0,1,1.43-.43,6.9,6.9,0,0,1,1.36-.14,3.51,3.51,0,0,1,2.66.92A4,4,0,0,1,313.17,373.07Zm-2.69.56a4.86,4.86,0,0,0-2.26.37,1.37,1.37,0,0,0-.63,1.28,1.45,1.45,0,0,0,.47,1.14,1.82,1.82,0,0,0,1.28.42,2.27,2.27,0,0,0,1.8-.8,3.22,3.22,0,0,0,.68-2.11v-.3Z"/><path class="a" d="M317.27,367.22v2.33h2.78v1.05h-2.78v4.45a2,2,0,0,0,.28,1.29,1.58,1.58,0,0,0,1.12.28h1.38v1.13h-1.38a3.08,3.08,0,0,1-2.16-.58,3,3,0,0,1-.59-2.12V370.6h-1v-1.05h1v-2.33Z"/><path class="a" d="M328.84,373.31V374h-6.2a3.08,3.08,0,0,0,.84,2.12,2.86,2.86,0,0,0,2.09.73,5.9,5.9,0,0,0,1.51-.19,6.18,6.18,0,0,0,1.44-.57v1.27a6.89,6.89,0,0,1-1.48.47,7.36,7.36,0,0,1-1.55.17,4.22,4.22,0,0,1-3.11-1.15,4.17,4.17,0,0,1-1.14-3.09,4.55,4.55,0,0,1,1.08-3.2,3.83,3.83,0,0,1,2.94-1.18,3.41,3.41,0,0,1,2.62,1.07A4.14,4.14,0,0,1,328.84,373.31Zm-1.35-.39a2.54,2.54,0,0,0-.62-1.77,2,2,0,0,0-1.6-.66,2.53,2.53,0,0,0-1.8.64,2.7,2.7,0,0,0-.78,1.8Z"/><path class="a" d="M95.94,338.56h1.48v10.17a4.43,4.43,0,0,1-.75,2.87,3,3,0,0,1-2.42.89h-.56v-1.24h.46a1.58,1.58,0,0,0,1.38-.55,3.48,3.48,0,0,0,.41-2Z"/><path class="a" d="M106.72,344.81v4.68h-1.35v-1.24a3,3,0,0,1-1.15,1.1,3.6,3.6,0,0,1-1.68.35,2.78,2.78,0,0,1-2-.7,2.54,2.54,0,0,1-.74-1.9,2.47,2.47,0,0,1,.93-2.08,4.49,4.49,0,0,1,2.76-.71h1.89v-.13a1.76,1.76,0,0,0-.61-1.44,2.58,2.58,0,0,0-1.72-.51,5.78,5.78,0,0,0-1.37.17,4.89,4.89,0,0,0-1.28.51v-1.25a9.15,9.15,0,0,1,1.44-.43,6.8,6.8,0,0,1,1.35-.14,3.51,3.51,0,0,1,2.66.92A4,4,0,0,1,106.72,344.81Zm-2.69.56a4.86,4.86,0,0,0-2.26.37,1.37,1.37,0,0,0-.63,1.28,1.45,1.45,0,0,0,.47,1.14,1.82,1.82,0,0,0,1.28.42,2.27,2.27,0,0,0,1.8-.8,3.22,3.22,0,0,0,.68-2.11v-.3Z"/><path class="a" d="M116.31,344.54v4.95H115v-4.91a2.83,2.83,0,0,0-.45-1.74,1.65,1.65,0,0,0-1.36-.58,2.19,2.19,0,0,0-1.72.7,2.73,2.73,0,0,0-.63,1.9v4.63h-1.36v-8.2h1.36v1.27a3.08,3.08,0,0,1,1.14-1.1,3,3,0,0,1,1.51-.37,2.64,2.64,0,0,1,2.14.88A4,4,0,0,1,116.31,344.54Z"/><path class="a" d="M507.64,338.56h1.48v10.17a4.43,4.43,0,0,1-.75,2.87,3,3,0,0,1-2.41.89h-.57v-1.24h.46a1.59,1.59,0,0,0,1.39-.55,3.48,3.48,0,0,0,.4-2Z"/><path class="a" d="M511.87,346.25v-5h1.34v4.91a2.85,2.85,0,0,0,.46,1.75,1.61,1.61,0,0,0,1.36.58,2.25,2.25,0,0,0,1.73-.69,2.73,2.73,0,0,0,.63-1.9v-4.65h1.35v8.2h-1.35v-1.26a3.36,3.36,0,0,1-1.14,1.11,3,3,0,0,1-1.5.36,2.65,2.65,0,0,1-2.15-.87A4,4,0,0,1,511.87,346.25Z"/><path class="a" d="M528.33,344.54v4.95H527v-4.91a2.83,2.83,0,0,0-.45-1.74,1.65,1.65,0,0,0-1.36-.58,2.19,2.19,0,0,0-1.72.7,2.73,2.73,0,0,0-.63,1.9v4.63h-1.36v-8.2h1.36v1.27a3.08,3.08,0,0,1,1.14-1.1,3,3,0,0,1,1.51-.37,2.64,2.64,0,0,1,2.14.88A4,4,0,0,1,528.33,344.54Z"/><line class="b" x1="103.27" y1="331.05" x2="103.27" y2="325.28"/><line class="b" x1="517.74" y1="331.05" x2="517.74" y2="325.28"/><line class="b" x1="186.16" y1="331.05" x2="186.16" y2="325.28"/><line class="b" x1="269.06" y1="331.05" x2="269.06" y2="325.28"/><line class="b" x1="351.95" y1="331.05" x2="351.95" y2="325.28"/><line class="b" x1="434.84" y1="331.05" x2="434.84" y2="325.28"/><path class="a" d="M10.26,158.59V160a9,9,0,0,0-1.59-.6,5.38,5.38,0,0,0-1.44-.2,3.23,3.23,0,0,0-1.87.47A1.54,1.54,0,0,0,4.71,161a1.38,1.38,0,0,0,.43,1.1,4.1,4.1,0,0,0,1.66.6l.89.18A4.4,4.4,0,0,1,10.13,164a3.25,3.25,0,0,1-.28,4.54,5.13,5.13,0,0,1-3.12.82,7.65,7.65,0,0,1-1.65-.18,12.49,12.49,0,0,1-1.81-.52v-1.52A9.18,9.18,0,0,0,5,167.9a6.08,6.08,0,0,0,1.7.25,3.35,3.35,0,0,0,2-.49,1.65,1.65,0,0,0,.68-1.43A1.61,1.61,0,0,0,8.92,165a3.54,3.54,0,0,0-1.62-.68l-.9-.17a5.06,5.06,0,0,1-2.4-1,2.61,2.61,0,0,1-.74-2,2.83,2.83,0,0,1,1-2.29A4.39,4.39,0,0,1,7.08,158a9.16,9.16,0,0,1,1.57.14A8.94,8.94,0,0,1,10.26,158.59Z"/><path class="a" d="M19.07,161.27v1.26a5.17,5.17,0,0,0-1.14-.47,4.18,4.18,0,0,0-1.17-.16,2.57,2.57,0,0,0-2,.84,4.09,4.09,0,0,0,0,4.66,2.53,2.53,0,0,0,2,.83,4.18,4.18,0,0,0,1.17-.16,5.17,5.17,0,0,0,1.14-.47v1.25a6.18,6.18,0,0,1-1.17.39,6.12,6.12,0,0,1-1.28.14,3.84,3.84,0,0,1-3-1.17,5.08,5.08,0,0,1,0-6.3,4,4,0,0,1,3-1.15,6,6,0,0,1,2.4.51Z"/><path class="a" d="M24.61,160.76a3.46,3.46,0,0,1,2.77,1.14,5.52,5.52,0,0,1,0,6.33,3.9,3.9,0,0,1-5.51,0h0a5.52,5.52,0,0,1,0-6.33A3.51,3.51,0,0,1,24.61,160.76Zm0,1.14a2,2,0,0,0-1.71.85,4.59,4.59,0,0,0,0,4.64,2.15,2.15,0,0,0,3,.41,2.65,2.65,0,0,0,.41-.41,3.71,3.71,0,0,0,.63-2.31,3.85,3.85,0,0,0-.63-2.31,2,2,0,0,0-1.71-.87Z"/><path class="a" d="M35.35,162.22a2.37,2.37,0,0,0-.5-.2,2.88,2.88,0,0,0-.59-.06,2.13,2.13,0,0,0-1.75.75,3.31,3.31,0,0,0-.61,2.13v4.32H30.54V161H31.9v1.27a2.93,2.93,0,0,1,1.1-1.11,3.56,3.56,0,0,1,1.66-.36h.72Z"/><path class="a" d="M43.45,164.69v.66h-6.2a3.08,3.08,0,0,0,.84,2.12,2.86,2.86,0,0,0,2.09.73,5.9,5.9,0,0,0,1.51-.19,6.18,6.18,0,0,0,1.44-.57v1.25a6.89,6.89,0,0,1-1.48.47,7.36,7.36,0,0,1-1.55.17,4,4,0,0,1-4.26-3.72,4.51,4.51,0,0,1,0-.52,4.56,4.56,0,0,1,1.09-3.2,3.8,3.8,0,0,1,2.93-1.18,3.32,3.32,0,0,1,2.62,1.07A4.07,4.07,0,0,1,43.45,164.69Zm-1.35-.39a2.59,2.59,0,0,0-.62-1.77,2.1,2.1,0,0,0-1.6-.66,2.57,2.57,0,0,0-1.81.64,2.75,2.75,0,0,0-.78,1.8Z"/><path class="a" d="M52.59,12.86h5.16v1.25H50.81V12.86c.56-.58,1.33-1.36,2.3-2.34s1.57-1.61,1.82-1.89a6.94,6.94,0,0,0,1-1.35,2.45,2.45,0,0,0,.28-1.09,1.86,1.86,0,0,0-.61-1.42A2.28,2.28,0,0,0,54,4.22a5.26,5.26,0,0,0-1.47.24,9.31,9.31,0,0,0-1.65.73V3.7a12,12,0,0,1,1.67-.54A6.44,6.44,0,0,1,54,3a4.14,4.14,0,0,1,2.71.84,2.81,2.81,0,0,1,1,2.28,3.23,3.23,0,0,1-.25,1.27,6.13,6.13,0,0,1-.92,1.43c-.12.14-.51.55-1.16,1.23Z"/><path class="a" d="M64,3a3.17,3.17,0,0,1,2.81,1.45,9.69,9.69,0,0,1,0,8.44A3.46,3.46,0,0,1,62,13.7a3.89,3.89,0,0,1-.81-.81,9.69,9.69,0,0,1,0-8.44A3.17,3.17,0,0,1,64,3Zm0,1.17a1.82,1.82,0,0,0-1.7,1.11,7.83,7.83,0,0,0-.57,3.38A7.65,7.65,0,0,0,62.3,12a1.88,1.88,0,0,0,3.45,0,7.64,7.64,0,0,0,.57-3.37,7.83,7.83,0,0,0-.57-3.38A1.86,1.86,0,0,0,64,4.15Z"/><path class="a" d="M73.57,3a3.15,3.15,0,0,1,2.8,1.45,9.69,9.69,0,0,1,0,8.44,3.44,3.44,0,0,1-5.61,0,9.69,9.69,0,0,1,0-8.44A3.15,3.15,0,0,1,73.57,3Zm0,1.17a1.82,1.82,0,0,0-1.72,1.12,10.15,10.15,0,0,0,0,6.75,1.86,1.86,0,0,0,2.43,1h0a1.88,1.88,0,0,0,1-1,10.15,10.15,0,0,0,0-6.75,1.84,1.84,0,0,0-1.72-1.13Z"/><path class="a" d="M79.81,3.17h1.48V7.79L86.2,3.17h1.91l-5.43,5.1,5.81,5.84h-2L81.24,8.84v5.27H79.76Z"/><path class="a" d="M529.24,55.75h2.42l1.63-8.41-2.73.53.25-1.28,2.72-.53H535l-1.89,9.69h2.41L535.3,57H529Z"/><path class="a" d="M543.54,45.87a2.72,2.72,0,0,1,2.27,1,4.48,4.48,0,0,1,.79,2.84,11,11,0,0,1-.37,2.79,9.76,9.76,0,0,1-1,2.49,4.89,4.89,0,0,1-1.6,1.66,3.81,3.81,0,0,1-2,.57,2.68,2.68,0,0,1-2.22-1,4.54,4.54,0,0,1-.79-2.84,10.54,10.54,0,0,1,.38-2.79,9.22,9.22,0,0,1,1-2.48,5,5,0,0,1,1.58-1.67A3.7,3.7,0,0,1,543.54,45.87ZM543.45,47a2,2,0,0,0-1.06.3,3,3,0,0,0-.91.87,8.41,8.41,0,0,0-1.07,2.41,11.29,11.29,0,0,0-.4,3,3.24,3.24,0,0,0,.43,1.83,1.46,1.46,0,0,0,1.26.62,2.11,2.11,0,0,0,1.09-.3,3,3,0,0,0,.9-.87,7.64,7.64,0,0,0,1.06-2.41,11.28,11.28,0,0,0,.39-3,3.09,3.09,0,0,0-.43-1.83A1.46,1.46,0,0,0,543.45,47Z"/><path class="a" d="M553.08,45.87a2.72,2.72,0,0,1,2.27,1,4.42,4.42,0,0,1,.79,2.84,10.53,10.53,0,0,1-.37,2.79,9.41,9.41,0,0,1-1,2.49,4.89,4.89,0,0,1-1.6,1.66,3.81,3.81,0,0,1-2,.57,2.68,2.68,0,0,1-2.22-1,4.54,4.54,0,0,1-.78-2.84,10.54,10.54,0,0,1,.38-2.79,9.22,9.22,0,0,1,1-2.48,5,5,0,0,1,1.58-1.67A3.64,3.64,0,0,1,553.08,45.87ZM553,47a2.1,2.1,0,0,0-1.06.3,3,3,0,0,0-.9.87,7.58,7.58,0,0,0-1,2.45,10.9,10.9,0,0,0-.4,3,3.26,3.26,0,0,0,.42,1.83,1.46,1.46,0,0,0,1.27.62,2,2,0,0,0,1.08-.3,3,3,0,0,0,.9-.87,7.64,7.64,0,0,0,1.06-2.41,11.71,11.71,0,0,0,.39-3,3.09,3.09,0,0,0-.43-1.83A1.43,1.43,0,0,0,553,47Z"/><path class="a" d="M557.73,52.36h6l-.21,1.06h-6Z"/><path class="a" d="M573.11,46.06l-.23,1.24h-4.52l-.53,2.7a3.15,3.15,0,0,1,.69-.16,4.12,4.12,0,0,1,.7-.05,3.41,3.41,0,0,1,2.4.81,2.84,2.84,0,0,1,.88,2.2,4.06,4.06,0,0,1-.45,1.87,4.87,4.87,0,0,1-1.28,1.57,4.28,4.28,0,0,1-1.43.72,6.4,6.4,0,0,1-1.85.25,8.78,8.78,0,0,1-1.35-.11,11.66,11.66,0,0,1-1.44-.36l.27-1.37a6.41,6.41,0,0,0,1.35.49,5.63,5.63,0,0,0,1.36.17,3.39,3.39,0,0,0,2.37-.86A2.81,2.81,0,0,0,571,53a1.85,1.85,0,0,0-.61-1.48,2.57,2.57,0,0,0-1.71-.52,5.47,5.47,0,0,0-1.21.13,8,8,0,0,0-1.28.41l1.06-5.5Z"/><path class="a" d="M579.67,45.87a2.72,2.72,0,0,1,2.27,1,4.48,4.48,0,0,1,.79,2.84,11,11,0,0,1-.37,2.79,9.41,9.41,0,0,1-1,2.49,4.89,4.89,0,0,1-1.6,1.66,3.81,3.81,0,0,1-2,.57,2.68,2.68,0,0,1-2.22-1,4.54,4.54,0,0,1-.78-2.84,11,11,0,0,1,.37-2.79,9.35,9.35,0,0,1,1-2.48,5,5,0,0,1,1.58-1.67A3.68,3.68,0,0,1,579.67,45.87ZM579.58,47a2,2,0,0,0-1.06.3,2.88,2.88,0,0,0-.9.87,7.92,7.92,0,0,0-1.08,2.41,11.29,11.29,0,0,0-.4,3,3.24,3.24,0,0,0,.43,1.83,1.46,1.46,0,0,0,1.26.62,2.11,2.11,0,0,0,1.09-.3,3,3,0,0,0,.9-.87,7.64,7.64,0,0,0,1.06-2.41,11.71,11.71,0,0,0,.39-3,3.09,3.09,0,0,0-.43-1.83A1.43,1.43,0,0,0,579.58,47Z"/><path class="a" d="M589.21,45.87a2.72,2.72,0,0,1,2.27,1,4.42,4.42,0,0,1,.79,2.84,10.53,10.53,0,0,1-.37,2.79,9.41,9.41,0,0,1-1,2.49,4.89,4.89,0,0,1-1.6,1.66,3.81,3.81,0,0,1-2,.57,2.68,2.68,0,0,1-2.22-1,4.54,4.54,0,0,1-.78-2.84,10.54,10.54,0,0,1,.38-2.79,9.22,9.22,0,0,1,1-2.48,5,5,0,0,1,1.58-1.67A3.64,3.64,0,0,1,589.21,45.87ZM589.12,47a2.1,2.1,0,0,0-1.06.3,3,3,0,0,0-.9.87,7.92,7.92,0,0,0-1.08,2.41,11.71,11.71,0,0,0-.39,3,3.26,3.26,0,0,0,.42,1.83,1.46,1.46,0,0,0,1.27.62,2,2,0,0,0,1.08-.3,3,3,0,0,0,.9-.87,7.64,7.64,0,0,0,1.06-2.41,11.71,11.71,0,0,0,.39-3,3.16,3.16,0,0,0-.43-1.83A1.43,1.43,0,0,0,589.12,47Z"/><path class="a" d="M611.26,52.05l-1,5H609l.94-4.91q.06-.31.09-.54a2.54,2.54,0,0,0,0-.39,1.29,1.29,0,0,0-1.16-1.39h-.23a2.45,2.45,0,0,0-1.75.74,3.42,3.42,0,0,0-1,1.91L605,57h-1.35l1-4.91a3.71,3.71,0,0,1,.09-.5,2.81,2.81,0,0,0,0-.41,1.41,1.41,0,0,0-.37-1,1.33,1.33,0,0,0-1-.37,2.47,2.47,0,0,0-1.76.74,3.42,3.42,0,0,0-1,1.91l-.9,4.58h-1.35l1.6-8.2h1.35L601,50.07A3.65,3.65,0,0,1,602.3,49a3.47,3.47,0,0,1,1.58-.38,2.23,2.23,0,0,1,1.47.47,2,2,0,0,1,.69,1.3,4.51,4.51,0,0,1,1.43-1.32,3.41,3.41,0,0,1,1.71-.45,2.1,2.1,0,0,1,1.63.61,2.4,2.4,0,0,1,.57,1.72,4.69,4.69,0,0,1,0,.53C611.33,51.65,611.3,51.85,611.26,52.05Z"/><path class="a" d="M615.15,45.6h1.35L614.28,57h-1.35Z"/><circle class="a" cx="582.82" cy="28.89" r="5"/><circle class="a" cx="557.8" cy="28.89" r="3.5"/><circle class="d" cx="476.97" cy="53.79" r="4"/><circle class="d" cx="426.22" cy="28.63" r="6"/><circle class="d" cx="482.48" cy="135.39" r="5"/><circle class="d" cx="415.58" cy="240.18" r="4"/><circle class="d" cx="342.6" cy="262.62" r="3.5"/><circle class="d" cx="291.57" cy="238.3" r="5"/><circle class="d" cx="409.85" cy="157.99" r="5"/><circle class="d" cx="266.41" cy="202.52" r="2.5"/><circle class="d" cx="214.88" cy="179.88" r="3"/><circle class="d" cx="209.76" cy="97.16" r="3"/><circle class="d" cx="337.16" cy="180.94" r="4"/><circle class="d" cx="403.84" cy="75.04" r="4"/><circle class="d" cx="354.03" cy="51.44" r="5.5"/><circle class="d" cx="280.89" cy="74.64" r="4.5"/><circle class="d" cx="332.4" cy="98.61" r="3.5"/><circle class="d" cx="358.96" cy="133.33" r="6"/><circle class="d" cx="287.16" cy="156.53" r="5"/><circle class="d" cx="431.57" cy="110.74" r="6.5"/><circle class="d" cx="365.58" cy="215.76" r="6.5"/></svg>