<svg id="svg1592" xmlns="http://www.w3.org/2000/svg" viewBox="0 0 635 380.02"><defs><style>.cls-1{fill:none;stroke:#888;stroke-width:3px;}.cls-1,.cls-2{stroke-miterlimit:10;}.cls-2{fill:#047;stroke:#047;}.cls-3{fill:#888;}</style></defs><title>scatterplot-2</title><polyline class="cls-1" points="520.79 323.89 105.04 323.89 105.04 7.75"/><circle class="cls-2" cx="185" cy="129.79" r="2.61"/><circle class="cls-2" cx="203.77" cy="183.24" r="2.61"/><circle class="cls-2" cx="238.04" cy="67.53" r="2.61"/><circle class="cls-2" cx="359.1" cy="39.23" r="2.61"/><circle class="cls-2" cx="427.01" cy="74.13" r="2.61"/><circle class="cls-2" cx="446.56" cy="127.17" r="2.61"/><circle class="cls-2" cx="305.81" cy="102.07" r="2.61"/><circle class="cls-2" cx="439.59" cy="170.35" r="2.61"/><circle class="cls-2" cx="460.66" cy="222.54" r="2.61"/><circle class="cls-2" cx="406.57" cy="285.33" r="2.61"/><circle class="cls-2" cx="373.87" cy="136.39" r="2.61"/><circle class="cls-2" cx="252.19" cy="165.64" r="2.61"/><circle class="cls-2" cx="271.37" cy="217.32" r="2.61"/><circle class="cls-2" cx="339.92" cy="251.78" r="2.61"/><circle class="cls-2" cx="387.39" cy="233.23" r="2.61"/><circle class="cls-2" cx="319.79" cy="198.65" r="2.61"/><circle class="cls-2" cx="325.02" cy="155.26" r="2.61"/><circle class="cls-2" cx="392.62" cy="188.78" r="2.61"/><circle class="cls-2" cx="257.25" cy="120.72" r="2.61"/><circle class="cls-2" cx="377.84" cy="91.62" r="2.61"/><path class="cls-3" d="M489.07,348.87h5.17v1.25h-6.95v-1.25c.56-.58,1.33-1.36,2.3-2.34s1.58-1.61,1.83-1.89a7,7,0,0,0,1-1.35,2.36,2.36,0,0,0,.28-1.09,1.82,1.82,0,0,0-.61-1.42,2.28,2.28,0,0,0-1.59-.55,4.91,4.91,0,0,0-1.47.24,8.89,8.89,0,0,0-1.65.73v-1.49a11.08,11.08,0,0,1,1.67-.54,6.27,6.27,0,0,1,1.42-.18,4.12,4.12,0,0,1,2.71.84,2.85,2.85,0,0,1,1,2.28,3.24,3.24,0,0,1-.26,1.27,5.68,5.68,0,0,1-.92,1.43c-.12.14-.51.55-1.16,1.23Z"/><path class="cls-3" d="M500.5,339a3.15,3.15,0,0,1,2.81,1.45,9.66,9.66,0,0,1,0,8.44,3.44,3.44,0,0,1-5.61,0,9.58,9.58,0,0,1,0-8.44A3.15,3.15,0,0,1,500.5,339Zm0,1.17a1.82,1.82,0,0,0-1.71,1.12,7.6,7.6,0,0,0-.58,3.38,7.52,7.52,0,0,0,.58,3.37,1.87,1.87,0,0,0,3.44,0,7.69,7.69,0,0,0,.57-3.37,7.77,7.77,0,0,0-.57-3.38A1.84,1.84,0,0,0,500.5,340.16Z"/><path class="cls-3" d="M510.05,339a3.18,3.18,0,0,1,2.81,1.45,9.66,9.66,0,0,1,0,8.44,3.45,3.45,0,0,1-5.62,0,9.66,9.66,0,0,1,0-8.44A3.17,3.17,0,0,1,510.05,339Zm0,1.17a1.84,1.84,0,0,0-1.72,1.12,7.77,7.77,0,0,0-.57,3.38,7.69,7.69,0,0,0,.57,3.37,1.87,1.87,0,0,0,3.44,0,7.52,7.52,0,0,0,.58-3.37,7.6,7.6,0,0,0-.58-3.38A1.84,1.84,0,0,0,510.05,340.16Z"/><path class="cls-3" d="M516.3,339.18h1.48v4.62l4.9-4.62h1.91l-5.43,5.1,5.82,5.84h-2l-5.25-5.27v5.27H516.3Z"/><path class="cls-3" d="M107.05,339a3.17,3.17,0,0,1,2.81,1.45,9.66,9.66,0,0,1,0,8.44,3.45,3.45,0,0,1-5.62,0,9.66,9.66,0,0,1,0-8.44A3.18,3.18,0,0,1,107.05,339Zm0,1.17a1.84,1.84,0,0,0-1.72,1.12,7.77,7.77,0,0,0-.57,3.38,7.69,7.69,0,0,0,.57,3.37,1.88,1.88,0,0,0,3.45,0,7.69,7.69,0,0,0,.57-3.37,7.77,7.77,0,0,0-.57-3.38A1.85,1.85,0,0,0,107.05,340.16Z"/><path class="cls-3" d="M301.79,366.9v1.44a9,9,0,0,0-1.58-.6,5.75,5.75,0,0,0-1.45-.2,3.17,3.17,0,0,0-1.86.47,1.54,1.54,0,0,0-.66,1.33,1.37,1.37,0,0,0,.44,1.1,4,4,0,0,0,1.65.6l.89.18a4.59,4.59,0,0,1,2.45,1.11,2.91,2.91,0,0,1,.78,2.13,2.87,2.87,0,0,1-1.06,2.41,5.1,5.1,0,0,1-3.13.82,8.31,8.31,0,0,1-1.65-.18,12.49,12.49,0,0,1-1.81-.52v-1.52a9.09,9.09,0,0,0,1.76.76,6,6,0,0,0,1.7.25,3.32,3.32,0,0,0,2-.49,1.67,1.67,0,0,0,.69-1.43,1.65,1.65,0,0,0-.5-1.26,3.51,3.51,0,0,0-1.62-.68l-.9-.17a4.89,4.89,0,0,1-2.39-1,2.56,2.56,0,0,1-.74-2,2.8,2.8,0,0,1,1-2.29,4.36,4.36,0,0,1,2.81-.83,9.35,9.35,0,0,1,1.57.14A10.3,10.3,0,0,1,301.79,366.9Z"/><path class="cls-3" d="M310.61,369.58v1.26a5.81,5.81,0,0,0-1.15-.47,4.57,4.57,0,0,0-1.16-.16,2.55,2.55,0,0,0-2,.84,4.13,4.13,0,0,0,0,4.66,2.55,2.55,0,0,0,2,.83,4.16,4.16,0,0,0,1.16-.16,5.26,5.26,0,0,0,1.15-.47v1.25a6.18,6.18,0,0,1-1.17.39,5.93,5.93,0,0,1-1.29.14,3.82,3.82,0,0,1-2.94-1.17,5.08,5.08,0,0,1,0-6.3,4,4,0,0,1,3-1.15,5.56,5.56,0,0,1,1.22.13A6.2,6.2,0,0,1,310.61,369.58Z"/><path class="cls-3" d="M316.13,369.07a3.49,3.49,0,0,1,2.76,1.14,5.51,5.51,0,0,1,0,6.33,3.9,3.9,0,0,1-5.53,0,5.51,5.51,0,0,1,0-6.33A3.5,3.5,0,0,1,316.13,369.07Zm0,1.14a2,2,0,0,0-1.72.85,4.59,4.59,0,0,0,0,4.64,2,2,0,0,0,1.72.84,2,2,0,0,0,1.7-.85,3.77,3.77,0,0,0,.63-2.31,3.81,3.81,0,0,0-.63-2.31A2,2,0,0,0,316.13,370.21Z"/><path class="cls-3" d="M326.88,370.53a2,2,0,0,0-.5-.2,2.61,2.61,0,0,0-.59-.06A2.13,2.13,0,0,0,324,371a3.24,3.24,0,0,0-.61,2.13v4.32h-1.36v-8.2h1.36v1.27a2.82,2.82,0,0,1,1.11-1.11,3.47,3.47,0,0,1,1.65-.36l.31,0,.37.05Z"/><path class="cls-3" d="M335,373v.66h-6.2a3.1,3.1,0,0,0,.84,2.12,2.86,2.86,0,0,0,2.09.73,5.84,5.84,0,0,0,1.51-.19,6.23,6.23,0,0,0,1.45-.57v1.27a8,8,0,0,1-3,.64,4.23,4.23,0,0,1-3.11-1.15,4.18,4.18,0,0,1-1.14-3.09,4.57,4.57,0,0,1,1.08-3.2,3.84,3.84,0,0,1,2.94-1.18,3.36,3.36,0,0,1,2.62,1.07A4.15,4.15,0,0,1,335,373Zm-1.35-.39a2.54,2.54,0,0,0-.62-1.77,2.05,2.05,0,0,0-1.6-.66,2.54,2.54,0,0,0-1.8.64,2.73,2.73,0,0,0-.78,1.8Z"/><path class="cls-3" d="M42,314.64a3.15,3.15,0,0,1,2.81,1.45,9.66,9.66,0,0,1,0,8.44,3.42,3.42,0,0,1-5.61,0,9.66,9.66,0,0,1,0-8.44A3.15,3.15,0,0,1,42,314.64Zm0,1.17a1.83,1.83,0,0,0-1.71,1.13,10.11,10.11,0,0,0,0,6.75,1.88,1.88,0,0,0,3.44,0,10.28,10.28,0,0,0,0-6.75A1.85,1.85,0,0,0,42,315.81Z"/><path class="cls-3" d="M50,320a2.62,2.62,0,0,1-1.48-.89,2.39,2.39,0,0,1-.54-1.59A2.55,2.55,0,0,1,49,315.4a4.69,4.69,0,0,1,5.12,0,2.54,2.54,0,0,1,.93,2.07,2.44,2.44,0,0,1-.53,1.59A2.66,2.66,0,0,1,53,320a3,3,0,0,1,1.66,1,2.72,2.72,0,0,1,.6,1.78,3.1,3.1,0,0,1-1,2.44,4.14,4.14,0,0,1-2.78.85,4.12,4.12,0,0,1-2.78-.85,3.06,3.06,0,0,1-1-2.44,2.72,2.72,0,0,1,.6-1.78A3,3,0,0,1,50,320Zm1.48.63a2.36,2.36,0,0,0-1.66.56,2,2,0,0,0-.6,1.56,2,2,0,0,0,.6,1.55,2.74,2.74,0,0,0,3.32,0,2.29,2.29,0,0,0,0-3.11A2.35,2.35,0,0,0,51.51,320.58Zm-2-3a1.68,1.68,0,0,0,.53,1.33,2.14,2.14,0,0,0,1.49.48,2.17,2.17,0,0,0,1.49-.48,1.9,1.9,0,0,0,0-2.65,2.17,2.17,0,0,0-1.49-.48,2.14,2.14,0,0,0-1.49.48A1.67,1.67,0,0,0,49.49,317.61Z"/><path class="cls-3" d="M64.52,320.82v4.95H63.17v-4.9a2.77,2.77,0,0,0-.46-1.75,1.63,1.63,0,0,0-1.36-.58,2.21,2.21,0,0,0-1.72.7,2.72,2.72,0,0,0-.63,1.9v4.63H57.65V314.38H59v4.46a3.22,3.22,0,0,1,1.14-1.1,3,3,0,0,1,1.51-.37,2.6,2.6,0,0,1,2.14.88A4,4,0,0,1,64.52,320.82Z"/><path class="cls-3" d="M70.56,314.64a3.18,3.18,0,0,1,2.81,1.45,9.66,9.66,0,0,1,0,8.44,3.43,3.43,0,0,1-5.62,0,9.66,9.66,0,0,1,0-8.44A3.17,3.17,0,0,1,70.56,314.64Zm0,1.17a1.84,1.84,0,0,0-1.72,1.13,10.28,10.28,0,0,0,0,6.75,1.88,1.88,0,0,0,3.44,0,10.11,10.11,0,0,0,0-6.75A1.84,1.84,0,0,0,70.56,315.81Z"/><path class="cls-3" d="M80.1,314.64a3.17,3.17,0,0,1,2.81,1.45,9.66,9.66,0,0,1,0,8.44,3.43,3.43,0,0,1-5.62,0,9.66,9.66,0,0,1,0-8.44A3.18,3.18,0,0,1,80.1,314.64Zm0,1.17a1.85,1.85,0,0,0-1.72,1.13,10.28,10.28,0,0,0,0,6.75,1.89,1.89,0,0,0,3.45,0,10.28,10.28,0,0,0,0-6.75A1.86,1.86,0,0,0,80.1,315.81Z"/><path class="cls-3" d="M40.08,16.08h5.16v1.25H38.3V16.08c.56-.58,1.32-1.36,2.29-2.34s1.58-1.61,1.83-1.89a7.7,7.7,0,0,0,1-1.35,2.39,2.39,0,0,0,.28-1.09A1.8,1.8,0,0,0,43.08,8a2.28,2.28,0,0,0-1.59-.55A5,5,0,0,0,40,7.68a8.27,8.27,0,0,0-1.65.73V6.92A11.08,11.08,0,0,1,40,6.38a5.86,5.86,0,0,1,1.42-.19A4.11,4.11,0,0,1,44.17,7a2.84,2.84,0,0,1,1,2.27,3.25,3.25,0,0,1-.25,1.28A6.54,6.54,0,0,1,44,12c-.12.14-.51.55-1.17,1.22S41.27,14.86,40.08,16.08Z"/><path class="cls-3" d="M52.83,11.43a2.92,2.92,0,0,1,1.66.94,2.73,2.73,0,0,1,.59,1.78A3,3,0,0,1,54,16.65a5,5,0,0,1-3.16.89,7.76,7.76,0,0,1-1.42-.14,10.26,10.26,0,0,1-1.51-.4V15.57a5,5,0,0,0,1.35.54,6.41,6.41,0,0,0,1.53.18,3.44,3.44,0,0,0,2.12-.55,1.84,1.84,0,0,0,.73-1.59,1.86,1.86,0,0,0-.68-1.52,2.94,2.94,0,0,0-1.88-.54H49.77V10.87h1.34a2.77,2.77,0,0,0,1.67-.43,1.49,1.49,0,0,0,.57-1.26,1.53,1.53,0,0,0-.59-1.29,2.81,2.81,0,0,0-1.71-.45,6.91,6.91,0,0,0-1.31.13A11.8,11.8,0,0,0,48.21,8V6.66c.56-.15,1.09-.27,1.58-.35a8.61,8.61,0,0,1,1.39-.12A4.21,4.21,0,0,1,53.84,7a2.48,2.48,0,0,1,1,2.07,2.36,2.36,0,0,1-.52,1.53A2.71,2.71,0,0,1,52.83,11.43Z"/><path class="cls-3" d="M64.52,12.37v5H63.17V12.42a2.72,2.72,0,0,0-.46-1.74,1.6,1.6,0,0,0-1.36-.58,2.21,2.21,0,0,0-1.72.69,2.74,2.74,0,0,0-.63,1.9v4.64H57.65V5.93H59V10.4a3.25,3.25,0,0,1,1.14-1.11,3.1,3.1,0,0,1,1.51-.37,2.63,2.63,0,0,1,2.14.88A4,4,0,0,1,64.52,12.37Z"/><path class="cls-3" d="M70.56,6.19a3.19,3.19,0,0,1,2.81,1.46,7.66,7.66,0,0,1,1,4.22,7.62,7.62,0,0,1-1,4.21,3.43,3.43,0,0,1-5.62,0,7.53,7.53,0,0,1-1-4.21,7.57,7.57,0,0,1,1-4.22A3.17,3.17,0,0,1,70.56,6.19Zm0,1.17a1.84,1.84,0,0,0-1.72,1.13,7.77,7.77,0,0,0-.57,3.38,7.72,7.72,0,0,0,.57,3.37,1.87,1.87,0,0,0,3.44,0,7.55,7.55,0,0,0,.58-3.37,7.6,7.6,0,0,0-.58-3.38A1.84,1.84,0,0,0,70.56,7.36Z"/><path class="cls-3" d="M80.1,6.19a3.17,3.17,0,0,1,2.81,1.46,7.57,7.57,0,0,1,1,4.22,7.53,7.53,0,0,1-1,4.21,3.43,3.43,0,0,1-5.62,0,7.62,7.62,0,0,1-1-4.21,7.66,7.66,0,0,1,1-4.22A3.19,3.19,0,0,1,80.1,6.19Zm0,1.17a1.85,1.85,0,0,0-1.72,1.13,7.77,7.77,0,0,0-.57,3.38,7.72,7.72,0,0,0,.57,3.37,1.88,1.88,0,0,0,3.45,0,7.72,7.72,0,0,0,.57-3.37,7.77,7.77,0,0,0-.57-3.38A1.86,1.86,0,0,0,80.1,7.36Z"/><path class="cls-3" d="M5.08,158.37h9.25v1.25H10.45v9.69H9v-9.69H5.08Z"/><path class="cls-3" d="M15.24,157.91h1.35v1.71H15.24Zm0,3.19h1.35v8.21H15.24Z"/><path class="cls-3" d="M25.8,162.68a3.52,3.52,0,0,1,1.2-1.34,3.09,3.09,0,0,1,1.66-.43,2.36,2.36,0,0,1,2,.89,4.12,4.12,0,0,1,.69,2.55v5H30V164.4a3,3,0,0,0-.42-1.75,1.47,1.47,0,0,0-1.27-.57,2.11,2.11,0,0,0-1.66.69,2.83,2.83,0,0,0-.61,1.9v4.64H24.67V164.4a2.93,2.93,0,0,0-.42-1.75,1.5,1.5,0,0,0-1.29-.57,2.05,2.05,0,0,0-1.64.7,2.79,2.79,0,0,0-.61,1.89v4.64H19.36V161.1h1.35v1.28a3.05,3.05,0,0,1,1.11-1.12,3.09,3.09,0,0,1,1.53-.35,2.55,2.55,0,0,1,1.52.45A2.61,2.61,0,0,1,25.8,162.68Z"/><path class="cls-3" d="M41,164.87v.66h-6.2a3.14,3.14,0,0,0,.84,2.12,2.9,2.9,0,0,0,2.09.73,6.31,6.31,0,0,0,1.51-.19,6.68,6.68,0,0,0,1.44-.58v1.28a8.77,8.77,0,0,1-1.48.47,8.07,8.07,0,0,1-1.55.16,4,4,0,0,1-4.26-4.23,4.56,4.56,0,0,1,1.09-3.2,3.81,3.81,0,0,1,2.94-1.18A3.33,3.33,0,0,1,40.07,162,4.13,4.13,0,0,1,41,164.87Zm-1.35-.4a2.56,2.56,0,0,0-.62-1.76,2.07,2.07,0,0,0-1.6-.66,2.54,2.54,0,0,0-1.81.64,2.68,2.68,0,0,0-.78,1.79Z"/></svg>