<svg id="svg1592" xmlns="http://www.w3.org/2000/svg" viewBox="0 0 635 380.02"><defs><style>.cls-1{fill:none;stroke:#888;stroke-width:3px;}.cls-1,.cls-2,.cls-3{stroke-miterlimit:10;}.cls-2,.cls-3,.cls-5{fill:#047;}.cls-2,.cls-3{stroke:#047;}.cls-2{stroke-width:7px;}.cls-4{fill:#888;}</style></defs><title>scatterplot-3</title><polyline class="cls-1" points="520.64 323.89 104.9 323.89 104.9 7.75"/><circle class="cls-2" cx="184.86" cy="129.79" r="2.61"/><circle class="cls-2" cx="237.9" cy="67.53" r="2.61"/><circle class="cls-2" cx="358.95" cy="39.23" r="2.61"/><circle class="cls-2" cx="426.87" cy="74.13" r="2.61"/><circle class="cls-2" cx="305.67" cy="102.07" r="2.61"/><circle class="cls-2" cx="439.45" cy="170.35" r="2.61"/><circle class="cls-2" cx="373.73" cy="136.39" r="2.61"/><circle class="cls-2" cx="252.05" cy="165.64" r="2.61"/><circle class="cls-2" cx="387.25" cy="233.23" r="2.61"/><circle class="cls-2" cx="319.65" cy="198.65" r="2.61"/><circle class="cls-3" cx="203.63" cy="183.24" r="2.61"/><circle class="cls-3" cx="460.51" cy="222.54" r="2.61"/><circle class="cls-3" cx="406.43" cy="285.33" r="2.61"/><circle class="cls-3" cx="271.23" cy="217.32" r="2.61"/><circle class="cls-3" cx="339.77" cy="251.78" r="2.61"/><circle class="cls-3" cx="324.88" cy="155.26" r="2.61"/><circle class="cls-3" cx="392.48" cy="188.78" r="2.61"/><circle class="cls-3" cx="257.11" cy="120.72" r="2.61"/><circle class="cls-3" cx="377.7" cy="91.62" r="2.61"/><path class="cls-4" d="M488.93,348.87h5.16v1.25h-6.94v-1.25c.56-.58,1.33-1.36,2.3-2.34s1.57-1.61,1.82-1.89a6.73,6.73,0,0,0,1-1.35,2.49,2.49,0,0,0,.28-1.09,1.85,1.85,0,0,0-.61-1.42,2.29,2.29,0,0,0-1.6-.55,5,5,0,0,0-1.47.24,9.51,9.51,0,0,0-1.65.73v-1.49a11.86,11.86,0,0,1,1.67-.54,6.34,6.34,0,0,1,1.42-.18,4.09,4.09,0,0,1,2.71.84,2.82,2.82,0,0,1,1,2.28,3.23,3.23,0,0,1-.25,1.27,6,6,0,0,1-.92,1.43c-.12.14-.51.55-1.16,1.23Z"/><path class="cls-4" d="M500.36,339a3.17,3.17,0,0,1,2.81,1.45,9.66,9.66,0,0,1,0,8.44,3.45,3.45,0,0,1-5.62,0,9.66,9.66,0,0,1,0-8.44A3.18,3.18,0,0,1,500.36,339Zm0,1.17a1.84,1.84,0,0,0-1.72,1.12,7.77,7.77,0,0,0-.57,3.38,7.69,7.69,0,0,0,.57,3.37,1.88,1.88,0,0,0,3.45,0,7.69,7.69,0,0,0,.57-3.37,7.77,7.77,0,0,0-.57-3.38A1.85,1.85,0,0,0,500.36,340.16Z"/><path class="cls-4" d="M509.91,339a3.15,3.15,0,0,1,2.8,1.45,9.66,9.66,0,0,1,0,8.44,3.44,3.44,0,0,1-5.61,0,9.66,9.66,0,0,1,0-8.44A3.15,3.15,0,0,1,509.91,339Zm0,1.17a1.83,1.83,0,0,0-1.72,1.12,7.6,7.6,0,0,0-.58,3.38,7.52,7.52,0,0,0,.58,3.37,1.87,1.87,0,0,0,3.44,0,7.67,7.67,0,0,0,.58-3.37,7.75,7.75,0,0,0-.58-3.38A1.84,1.84,0,0,0,509.91,340.16Z"/><path class="cls-4" d="M516.15,339.18h1.48v4.62l4.91-4.62h1.91l-5.43,5.1,5.81,5.84h-2l-5.25-5.27v5.27h-1.48Z"/><path class="cls-4" d="M106.91,339a3.18,3.18,0,0,1,2.81,1.45,9.66,9.66,0,0,1,0,8.44,3.45,3.45,0,0,1-5.62,0,9.66,9.66,0,0,1,0-8.44A3.17,3.17,0,0,1,106.91,339Zm0,1.17a1.83,1.83,0,0,0-1.72,1.12,7.75,7.75,0,0,0-.58,3.38,7.67,7.67,0,0,0,.58,3.37,1.87,1.87,0,0,0,3.44,0,7.67,7.67,0,0,0,.58-3.37,7.75,7.75,0,0,0-.58-3.38A1.84,1.84,0,0,0,106.91,340.16Z"/><path class="cls-4" d="M301.65,366.9v1.44a8.77,8.77,0,0,0-1.59-.6,5.73,5.73,0,0,0-1.44-.2,3.21,3.21,0,0,0-1.87.47,1.55,1.55,0,0,0-.65,1.33,1.36,1.36,0,0,0,.43,1.1,4.07,4.07,0,0,0,1.66.6l.89.18a4.55,4.55,0,0,1,2.44,1.11,3.26,3.26,0,0,1-.28,4.54,5.09,5.09,0,0,1-3.12.82,8.15,8.15,0,0,1-1.65-.18,12.14,12.14,0,0,1-1.81-.52v-1.52a8.83,8.83,0,0,0,1.76.76,6,6,0,0,0,1.7.25,3.34,3.34,0,0,0,2-.49,1.68,1.68,0,0,0,.68-1.43,1.64,1.64,0,0,0-.49-1.26,3.51,3.51,0,0,0-1.62-.68l-.9-.17a4.89,4.89,0,0,1-2.4-1,2.6,2.6,0,0,1-.74-2,2.8,2.8,0,0,1,1-2.29,4.37,4.37,0,0,1,2.82-.83,9.53,9.53,0,0,1,1.57.14A10.58,10.58,0,0,1,301.65,366.9Z"/><path class="cls-4" d="M310.46,369.58v1.26a5.5,5.5,0,0,0-1.14-.47,4.71,4.71,0,0,0-1.17-.16,2.53,2.53,0,0,0-2,.84,4.08,4.08,0,0,0,0,4.66,2.53,2.53,0,0,0,2,.83,4.29,4.29,0,0,0,1.17-.16,5,5,0,0,0,1.14-.47v1.25a6,6,0,0,1-1.17.39,5.84,5.84,0,0,1-1.28.14,3.84,3.84,0,0,1-2.95-1.17,5.08,5.08,0,0,1,0-6.3,4,4,0,0,1,3-1.15,5.41,5.41,0,0,1,1.21.13A5.74,5.74,0,0,1,310.46,369.58Z"/><path class="cls-4" d="M316,369.07a3.5,3.5,0,0,1,2.77,1.14,5.51,5.51,0,0,1,0,6.33,3.9,3.9,0,0,1-5.53,0,5.51,5.51,0,0,1,0-6.33A3.49,3.49,0,0,1,316,369.07Zm0,1.14a2,2,0,0,0-1.71.85,4.59,4.59,0,0,0,0,4.64,2.15,2.15,0,0,0,3.42,0,3.77,3.77,0,0,0,.63-2.31,3.81,3.81,0,0,0-.63-2.31A2,2,0,0,0,316,370.21Z"/><path class="cls-4" d="M326.74,370.53a2.18,2.18,0,0,0-.5-.2,2.68,2.68,0,0,0-.59-.06,2.12,2.12,0,0,0-1.75.75,3.24,3.24,0,0,0-.61,2.13v4.32h-1.36v-8.2h1.36v1.27a2.86,2.86,0,0,1,1.1-1.11,3.54,3.54,0,0,1,1.66-.36l.3,0,.38.05Z"/><path class="cls-4" d="M334.84,373v.66h-6.2a3.1,3.1,0,0,0,.84,2.12,2.86,2.86,0,0,0,2.09.73,5.84,5.84,0,0,0,1.51-.19,6.16,6.16,0,0,0,1.44-.57v1.27a7.27,7.27,0,0,1-1.48.47,7.36,7.36,0,0,1-1.55.17,4,4,0,0,1-4.26-4.24,4.58,4.58,0,0,1,1.09-3.2,3.82,3.82,0,0,1,2.93-1.18,3.35,3.35,0,0,1,2.62,1.07A4.11,4.11,0,0,1,334.84,373Zm-1.35-.39a2.59,2.59,0,0,0-.62-1.77,2.07,2.07,0,0,0-1.6-.66,2.58,2.58,0,0,0-1.81.64,2.73,2.73,0,0,0-.78,1.8Z"/><path class="cls-4" d="M41.82,314.64a3.17,3.17,0,0,1,2.81,1.45,9.66,9.66,0,0,1,0,8.44,3.43,3.43,0,0,1-5.62,0,9.66,9.66,0,0,1,0-8.44A3.18,3.18,0,0,1,41.82,314.64Zm0,1.17a1.85,1.85,0,0,0-1.72,1.13,10.28,10.28,0,0,0,0,6.75,1.89,1.89,0,0,0,3.45,0,10.28,10.28,0,0,0,0-6.75A1.86,1.86,0,0,0,41.82,315.81Z"/><path class="cls-4" d="M49.89,320a2.68,2.68,0,0,1-1.49-.89,2.44,2.44,0,0,1-.53-1.59,2.52,2.52,0,0,1,.94-2.07,4.69,4.69,0,0,1,5.12,0,2.54,2.54,0,0,1,.93,2.07,2.44,2.44,0,0,1-.53,1.59,2.69,2.69,0,0,1-1.48.89,3,3,0,0,1,1.67,1,2.72,2.72,0,0,1,.6,1.78,3.1,3.1,0,0,1-1,2.44,4.14,4.14,0,0,1-2.78.85,4.11,4.11,0,0,1-2.78-.85,3.06,3.06,0,0,1-1-2.44,2.72,2.72,0,0,1,.6-1.78A3,3,0,0,1,49.89,320Zm1.48.63a2.35,2.35,0,0,0-1.66.56,2,2,0,0,0-.61,1.56,2,2,0,0,0,.61,1.55,2.35,2.35,0,0,0,1.66.56,2.38,2.38,0,0,0,1.66-.56,2.29,2.29,0,0,0,0-3.11A2.36,2.36,0,0,0,51.37,320.58Zm-2-3a1.68,1.68,0,0,0,.54,1.33,2.14,2.14,0,0,0,1.49.48,2.17,2.17,0,0,0,1.49-.48,1.92,1.92,0,0,0,0-2.65,2.17,2.17,0,0,0-1.49-.48,2.14,2.14,0,0,0-1.49.48A1.68,1.68,0,0,0,49.34,317.61Z"/><path class="cls-4" d="M64.37,320.82v4.95H63v-4.9a2.84,2.84,0,0,0-.46-1.75,1.64,1.64,0,0,0-1.36-.58,2.21,2.21,0,0,0-1.72.7,2.72,2.72,0,0,0-.63,1.9v4.63H57.5V314.38h1.36v4.46a3.22,3.22,0,0,1,1.14-1.1,3,3,0,0,1,1.51-.37,2.62,2.62,0,0,1,2.14.88A4,4,0,0,1,64.37,320.82Z"/><path class="cls-4" d="M70.42,314.64a3.15,3.15,0,0,1,2.8,1.45,9.66,9.66,0,0,1,0,8.44,3.42,3.42,0,0,1-5.61,0,9.66,9.66,0,0,1,0-8.44A3.15,3.15,0,0,1,70.42,314.64Zm0,1.17a1.84,1.84,0,0,0-1.72,1.13,10.11,10.11,0,0,0,0,6.75,1.88,1.88,0,0,0,3.44,0,10.11,10.11,0,0,0,0-6.75A1.84,1.84,0,0,0,70.42,315.81Z"/><path class="cls-4" d="M80,314.64a3.18,3.18,0,0,1,2.81,1.45,9.66,9.66,0,0,1,0,8.44,3.43,3.43,0,0,1-5.62,0,9.66,9.66,0,0,1,0-8.44A3.17,3.17,0,0,1,80,314.64Zm0,1.17a1.84,1.84,0,0,0-1.72,1.13,10.28,10.28,0,0,0,0,6.75,1.88,1.88,0,0,0,3.44,0,10.11,10.11,0,0,0,0-6.75A1.84,1.84,0,0,0,80,315.81Z"/><path class="cls-4" d="M39.93,16.08H45.1v1.25h-7V16.08c.56-.58,1.33-1.36,2.3-2.34s1.58-1.61,1.83-1.89a7.7,7.7,0,0,0,1-1.35,2.39,2.39,0,0,0,.28-1.09A1.8,1.8,0,0,0,42.94,8a2.28,2.28,0,0,0-1.59-.55,4.91,4.91,0,0,0-1.47.24,8.27,8.27,0,0,0-1.65.73V6.92a11.08,11.08,0,0,1,1.67-.54,5.79,5.79,0,0,1,1.42-.19A4.13,4.13,0,0,1,44,7a2.84,2.84,0,0,1,1,2.27,3.25,3.25,0,0,1-.26,1.28A6.09,6.09,0,0,1,43.87,12L42.7,13.24C42.05,13.92,41.12,14.86,39.93,16.08Z"/><path class="cls-4" d="M52.68,11.43a2.86,2.86,0,0,1,1.66.94,2.68,2.68,0,0,1,.6,1.78,3,3,0,0,1-1.11,2.5,5,5,0,0,1-3.17.89,7.66,7.66,0,0,1-1.41-.14,10.26,10.26,0,0,1-1.51-.4V15.57a5,5,0,0,0,1.35.54,6.41,6.41,0,0,0,1.53.18,3.46,3.46,0,0,0,2.12-.55,1.87,1.87,0,0,0,.73-1.59,1.86,1.86,0,0,0-.68-1.52,3,3,0,0,0-1.89-.54H49.63V10.87H51a2.73,2.73,0,0,0,1.67-.43,1.47,1.47,0,0,0,.58-1.26,1.52,1.52,0,0,0-.6-1.29,2.77,2.77,0,0,0-1.71-.45,6.81,6.81,0,0,0-1.3.13A11.8,11.8,0,0,0,48.07,8V6.66c.56-.15,1.09-.27,1.58-.35A8.61,8.61,0,0,1,51,6.19,4.21,4.21,0,0,1,53.7,7a2.47,2.47,0,0,1,1,2.07,2.31,2.31,0,0,1-.52,1.53A2.67,2.67,0,0,1,52.68,11.43Z"/><path class="cls-4" d="M64.37,12.37v5H63V12.42a2.78,2.78,0,0,0-.46-1.74,1.61,1.61,0,0,0-1.36-.58,2.21,2.21,0,0,0-1.72.69,2.74,2.74,0,0,0-.63,1.9v4.64H57.5V5.93h1.36V10.4A3.25,3.25,0,0,1,60,9.29a3.07,3.07,0,0,1,1.51-.37,2.65,2.65,0,0,1,2.14.88A4,4,0,0,1,64.37,12.37Z"/><path class="cls-4" d="M70.42,6.19a3.16,3.16,0,0,1,2.8,1.46,7.57,7.57,0,0,1,1,4.22,7.53,7.53,0,0,1-1,4.21,3.42,3.42,0,0,1-5.61,0,7.53,7.53,0,0,1-1-4.21,7.57,7.57,0,0,1,1-4.22A3.16,3.16,0,0,1,70.42,6.19Zm0,1.17A1.84,1.84,0,0,0,68.7,8.49a7.6,7.6,0,0,0-.58,3.38,7.55,7.55,0,0,0,.58,3.37,1.87,1.87,0,0,0,3.44,0,7.7,7.7,0,0,0,.58-3.37,7.75,7.75,0,0,0-.58-3.38A1.84,1.84,0,0,0,70.42,7.36Z"/><path class="cls-4" d="M80,6.19a3.19,3.19,0,0,1,2.81,1.46,7.57,7.57,0,0,1,1,4.22,7.53,7.53,0,0,1-1,4.21,3.43,3.43,0,0,1-5.62,0,7.53,7.53,0,0,1-1-4.21,7.57,7.57,0,0,1,1-4.22A3.17,3.17,0,0,1,80,6.19Zm0,1.17a1.84,1.84,0,0,0-1.72,1.13,7.77,7.77,0,0,0-.57,3.38,7.72,7.72,0,0,0,.57,3.37,1.87,1.87,0,0,0,3.44,0,7.55,7.55,0,0,0,.58-3.37,7.6,7.6,0,0,0-.58-3.38A1.84,1.84,0,0,0,80,7.36Z"/><path class="cls-4" d="M4.94,158.37h9.25v1.25H10.31v9.69H8.82v-9.69H4.94Z"/><path class="cls-4" d="M15.1,157.91h1.35v1.71H15.1Zm0,3.19h1.35v8.21H15.1Z"/><path class="cls-4" d="M25.65,162.68a3.54,3.54,0,0,1,1.21-1.34,3.09,3.09,0,0,1,1.66-.43,2.33,2.33,0,0,1,2,.89,4.05,4.05,0,0,1,.7,2.55v5H29.83V164.4a3,3,0,0,0-.41-1.75,1.49,1.49,0,0,0-1.28-.57,2.07,2.07,0,0,0-1.65.69,2.78,2.78,0,0,0-.61,1.9v4.64H24.52V164.4a3,3,0,0,0-.41-1.75,1.5,1.5,0,0,0-1.29-.57,2,2,0,0,0-1.64.7,2.74,2.74,0,0,0-.61,1.89v4.64H19.21V161.1h1.36v1.28a2.8,2.8,0,0,1,2.64-1.47,2.55,2.55,0,0,1,1.52.45A2.65,2.65,0,0,1,25.65,162.68Z"/><path class="cls-4" d="M40.89,164.87v.66H34.7a3.14,3.14,0,0,0,.84,2.12,2.89,2.89,0,0,0,2.09.73,6.23,6.23,0,0,0,1.5-.19,6.56,6.56,0,0,0,1.45-.58v1.28a8.88,8.88,0,0,1-1.49.47,8,8,0,0,1-1.54.16,4,4,0,0,1-4.26-4.23,4.52,4.52,0,0,1,1.09-3.2,3.77,3.77,0,0,1,2.93-1.18A3.34,3.34,0,0,1,39.93,162,4.18,4.18,0,0,1,40.89,164.87Zm-1.35-.4a2.51,2.51,0,0,0-.61-1.76,2.08,2.08,0,0,0-1.6-.66,2.5,2.5,0,0,0-1.81.64,2.68,2.68,0,0,0-.78,1.79Z"/><circle class="cls-2" cx="625.47" cy="37.64" r="2.61"/><circle class="cls-5" cx="625.47" cy="14.92" r="2.61"/><path class="cls-4" d="M539.09,9.88v1.56a5.13,5.13,0,0,0-1.59-1,4.69,4.69,0,0,0-1.8-.34,3.61,3.61,0,0,0-2.87,1.14,5,5,0,0,0-1,3.32,4.94,4.94,0,0,0,1,3.31A3.61,3.61,0,0,0,535.7,19a4.69,4.69,0,0,0,1.8-.34,5.13,5.13,0,0,0,1.59-1v1.54a5.77,5.77,0,0,1-1.64.79,6.14,6.14,0,0,1-1.83.27,5.11,5.11,0,0,1-3.91-1.52,5.8,5.8,0,0,1-1.43-4.15,5.81,5.81,0,0,1,1.43-4.16,5.11,5.11,0,0,1,3.91-1.52,6.56,6.56,0,0,1,1.85.26A6.21,6.21,0,0,1,539.09,9.88Z"/><path class="cls-4" d="M544.5,11.57a3.46,3.46,0,0,1,2.76,1.15,4.61,4.61,0,0,1,1,3.16,4.63,4.63,0,0,1-1,3.16,3.89,3.89,0,0,1-5.52,0,4.63,4.63,0,0,1-1-3.16,4.61,4.61,0,0,1,1-3.16A3.44,3.44,0,0,1,544.5,11.57Zm0,1.15a2,2,0,0,0-1.71.84,3.82,3.82,0,0,0-.63,2.32,3.89,3.89,0,0,0,.62,2.32,2,2,0,0,0,1.72.84,2,2,0,0,0,1.71-.85,3.77,3.77,0,0,0,.63-2.31,3.81,3.81,0,0,0-.63-2.31A2,2,0,0,0,544.5,12.72Z"/><path class="cls-4" d="M554.65,8.58V9.7h-1.29a1.37,1.37,0,0,0-1,.29,1.53,1.53,0,0,0-.29,1.06v.72h2.22v1.05h-2.22V20h-1.35V12.82h-1.29V11.77h1.29V11.2a2.7,2.7,0,0,1,.64-2,2.82,2.82,0,0,1,2-.62Z"/><path class="cls-4" d="M559.93,8.58V9.7h-1.29a1.37,1.37,0,0,0-1,.29,1.53,1.53,0,0,0-.29,1.06v.72h2.22v1.05h-2.22V20H556V12.82h-1.29V11.77H556V11.2a2.7,2.7,0,0,1,.64-2,2.82,2.82,0,0,1,2-.62Z"/><path class="cls-4" d="M568.08,15.54v.66h-6.2a3.14,3.14,0,0,0,.84,2.12,2.9,2.9,0,0,0,2.09.72,5.84,5.84,0,0,0,1.51-.19,6.16,6.16,0,0,0,1.44-.57v1.28a8.77,8.77,0,0,1-1.48.47,8.07,8.07,0,0,1-1.55.16A4,4,0,0,1,560.47,16a4.55,4.55,0,0,1,1.09-3.19,3.8,3.8,0,0,1,2.94-1.19,3.34,3.34,0,0,1,2.61,1.07A4.13,4.13,0,0,1,568.08,15.54Zm-1.35-.4a2.54,2.54,0,0,0-.62-1.76,2.07,2.07,0,0,0-1.6-.66,2.57,2.57,0,0,0-1.81.63,2.73,2.73,0,0,0-.78,1.8Z"/><path class="cls-4" d="M577.3,15.54v.66h-6.19a3.14,3.14,0,0,0,.84,2.12A2.88,2.88,0,0,0,574,19a5.71,5.71,0,0,0,1.5-.19,6.06,6.06,0,0,0,1.45-.57v1.28a8.6,8.6,0,0,1-1.49.47,7.89,7.89,0,0,1-1.54.16A4,4,0,0,1,569.7,16a4.55,4.55,0,0,1,1.09-3.19,3.79,3.79,0,0,1,2.93-1.19,3.35,3.35,0,0,1,2.62,1.07A4.18,4.18,0,0,1,577.3,15.54Zm-1.34-.4a2.54,2.54,0,0,0-.62-1.76,2.07,2.07,0,0,0-1.6-.66,2.56,2.56,0,0,0-1.81.63,2.73,2.73,0,0,0-.78,1.8Z"/><path class="cls-4" d="M593.39,11.92,590,15.28l3.35,3.35-.87.88-3.36-3.36-3.37,3.36-.86-.88,3.34-3.35-3.34-3.36.86-.89,3.37,3.36L592.52,11Z"/><path class="cls-4" d="M602.07,18.73h2.42V10.39l-2.63.52V9.57L604.47,9H606v9.69h2.42V20h-6.3Z"/><path class="cls-4" d="M539.09,32.52v1.56a5.13,5.13,0,0,0-1.59-1,4.69,4.69,0,0,0-1.8-.34,3.61,3.61,0,0,0-2.87,1.14,5,5,0,0,0-1,3.32,4.89,4.89,0,0,0,1,3.3,3.59,3.59,0,0,0,2.87,1.15,4.69,4.69,0,0,0,1.8-.34,5.13,5.13,0,0,0,1.59-1v1.54a5.77,5.77,0,0,1-1.64.79,6.14,6.14,0,0,1-1.83.27,5.11,5.11,0,0,1-3.91-1.52,5.8,5.8,0,0,1-1.43-4.15A5.79,5.79,0,0,1,531.71,33a5.11,5.11,0,0,1,3.91-1.52,6.56,6.56,0,0,1,1.85.26A5.63,5.63,0,0,1,539.09,32.52Z"/><path class="cls-4" d="M544.5,34.21a3.49,3.49,0,0,1,2.76,1.14,4.66,4.66,0,0,1,1,3.17,4.63,4.63,0,0,1-1,3.16,3.89,3.89,0,0,1-5.52,0,4.63,4.63,0,0,1-1-3.16,4.65,4.65,0,0,1,1-3.17A3.46,3.46,0,0,1,544.5,34.21Zm0,1.14a2,2,0,0,0-1.71.85,3.8,3.8,0,0,0-.63,2.32,3.89,3.89,0,0,0,.62,2.32,2,2,0,0,0,1.72.84,2,2,0,0,0,1.71-.85,3.77,3.77,0,0,0,.63-2.31,3.81,3.81,0,0,0-.63-2.31A2,2,0,0,0,544.5,35.35Z"/><path class="cls-4" d="M554.65,31.22v1.12h-1.29a1.37,1.37,0,0,0-1,.29,1.53,1.53,0,0,0-.29,1.06v.72h2.22v1.05h-2.22v7.15h-1.35V35.46h-1.29V34.41h1.29v-.57a2.7,2.7,0,0,1,.64-2,2.82,2.82,0,0,1,2-.62Z"/><path class="cls-4" d="M559.93,31.22v1.12h-1.29a1.37,1.37,0,0,0-1,.29,1.53,1.53,0,0,0-.29,1.06v.72h2.22v1.05h-2.22v7.15H556V35.46h-1.29V34.41H556v-.57a2.7,2.7,0,0,1,.64-2,2.82,2.82,0,0,1,2-.62Z"/><path class="cls-4" d="M568.08,38.17v.66h-6.2a3.1,3.1,0,0,0,.84,2.12,2.86,2.86,0,0,0,2.09.73,5.84,5.84,0,0,0,1.51-.19,6.16,6.16,0,0,0,1.44-.57V42.2a7.91,7.91,0,0,1-1.48.46,7.36,7.36,0,0,1-1.55.17,4,4,0,0,1-4.26-4.24,4.54,4.54,0,0,1,1.09-3.19,3.8,3.8,0,0,1,2.94-1.19,3.34,3.34,0,0,1,2.61,1.07A4.11,4.11,0,0,1,568.08,38.17Zm-1.35-.39a2.59,2.59,0,0,0-.62-1.77,2.07,2.07,0,0,0-1.6-.66,2.58,2.58,0,0,0-1.81.64,2.73,2.73,0,0,0-.78,1.8Z"/><path class="cls-4" d="M577.3,38.17v.66h-6.19A3.1,3.1,0,0,0,572,41a2.85,2.85,0,0,0,2.09.73,5.71,5.71,0,0,0,1.5-.19,6.06,6.06,0,0,0,1.45-.57V42.2a7.78,7.78,0,0,1-1.49.46,7.2,7.2,0,0,1-1.54.17,4.21,4.21,0,0,1-3.11-1.15,4.14,4.14,0,0,1-1.15-3.09,4.54,4.54,0,0,1,1.09-3.19,3.79,3.79,0,0,1,2.93-1.19,3.35,3.35,0,0,1,2.62,1.07A4.15,4.15,0,0,1,577.3,38.17ZM576,37.78a2.59,2.59,0,0,0-.62-1.77,2.07,2.07,0,0,0-1.6-.66,2.56,2.56,0,0,0-1.81.64,2.73,2.73,0,0,0-.78,1.8Z"/><path class="cls-4" d="M593.39,34.56,590,37.92l3.35,3.35-.87.88-3.36-3.36-3.37,3.36-.86-.88,3.34-3.35-3.34-3.36.86-.89L589.16,37l3.36-3.36Z"/><path class="cls-4" d="M603.09,41.37h5.16v1.24h-6.94V41.37c.56-.58,1.32-1.36,2.29-2.34s1.58-1.61,1.83-1.9a6.61,6.61,0,0,0,1-1.35,2.33,2.33,0,0,0,.29-1.08,1.83,1.83,0,0,0-.62-1.43,2.29,2.29,0,0,0-1.59-.54A5,5,0,0,0,603,33a8.81,8.81,0,0,0-1.65.73V32.21a13,13,0,0,1,1.67-.55,6.34,6.34,0,0,1,1.42-.18,4.05,4.05,0,0,1,2.71.85,2.8,2.8,0,0,1,1,2.27,3.25,3.25,0,0,1-.25,1.28A6.28,6.28,0,0,1,607,37.3c-.12.14-.51.55-1.16,1.23Z"/></svg>