<?xml version="1.0" encoding="utf-8"?>
<!-- Generator: Adobe Illustrator 22.0.1, SVG Export Plug-In . SVG Version: 6.00 Build 0)  -->
<svg version="1.1" id="svg1592" xmlns="http://www.w3.org/2000/svg" xmlns:xlink="http://www.w3.org/1999/xlink" x="0px" y="0px"
	 viewBox="0 0 635 106" style="enable-background:new 0 0 635 106;" xml:space="preserve">
<style type="text/css">
	.st0{fill:none;stroke:#888888;stroke-width:3;stroke-miterlimit:10;}
	.st1{fill:#004477;stroke:#004477;stroke-miterlimit:10;}
	.st2{fill:#888888;}
</style>
<title>scatterplot-1</title>
<line class="st0" x1="521.2" y1="49.9" x2="105.5" y2="49.9"/>
<circle class="st1" cx="184.5" cy="11.4" r="2.6"/>
<circle class="st1" cx="203.3" cy="11.4" r="2.6"/>
<circle class="st1" cx="237.5" cy="11.4" r="2.6"/>
<circle class="st1" cx="358.6" cy="11.4" r="2.6"/>
<circle class="st1" cx="426.5" cy="11.4" r="2.6"/>
<circle class="st1" cx="446.1" cy="11.4" r="2.6"/>
<circle class="st1" cx="305.3" cy="11.4" r="2.6"/>
<circle class="st1" cx="439.1" cy="11.4" r="2.6"/>
<circle class="st1" cx="460.1" cy="11.4" r="2.6"/>
<circle class="st1" cx="406.1" cy="11.4" r="2.6"/>
<circle class="st1" cx="373.4" cy="11.4" r="2.6"/>
<circle class="st1" cx="251.7" cy="11.4" r="2.6"/>
<circle class="st1" cx="270.9" cy="11.4" r="2.6"/>
<circle class="st1" cx="339.4" cy="11.4" r="2.6"/>
<circle class="st1" cx="386.9" cy="11.4" r="2.6"/>
<circle class="st1" cx="319.3" cy="11.4" r="2.6"/>
<circle class="st1" cx="324.5" cy="11.4" r="2.6"/>
<circle class="st1" cx="392.1" cy="11.4" r="2.6"/>
<circle class="st1" cx="256.7" cy="11.4" r="2.6"/>
<circle class="st1" cx="377.3" cy="11.4" r="2.6"/>
<path class="st2" d="M488.6,74.9h5.2v1.2h-6.9v-1.2c0.6-0.6,1.3-1.4,2.3-2.3s1.6-1.6,1.8-1.9c0.4-0.4,0.7-0.9,1-1.4
	c0.2-0.3,0.3-0.7,0.3-1.1c0-0.5-0.2-1.1-0.6-1.4c-0.4-0.4-1-0.6-1.6-0.5c-0.5,0-1,0.1-1.5,0.2c-0.6,0.2-1.1,0.4-1.6,0.7v-1.5
	c0.5-0.2,1.1-0.4,1.7-0.5c0.5-0.1,1-0.2,1.5-0.2c1-0.1,1.9,0.2,2.7,0.8c0.7,0.6,1,1.4,1,2.3c0,0.4-0.1,0.9-0.2,1.3
	c-0.2,0.5-0.6,1-0.9,1.4c-0.1,0.1-0.5,0.5-1.2,1.2C490.7,72.7,489.8,73.7,488.6,74.9z"/>
<path class="st2" d="M500,65c1.1,0,2.2,0.5,2.8,1.5c1.3,2.7,1.3,5.8,0,8.4c-1.1,1.6-3.3,1.9-4.8,0.8c-0.3-0.2-0.6-0.5-0.8-0.8
	c-1.3-2.7-1.3-5.8,0-8.4C497.8,65.5,498.9,64.9,500,65z M500,66.2c-0.7,0-1.4,0.4-1.7,1.1c-0.4,1.1-0.6,2.2-0.6,3.4
	c-0.1,1.2,0.1,2.3,0.6,3.4c0.3,0.7,1,1.1,1.7,1.1c0.8,0,1.4-0.4,1.7-1.1c0.4-1.1,0.6-2.2,0.6-3.4c0.1-1.2-0.1-2.3-0.6-3.4
	C501.4,66.6,500.8,66.1,500,66.2L500,66.2z"/>
<path class="st2" d="M509.5,65c1.1-0.1,2.2,0.5,2.8,1.5c1.3,2.7,1.3,5.8,0,8.4c-1.1,1.6-3.3,1.9-4.8,0.8c-0.3-0.2-0.6-0.5-0.8-0.8
	c-1.3-2.7-1.3-5.8,0-8.4C507.3,65.5,508.4,65,509.5,65z M509.5,66.2c-0.7,0-1.4,0.4-1.7,1.1c-0.4,1.1-0.6,2.2-0.6,3.4
	c-0.1,1.2,0.1,2.3,0.6,3.4c0.3,0.7,1,1.1,1.7,1.1c0.8,0,1.4-0.4,1.7-1.1c0.4-1.1,0.6-2.2,0.6-3.4c0.1-1.2-0.1-2.3-0.6-3.4
	C511,66.6,510.3,66.1,509.5,66.2L509.5,66.2z"/>
<path class="st2" d="M515.8,65.2h1.5v4.6l4.9-4.6h1.9l-5.4,5.1l5.8,5.8h-2l-5.2-5.3v5.3h-1.5L515.8,65.2z"/>
<path class="st2" d="M106.6,65c1.1-0.1,2.2,0.5,2.8,1.5c1.3,2.7,1.3,5.8,0,8.4c-1.1,1.5-3.2,1.9-4.8,0.8c-0.3-0.2-0.6-0.5-0.8-0.8
	c-1.3-2.7-1.3-5.8,0-8.4C104.3,65.5,105.4,64.9,106.6,65z M106.6,66.2c-0.7,0-1.4,0.4-1.7,1.1c-0.4,1.1-0.6,2.2-0.6,3.4
	c-0.1,1.2,0.1,2.3,0.6,3.4c0.4,0.9,1.5,1.4,2.5,1c0.4-0.2,0.8-0.5,1-1c0.4-1.1,0.6-2.2,0.6-3.4c0.1-1.2-0.1-2.3-0.6-3.4
	C108,66.6,107.3,66.2,106.6,66.2L106.6,66.2z"/>
<path class="st2" d="M301.3,92.9v1.4c-0.5-0.3-1-0.5-1.6-0.6c-0.5-0.1-1-0.2-1.5-0.2c-0.7,0-1.3,0.1-1.9,0.5
	c-0.4,0.3-0.7,0.8-0.6,1.3c0,0.4,0.1,0.8,0.4,1.1c0.5,0.3,1.1,0.5,1.6,0.6l0.9,0.2c0.9,0.1,1.8,0.5,2.4,1.1c0.5,0.6,0.8,1.3,0.8,2.1
	c0.1,0.9-0.3,1.8-1.1,2.4c-0.9,0.6-2,0.9-3.1,0.8c-0.6,0-1.1-0.1-1.6-0.2c-0.6-0.1-1.2-0.3-1.8-0.5v-1.5c0.6,0.3,1.2,0.6,1.8,0.8
	c0.6,0.2,1.1,0.2,1.7,0.2c0.7,0,1.4-0.1,2-0.5c0.5-0.3,0.7-0.9,0.7-1.4c0-0.5-0.2-0.9-0.5-1.3c-0.5-0.4-1-0.6-1.6-0.7l-0.9-0.2
	c-0.9-0.1-1.7-0.5-2.4-1c-0.5-0.5-0.8-1.3-0.7-2c0-0.9,0.3-1.7,1-2.3c0.8-0.6,1.8-0.9,2.8-0.8c0.5,0,1,0,1.6,0.1
	C300.2,92.6,300.7,92.7,301.3,92.9z"/>
<path class="st2" d="M310.1,95.6v1.3c-0.4-0.2-0.8-0.4-1.1-0.5c-0.4-0.1-0.8-0.2-1.2-0.2c-0.8,0-1.5,0.3-2,0.8c-1,1.4-1,3.3,0,4.7
	c0.5,0.6,1.2,0.9,2,0.8c0.4,0,0.8-0.1,1.2-0.2c0.4-0.1,0.8-0.3,1.1-0.5v1.2c-0.4,0.2-0.8,0.3-1.2,0.4c-0.4,0.1-0.9,0.1-1.3,0.1
	c-1.1,0.1-2.2-0.4-2.9-1.2c-1.5-1.8-1.5-4.5,0-6.3c0.8-0.8,1.9-1.2,3-1.1c0.4,0,0.8,0,1.2,0.1C309.3,95.3,309.7,95.4,310.1,95.6z"/>
<path class="st2" d="M315.6,95.1c1-0.1,2.1,0.4,2.8,1.1c1.3,1.9,1.3,4.4,0,6.3c-1.5,1.5-4,1.5-5.5,0c0,0,0,0,0,0
	c-1.3-1.9-1.3-4.4,0-6.3C313.6,95.4,314.6,95,315.6,95.1z M315.6,96.2c-0.7,0-1.3,0.3-1.7,0.9c-0.5,0.7-0.7,1.5-0.6,2.3
	c0,0.8,0.2,1.6,0.6,2.3c0.4,0.6,1,0.9,1.7,0.8c0.7,0,1.3-0.3,1.7-0.9c0.5-0.7,0.7-1.5,0.6-2.3c0-0.8-0.2-1.6-0.6-2.3
	C316.9,96.5,316.3,96.2,315.6,96.2L315.6,96.2z"/>
<path class="st2" d="M326.4,96.5c-0.2-0.1-0.3-0.2-0.5-0.2c-0.2,0-0.4-0.1-0.6-0.1c-0.7,0-1.3,0.2-1.8,0.8c-0.5,0.6-0.7,1.4-0.6,2.1
	v4.3h-1.4v-8.2h1.4v1.3c0.3-0.5,0.6-0.8,1.1-1.1c0.5-0.3,1.1-0.4,1.6-0.4h0.3l0.4,0V96.5z"/>
<path class="st2" d="M334.5,99v0.7h-6.2c0,0.8,0.3,1.5,0.8,2.1c0.6,0.5,1.3,0.8,2.1,0.7c0.5,0,1-0.1,1.5-0.2c0.5-0.1,1-0.3,1.5-0.6
	v1.3c-0.5,0.2-1,0.4-1.5,0.5c-0.5,0.1-1,0.2-1.5,0.2c-1.2,0.1-2.3-0.4-3.1-1.1c-0.8-0.8-1.2-1.9-1.1-3.1c-0.1-1.2,0.3-2.3,1.1-3.2
	c0.8-0.8,1.8-1.2,2.9-1.2c1,0,1.9,0.3,2.6,1.1C334.2,96.9,334.5,97.9,334.5,99z M333.1,98.6c0-0.6-0.2-1.3-0.6-1.8
	c-0.4-0.4-1-0.7-1.6-0.7c-0.7,0-1.3,0.2-1.8,0.6c-0.5,0.5-0.8,1.1-0.8,1.8L333.1,98.6z"/>
</svg>
