<svg xmlns="http://www.w3.org/2000/svg" viewBox="0 0 1088.82 452"><defs><style>.a,.b{fill:none;}.a{stroke:#ccc;}.a,.b,.d,.e{stroke-miterlimit:10;}.b{stroke:#888;stroke-width:3px;}.c{fill:#888;}.d,.e{fill:#047;stroke:#047;}.e{stroke-width:4px;}</style></defs><title>scatterplot-5</title><line class="a" x1="432.2" y1="357.6" x2="226.9" y2="234.2"/><line class="a" x1="412.2" y1="367.6" x2="208" y2="244.9"/><line class="a" x1="392.2" y1="377.6" x2="190.4" y2="256.4"/><line class="a" x1="372.2" y1="387.6" x2="171.9" y2="267.3"/><line class="a" x1="352.2" y1="397.6" x2="153.5" y2="278.2"/><line class="a" x1="332.2" y1="407.6" x2="135.3" y2="289.4"/><line class="a" x1="312.2" y1="417.6" x2="117.3" y2="300.5"/><line class="a" x1="292.2" y1="427.6" x2="98.6" y2="311.3"/><line class="a" x1="272.2" y1="437.6" x2="80.4" y2="322.4"/><line class="a" x1="252.2" y1="447.6" x2="62.2" y2="333.5"/><line class="a" x1="262.6" y1="234.2" x2="57.2" y2="357.6"/><line class="a" x1="281.4" y1="244.9" x2="77.2" y2="367.6"/><line class="a" x1="299" y1="256.4" x2="97.2" y2="377.6"/><line class="a" x1="317.5" y1="267.3" x2="117.2" y2="387.6"/><line class="a" x1="335.9" y1="278.2" x2="137.2" y2="397.6"/><line class="a" x1="354.1" y1="289.4" x2="157.2" y2="407.6"/><line class="a" x1="372.1" y1="300.5" x2="177.2" y2="417.6"/><line class="a" x1="390.8" y1="311.3" x2="197.2" y2="427.6"/><line class="a" x1="409" y1="322.4" x2="217.2" y2="437.6"/><line class="a" x1="427.2" y1="333.5" x2="237.2" y2="447.6"/><line class="a" x1="450.1" y1="303.4" x2="244.8" y2="180"/><line class="a" x1="450.1" y1="280.8" x2="244.8" y2="157.4"/><line class="a" x1="450.1" y1="258.2" x2="244.8" y2="134.8"/><line class="a" x1="450.1" y1="235.6" x2="244.8" y2="112.2"/><line class="a" x1="450.1" y1="212.9" x2="244.8" y2="89.6"/><line class="a" x1="450.1" y1="190.3" x2="244.8" y2="67"/><line class="a" x1="262.6" y1="234.2" x2="262.6" y2="38.3"/><line class="a" x1="280.9" y1="244.7" x2="280.9" y2="48.8"/><line class="a" x1="299.2" y1="255.4" x2="299.2" y2="59.4"/><line class="a" x1="317.6" y1="268.2" x2="317.6" y2="72.3"/><line class="a" x1="335.9" y1="278.7" x2="335.9" y2="82.8"/><line class="a" x1="354.2" y1="289.4" x2="354.2" y2="93.4"/><line class="a" x1="372.6" y1="300.2" x2="372.6" y2="104.3"/><line class="a" x1="390.9" y1="310.7" x2="390.9" y2="114.8"/><line class="a" x1="409.2" y1="321.4" x2="409.2" y2="125.4"/><line class="a" x1="427.6" y1="332.2" x2="427.6" y2="136.3"/><line class="a" x1="226.6" y1="234.2" x2="226.6" y2="38.3"/><line class="a" x1="208.2" y1="244.7" x2="208.2" y2="48.8"/><line class="a" x1="189.9" y1="255.4" x2="189.9" y2="59.4"/><line class="a" x1="171.6" y1="268.2" x2="171.6" y2="72.3"/><line class="a" x1="153.2" y1="278.7" x2="153.2" y2="82.8"/><line class="a" x1="134.9" y1="289.4" x2="134.9" y2="93.4"/><line class="a" x1="116.6" y1="300.2" x2="116.6" y2="104.3"/><line class="a" x1="98.2" y1="310.7" x2="98.2" y2="114.8"/><line class="a" x1="79.9" y1="321.4" x2="79.9" y2="125.4"/><line class="a" x1="61.6" y1="332.2" x2="61.6" y2="136.3"/><line class="a" x1="244.1" y1="202.6" x2="38.8" y2="326"/><line class="a" x1="244.1" y1="180" x2="38.8" y2="303.4"/><line class="a" x1="244.1" y1="157.4" x2="38.8" y2="280.8"/><line class="a" x1="244.1" y1="134.8" x2="38.8" y2="258.2"/><line class="a" x1="244.1" y1="112.2" x2="38.8" y2="235.6"/><line class="a" x1="244.1" y1="89.6" x2="38.8" y2="212.9"/><line class="a" x1="244.1" y1="67" x2="38.8" y2="190.3"/><line class="a" x1="244.1" y1="44.3" x2="38.8" y2="167.7"/><line class="a" x1="450.1" y1="326" x2="244.8" y2="202.6"/><line class="a" x1="450.1" y1="167.7" x2="244.8" y2="44.3"/><polyline class="b" points="244.5 31.8 244.5 223 36.4 348"/><line class="b" x1="452.2" y1="347.6" x2="244.7" y2="223"/><path class="c" d="M14.7,364v1.5a5.32,5.32,0,0,0-1.6-1,5.87,5.87,0,0,0-1.8-.4,3.31,3.31,0,0,0-2.8,1.2,6.07,6.07,0,0,0,0,6.6,3.44,3.44,0,0,0,2.9,1.1,5.53,5.53,0,0,0,1.8-.3,5.32,5.32,0,0,0,1.6-1v1.5a9.76,9.76,0,0,1-1.7.8,5.53,5.53,0,0,1-1.8.3,5,5,0,0,1-3.9-1.5,6.76,6.76,0,0,1,0-8.3,5.12,5.12,0,0,1,3.9-1.6,5.53,5.53,0,0,1,1.8.3A8,8,0,0,1,14.7,364Z"/><path class="c" d="M20.1,365.7a3.66,3.66,0,0,1,2.8,1.1,5.58,5.58,0,0,1,0,6.3,3.92,3.92,0,0,1-5.5,0h0a5.58,5.58,0,0,1,0-6.3A3.84,3.84,0,0,1,20.1,365.7Zm0,1.2a2,2,0,0,0-1.7.9,3.2,3.2,0,0,0-.6,2.3,4.62,4.62,0,0,0,.6,2.3,2.2,2.2,0,0,0,3,.4c.2-.1.3-.3.4-.4a4.71,4.71,0,0,0,0-4.6,1.67,1.67,0,0,0-1.7-.9Z"/><path class="c" d="M30.3,362.7v1.1H29a1.68,1.68,0,0,0-1,.3,2,2,0,0,0-.3,1v.7h2.2v1H27.7V374H26.4v-7H25.1v-1h1.3v-.6a3,3,0,0,1,.6-2,2.52,2.52,0,0,1,2-.6Z"/><path class="c" d="M35.6,362.7v1.1H34.3a1.68,1.68,0,0,0-1,.3,2,2,0,0,0-.3,1v.7h2.2v1H33V374H31.7v-7H30.4v-1h1.3v-.6a3,3,0,0,1,.6-2,2.52,2.52,0,0,1,2-.6Z"/><path class="c" d="M43.7,369.7v.7H37.5a3.25,3.25,0,0,0,.8,2.1,2.7,2.7,0,0,0,2.1.7,7.52,7.52,0,0,0,1.5-.2,3.63,3.63,0,0,0,1.4-.6v1.3a8.8,8.8,0,0,1-1.5.5,7.78,7.78,0,0,1-1.6.2,4.35,4.35,0,0,1-3.1-1.1,4.31,4.31,0,0,1-1.2-3.1A4.2,4.2,0,0,1,37,367a4,4,0,0,1,2.9-1.2,3,3,0,0,1,2.6,1.1A3.08,3.08,0,0,1,43.7,369.7Zm-1.3-.4a3,3,0,0,0-.6-1.8,2.35,2.35,0,0,0-1.6-.7,2.79,2.79,0,0,0-1.8.6,2.53,2.53,0,0,0-.8,1.8Z"/><path class="c" d="M52.9,369.7v.7H46.7a3.25,3.25,0,0,0,.8,2.1,2.7,2.7,0,0,0,2.1.7,7.52,7.52,0,0,0,1.5-.2,3.63,3.63,0,0,0,1.4-.6v1.3a8.8,8.8,0,0,1-1.5.5,7.52,7.52,0,0,1-1.5.2,4.1,4.1,0,0,1-4.3-3.7v-.5a4.2,4.2,0,0,1,1.1-3.2,4,4,0,0,1,2.9-1.2,3,3,0,0,1,2.6,1.1A3.27,3.27,0,0,1,52.9,369.7Zm-1.3-.4a3,3,0,0,0-.6-1.8,2.35,2.35,0,0,0-1.6-.7,2.79,2.79,0,0,0-1.8.6,2.53,2.53,0,0,0-.8,1.8Z"/><path class="c" d="M987.32,378v1.5a5.32,5.32,0,0,0-1.6-1,5.81,5.81,0,0,0-1.8-.4,3.31,3.31,0,0,0-2.8,1.2,6.07,6.07,0,0,0,0,6.6A3.43,3.43,0,0,0,984,387a5.53,5.53,0,0,0,1.8-.3,5.32,5.32,0,0,0,1.6-1v1.5a9.76,9.76,0,0,1-1.7.8,5.53,5.53,0,0,1-1.8.3,5,5,0,0,1-3.9-1.5,6.76,6.76,0,0,1,0-8.3,5.12,5.12,0,0,1,3.9-1.6,5.53,5.53,0,0,1,1.8.3A7.63,7.63,0,0,1,987.32,378Z"/><path class="c" d="M992.72,379.74a3.66,3.66,0,0,1,2.8,1.1,5.58,5.58,0,0,1,0,6.3,3.92,3.92,0,0,1-5.5,0h0a5.58,5.58,0,0,1,0-6.3A3.84,3.84,0,0,1,992.72,379.74Zm0,1.2a2,2,0,0,0-1.7.9,3.2,3.2,0,0,0-.6,2.3,4.62,4.62,0,0,0,.6,2.3,2.2,2.2,0,0,0,3,.4c.2-.1.3-.3.4-.4a4.71,4.71,0,0,0,0-4.6,1.67,1.67,0,0,0-1.7-.9Z"/><path class="c" d="M1002.92,376.74v1.1h-1.3a1.68,1.68,0,0,0-1,.3,2,2,0,0,0-.3,1v.7h2.2v1h-2.2V388H999v-7h-1.3v-1H999v-.6a3,3,0,0,1,.6-2,2.52,2.52,0,0,1,2-.6Z"/><path class="c" d="M1008.22,376.74v1.1h-1.3a1.68,1.68,0,0,0-1,.3,2,2,0,0,0-.3,1v.7h2.2v1h-2.2V388h-1.3v-7H1003v-1h1.3v-.6a3,3,0,0,1,.6-2,2.52,2.52,0,0,1,2-.6Z"/><path class="c" d="M1016.32,383.74v.7h-6.2a3.25,3.25,0,0,0,.8,2.1,2.7,2.7,0,0,0,2.1.7,7.52,7.52,0,0,0,1.5-.2,3.63,3.63,0,0,0,1.4-.6v1.3a8.8,8.8,0,0,1-1.5.5,7.78,7.78,0,0,1-1.6.2,4.35,4.35,0,0,1-3.1-1.1,4.31,4.31,0,0,1-1.2-3.1,4.2,4.2,0,0,1,1.1-3.2,4,4,0,0,1,2.9-1.2,3,3,0,0,1,2.6,1.1A3.08,3.08,0,0,1,1016.32,383.74Zm-1.3-.4a3,3,0,0,0-.6-1.8,2.35,2.35,0,0,0-1.6-.7,2.79,2.79,0,0,0-1.8.6,2.53,2.53,0,0,0-.8,1.8Z"/><path class="c" d="M1025.52,383.74v.7h-6.2a3.25,3.25,0,0,0,.8,2.1,2.7,2.7,0,0,0,2.1.7,7.52,7.52,0,0,0,1.5-.2,3.63,3.63,0,0,0,1.4-.6v1.3a8.8,8.8,0,0,1-1.5.5,7.52,7.52,0,0,1-1.5.2,4.1,4.1,0,0,1-4.3-3.7v-.5a4.2,4.2,0,0,1,1.1-3.2,4,4,0,0,1,2.9-1.2,3,3,0,0,1,2.6,1.1A3.27,3.27,0,0,1,1025.52,383.74Zm-1.3-.4a3,3,0,0,0-.6-1.8,2.35,2.35,0,0,0-1.6-.7,2.79,2.79,0,0,0-1.8.6,2.53,2.53,0,0,0-.8,1.8Z"/><line class="a" x1="693.55" y1="445.78" x2="693.55" y2="318.59"/><line class="a" x1="679.13" y1="445.78" x2="679.13" y2="318.59"/><line class="a" x1="664.75" y1="445.78" x2="664.75" y2="318.59"/><line class="a" x1="650.33" y1="445.78" x2="650.33" y2="318.59"/><line class="a" x1="635.95" y1="445.78" x2="635.95" y2="318.59"/><line class="a" x1="621.53" y1="445.78" x2="621.53" y2="318.59"/><line class="a" x1="607.15" y1="445.78" x2="607.15" y2="318.59"/><line class="a" x1="592.73" y1="445.78" x2="592.73" y2="318.59"/><line class="a" x1="578.35" y1="445.78" x2="578.35" y2="318.59"/><line class="a" x1="563.93" y1="445.78" x2="563.93" y2="318.59"/><line class="a" x1="549.55" y1="431.63" x2="708.16" y2="431.63"/><line class="a" x1="549.55" y1="417.56" x2="708.16" y2="417.56"/><line class="a" x1="549.55" y1="403.45" x2="708.16" y2="403.45"/><line class="a" x1="549.55" y1="389.37" x2="708.16" y2="389.37"/><line class="a" x1="549.55" y1="375.3" x2="708.16" y2="375.3"/><line class="a" x1="549.55" y1="361.19" x2="708.16" y2="361.19"/><line class="a" x1="549.55" y1="347.12" x2="708.16" y2="347.12"/><line class="a" x1="549.55" y1="333.04" x2="708.16" y2="333.04"/><polyline class="b" points="708.43 446.39 549.32 446.39 549.32 318.28"/><line class="a" x1="880.42" y1="445.78" x2="880.42" y2="318.59"/><line class="a" x1="866" y1="445.78" x2="866" y2="318.59"/><line class="a" x1="851.62" y1="445.78" x2="851.62" y2="318.59"/><line class="a" x1="837.2" y1="445.78" x2="837.2" y2="318.59"/><line class="a" x1="822.82" y1="445.78" x2="822.82" y2="318.59"/><line class="a" x1="808.4" y1="445.78" x2="808.4" y2="318.59"/><line class="a" x1="794.02" y1="445.78" x2="794.02" y2="318.59"/><line class="a" x1="779.6" y1="445.78" x2="779.6" y2="318.59"/><line class="a" x1="765.22" y1="445.78" x2="765.22" y2="318.59"/><line class="a" x1="750.8" y1="445.78" x2="750.8" y2="318.59"/><line class="a" x1="736.42" y1="431.63" x2="895.03" y2="431.63"/><line class="a" x1="736.42" y1="417.56" x2="895.03" y2="417.56"/><line class="a" x1="736.42" y1="403.45" x2="895.03" y2="403.45"/><line class="a" x1="736.42" y1="389.37" x2="895.03" y2="389.37"/><line class="a" x1="736.42" y1="375.3" x2="895.03" y2="375.3"/><line class="a" x1="736.42" y1="361.19" x2="895.03" y2="361.19"/><line class="a" x1="736.42" y1="347.12" x2="895.03" y2="347.12"/><line class="a" x1="736.42" y1="333.04" x2="895.03" y2="333.04"/><line class="b" x1="895.3" y1="446.39" x2="736.19" y2="446.39"/><line class="a" x1="693.55" y1="289.29" x2="693.55" y2="162.09"/><line class="a" x1="679.13" y1="289.29" x2="679.13" y2="162.09"/><line class="a" x1="664.75" y1="289.29" x2="664.75" y2="162.09"/><line class="a" x1="650.33" y1="289.29" x2="650.33" y2="162.09"/><line class="a" x1="635.95" y1="289.29" x2="635.95" y2="162.09"/><line class="a" x1="621.53" y1="289.29" x2="621.53" y2="162.09"/><line class="a" x1="607.15" y1="289.29" x2="607.15" y2="162.09"/><line class="a" x1="592.73" y1="289.29" x2="592.73" y2="162.09"/><line class="a" x1="578.35" y1="289.29" x2="578.35" y2="162.09"/><line class="a" x1="563.93" y1="289.29" x2="563.93" y2="162.09"/><line class="a" x1="549.55" y1="275.14" x2="708.16" y2="275.14"/><line class="a" x1="549.55" y1="261.06" x2="708.16" y2="261.06"/><line class="a" x1="549.55" y1="246.95" x2="708.16" y2="246.95"/><line class="a" x1="549.55" y1="232.88" x2="708.16" y2="232.88"/><line class="a" x1="549.55" y1="218.81" x2="708.16" y2="218.81"/><line class="a" x1="549.55" y1="204.69" x2="708.16" y2="204.69"/><line class="a" x1="549.55" y1="190.62" x2="708.16" y2="190.62"/><line class="a" x1="549.55" y1="176.55" x2="708.16" y2="176.55"/><line class="b" x1="549.32" y1="289.9" x2="549.32" y2="161.78"/><line class="a" x1="1067.29" y1="289.29" x2="1067.29" y2="162.09"/><line class="a" x1="1052.87" y1="289.29" x2="1052.87" y2="162.09"/><line class="a" x1="1038.49" y1="289.29" x2="1038.49" y2="162.09"/><line class="a" x1="1024.07" y1="289.29" x2="1024.07" y2="162.09"/><line class="a" x1="1009.69" y1="289.29" x2="1009.69" y2="162.09"/><line class="a" x1="995.27" y1="289.29" x2="995.27" y2="162.09"/><line class="a" x1="980.89" y1="289.29" x2="980.89" y2="162.09"/><line class="a" x1="966.47" y1="289.29" x2="966.47" y2="162.09"/><line class="a" x1="952.09" y1="289.29" x2="952.09" y2="162.09"/><line class="a" x1="937.67" y1="289.29" x2="937.67" y2="162.09"/><line class="a" x1="923.29" y1="275.14" x2="1081.9" y2="275.14"/><line class="a" x1="923.29" y1="261.06" x2="1081.9" y2="261.06"/><line class="a" x1="923.29" y1="246.95" x2="1081.9" y2="246.95"/><line class="a" x1="923.29" y1="232.88" x2="1081.9" y2="232.88"/><line class="a" x1="923.29" y1="218.81" x2="1081.9" y2="218.81"/><line class="a" x1="923.29" y1="204.69" x2="1081.9" y2="204.69"/><line class="a" x1="923.29" y1="190.62" x2="1081.9" y2="190.62"/><line class="a" x1="923.29" y1="176.55" x2="1081.9" y2="176.55"/><line class="b" x1="1082.17" y1="161.78" x2="1082.17" y2="289.9"/><line class="a" x1="880.42" y1="133.18" x2="880.42" y2="5.98"/><line class="a" x1="866" y1="133.18" x2="866" y2="5.98"/><line class="a" x1="851.62" y1="133.18" x2="851.62" y2="5.98"/><line class="a" x1="837.2" y1="133.18" x2="837.2" y2="5.98"/><line class="a" x1="822.82" y1="133.18" x2="822.82" y2="5.98"/><line class="a" x1="808.4" y1="133.18" x2="808.4" y2="5.98"/><line class="a" x1="794.02" y1="133.18" x2="794.02" y2="5.98"/><line class="a" x1="779.6" y1="133.18" x2="779.6" y2="5.98"/><line class="a" x1="765.22" y1="133.18" x2="765.22" y2="5.98"/><line class="a" x1="750.8" y1="133.18" x2="750.8" y2="5.98"/><line class="a" x1="736.42" y1="119.03" x2="895.03" y2="119.03"/><line class="a" x1="736.42" y1="104.95" x2="895.03" y2="104.95"/><line class="a" x1="736.42" y1="90.84" x2="895.03" y2="90.84"/><line class="a" x1="736.42" y1="76.77" x2="895.03" y2="76.77"/><line class="a" x1="736.42" y1="62.7" x2="895.03" y2="62.7"/><line class="a" x1="736.42" y1="48.59" x2="895.03" y2="48.59"/><line class="a" x1="736.42" y1="34.51" x2="895.03" y2="34.51"/><line class="a" x1="736.42" y1="20.44" x2="895.03" y2="20.44"/><line class="b" x1="736.19" y1="5.68" x2="895.3" y2="5.68"/><line class="a" x1="1067.29" y1="133.18" x2="1067.29" y2="5.98"/><line class="a" x1="1052.87" y1="133.18" x2="1052.87" y2="5.98"/><line class="a" x1="1038.49" y1="133.18" x2="1038.49" y2="5.98"/><line class="a" x1="1024.07" y1="133.18" x2="1024.07" y2="5.98"/><line class="a" x1="1009.69" y1="133.18" x2="1009.69" y2="5.98"/><line class="a" x1="995.27" y1="133.18" x2="995.27" y2="5.98"/><line class="a" x1="980.89" y1="133.18" x2="980.89" y2="5.98"/><line class="a" x1="966.47" y1="133.18" x2="966.47" y2="5.98"/><line class="a" x1="952.09" y1="133.18" x2="952.09" y2="5.98"/><line class="a" x1="937.67" y1="133.18" x2="937.67" y2="5.98"/><line class="a" x1="923.29" y1="119.03" x2="1081.9" y2="119.03"/><line class="a" x1="923.29" y1="104.95" x2="1081.9" y2="104.95"/><line class="a" x1="923.29" y1="90.84" x2="1081.9" y2="90.84"/><line class="a" x1="923.29" y1="76.77" x2="1081.9" y2="76.77"/><line class="a" x1="923.29" y1="62.7" x2="1081.9" y2="62.7"/><line class="a" x1="923.29" y1="48.59" x2="1081.9" y2="48.59"/><line class="a" x1="923.29" y1="34.51" x2="1081.9" y2="34.51"/><line class="a" x1="923.29" y1="20.44" x2="1081.9" y2="20.44"/><polyline class="b" points="923.06 5.67 1082.17 5.67 1082.17 133.79"/><polyline class="b" points="549.32 133.79 549.32 5.67 708.43 5.67"/><polyline class="b" points="1082.4 318.28 1082.4 446.39 923.29 446.39"/><circle class="d" cx="102.8" cy="193.2" r="2.6"/><circle class="d" cx="117.3" cy="280.1" r="2.6"/><circle class="d" cx="167.4" cy="89.9" r="2.6"/><circle class="d" cx="245.7" cy="72.2" r="2.6"/><circle class="d" cx="280.8" cy="74.8" r="2.6"/><circle class="d" cx="341.4" cy="141.5" r="2.6"/><circle class="d" cx="201.4" cy="91.5" r="2.6"/><circle class="d" cx="377.7" cy="144.1" r="2.6"/><circle class="d" cx="392.8" cy="230.7" r="2.6"/><circle class="d" cx="263.6" cy="158.5" r="2.6"/><circle class="d" cx="136.3" cy="195.8" r="2.6"/><circle class="d" cx="312.3" cy="247.3" r="2.6"/><circle class="d" cx="181.07" cy="175.89" r="2.6"/><circle class="d" cx="296.4" cy="161.1" r="2.6"/><circle class="d" cx="216" cy="177.6" r="2.6"/><circle class="d" cx="359" cy="229.6" r="2.6"/><circle class="d" cx="278.2" cy="246.3" r="2.6"/><circle class="d" cx="150.9" cy="282.7" r="2.6"/><circle class="d" cx="231.5" cy="265.1" r="2.6"/><circle class="d" cx="197.1" cy="263.4" r="2.6"/><circle class="e" cx="762.27" cy="61.94" r="1"/><circle class="e" cx="782.66" cy="38" r="1"/><circle class="e" cx="829.21" cy="27.12" r="1"/><circle class="e" cx="855.32" cy="40.54" r="1"/><circle class="e" cx="808.72" cy="51.28" r="1"/><circle class="e" cx="860.16" cy="77.54" r="1"/><circle class="e" cx="834.89" cy="64.48" r="1"/><circle class="e" cx="788.1" cy="75.72" r="1"/><circle class="e" cx="840.09" cy="101.71" r="1"/><circle class="e" cx="814.1" cy="88.42" r="1"/><circle class="e" cx="769.49" cy="82.49" r="1"/><circle class="e" cx="868.26" cy="97.6" r="1"/><circle class="e" cx="847.46" cy="121.75" r="1"/><circle class="e" cx="795.48" cy="95.6" r="1"/><circle class="e" cx="821.83" cy="108.85" r="1"/><circle class="e" cx="816.11" cy="71.73" r="1"/><circle class="e" cx="842.1" cy="84.62" r="1"/><circle class="e" cx="790.05" cy="58.45" r="1"/><circle class="e" cx="836.42" cy="47.26" r="1"/><circle class="e" cx="640.99" cy="278.42" r="1"/><circle class="e" cx="664.93" cy="258.03" r="1"/><circle class="e" cx="675.81" cy="211.48" r="1"/><circle class="e" cx="662.39" cy="185.37" r="1"/><circle class="e" cx="651.65" cy="231.97" r="1"/><circle class="e" cx="625.39" cy="180.53" r="1"/><circle class="e" cx="638.45" cy="205.8" r="1"/><circle class="e" cx="627.2" cy="252.58" r="1"/><circle class="e" cx="601.21" cy="200.6" r="1"/><circle class="e" cx="614.51" cy="226.59" r="1"/><circle class="e" cx="620.44" cy="271.2" r="1"/><circle class="e" cx="605.33" cy="172.43" r="1"/><circle class="e" cx="581.18" cy="193.23" r="1"/><circle class="e" cx="607.33" cy="245.21" r="1"/><circle class="e" cx="594.08" cy="218.86" r="1"/><circle class="e" cx="631.19" cy="224.58" r="1"/><circle class="e" cx="618.31" cy="198.59" r="1"/><circle class="e" cx="644.48" cy="250.64" r="1"/><circle class="e" cx="655.66" cy="204.27" r="1"/><circle class="e" cx="971.55" cy="79.33" r="1"/><circle class="e" cx="1017.61" cy="26.73" r="1"/><circle class="e" cx="999.9" cy="40.15" r="1"/><circle class="e" cx="1006.59" cy="51.52" r="1"/><circle class="e" cx="995.73" cy="76.39" r="1"/><circle class="e" cx="1024.23" cy="37.62" r="1"/><circle class="e" cx="1040.14" cy="81.1" r="1"/><circle class="e" cx="1005.59" cy="108.68" r="1"/><circle class="e" cx="1022.84" cy="95.21" r="1"/><circle class="e" cx="989.19" cy="64.65" r="1"/><circle class="e" cx="1016.23" cy="83.73" r="1"/><circle class="e" cx="987.42" cy="121.36" r="1"/><circle class="e" cx="1033.41" cy="69.97" r="1"/><circle class="e" cx="960.79" cy="103.34" r="1"/><circle class="e" cx="1050.85" cy="56.06" r="1"/><circle class="e" cx="978.02" cy="90.07" r="1"/><circle class="e" cx="1026.86" cy="59.07" r="1"/><circle class="e" cx="1043.98" cy="44.87" r="1"/><circle class="e" cx="1013.44" cy="62.7" r="1"/><circle class="e" cx="622.66" cy="410.03" r="1"/><circle class="e" cx="675.26" cy="363.96" r="1"/><circle class="e" cx="661.84" cy="381.68" r="1"/><circle class="e" cx="650.48" cy="374.98" r="1"/><circle class="e" cx="625.61" cy="385.84" r="1"/><circle class="e" cx="664.38" cy="357.35" r="1"/><circle class="e" cx="620.89" cy="341.43" r="1"/><circle class="e" cx="593.31" cy="375.98" r="1"/><circle class="e" cx="606.78" cy="358.74" r="1"/><circle class="e" cx="637.34" cy="392.38" r="1"/><circle class="e" cx="618.27" cy="365.35" r="1"/><circle class="e" cx="580.63" cy="394.15" r="1"/><circle class="e" cx="632.03" cy="348.16" r="1"/><circle class="e" cx="598.66" cy="420.79" r="1"/><circle class="e" cx="645.93" cy="330.73" r="1"/><circle class="e" cx="611.92" cy="403.55" r="1"/><circle class="e" cx="642.92" cy="354.72" r="1"/><circle class="e" cx="657.12" cy="337.59" r="1"/><circle class="e" cx="639.3" cy="368.14" r="1"/><circle class="e" cx="996.7" cy="252.95" r="0.98"/><circle class="e" cx="999.05" cy="174.68" r="0.98"/><circle class="e" cx="972.75" cy="181.99" r="0.98"/><circle class="e" cx="988.47" cy="194.56" r="0.98"/><circle class="e" cx="979.17" cy="227.8" r="0.98"/><circle class="e" cx="1000.04" cy="187.1" r="0.98"/><circle class="e" cx="1044.24" cy="204.21" r="0.98"/><circle class="e" cx="1013.19" cy="278.51" r="0.98"/><circle class="e" cx="1050.8" cy="249.83" r="0.98"/><circle class="e" cx="961.79" cy="202.44" r="0.98"/><circle class="e" cx="1040.24" cy="270.24" r="0.98"/><circle class="e" cx="1005.78" cy="219.6" r="0.98"/><circle class="e" cx="1022.75" cy="244.6" r="0.98"/><circle class="e" cx="1027.28" cy="179.04" r="0.98"/><circle class="e" cx="1033.26" cy="224.51" r="0.98"/><circle class="e" cx="1006.76" cy="232.35" r="0.98"/><circle class="e" cx="1016.15" cy="199.45" r="0.98"/><circle class="e" cx="989.83" cy="207.45" r="0.98"/><circle class="e" cx="1016.97" cy="211.9" r="0.98"/><circle class="e" cx="788.65" cy="385.87" r="1"/><circle class="e" cx="868.51" cy="383.48" r="1"/><circle class="e" cx="861.05" cy="410.31" r="1"/><circle class="e" cx="848.22" cy="394.27" r="1"/><circle class="e" cx="814.31" cy="403.76" r="1"/><circle class="e" cx="855.84" cy="382.47" r="1"/><circle class="e" cx="838.38" cy="337.37" r="1"/><circle class="e" cx="762.58" cy="369.05" r="1"/><circle class="e" cx="791.83" cy="330.67" r="1"/><circle class="e" cx="840.19" cy="421.49" r="1"/><circle class="e" cx="771.01" cy="341.45" r="1"/><circle class="e" cx="822.68" cy="376.61" r="1"/><circle class="e" cx="797.17" cy="359.3" r="1"/><circle class="e" cx="864.06" cy="354.68" r="1"/><circle class="e" cx="817.67" cy="348.58" r="1"/><circle class="e" cx="809.67" cy="375.61" r="1"/><circle class="e" cx="843.23" cy="366.03" r="1"/><circle class="e" cx="835.07" cy="392.88" r="1"/><circle class="e" cx="830.53" cy="365.19" r="1"/><path class="c" d="M231.11,7.93V9.37a9,9,0,0,0-1.59-.6,5.82,5.82,0,0,0-1.44-.2,3.23,3.23,0,0,0-1.87.47,1.55,1.55,0,0,0-.65,1.33,1.38,1.38,0,0,0,.43,1.1,4.1,4.1,0,0,0,1.66.6l.89.18A4.53,4.53,0,0,1,231,13.36a3.26,3.26,0,0,1-.28,4.54,5.13,5.13,0,0,1-3.12.82,7.65,7.65,0,0,1-1.65-.18,12.49,12.49,0,0,1-1.81-.52V16.5a8.83,8.83,0,0,0,1.76.76,6.08,6.08,0,0,0,1.7.25,3.35,3.35,0,0,0,2-.49,1.67,1.67,0,0,0,.68-1.43,1.61,1.61,0,0,0-.49-1.26,3.54,3.54,0,0,0-1.62-.68l-.9-.17a4.92,4.92,0,0,1-2.4-1,2.61,2.61,0,0,1-.74-2,2.83,2.83,0,0,1,1-2.29,4.38,4.38,0,0,1,2.82-.83,9.16,9.16,0,0,1,1.57.14A9.79,9.79,0,0,1,231.11,7.93Z"/><path class="c" d="M239.92,10.61v1.26a5.17,5.17,0,0,0-1.14-.47,4.59,4.59,0,0,0-1.17-.16,2.57,2.57,0,0,0-2,.84,4.09,4.09,0,0,0,0,4.66,2.53,2.53,0,0,0,2,.83,4.18,4.18,0,0,0,1.17-.16,5.17,5.17,0,0,0,1.14-.47v1.25a6.18,6.18,0,0,1-1.17.39,6.12,6.12,0,0,1-1.28.14,3.84,3.84,0,0,1-2.95-1.17,5.08,5.08,0,0,1,0-6.3,4,4,0,0,1,3-1.15,6.19,6.19,0,0,1,2.4.51Z"/><path class="c" d="M245.46,10.1a3.5,3.5,0,0,1,2.77,1.14,5.52,5.52,0,0,1,0,6.33,3.9,3.9,0,0,1-5.52,0h0a5.52,5.52,0,0,1,0-6.33A3.49,3.49,0,0,1,245.46,10.1Zm0,1.14a2,2,0,0,0-1.71.85,4.59,4.59,0,0,0,0,4.64,2.15,2.15,0,0,0,3,.41,2.65,2.65,0,0,0,.41-.41,3.71,3.71,0,0,0,.63-2.31,3.85,3.85,0,0,0-.63-2.31,2,2,0,0,0-1.71-.87Z"/><path class="c" d="M256.2,11.56a2.37,2.37,0,0,0-.5-.2,2.88,2.88,0,0,0-.59-.06,2.13,2.13,0,0,0-1.75.75,3.25,3.25,0,0,0-.61,2.13V18.5h-1.36V10.3h1.36v1.27a2.93,2.93,0,0,1,1.1-1.11,3.56,3.56,0,0,1,1.66-.36h.3l.38.05Z"/><path class="c" d="M264.3,14v.66h-6.2a3.08,3.08,0,0,0,.84,2.12,2.86,2.86,0,0,0,2.09.73,5.9,5.9,0,0,0,1.51-.19,6.18,6.18,0,0,0,1.44-.57V18a6.89,6.89,0,0,1-1.48.47,7.36,7.36,0,0,1-1.55.17A4,4,0,0,1,256.69,15a4.51,4.51,0,0,1,0-.52,4.56,4.56,0,0,1,1.09-3.2,3.8,3.8,0,0,1,2.93-1.18,3.32,3.32,0,0,1,2.62,1.07A4.12,4.12,0,0,1,264.3,14ZM263,13.64a2.59,2.59,0,0,0-.62-1.77,2.1,2.1,0,0,0-1.6-.66,2.57,2.57,0,0,0-1.81.64,2.75,2.75,0,0,0-.78,1.8Z"/><path class="c" d="M441.28,363.14h3a6.88,6.88,0,0,1,4.66,1.33,5.23,5.23,0,0,1,1.49,4.13,5.28,5.28,0,0,1-1.49,4.15,6.86,6.86,0,0,1-4.66,1.33h-3Zm1.48,1.22v8.5h1.79a4.62,4.62,0,0,0,3.31-1,5.49,5.49,0,0,0,0-6.46,4.62,4.62,0,0,0-3.31-1Z"/><path class="c" d="M459.19,369.4v4.68h-1.35v-1.25a3,3,0,0,1-1.15,1.11,3.74,3.74,0,0,1-1.69.35,2.79,2.79,0,0,1-2-.7,2.54,2.54,0,0,1-.74-1.9,2.45,2.45,0,0,1,.92-2.08,4.54,4.54,0,0,1,2.77-.71h1.89v-.13a1.79,1.79,0,0,0-.61-1.44,2.61,2.61,0,0,0-1.72-.51,5.65,5.65,0,0,0-1.37.17,5.19,5.19,0,0,0-1.28.51v-1.25a9.59,9.59,0,0,1,1.43-.43,7.22,7.22,0,0,1,1.36-.14,3.53,3.53,0,0,1,2.66.92A4,4,0,0,1,459.19,369.4Zm-2.69.56a4.79,4.79,0,0,0-2.26.37,1.35,1.35,0,0,0-.63,1.27,1.43,1.43,0,0,0,.47,1.14,1.85,1.85,0,0,0,1.28.42,2.24,2.24,0,0,0,1.8-.79,3.15,3.15,0,0,0,.68-2.11V370Z"/><path class="c" d="M463.3,363.55v2.33h2.77v1H463.3v4.46a2,2,0,0,0,.27,1.29,1.59,1.59,0,0,0,1.12.28h1.38v1.13h-1.38a3.09,3.09,0,0,1-2.16-.58,3,3,0,0,1-.59-2.12v-4.46h-1v-1h1v-2.33Z"/><path class="c" d="M474.86,369.64v.66h-6.2a3.1,3.1,0,0,0,.84,2.12,2.86,2.86,0,0,0,2.09.73,5.84,5.84,0,0,0,1.51-.19,7.26,7.26,0,0,0,1.45-.57v1.27a8,8,0,0,1-1.49.47,7.28,7.28,0,0,1-1.55.16,4.22,4.22,0,0,1-3.11-1.14,4.18,4.18,0,0,1-1.14-3.09,4.57,4.57,0,0,1,1.08-3.2,3.81,3.81,0,0,1,2.94-1.18,3.36,3.36,0,0,1,2.62,1.06A4.18,4.18,0,0,1,474.86,369.64Zm-1.35-.39a2.54,2.54,0,0,0-.62-1.77,2.05,2.05,0,0,0-1.6-.66,2.49,2.49,0,0,0-1.8.64,2.68,2.68,0,0,0-.78,1.79Z"/><path class="c" d="M614.59,64v1.44a9,9,0,0,0-1.59-.6,5.82,5.82,0,0,0-1.44-.2,3.23,3.23,0,0,0-1.87.47,1.55,1.55,0,0,0-.65,1.33,1.38,1.38,0,0,0,.43,1.1,4.1,4.1,0,0,0,1.66.6l.89.18a4.53,4.53,0,0,1,2.44,1.11,3.26,3.26,0,0,1-.28,4.54,5.13,5.13,0,0,1-3.12.82,7.65,7.65,0,0,1-1.65-.18,12.49,12.49,0,0,1-1.81-.52V72.55a8.83,8.83,0,0,0,1.76.76,6.08,6.08,0,0,0,1.7.25,3.35,3.35,0,0,0,2-.49,1.67,1.67,0,0,0,.68-1.43,1.61,1.61,0,0,0-.49-1.26,3.54,3.54,0,0,0-1.62-.68l-.9-.17a4.92,4.92,0,0,1-2.4-1,2.61,2.61,0,0,1-.74-2,2.83,2.83,0,0,1,1-2.29,4.38,4.38,0,0,1,2.82-.83,9.16,9.16,0,0,1,1.57.14A9.79,9.79,0,0,1,614.59,64Z"/><path class="c" d="M623.4,66.66v1.26a5.17,5.17,0,0,0-1.14-.47,4.59,4.59,0,0,0-1.17-.16,2.57,2.57,0,0,0-2,.84,4.09,4.09,0,0,0,0,4.66,2.53,2.53,0,0,0,2,.83,4.18,4.18,0,0,0,1.17-.16A5.17,5.17,0,0,0,623.4,73v1.25a6.18,6.18,0,0,1-1.17.39,6.12,6.12,0,0,1-1.28.14,3.84,3.84,0,0,1-3-1.17,5.08,5.08,0,0,1,0-6.3,4,4,0,0,1,3-1.15,6.19,6.19,0,0,1,2.4.51Z"/><path class="c" d="M628.94,66.15a3.5,3.5,0,0,1,2.77,1.14,5.52,5.52,0,0,1,0,6.33,3.9,3.9,0,0,1-5.52,0h0a5.52,5.52,0,0,1,0-6.33A3.49,3.49,0,0,1,628.94,66.15Zm0,1.14a2,2,0,0,0-1.71.85,4.59,4.59,0,0,0,0,4.64,2.15,2.15,0,0,0,3,.41,2.65,2.65,0,0,0,.41-.41,3.71,3.71,0,0,0,.63-2.31,3.85,3.85,0,0,0-.63-2.31,2,2,0,0,0-1.71-.87Z"/><path class="c" d="M639.68,67.61a2.37,2.37,0,0,0-.5-.2,2.88,2.88,0,0,0-.59-.06,2.13,2.13,0,0,0-1.75.75,3.25,3.25,0,0,0-.61,2.13v4.32h-1.36v-8.2h1.36v1.27a2.93,2.93,0,0,1,1.1-1.11,3.56,3.56,0,0,1,1.66-.36h.3l.38,0Z"/><path class="c" d="M647.78,70.08v.66h-6.2a3.08,3.08,0,0,0,.84,2.12,2.86,2.86,0,0,0,2.09.73A5.9,5.9,0,0,0,646,73.4a6.18,6.18,0,0,0,1.44-.57v1.25a6.89,6.89,0,0,1-1.48.47,7.36,7.36,0,0,1-1.55.17A4,4,0,0,1,640.17,71a4.51,4.51,0,0,1,0-.52,4.56,4.56,0,0,1,1.09-3.2,3.8,3.8,0,0,1,2.93-1.18,3.32,3.32,0,0,1,2.62,1.07A4.12,4.12,0,0,1,647.78,70.08Zm-1.35-.39a2.59,2.59,0,0,0-.62-1.77,2.1,2.1,0,0,0-1.6-.66,2.57,2.57,0,0,0-1.81.64,2.75,2.75,0,0,0-.78,1.8Z"/><path class="c" d="M800.07,220h3a6.93,6.93,0,0,1,4.67,1.32,5.26,5.26,0,0,1,1.48,4.13,5.32,5.32,0,0,1-1.49,4.16,6.91,6.91,0,0,1-4.66,1.32h-3Zm1.48,1.21v8.51h1.79a4.56,4.56,0,0,0,3.31-1,4.35,4.35,0,0,0,1.05-3.24,4.31,4.31,0,0,0-1.05-3.21,4.56,4.56,0,0,0-3.31-1Z"/><path class="c" d="M818,226.29V231h-1.35v-1.24a3,3,0,0,1-1.15,1.1,3.6,3.6,0,0,1-1.68.36,2.82,2.82,0,0,1-2-.71,2.5,2.5,0,0,1-.74-1.89,2.45,2.45,0,0,1,.93-2.09,4.49,4.49,0,0,1,2.76-.7h1.89v-.14a1.76,1.76,0,0,0-.61-1.44,2.61,2.61,0,0,0-1.72-.5,5.7,5.7,0,0,0-1.37.16,5.61,5.61,0,0,0-1.28.51v-1.25a8.31,8.31,0,0,1,1.44-.42,6.34,6.34,0,0,1,1.35-.15,3.53,3.53,0,0,1,2.66.92A4,4,0,0,1,818,226.29Zm-2.69.56a4.79,4.79,0,0,0-2.26.37,1.37,1.37,0,0,0-.63,1.28,1.43,1.43,0,0,0,.47,1.14,1.85,1.85,0,0,0,1.28.42,2.25,2.25,0,0,0,1.8-.8,3.15,3.15,0,0,0,.68-2.11v-.3Z"/><path class="c" d="M822.09,220.44v2.33h2.77v1h-2.77v4.45a2,2,0,0,0,.27,1.29,1.59,1.59,0,0,0,1.12.29h1.38V231h-1.38a3.09,3.09,0,0,1-2.16-.58,3,3,0,0,1-.59-2.12v-4.45h-1v-1h1v-2.33Z"/><path class="c" d="M833.65,226.53v.66h-6.19a3.05,3.05,0,0,0,.83,2.12,2.86,2.86,0,0,0,2.09.73,5.84,5.84,0,0,0,1.51-.19,6.06,6.06,0,0,0,1.45-.57v1.28a8,8,0,0,1-1.49.46,7.29,7.29,0,0,1-1.55.17,4,4,0,0,1-4.25-4.24,4.49,4.49,0,0,1,1.09-3.19,3.78,3.78,0,0,1,2.93-1.19,3.36,3.36,0,0,1,2.62,1.07A4.15,4.15,0,0,1,833.65,226.53Zm-1.35-.39a2.54,2.54,0,0,0-.62-1.77,2,2,0,0,0-1.6-.65,2.53,2.53,0,0,0-1.8.63,2.73,2.73,0,0,0-.78,1.8Z"/></svg>