<svg xmlns="http://www.w3.org/2000/svg" viewBox="0 0 635 380.02"><defs><style>.a,.b,.c,.d,.e{fill:#047;}.a,.b,.c,.d{stroke:#047;}.a,.b,.c,.d,.g{stroke-miterlimit:10;}.a{stroke-width:9px;}.b{stroke-width:5px;}.d{stroke-width:7px;}.f{fill:#888;}.g{fill:none;stroke:#888;stroke-width:3px;}</style></defs><title>scatterplot-3</title><circle class="a" cx="184.86" cy="129.79" r="2.61"/><circle class="a" cx="237.9" cy="67.53" r="2.61"/><circle class="a" cx="358.95" cy="39.23" r="2.61"/><circle class="a" cx="426.87" cy="74.13" r="2.61"/><circle class="a" cx="305.67" cy="102.07" r="2.61"/><circle class="a" cx="439.45" cy="170.35" r="2.61"/><circle class="a" cx="373.73" cy="136.39" r="2.61"/><circle class="a" cx="252.05" cy="165.64" r="2.61"/><circle class="a" cx="387.25" cy="233.23" r="2.61"/><circle class="a" cx="319.65" cy="198.65" r="2.61"/><circle class="b" cx="203.63" cy="183.24" r="2.61"/><circle class="b" cx="460.51" cy="222.54" r="2.61"/><circle class="b" cx="406.43" cy="285.33" r="2.61"/><circle class="b" cx="271.23" cy="217.32" r="2.61"/><circle class="b" cx="339.77" cy="251.78" r="2.61"/><circle class="c" cx="324.88" cy="155.26" r="2.61"/><circle class="c" cx="392.48" cy="188.78" r="2.61"/><circle class="c" cx="257.12" cy="120.72" r="2.61" transform="translate(61.27 326.46) rotate(-71.56)"/><circle class="c" cx="377.7" cy="91.62" r="2.61"/><circle class="d" cx="625.47" cy="37.64" r="2.61"/><circle class="e" cx="625.47" cy="14.92" r="2.61"/><path class="f" d="M539.09,9.88v1.56a5,5,0,0,0-1.59-1,4.61,4.61,0,0,0-1.8-.34,3.61,3.61,0,0,0-2.87,1.14,5,5,0,0,0-1,3.32,4.93,4.93,0,0,0,1,3.31A3.6,3.6,0,0,0,535.7,19a4.61,4.61,0,0,0,1.8-.34,5,5,0,0,0,1.59-1V19.2a5.53,5.53,0,0,1-1.64.79,6.29,6.29,0,0,1-1.83.27,5.11,5.11,0,0,1-3.91-1.52,5.78,5.78,0,0,1-1.43-4.15,5.82,5.82,0,0,1,1.43-4.16,5.11,5.11,0,0,1,3.91-1.52,6.78,6.78,0,0,1,1.85.26A6.33,6.33,0,0,1,539.09,9.88Z"/><path class="f" d="M544.5,11.57a3.48,3.48,0,0,1,2.76,1.15,4.62,4.62,0,0,1,1,3.16,4.62,4.62,0,0,1-1,3.16,3.91,3.91,0,0,1-5.5,0h0a4.62,4.62,0,0,1-1-3.16,4.62,4.62,0,0,1,1-3.16A3.44,3.44,0,0,1,544.5,11.57Zm0,1.15a2,2,0,0,0-1.71.84,3.9,3.9,0,0,0-.63,2.32,3.89,3.89,0,0,0,.62,2.32,2.16,2.16,0,0,0,3.43,0,3.71,3.71,0,0,0,.63-2.31,3.85,3.85,0,0,0-.63-2.31A2,2,0,0,0,544.5,12.72Z"/><path class="f" d="M554.65,8.58V9.7h-1.29a1.38,1.38,0,0,0-1,.29,1.55,1.55,0,0,0-.29,1.06v.72h2.22v1.05h-2.22V20h-1.35V12.82h-1.29V11.77h1.29V11.2a2.65,2.65,0,0,1,.64-2,2.79,2.79,0,0,1,2-.62Z"/><path class="f" d="M559.93,8.58V9.7h-1.29a1.38,1.38,0,0,0-1,.29,1.55,1.55,0,0,0-.29,1.06v.72h2.22v1.05h-2.22V20H556V12.82h-1.29V11.77H556V11.2a2.65,2.65,0,0,1,.64-2,2.79,2.79,0,0,1,2-.62Z"/><path class="f" d="M568.08,15.54v.66h-6.2a3.08,3.08,0,0,0,.84,2.12,2.87,2.87,0,0,0,2.09.72,5.9,5.9,0,0,0,1.51-.19,6.18,6.18,0,0,0,1.44-.57v1.28a8.49,8.49,0,0,1-1.48.47,8.07,8.07,0,0,1-1.55.16,4,4,0,0,1-4.26-3.72h0a3.53,3.53,0,0,1,0-.46,4.53,4.53,0,0,1,1.09-3.19,3.79,3.79,0,0,1,2.94-1.19,3.34,3.34,0,0,1,2.61,1.07A4.11,4.11,0,0,1,568.08,15.54Zm-1.35-.4a2.58,2.58,0,0,0-.62-1.76,2.1,2.1,0,0,0-1.6-.66,2.56,2.56,0,0,0-1.81.63,2.75,2.75,0,0,0-.78,1.8Z"/><path class="f" d="M577.3,15.54v.66h-6.19a3.08,3.08,0,0,0,.84,2.12,2.92,2.92,0,0,0,2,.68,5.82,5.82,0,0,0,1.5-.19,6.25,6.25,0,0,0,1.45-.57v1.28a8.6,8.6,0,0,1-1.49.47,8,8,0,0,1-1.54.16,4,4,0,0,1-4.22-3.77h0V16a4.53,4.53,0,0,1,1.09-3.19,3.81,3.81,0,0,1,2.93-1.19,3.32,3.32,0,0,1,2.62,1.07A4.19,4.19,0,0,1,577.3,15.54Zm-1.34-.4a2.58,2.58,0,0,0-.62-1.76,2.1,2.1,0,0,0-1.6-.66,2.56,2.56,0,0,0-1.81.63,2.75,2.75,0,0,0-.78,1.8Z"/><path class="f" d="M593.39,11.92,590,15.28l3.35,3.35-.87.88-3.36-3.36-3.37,3.36-.86-.88,3.34-3.35-3.34-3.36.86-.89,3.37,3.36,3.4-3.39Z"/><path class="f" d="M602.07,18.73h2.42V10.39l-2.63.52V9.57L604.47,9H606v9.69h2.42V20h-6.3Z"/><path class="f" d="M539.09,32.52v1.56a5,5,0,0,0-1.59-1,4.61,4.61,0,0,0-1.8-.34,3.61,3.61,0,0,0-2.87,1.14,5,5,0,0,0-1,3.32,4.9,4.9,0,0,0,1,3.3,3.57,3.57,0,0,0,2.87,1.15,4.61,4.61,0,0,0,1.8-.34,5,5,0,0,0,1.59-1v1.54a5.53,5.53,0,0,1-1.64.79,6.29,6.29,0,0,1-1.83.27,5.11,5.11,0,0,1-3.91-1.52,5.78,5.78,0,0,1-1.43-4.15A5.77,5.77,0,0,1,531.71,33a5.11,5.11,0,0,1,3.91-1.52,6.78,6.78,0,0,1,1.85.26A5.39,5.39,0,0,1,539.09,32.52Z"/><path class="f" d="M544.5,34.21a3.51,3.51,0,0,1,2.76,1.14,4.67,4.67,0,0,1,1,3.17,4.62,4.62,0,0,1-1,3.16,3.91,3.91,0,0,1-5.5,0h0a4.62,4.62,0,0,1-1-3.16,4.67,4.67,0,0,1,1-3.17A3.46,3.46,0,0,1,544.5,34.21Zm0,1.14a2,2,0,0,0-1.71.85,3.74,3.74,0,0,0-.63,2.32,3.89,3.89,0,0,0,.62,2.32,2.16,2.16,0,0,0,3.43,0,3.71,3.71,0,0,0,.63-2.31,3.85,3.85,0,0,0-.63-2.31A2,2,0,0,0,544.5,35.35Z"/><path class="f" d="M554.65,31.22v1.12h-1.29a1.38,1.38,0,0,0-1,.29,1.55,1.55,0,0,0-.29,1.06v.72h2.22v1.05h-2.22v7.15h-1.35V35.46h-1.29V34.41h1.29v-.57a2.65,2.65,0,0,1,.64-2,2.79,2.79,0,0,1,2-.62Z"/><path class="f" d="M559.93,31.22v1.12h-1.29a1.38,1.38,0,0,0-1,.29,1.55,1.55,0,0,0-.29,1.06v.72h2.22v1.05h-2.22v7.15H556V35.46h-1.29V34.41H556v-.57a2.65,2.65,0,0,1,.64-2,2.79,2.79,0,0,1,2-.62Z"/><path class="f" d="M568.08,38.17v.66h-6.2a3.08,3.08,0,0,0,.84,2.12,2.86,2.86,0,0,0,2.09.73,5.9,5.9,0,0,0,1.51-.19,6.18,6.18,0,0,0,1.44-.57V42.2a7.69,7.69,0,0,1-1.48.46,7.36,7.36,0,0,1-1.55.17,4,4,0,0,1-4.26-3.72,4.51,4.51,0,0,1,0-.52,4.53,4.53,0,0,1,1.09-3.19,3.79,3.79,0,0,1,2.94-1.19,3.34,3.34,0,0,1,2.61,1.07A4.11,4.11,0,0,1,568.08,38.17Zm-1.35-.39a2.59,2.59,0,0,0-.62-1.77,2.1,2.1,0,0,0-1.6-.66,2.57,2.57,0,0,0-1.81.64,2.75,2.75,0,0,0-.78,1.8Z"/><path class="f" d="M577.3,38.17v.66h-6.19A3.1,3.1,0,0,0,572,41a2.82,2.82,0,0,0,2.09.73,5.82,5.82,0,0,0,1.5-.19A6,6,0,0,0,577,41v1.2a7.78,7.78,0,0,1-1.49.46,7.27,7.27,0,0,1-1.54.17,4.22,4.22,0,0,1-3.11-1.15,4.17,4.17,0,0,1-1.15-3.09,4.53,4.53,0,0,1,1.09-3.19,3.81,3.81,0,0,1,2.93-1.19,3.32,3.32,0,0,1,2.62,1.07A4.16,4.16,0,0,1,577.3,38.17Zm-1.3-.39a2.59,2.59,0,0,0-.62-1.77,2.1,2.1,0,0,0-1.6-.66A2.55,2.55,0,0,0,572,36a2.75,2.75,0,0,0-.78,1.8Z"/><path class="f" d="M593.39,34.56,590,37.92l3.35,3.35-.87.88-3.36-3.36-3.37,3.36-.86-.88,3.34-3.35-3.34-3.36.86-.89L589.16,37l3.36-3.36Z"/><path class="f" d="M603.09,41.37h5.16v1.24h-6.94V41.37c.56-.58,1.32-1.36,2.29-2.34s1.58-1.61,1.83-1.9a6.56,6.56,0,0,0,1-1.35,2.39,2.39,0,0,0,.29-1.08,1.81,1.81,0,0,0-.62-1.43,2.3,2.3,0,0,0-1.59-.54A4.9,4.9,0,0,0,603,33a9,9,0,0,0-1.65.73V32.21a13.6,13.6,0,0,1,1.67-.55,6.82,6.82,0,0,1,1.42-.18,4.06,4.06,0,0,1,2.71.85,2.79,2.79,0,0,1,1,2.27,3.32,3.32,0,0,1-.25,1.28,6.56,6.56,0,0,1-.9,1.42c-.12.14-.51.55-1.16,1.23Z"/><polyline class="g" points="519.24 323.89 103.27 323.89 103.27 7.75"/><path class="f" d="M80.1,314.64a3.17,3.17,0,0,1,2.81,1.45,9.69,9.69,0,0,1,0,8.44,3.43,3.43,0,0,1-4.78.84h0a3.35,3.35,0,0,1-.84-.84,9.69,9.69,0,0,1,0-8.44A3.17,3.17,0,0,1,80.1,314.64Zm0,1.17a1.84,1.84,0,0,0-1.72,1.13,10.28,10.28,0,0,0,0,6.75,1.89,1.89,0,0,0,2.5.95h0a1.89,1.89,0,0,0,1-.95,10.28,10.28,0,0,0,0-6.75,1.87,1.87,0,0,0-1.73-1.13Z"/><path class="f" d="M295.26,366.82h3a6.88,6.88,0,0,1,4.66,1.32,5.23,5.23,0,0,1,1.49,4.13,5.32,5.32,0,0,1-1.49,4.16,6.91,6.91,0,0,1-4.66,1.32h-3Zm1.48,1.21v8.51h1.79a4.62,4.62,0,0,0,3.31-1,4.35,4.35,0,0,0,1.05-3.24,4.31,4.31,0,0,0-1.05-3.21,4.58,4.58,0,0,0-3.31-1Z"/><path class="f" d="M313.17,373.07v4.68h-1.35v-1.24a3,3,0,0,1-1.15,1.1A3.61,3.61,0,0,1,309,378a2.79,2.79,0,0,1-2-.71,2.51,2.51,0,0,1-.74-1.9,2.46,2.46,0,0,1,.92-2.08,4.54,4.54,0,0,1,2.77-.71h1.89v-.13a1.79,1.79,0,0,0-.61-1.44,2.61,2.61,0,0,0-1.72-.51,5.41,5.41,0,0,0-2.65.68v-1.25a9.59,9.59,0,0,1,1.43-.43,7.22,7.22,0,0,1,1.36-.14,3.53,3.53,0,0,1,2.66.92A4,4,0,0,1,313.17,373.07Zm-2.69.56a4.79,4.79,0,0,0-2.26.37,1.37,1.37,0,0,0-.63,1.28,1.43,1.43,0,0,0,.47,1.14,1.85,1.85,0,0,0,1.28.42,2.25,2.25,0,0,0,1.8-.8,3.15,3.15,0,0,0,.68-2.11v-.3Z"/><path class="f" d="M317.27,367.22v2.33h2.78v1.05h-2.78v4.45a2,2,0,0,0,.28,1.29,1.58,1.58,0,0,0,1.12.28h1.38v1.13h-1.38a3.09,3.09,0,0,1-2.16-.58,3,3,0,0,1-.59-2.12V370.6h-1v-1.05h1v-2.33Z"/><path class="f" d="M328.84,373.31V374h-6.2a3.1,3.1,0,0,0,.84,2.12,2.86,2.86,0,0,0,2.09.73,5.84,5.84,0,0,0,1.51-.19,6,6,0,0,0,1.44-.57v1.27a7.08,7.08,0,0,1-1.48.47,7.29,7.29,0,0,1-1.55.17,4.23,4.23,0,0,1-3.11-1.15,4.18,4.18,0,0,1-1.14-3.09,4.57,4.57,0,0,1,1.08-3.2,3.84,3.84,0,0,1,2.94-1.18,3.38,3.38,0,0,1,2.62,1.07A4.15,4.15,0,0,1,328.84,373.31Zm-1.35-.39a2.54,2.54,0,0,0-.62-1.77,2.05,2.05,0,0,0-1.6-.66,2.54,2.54,0,0,0-1.8.64,2.71,2.71,0,0,0-.78,1.8Z"/><path class="f" d="M95.94,338.56h1.48v10.17a4.43,4.43,0,0,1-.75,2.87,3,3,0,0,1-2.42.89h-.56v-1.24h.46a1.58,1.58,0,0,0,1.38-.55,3.48,3.48,0,0,0,.41-2Z"/><path class="f" d="M106.72,344.81v4.68h-1.35v-1.24a3,3,0,0,1-1.15,1.1,3.6,3.6,0,0,1-1.68.35,2.81,2.81,0,0,1-2-.7,2.51,2.51,0,0,1-.74-1.9,2.44,2.44,0,0,1,.93-2.08,4.49,4.49,0,0,1,2.76-.71h1.89v-.13a1.76,1.76,0,0,0-.61-1.44,2.61,2.61,0,0,0-1.72-.51,5.71,5.71,0,0,0-1.37.17,5.19,5.19,0,0,0-1.28.51v-1.25a9.36,9.36,0,0,1,1.44-.43,7,7,0,0,1,1.35-.14,3.53,3.53,0,0,1,2.66.92A4,4,0,0,1,106.72,344.81Zm-2.69.56a4.79,4.79,0,0,0-2.26.37,1.37,1.37,0,0,0-.63,1.28,1.46,1.46,0,0,0,.47,1.14,1.85,1.85,0,0,0,1.28.42,2.25,2.25,0,0,0,1.8-.8,3.15,3.15,0,0,0,.68-2.11v-.3Z"/><path class="f" d="M116.31,344.54v4.95H115v-4.91a2.83,2.83,0,0,0-.45-1.74,1.64,1.64,0,0,0-1.36-.58,2.18,2.18,0,0,0-1.72.7,2.72,2.72,0,0,0-.63,1.9v4.63h-1.36v-8.2h1.36v1.27a3.22,3.22,0,0,1,1.14-1.1,3,3,0,0,1,1.51-.37,2.62,2.62,0,0,1,2.14.88A4,4,0,0,1,116.31,344.54Z"/><path class="f" d="M507.64,338.56h1.48v10.17a4.43,4.43,0,0,1-.75,2.87,3,3,0,0,1-2.41.89h-.57v-1.24h.46a1.6,1.6,0,0,0,1.39-.55,3.49,3.49,0,0,0,.4-2Z"/><path class="f" d="M511.87,346.25v-5h1.34v4.91a2.84,2.84,0,0,0,.46,1.75,1.61,1.61,0,0,0,1.36.58,2.24,2.24,0,0,0,1.73-.69,2.74,2.74,0,0,0,.63-1.9v-4.65h1.35v8.2h-1.35v-1.26a3.34,3.34,0,0,1-1.14,1.11,3,3,0,0,1-1.5.36,2.65,2.65,0,0,1-2.15-.87A4,4,0,0,1,511.87,346.25Z"/><path class="f" d="M528.33,344.54v4.95H527v-4.91a2.83,2.83,0,0,0-.45-1.74,1.64,1.64,0,0,0-1.36-.58,2.18,2.18,0,0,0-1.72.7,2.72,2.72,0,0,0-.63,1.9v4.63h-1.36v-8.2h1.36v1.27a3.22,3.22,0,0,1,1.14-1.1,3,3,0,0,1,1.51-.37,2.62,2.62,0,0,1,2.14.88A4,4,0,0,1,528.33,344.54Z"/><line class="g" x1="103.27" y1="331.05" x2="103.27" y2="325.28"/><line class="g" x1="517.74" y1="331.05" x2="517.74" y2="325.28"/><line class="g" x1="186.16" y1="331.05" x2="186.16" y2="325.28"/><line class="g" x1="269.06" y1="331.05" x2="269.06" y2="325.28"/><line class="g" x1="351.95" y1="331.05" x2="351.95" y2="325.28"/><line class="g" x1="434.84" y1="331.05" x2="434.84" y2="325.28"/><path class="f" d="M10.26,158.59V160a9,9,0,0,0-1.59-.6,5.38,5.38,0,0,0-1.44-.2,3.25,3.25,0,0,0-1.87.47A1.54,1.54,0,0,0,4.71,161a1.39,1.39,0,0,0,.43,1.1,4.15,4.15,0,0,0,1.66.6l.89.18A4.46,4.46,0,0,1,10.13,164a3.25,3.25,0,0,1-.28,4.54,5.13,5.13,0,0,1-3.12.82,7.65,7.65,0,0,1-1.65-.18,12.86,12.86,0,0,1-1.81-.52v-1.52a9.45,9.45,0,0,0,1.76.76,6.19,6.19,0,0,0,1.7.25,3.35,3.35,0,0,0,2-.49,1.65,1.65,0,0,0,.68-1.43A1.61,1.61,0,0,0,8.92,165a3.54,3.54,0,0,0-1.62-.68l-.9-.17a5,5,0,0,1-2.4-1,2.61,2.61,0,0,1-.74-2,2.82,2.82,0,0,1,1-2.29A4.4,4.4,0,0,1,7.08,158a9.16,9.16,0,0,1,1.57.14A9.79,9.79,0,0,1,10.26,158.59Z"/><path class="f" d="M19.07,161.27v1.26a5.17,5.17,0,0,0-1.14-.47,4.18,4.18,0,0,0-1.17-.16,2.54,2.54,0,0,0-2,.84,4.09,4.09,0,0,0,0,4.66,2.54,2.54,0,0,0,2,.83,4.18,4.18,0,0,0,1.17-.16,5.17,5.17,0,0,0,1.14-.47v1.25a5.74,5.74,0,0,1-1.17.39,6.12,6.12,0,0,1-1.28.14,3.85,3.85,0,0,1-3-1.17,5.08,5.08,0,0,1,0-6.3,4,4,0,0,1,3-1.15,6,6,0,0,1,2.4.51Z"/><path class="f" d="M24.61,160.76a3.46,3.46,0,0,1,2.77,1.14,5.52,5.52,0,0,1,0,6.33,3.9,3.9,0,0,1-5.51,0h0a5.52,5.52,0,0,1,0-6.33A3.51,3.51,0,0,1,24.61,160.76Zm0,1.14a2,2,0,0,0-1.71.85,4.59,4.59,0,0,0,0,4.64,2.15,2.15,0,0,0,3,.41,2.27,2.27,0,0,0,.41-.41,3.71,3.71,0,0,0,.63-2.31,3.85,3.85,0,0,0-.63-2.31,2,2,0,0,0-1.71-.87Z"/><path class="f" d="M35.35,162.22a2.18,2.18,0,0,0-.5-.2,2.88,2.88,0,0,0-.59-.06,2.14,2.14,0,0,0-1.75.75,3.31,3.31,0,0,0-.61,2.13v4.32H30.54V161H31.9v1.27a2.93,2.93,0,0,1,1.1-1.11,3.56,3.56,0,0,1,1.66-.36H35l.38.05Z"/><path class="f" d="M43.45,164.69v.66h-6.2a3.08,3.08,0,0,0,.84,2.12,2.87,2.87,0,0,0,2.09.73,5.9,5.9,0,0,0,1.51-.19,6,6,0,0,0,1.44-.57v1.25a6.89,6.89,0,0,1-1.48.47,7.36,7.36,0,0,1-1.55.17,4,4,0,0,1-4.26-3.72,4.51,4.51,0,0,1,0-.52,4.56,4.56,0,0,1,1.09-3.2,3.8,3.8,0,0,1,2.93-1.18,3.32,3.32,0,0,1,2.62,1.07A4.07,4.07,0,0,1,43.45,164.69Zm-1.35-.39a2.59,2.59,0,0,0-.62-1.77,2.09,2.09,0,0,0-1.6-.66,2.57,2.57,0,0,0-1.81.64,2.75,2.75,0,0,0-.78,1.8Z"/><path class="f" d="M52.59,12.86h5.16v1.25H50.81V12.86c.56-.58,1.33-1.36,2.3-2.34s1.57-1.61,1.82-1.89a6.94,6.94,0,0,0,1-1.35,2.45,2.45,0,0,0,.28-1.09,1.86,1.86,0,0,0-.61-1.42A2.28,2.28,0,0,0,54,4.22a5.26,5.26,0,0,0-1.47.24,9.31,9.31,0,0,0-1.65.73V3.7a12,12,0,0,1,1.67-.54A6.82,6.82,0,0,1,54,3a4.14,4.14,0,0,1,2.71.84,2.8,2.8,0,0,1,1,2.28,3.27,3.27,0,0,1-.25,1.27,6.13,6.13,0,0,1-.92,1.43c-.12.14-.51.55-1.16,1.23Z"/><path class="f" d="M64,3a3.17,3.17,0,0,1,2.81,1.45,9.69,9.69,0,0,1,0,8.44,3.46,3.46,0,0,1-4.81.81,3.66,3.66,0,0,1-.81-.81,9.69,9.69,0,0,1,0-8.44A3.17,3.17,0,0,1,64,3Zm0,1.17A1.82,1.82,0,0,0,62.3,5.28a7.8,7.8,0,0,0-.57,3.38A7.64,7.64,0,0,0,62.3,12a1.88,1.88,0,0,0,3.45,0,7.64,7.64,0,0,0,.57-3.37,7.8,7.8,0,0,0-.57-3.38A1.87,1.87,0,0,0,64,4.15Z"/><path class="f" d="M73.57,3a3.15,3.15,0,0,1,2.8,1.45,9.69,9.69,0,0,1,0,8.44,3.44,3.44,0,0,1-5.61,0,9.69,9.69,0,0,1,0-8.44A3.15,3.15,0,0,1,73.57,3Zm0,1.17a1.82,1.82,0,0,0-1.72,1.12,10.15,10.15,0,0,0,0,6.75,1.86,1.86,0,0,0,2.45,1,1.83,1.83,0,0,0,1-1,10.15,10.15,0,0,0,0-6.75,1.84,1.84,0,0,0-1.72-1.13Z"/><path class="f" d="M79.81,3.17h1.48V7.79L86.2,3.17h1.91l-5.43,5.1,5.81,5.84h-2L81.24,8.84v5.27H79.76Z"/></svg>