<svg id="svg1592" xmlns="http://www.w3.org/2000/svg" viewBox="0 0 635 452.02"><defs><style>.cls-1,.cls-2{fill:none;}.cls-1{stroke:#ccc;}.cls-1,.cls-2,.cls-3{stroke-miterlimit:10;}.cls-2{stroke:#888;stroke-width:3px;}.cls-3{fill:#047;stroke:#047;}.cls-4{fill:#888;}</style></defs><title>scatterplot-4</title><line class="cls-1" x1="504.68" y1="357.63" x2="299.35" y2="234.25"/><line class="cls-1" x1="484.68" y1="367.63" x2="280.48" y2="244.93"/><line class="cls-1" x1="464.68" y1="377.63" x2="262.88" y2="256.37"/><line class="cls-1" x1="444.68" y1="387.63" x2="244.42" y2="267.3"/><line class="cls-1" x1="424.68" y1="397.63" x2="226" y2="278.25"/><line class="cls-1" x1="404.68" y1="407.63" x2="207.82" y2="289.35"/><line class="cls-1" x1="384.68" y1="417.63" x2="189.8" y2="300.53"/><line class="cls-1" x1="364.68" y1="427.63" x2="171.13" y2="311.33"/><line class="cls-1" x1="344.68" y1="437.63" x2="152.9" y2="322.39"/><line class="cls-1" x1="324.68" y1="447.63" x2="134.73" y2="333.5"/><line class="cls-1" x1="335.06" y1="234.25" x2="129.73" y2="357.63"/><line class="cls-1" x1="353.93" y1="244.93" x2="149.73" y2="367.63"/><line class="cls-1" x1="371.53" y1="256.37" x2="169.73" y2="377.63"/><line class="cls-1" x1="389.99" y1="267.3" x2="189.73" y2="387.63"/><line class="cls-1" x1="408.41" y1="278.25" x2="209.73" y2="397.63"/><line class="cls-1" x1="426.59" y1="289.35" x2="229.73" y2="407.63"/><line class="cls-1" x1="444.61" y1="300.53" x2="249.73" y2="417.63"/><line class="cls-1" x1="463.28" y1="311.33" x2="269.73" y2="427.63"/><line class="cls-1" x1="481.51" y1="322.39" x2="289.73" y2="437.63"/><line class="cls-1" x1="499.68" y1="333.5" x2="309.73" y2="447.63"/><line class="cls-1" x1="522.62" y1="303.37" x2="317.29" y2="180"/><line class="cls-1" x1="522.62" y1="280.76" x2="317.29" y2="157.39"/><line class="cls-1" x1="522.62" y1="258.16" x2="317.29" y2="134.78"/><line class="cls-1" x1="522.62" y1="235.55" x2="317.29" y2="112.18"/><line class="cls-1" x1="522.62" y1="212.94" x2="317.29" y2="89.57"/><line class="cls-1" x1="522.62" y1="190.34" x2="317.29" y2="66.96"/><line class="cls-1" x1="335.06" y1="234.25" x2="335.06" y2="38.33"/><line class="cls-1" x1="353.4" y1="244.71" x2="353.4" y2="48.79"/><line class="cls-1" x1="371.73" y1="255.35" x2="371.73" y2="59.43"/><line class="cls-1" x1="390.06" y1="268.25" x2="390.06" y2="72.33"/><line class="cls-1" x1="408.4" y1="278.71" x2="408.4" y2="82.79"/><line class="cls-1" x1="426.73" y1="289.35" x2="426.73" y2="93.43"/><line class="cls-1" x1="445.06" y1="300.25" x2="445.06" y2="104.33"/><line class="cls-1" x1="463.4" y1="310.71" x2="463.4" y2="114.79"/><line class="cls-1" x1="481.73" y1="321.35" x2="481.73" y2="125.43"/><line class="cls-1" x1="500.06" y1="332.25" x2="500.06" y2="136.33"/><line class="cls-1" x1="299.06" y1="234.25" x2="299.06" y2="38.33"/><line class="cls-1" x1="280.73" y1="244.71" x2="280.73" y2="48.79"/><line class="cls-1" x1="262.4" y1="255.35" x2="262.4" y2="59.43"/><line class="cls-1" x1="244.06" y1="268.25" x2="244.06" y2="72.33"/><line class="cls-1" x1="225.73" y1="278.71" x2="225.73" y2="82.79"/><line class="cls-1" x1="207.4" y1="289.35" x2="207.4" y2="93.43"/><line class="cls-1" x1="189.06" y1="300.25" x2="189.06" y2="104.33"/><line class="cls-1" x1="170.73" y1="310.71" x2="170.73" y2="114.79"/><line class="cls-1" x1="152.4" y1="321.35" x2="152.4" y2="125.43"/><line class="cls-1" x1="134.06" y1="332.25" x2="134.06" y2="136.33"/><line class="cls-1" x1="316.62" y1="202.6" x2="111.29" y2="325.98"/><line class="cls-1" x1="316.62" y1="180" x2="111.29" y2="303.37"/><line class="cls-1" x1="316.62" y1="157.39" x2="111.29" y2="280.76"/><line class="cls-1" x1="316.62" y1="134.78" x2="111.29" y2="258.16"/><line class="cls-1" x1="316.62" y1="112.18" x2="111.29" y2="235.55"/><line class="cls-1" x1="316.62" y1="89.57" x2="111.29" y2="212.94"/><line class="cls-1" x1="316.62" y1="66.96" x2="111.29" y2="190.34"/><line class="cls-1" x1="316.62" y1="44.35" x2="111.29" y2="167.73"/><line class="cls-1" x1="522.62" y1="325.98" x2="317.29" y2="202.6"/><line class="cls-1" x1="522.62" y1="167.73" x2="317.29" y2="44.35"/><polyline class="cls-2" points="317 31.75 317 222.99 108.87 348.04"/><line class="cls-2" x1="524.68" y1="347.63" x2="317.24" y2="222.99"/><circle class="cls-3" cx="175.31" cy="193.2" r="2.61"/><circle class="cls-3" cx="189.8" cy="280.07" r="2.61"/><circle class="cls-3" cx="239.89" cy="89.86" r="2.61"/><circle class="cls-3" cx="318.16" cy="72.19" r="2.61"/><circle class="cls-3" cx="353.3" cy="74.81" r="2.61"/><circle class="cls-3" cx="413.92" cy="141.52" r="2.61"/><circle class="cls-3" cx="273.85" cy="91.53" r="2.61"/><circle class="cls-3" cx="450.24" cy="144.14" r="2.61"/><circle class="cls-3" cx="465.33" cy="230.66" r="2.61"/><circle class="cls-3" cx="336.1" cy="158.5" r="2.61"/><circle class="cls-3" cx="208.76" cy="195.81" r="2.61"/><circle class="cls-3" cx="384.82" cy="247.27" r="2.61"/><circle class="cls-3" cx="253.57" cy="175.92" r="2.61"/><circle class="cls-3" cx="368.86" cy="161.12" r="2.61"/><circle class="cls-3" cx="288.47" cy="177.59" r="2.61"/><circle class="cls-3" cx="431.51" cy="229.6" r="2.61"/><path class="cls-4" d="M517.7,363.54V365a9.68,9.68,0,0,0-1.59-.61,5.71,5.71,0,0,0-1.44-.19,3.08,3.08,0,0,0-1.86.47,1.52,1.52,0,0,0-.66,1.33,1.34,1.34,0,0,0,.44,1.09,3.69,3.69,0,0,0,1.65.6l.89.18a4.55,4.55,0,0,1,2.44,1.11,3.27,3.27,0,0,1-.27,4.54,5.08,5.08,0,0,1-3.13.82,8.89,8.89,0,0,1-1.65-.17,12.58,12.58,0,0,1-1.81-.53v-1.52a8.51,8.51,0,0,0,1.76.76,6.06,6.06,0,0,0,1.7.26,3.32,3.32,0,0,0,2-.5,1.64,1.64,0,0,0,.69-1.42,1.62,1.62,0,0,0-.5-1.26,3.41,3.41,0,0,0-1.62-.68l-.9-.18a4.84,4.84,0,0,1-2.4-1,2.58,2.58,0,0,1-.74-1.95,2.78,2.78,0,0,1,1-2.29,4.28,4.28,0,0,1,2.81-.83,9.41,9.41,0,0,1,1.57.13A13,13,0,0,1,517.7,363.54Z"/><path class="cls-4" d="M526.51,366.23v1.26a5,5,0,0,0-1.14-.47,4.21,4.21,0,0,0-1.16-.16,2.57,2.57,0,0,0-2,.83,4.1,4.1,0,0,0,0,4.67,2.57,2.57,0,0,0,2,.83,4.21,4.21,0,0,0,1.16-.16,5,5,0,0,0,1.14-.47v1.24a5.21,5.21,0,0,1-1.17.4,5.85,5.85,0,0,1-1.28.13,3.83,3.83,0,0,1-2.94-1.16A4.43,4.43,0,0,1,520,370a4.34,4.34,0,0,1,1.11-3.15,4,4,0,0,1,3-1.15,5.41,5.41,0,0,1,1.21.13A5.17,5.17,0,0,1,526.51,366.23Z"/><path class="cls-4" d="M532,365.72a3.49,3.49,0,0,1,2.76,1.14,5.49,5.49,0,0,1,0,6.32,3.9,3.9,0,0,1-5.53,0,5.49,5.49,0,0,1,0-6.32A3.5,3.5,0,0,1,532,365.72Zm0,1.14a2,2,0,0,0-1.72.85,4.57,4.57,0,0,0,0,4.63,2.15,2.15,0,0,0,3.42,0,4.57,4.57,0,0,0,0-4.63A2,2,0,0,0,532,366.86Z"/><path class="cls-4" d="M542.79,367.17a2,2,0,0,0-.5-.19,2.68,2.68,0,0,0-.59-.06,2.15,2.15,0,0,0-1.75.74,3.29,3.29,0,0,0-.61,2.14v4.32H538v-8.2h1.36v1.27a2.73,2.73,0,0,1,1.1-1.11,3.54,3.54,0,0,1,1.66-.36,1.78,1.78,0,0,1,.31,0l.37.05Z"/><path class="cls-4" d="M550.89,369.68v.66h-6.2a3.12,3.12,0,0,0,.84,2.12,2.86,2.86,0,0,0,2.09.73,6.31,6.31,0,0,0,1.51-.19,7.18,7.18,0,0,0,1.44-.57v1.27a8,8,0,0,1-1.48.47,7.35,7.35,0,0,1-1.55.16,4.22,4.22,0,0,1-3.11-1.14,4.18,4.18,0,0,1-1.14-3.09,4.56,4.56,0,0,1,1.08-3.2,3.81,3.81,0,0,1,2.94-1.18,3.33,3.33,0,0,1,2.61,1.06A4.13,4.13,0,0,1,550.89,369.68Zm-1.35-.4a2.58,2.58,0,0,0-.62-1.76,2.05,2.05,0,0,0-1.6-.66,2.49,2.49,0,0,0-1.8.64,2.6,2.6,0,0,0-.78,1.79Z"/><path class="cls-4" d="M87.23,364v1.55a5.26,5.26,0,0,0-1.6-1,4.69,4.69,0,0,0-1.8-.35A3.59,3.59,0,0,0,81,365.35,6,6,0,0,0,81,372a3.61,3.61,0,0,0,2.87,1.14,4.69,4.69,0,0,0,1.8-.34,5.29,5.29,0,0,0,1.6-1v1.55a6.26,6.26,0,0,1-1.65.79,6.48,6.48,0,0,1-1.83.26,5.11,5.11,0,0,1-3.91-1.52,6.75,6.75,0,0,1,0-8.31A5.1,5.1,0,0,1,83.75,363a6.22,6.22,0,0,1,1.85.26A5.82,5.82,0,0,1,87.23,364Z"/><path class="cls-4" d="M92.63,365.72a3.49,3.49,0,0,1,2.76,1.14,5.45,5.45,0,0,1,0,6.32,3.89,3.89,0,0,1-5.52,0,5.49,5.49,0,0,1,0-6.32A3.46,3.46,0,0,1,92.63,365.72Zm0,1.14a2,2,0,0,0-1.71.85,3.77,3.77,0,0,0-.63,2.31,3.87,3.87,0,0,0,.62,2.32,2.16,2.16,0,0,0,3.43,0,4.57,4.57,0,0,0,0-4.63A2,2,0,0,0,92.63,366.86Z"/><path class="cls-4" d="M102.78,362.72v1.12h-1.29a1.33,1.33,0,0,0-1,.3,1.48,1.48,0,0,0-.29,1.05v.73h2.22v1H100.2v7.16H98.85V367H97.56v-1h1.29v-.58a2.67,2.67,0,0,1,.64-2,2.78,2.78,0,0,1,2-.63Z"/><path class="cls-4" d="M108.06,362.72v1.12h-1.29a1.33,1.33,0,0,0-1,.3,1.48,1.48,0,0,0-.29,1.05v.73h2.22v1h-2.22v7.16h-1.35V367h-1.29v-1h1.29v-.58a2.67,2.67,0,0,1,.64-2,2.78,2.78,0,0,1,2-.63Z"/><path class="cls-4" d="M116.21,369.68v.66H110a3.12,3.12,0,0,0,.84,2.12,2.86,2.86,0,0,0,2.09.73,6.31,6.31,0,0,0,1.51-.19,7.18,7.18,0,0,0,1.44-.57v1.27a8,8,0,0,1-1.48.47,7.35,7.35,0,0,1-1.55.16,4.22,4.22,0,0,1-3.11-1.14,4.18,4.18,0,0,1-1.15-3.09,4.56,4.56,0,0,1,1.09-3.2,3.81,3.81,0,0,1,2.94-1.18,3.33,3.33,0,0,1,2.61,1.06A4.13,4.13,0,0,1,116.21,369.68Zm-1.35-.4a2.58,2.58,0,0,0-.62-1.76,2.07,2.07,0,0,0-1.6-.66,2.54,2.54,0,0,0-1.81.64,2.68,2.68,0,0,0-.78,1.79Z"/><path class="cls-4" d="M125.44,369.68v.66h-6.2a3.12,3.12,0,0,0,.84,2.12,2.85,2.85,0,0,0,2.09.73,6.16,6.16,0,0,0,1.5-.19,7,7,0,0,0,1.45-.57v1.27a7.81,7.81,0,0,1-1.49.47,7.19,7.19,0,0,1-1.54.16,4,4,0,0,1-4.26-4.23,4.56,4.56,0,0,1,1.09-3.2,3.78,3.78,0,0,1,2.93-1.18,3.34,3.34,0,0,1,2.62,1.06A4.18,4.18,0,0,1,125.44,369.68Zm-1.35-.4a2.58,2.58,0,0,0-.62-1.76,2.07,2.07,0,0,0-1.6-.66,2.54,2.54,0,0,0-1.81.64,2.68,2.68,0,0,0-.78,1.79Z"/><path class="cls-4" d="M298.43,8h9.25V9.21H303.8V18.9h-1.49V9.21h-3.88Z"/><path class="cls-4" d="M308.59,7.5h1.35V9.21h-1.35Zm0,3.2h1.35v8.2h-1.35Z"/><path class="cls-4" d="M319.15,12.27a3.51,3.51,0,0,1,1.2-1.34A3.09,3.09,0,0,1,322,10.5a2.37,2.37,0,0,1,2,.9,4.12,4.12,0,0,1,.69,2.55V18.9h-1.35V14a3,3,0,0,0-.42-1.75,1.47,1.47,0,0,0-1.27-.57,2.07,2.07,0,0,0-1.66.7,2.74,2.74,0,0,0-.61,1.89V18.9H318V14a3,3,0,0,0-.42-1.75,1.5,1.5,0,0,0-1.29-.57,2.05,2.05,0,0,0-1.64.7,2.77,2.77,0,0,0-.61,1.89V18.9h-1.35V10.7h1.35V12a2.87,2.87,0,0,1,2.64-1.47,2.55,2.55,0,0,1,1.52.45A2.76,2.76,0,0,1,319.15,12.27Z"/><path class="cls-4" d="M334.39,14.46v.66h-6.2a3.1,3.1,0,0,0,.84,2.12,2.86,2.86,0,0,0,2.09.73,5.71,5.71,0,0,0,1.5-.19,7,7,0,0,0,1.45-.57v1.27a7.81,7.81,0,0,1-1.49.47,7.19,7.19,0,0,1-1.54.16A4.21,4.21,0,0,1,327.93,18a4.18,4.18,0,0,1-1.15-3.09,4.58,4.58,0,0,1,1.09-3.2,3.78,3.78,0,0,1,2.93-1.18,3.32,3.32,0,0,1,2.62,1.07A4.11,4.11,0,0,1,334.39,14.46ZM333,14.07a2.59,2.59,0,0,0-.62-1.77,2.07,2.07,0,0,0-1.6-.66,2.54,2.54,0,0,0-1.81.64,2.68,2.68,0,0,0-.78,1.79Z"/><circle class="cls-3" cx="350.69" cy="246.33" r="2.61"/><circle class="cls-3" cx="223.38" cy="282.68" r="2.61"/><circle class="cls-3" cx="304.03" cy="265.07" r="2.61"/><circle class="cls-3" cx="269.57" cy="263.4" r="2.61"/></svg>