<svg xmlns="http://www.w3.org/2000/svg" xmlns:xlink="http://www.w3.org/1999/xlink" viewBox="0 0 291.53 412.68"><defs><style>.a{fill:none;}.b{fill:url(#a);}.c{fill:url(#b);}.d{fill:url(#c);}.e{fill:url(#d);}.f{fill:url(#e);}.g{fill:#010101;}</style><linearGradient id="a" x1="50.57" y1="278.75" x2="379.07" y2="102.51" gradientTransform="matrix(1, 0, 0, -1, 4.97, 469.58)" gradientUnits="userSpaceOnUse"><stop offset="0" stop-color="#d7d7d7"/><stop offset="1" stop-color="#d7d7d7" stop-opacity="0"/></linearGradient><linearGradient id="b" x1="144.51" y1="246.9" x2="149.19" y2="205.22" gradientTransform="matrix(1, 0, 0, -1, 4.97, 469.58)" gradientUnits="userSpaceOnUse"><stop offset="0" stop-color="#c7c7c7"/><stop offset="1" stop-color="#c7c7c7" stop-opacity="0"/></linearGradient><linearGradient id="c" x1="56.75" y1="278.34" x2="119.2" y2="246.79" gradientTransform="matrix(1, 0, 0, -1, 4.97, 469.58)" gradientUnits="userSpaceOnUse"><stop offset="0" stop-color="#afafaf"/><stop offset="1" stop-color="#afafaf" stop-opacity="0"/></linearGradient><linearGradient id="d" x1="40.01" y1="265.2" x2="432.87" y2="193.82" gradientTransform="matrix(1, 0, 0, -1, 4.97, 469.58)" gradientUnits="userSpaceOnUse"><stop offset="0" stop-color="#8f8f8f"/><stop offset="1" stop-color="#8f8f8f" stop-opacity="0"/></linearGradient><linearGradient id="e" x1="35.48" y1="230.32" x2="50.92" y2="231.12" gradientTransform="matrix(1, 0, 0, -1, 4.97, 469.58)" gradientUnits="userSpaceOnUse"><stop offset="0" stop-color="#6c6c6c"/><stop offset="1" stop-color="#6c6c6c" stop-opacity="0"/></linearGradient></defs><title>Frets_on_fire_man</title><path class="a" d="M259.47,443.86c-14.38-2-37.89-9-45.4-13.54-3-1.78-6.73-4-8.35-5-4.47-2.71-10.2-3.06-21.88-1.31-25.67,3.84-53.79.05-70.49-9.49-6.32-3.6-9.7-3.66-22.88-.37-25.21,6.29-51,3-63.22-8-4.37-4-4.78-4.72-4.78-8.87,0-3.69.57-5.15,3-7.71,4.12-4.33,9.53-7.26,19.24-10.44,4.72-1.54,9.88-4,12.09-5.86,4.26-3.51,10-14.22,13-24.33a41.39,41.39,0,0,1,3.81-9c1.08-1.56,5.24-9.37,9.26-17.34a201,201,0,0,1,15.62-25.85c5.07-6.9,9.33-14,10.87-18,1.4-3.66,4.73-12.33,7.4-19.27,4.48-11.65,4.75-12.82,3.46-15.27-.76-1.46-1.1-3.12-.76-3.68S121,230.4,122,219.29c1.85-20.29,2.45-23.71,4.1-23.71.49,0,.89-1.05.89-2.33,0-1.75,1.2-3,4.75-5,2.61-1.45,4.08-2.64,3.25-2.63a10.78,10.78,0,0,0-4,1.44c-4,2.26-4.54,1.85-4.15-3,.28-3.55-.31-5.78-2.77-10.51A94.42,94.42,0,0,1,118.38,158c-2.14-8-2.36-10.08-1.4-13,.62-1.89.89-3.84.59-4.33s.34-1.69,1.43-2.67c1.31-1.19,2-3.08,2-5.61a16.11,16.11,0,0,1,2-7.06c1.81-3,1.84-3.37.36-5s-1.46-2.49,0-10.42c1.06-5.73,2.47-9.92,4.18-12.39,2.27-3.28,3.22-3.81,7.79-4.36,2.87-.34,6.9-.63,9-.63,4.48,0,4.54-.39,1.75-11a69.27,69.27,0,0,1-2-16.15c0-8.25.19-9.06,4.41-17.5,2.44-4.87,5.82-10.18,7.51-11.8,2.89-2.76,3.3-2.87,6.47-1.72,2.92,1.05,4.1.94,8.65-.85,7.42-2.93,9.75-2.38,13.9,3.23,3.2,4.34,3.61,4.58,5.2,3.15.94-.86,2.15-1.29,2.69-1s2,4.76,3.16,9.85l2.19,9.25-2,8.5c-1.11,4.67-3,11.82-4.14,15.88l-2.12,7.37,2,6.13a133.67,133.67,0,0,1,3.51,14c.83,4.34,2.12,8.84,2.87,10s2.14,6.61,3.09,12.11,1.93,10.72,2.18,11.6c.33,1.2-6.56,5.64-27.83,17.91-32.21,18.58-29.31,16.78-28.38,17.71a.92.92,0,0,0,1.42-.25,9.71,9.71,0,0,1,2.69-2.07c1.1-.61,12.68-7.25,25.72-14.75s24.11-13.65,24.59-13.65c1.11,0,3.57,13.57,2.72,15-.36.57-.25,1,.24,1s1.39,2.14,2,4.75c1.07,4.64,1.08,4.65.59.57-.27-2.29,0-5.09.6-6.22.84-1.57.37-6.78-2-22.24-1.7-11.11-2.83-21.23-2.51-22.5s.05-5.48-.58-9.36-.91-7.29-.6-7.61c1-1,14.35,7.45,18,11.5,3.85,4.26,4.07,5,5.69,20.61a92.84,92.84,0,0,1,.07,19.5c-.54,5.22-1.46,16-2,24-1,13.75-3,24.07-5.15,26.68-.63.77-.61,2.5.07,4.93.71,2.6.71,4.14,0,5s-.59,4.36.48,11.57c.83,5.67,1.8,13.68,2.15,17.81.6,7,.48,7.72-1.94,10.94-2.31,3.07-2.59,4.36-2.59,11.86,0,11.29,3.77,41.63,5.84,47,1.1,2.86,2.68,4.86,4.66,5.88,6.75,3.48,13.31,9.3,27.79,24.64,8.38,8.88,19.43,21.32,24.57,27.65s11,12.64,13,14c3.14,2.19,4,3.65,5.95,10.5,1.27,4.38,2.09,9.1,1.82,10.49-.42,2.19.15,2.88,4,4.94,9.16,4.86,12,12.91,6.83,19.63-6.95,9.11-32.7,15.39-52,12.67Zm-8.87-57.78a30.1,30.1,0,0,1-6.09-8.22c-2.31-5-4.52-7-26.56-24.05-22.83-17.67-26.79-24.37-33-55.8-3.15-16.07-5.61-23.93-9.82-31.43-2.72-4.85-7-10-8.41-10-1.62,0-9.85,8.34-14.68,14.88-2.68,3.64-7.44,10.85-10.56,16s-6.47,10.12-7.44,11c-4.92,4.5-22.52,31-28.6,43.11a87.24,87.24,0,0,1-4.49,8c-.95,1.38-4,6.71-6.86,11.85L89,370.77l6.17-.71a67.26,67.26,0,0,0,11.58-2.58,118.81,118.81,0,0,1,13.06-3.34c4.21-.82,9.23-2,11.15-2.54,7.33-2.21,21.92-4,32.5-4,26.92,0,51.21,7.94,61.88,20.23,3.43,4,5.2,5.06,10.62,6.65,6.58,1.93,17.08,4.82,18,4.95.28,0-1.24-1.46-3.37-3.34ZM226,331.79c0-.77-5.23-4.21-6.4-4.21-1.61,0-.28,2.1,2.15,3.43,3.14,1.7,4.25,1.91,4.25.78ZM153.88,208.47c20.48-6.77,20.59-6.82,20.91-9.85.17-1.67-.09-3-.58-3a52.12,52.12,0,0,0-7.11,2.53c-3.43,1.39-6.65,2.26-7.18,1.94-2.27-1.41-.54-3.4,4.8-5.52a49.17,49.17,0,0,0,7-3.23,3,3,0,0,1,2.57-.43c.74.28,1.87-.35,2.52-1.39,1.53-2.45,1.14-2.4-5.42.6a50.63,50.63,0,0,1-6.08,2.5,31.06,31.06,0,0,0-4.72,1.93c-6.06,2.84-14,6.29-24.36,10.63-8.87,3.7-9.25,4-9.25,7,0,5.59-1.75,5.83,26.91-3.65ZM136,208.06c0-.83,1.47-2.14,3.25-2.91,18.05-7.78,17.77-7.69,18.43-6,.83,2.16,0,2.71-10.42,6.78S136,210.19,136,208.06Zm4.8-14.29a5,5,0,0,1-3.6-2.5c-.93-1.93-1.07-1.68-1.13,2l-.07,4.24,3.67-1.74C143.12,194.16,143.18,194.06,140.77,193.77Zm64.45-1.8c6.09-1.86,6.2-2,5.13-8.53-.59-3.56-.64-3.6-2.49-1.75-2.67,2.67-4.89,2.41-4.89-.58s3.76-5.52,5.11-3.39c.63,1,.87.75.88-.89,0-3.25-.36-3.15-15,3.71l-4.5,2.11,3.64-.56c3.48-.54,3.65-.42,4.12,2.71.5,3.34-.74,5.13-3,4.31a1.66,1.66,0,0,0-1.89.65c-.86,1.4,3.63,4.89,5.61,4.36.83-.22,4.09-1.19,7.25-2.15Zm-46.75-.38c.35-.57-.06-.73-.95-.39-1.73.66-2,1.38-.61,1.38a2.16,2.16,0,0,0,1.56-1Zm10.82-4.4c.38-1,0-1.23-1.48-.86s-1.69.72-.67,1.37c1.69,1.07,1.53,1.11,2.15-.51Zm4-2.06c.38-1,.08-1.27-.88-.9-.8.31-1.2,1-.89,1.45.76,1.24,1.13,1.13,1.77-.55Zm14-7c1-.75,1.45-1.57,1-1.81s-1.59.39-2.56,1.41c-2,2.14-1.07,2.39,1.56.4Zm5.91-4.44c-.5-1.3-.65-1.31-1-.07a11,11,0,0,1-1.57,2.86c-1,1.2-.8,1.21,1,.07C192.92,175.75,193.54,174.62,193.19,173.7ZM183.37,175c.29-.74-.26-1-1.49-.67-2.65.7-3.19,1.84-.86,1.84a2.6,2.6,0,0,0,2.35-1.17Zm18.86-2.28c.37-1.42.05-1.75-1.33-1.39s-1.57.75-.62,1.83c1.51,1.73,1.38,1.76,1.95-.44Zm-14.76-.11c.35-.57-.06-.73-.95-.39-1.73.66-2.05,1.38-.61,1.38a2.16,2.16,0,0,0,1.56-1Zm-2.5-2.51a1.52,1.52,0,0,0-1.54-1.5c-1.27,0-1.31.25-.25,1.46C184.82,171.9,185,171.9,185,170.08Zm4.69-.69c-.32-.8-.56-.56-.61.6s.19,1.65.53,1.32a2,2,0,0,0,.08-1.92Zm6.49-1.86C194.4,165.9,194,165.8,194,167a1.53,1.53,0,0,0,1.5,1.54,1.36,1.36,0,0,1,1.5,1.16c0,.65.31.87.68.49s-.3-1.59-1.5-2.7Zm-18.49-.14c-.32-.8-.56-.56-.61.6s.19,1.65.53,1.32a2,2,0,0,0,.08-1.92Zm16.75-3.72c.23-.36-.44-.66-1.49-.66a2.6,2.6,0,0,0-2.35,1.17c-.47,1.22,3.06.75,3.84-.51ZM187,162.14c0-.25-.45-.72-1-1.06s-1-.14-1,.44a1,1,0,0,0,1,1.06C186.52,162.58,187,162.38,187,162.14Zm4.5-2.56c.34-.55.14-1-.44-1a1,1,0,0,0-1.06,1c0,.55.2,1,.44,1S191.13,160.13,191.47,159.58ZM169.89,89.3l-2.42-1.75c-1.85-1.36-1.89-1.34-.62.28a4.4,4.4,0,0,0,2.41,1.75C169.84,89.58,170.12,89.45,169.89,89.3Zm9-4.1c-.25-.23-1.3.77-2.34,2.23l-1.9,2.65L177,87.86C178.31,86.63,179.16,85.44,178.92,85.2ZM159,85.05c1.84-2.21.8-2.47-1.27-.31-1,1-1.35,1.84-.87,1.84A4.08,4.08,0,0,0,159,85.05Zm6.65-2.72c-.28-.69-.51-.13-.51,1.25s.23,1.94.51,1.25A4,4,0,0,0,165.64,82.33Zm16.9-3c2.64-2.92,2.67-3,.26-.89-1.47,1.29-3.16,2-3.74,1.69s-.83,0-.47.9c.76,2,.52,2.08,3.95-1.7ZM162,78.57c0-.28-1-1.12-2.24-1.87-1.76-1.07-2-1.07-1,0A5.7,5.7,0,0,1,160,80c0,1.69.18,1.78,1,.55a6.82,6.82,0,0,0,1-2Zm4,1c0-.55-.78-1-1.75-1-1.49,0-1.53.16-.25,1C165.86,80.8,166,80.8,166,79.58ZM149.9,74.33c0-.41-.38-.75-.93-.75s-1,1.24-.93,2.75c.07,2.44.17,2.52.93.75A13.15,13.15,0,0,0,149.9,74.33ZM174.7,78a2,2,0,0,0-1.91-.07c-.8.31-.56.55.6.6s1.65-.19,1.31-.53Z" transform="translate(-22.47 -31.81)"/><path class="b" d="M254.91,439.63c-13-1.09-25.43-4.92-30.93-9.54-.83-.7-6.23-3.16-12-5.47-12.72-5.08-27.24-8.11-33.3-6.94a115.77,115.77,0,0,1-15.2.84c-13.45,0-26.75-2.51-36.5-7-6.82-3.14-7.23-3.2-17.24-2.63A139.16,139.16,0,0,0,92,411.1q-7.51,1.63-23,1.73c-17.12.1-24.31-1.42-32-6.74-9.23-6.4-7.45-14,5-21.56,2.22-1.35,7.33-5,11.36-8.12,6.24-4.83,7.9-6.81,11.36-13.52,2.22-4.32,4.34-9.42,4.69-11.33a35.14,35.14,0,0,1,3-8c1.32-2.48,5.85-11.25,10.06-19.5s8.85-16.64,10.29-18.64c15.32-21.25,14-18.78,25.06-47.48,3.52-9.14,4.08-11.49,3.16-13.21-.81-1.51-.83-4.64-.08-11.38.57-5.11,1.65-15.35,2.4-22.75.79-7.83,1.83-13.62,2.47-13.83s1.12-1.58,1.12-3.06c0-2.16.89-3.18,4.5-5.15,2.47-1.35,4.5-2.8,4.5-3.23,0-1.14-.69-1-5,1.25l-4,2v-5.38c0-4-.77-6.89-3-11.27A92.26,92.26,0,0,1,118.61,157c-2.16-8.18-2.25-9.33-.94-11.83.8-1.53,1.23-3.38.94-4.12a2.37,2.37,0,0,1,.79-2.43c.72-.59,1.59-3.11,1.93-5.59a28.55,28.55,0,0,1,2.2-7.57c1.37-2.66,1.4-3.34.17-5.18s-1.21-3.21,0-9.67c2.73-15,4.74-17,16.38-17,4.3,0,8.07-.43,8.4-1s-.39-4.68-1.59-9.25a57.76,57.76,0,0,1-2-18.19c.2-9.29.45-10.37,4.06-17.5,2.11-4.18,5.44-9.13,7.38-11,3.45-3.3,3.62-3.35,6.06-1.75s2.83,1.53,7.33-.25,8.05-2.48,10.92-2.21c.63.06,2.43,2.14,4,4.61,3,4.69,4.12,5.31,6.14,3.3,1.75-1.75,2.7-.21,4.56,7.41,2.12,8.69,2,12.66-.42,21.79-1.12,4.13-2.64,9.83-3.38,12.67a41.94,41.94,0,0,1-2,6.18c-.34.55.26,3.25,1.34,6a94,94,0,0,1,3.62,13.83c.91,4.86,2.31,10.1,3.11,11.65,1.25,2.41,5.34,21,5.34,24.29,0,.61-12.71,8.45-28.25,17.41-32.17,18.56-29.3,16.77-28.37,17.69.39.39,1.7.08,2.91-.7,7.46-4.78,30.71-17.81,30.72-17.22,0,.39.35.22.75-.37,1-1.49,13.23-8.53,13.25-7.64,0,.4.35.26.75-.3,1-1.42,5.94-4.48,7.2-4.48,1.91,0,1.07,3.74-1.21,5.41s-2.2,1.63-.07.62a12.11,12.11,0,0,1,2.75-1c1.07,0,.57,3.6-.68,4.86-1,1-.91,1.13.5.59s1.75-.14,1.75,1.74-1,2.91-4.66,4.67-4.82,2-5.48.95-.84-.89-.85.41c0,2.2-3.63,4.3-4.35,2.52-.33-.81-.53-.7-.58.32s-2.27,2.52-5.08,3.75c-5.55,2.42-5.92,2.76-3,2.76,1.1,0,2-.31,2-.69s3-2.1,6.67-3.81c5.15-2.41,6.86-2.83,7.49-1.85s.81.8.82-.49c0-1.63,6.43-5.67,7.41-4.66a23.81,23.81,0,0,1,1.13,5.17l.7,4.74-4.7,2c-2.59,1.11-5.07,1.79-5.51,1.52s-1.06.17-1.38,1a2.77,2.77,0,0,1-2.48,1.49,4.9,4.9,0,0,0-3.28,1.67c-1.21,1.48-1.14,1.61.63,1.07,7-2.13,6.5-2.26,6.5,1.64,0,3.2-.3,3.62-2.5,3.62-3,0-3.2,1.63-.45,4.56l2.06,2.19,7.57-2.34a82.79,82.79,0,0,0,7.92-2.68c.19-.19-.67-5.72-1.92-12.29-1.63-8.59-2-12.68-1.32-14.57s.17-7.78-1.75-20.65c-1.48-9.91-2.85-22.22-3-27.37s-.68-10.14-1.07-11.1c-1.06-2.59.67-2.17,7.39,1.77,9.19,5.38,12.66,9.13,13.92,15,2.22,10.35,2.55,27.69.83,43.14-.91,8.14-2.07,19.17-2.58,24.51s-1.68,11.28-2.59,13.21a11.63,11.63,0,0,0-1,7.66c.41,2.44.3,4.43-.27,4.79s-.31,5,.84,12.63c2.69,17.75,2.53,24-.69,28.23-2.56,3.35-2.59,3.6-1.92,14.59.37,6.15,1.09,13.9,1.59,17.23s1.33,10.1,1.84,15.05c1.26,12.15,2.84,15.13,10.17,19.19,8.34,4.63,33.54,30.64,51.7,53.39,4.25,5.32,8.93,10.2,10.4,10.84,3,1.3,5.08,5.68,7.33,15.33l1.43,6.11-2.72,2.9c-2.17,2.32-2.41,3-1.21,3.43a20.9,20.9,0,0,1,4.75,3.77c2.41,2.41,3.25,4.13,3.25,6.71,0,11.82-20.4,18.25-50.07,15.78Zm5-45.11a63.59,63.59,0,0,0-7.67-7.75,32.46,32.46,0,0,1-7-8.69c-2.91-5.76-2.47-5.36-24.61-22.66-9.24-7.22-18.3-15-20.13-17.24-7.12-8.78-10.62-18.12-15-39.88-1.91-9.55-4.43-19.8-5.61-22.79-2.52-6.4-8.08-15.81-10.8-18.27-1.83-1.66-2.1-1.6-6.22,1.55-5.19,4-12.24,13.08-20.86,27-3.52,5.68-6.77,10.46-7.21,10.64-2.51,1-20.2,27.56-29.41,44.18C94.26,360.75,91,366.21,88,370c-1.71,2.14-3,4-2.83,4.14.47.42,24.93-4.39,30.78-6.05,7.23-2.07,23.12-3.07,46.5-2.94,16.51.09,20,.39,26.32,2.31,9.78,2.94,18.31,7.35,22.69,11.73,2.91,2.91,5.1,3.95,11.53,5.49a94.16,94.16,0,0,1,11.7,3.52,82.54,82.54,0,0,0,8.26,2.94c2.47.73,7.65,2.67,11.5,4.33a80.19,80.19,0,0,0,7.83,3.07c.46,0-.61-1.76-2.38-4Zm-34-62.91c0-1.29-5.81-4.26-7.32-3.74-.65.22.39,1.37,2.32,2.55,3.86,2.38,5,2.65,5,1.19ZM152.36,209.49c12.16-3.91,22.52-7.49,23-8s.55-2.06,0-3.84l-.9-3-5,2.31c-8.29,3.82-9.5,4-9.5,1.62,0-1.34,1-2.49,2.75-3.21,1.51-.62,4.72-2,7.14-3,2.91-1.28,4.62-1.58,5-.88s1.39-.21,2.39-1.89l1.74-2.94-3.79,1.56c-3.76,1.56-11,4.66-14.78,6.36l-8.5,3.8c-3.58,1.6-10.62,4.6-15.65,6.66-8.47,3.47-9.19,4-9.64,6.89-.56,3.71-.16,4.65,2,4.65.86,0,11.52-3.19,23.69-7.09Zm-15.71-.56c-1.4-1.41-.56-2.5,3.08-4,2.06-.83,5.1-2.12,6.75-2.85,7.65-3.43,10.51-4.36,10.65-3.49.08.53.19,1.42.25,2s-3.69,2.59-8.33,4.49c-10.64,4.36-11.57,4.64-12.4,3.82Zm8-11.53c-.32-.8-.56-.57-.6.6s.19,1.64.52,1.31a2,2,0,0,0,.08-1.91Zm-2.29-3c.49-.42-.27-1-1.7-1.41a5.39,5.39,0,0,1-3.56-3.3c-.86-2.33-1-2-1.05,2.57l-.08,5.23,2.75-1.17a20.07,20.07,0,0,0,3.64-1.92Zm16.12-2.89c.27-.44-.42-.55-1.53-.26a5.1,5.1,0,0,0-2.5,1.31c-.27.43.42.55,1.53.26a5.05,5.05,0,0,0,2.5-1.31Zm-7-1.78c-.31-.31-1.11,0-1.79.68-1,1-.87,1.1.56.56,1-.38,1.54-.94,1.23-1.24ZM168,188.65c.75,1.19.91,1.14.92-.26,0-2.18,2-3.42,3-1.85.51.83.92.55,1.29-.87.3-1.15.25-1.94-.11-1.76s-2.32,1.1-4.36,2-4,2.25-4.44,2.92,0,.63,1-.21c1.54-1.25,1.89-1.25,2.68,0Zm-17.54-2.87c-.31-.31-1.11,0-1.79.68-1,1-.87,1.1.56.56,1-.38,1.54-.94,1.23-1.24Zm11-1c-.31-.31-1.11,0-1.79.68-1,1-.87,1.1.56.56,1-.38,1.54-.94,1.23-1.24Zm4-2c-.31-.31-1.11,0-1.79.68-1,1-.87,1.1.56.56,1-.38,1.54-.94,1.23-1.24Zm12.6-.95c1.27-1.62,1.23-1.64-.62-.28-1.1.81-2.19,1.59-2.42,1.75s.05.28.63.28A4.35,4.35,0,0,0,178.1,181.83Zm-15.68-1.78c1.07-.81,1.52-1.45,1-1.44a7.74,7.74,0,0,0-2.88,1.5c-1.07.81-1.52,1.46-1,1.44A7.73,7.73,0,0,0,162.42,180.05ZM189,178.21c2.38-.13,4.89-3.19,3.89-4.76-.67-1.07-.87-1-.88.41,0,2.29-2.94,3.44-4.1,1.62-.71-1.13-.89-1.07-.9.3a4,4,0,0,1-1.76,2.83c-1.56,1-1.54,1,.25.4a15.81,15.81,0,0,1,3.5-.8Zm-26.48-3.43c-.31-.31-1.11,0-1.79.68-1,1-.87,1.1.56.56,1-.38,1.54-.94,1.23-1.24Zm39.69-1.53c.38-2,.1-2.26-1.9-1.88a5.26,5.26,0,0,0-2.95,1.44c-.38.6.21.72,1.51.31,1.55-.49,2.13-.25,2.13.9,0,2.33.7,1.89,1.21-.77Zm-35.71.33c.34-.55.16-1-.39-1a2.18,2.18,0,0,0-1.61,1c-.34.55-.17,1,.38,1A2.19,2.19,0,0,0,166.48,173.58Zm7.18-1.18c-.32-.8-.56-.57-.6.6s.19,1.64.52,1.31a2,2,0,0,0,.08-1.91Zm5.84-1.62c-.3-.31-1.11,0-1.79.68-1,1-.87,1.1.56.56,1-.38,1.54-.94,1.23-1.24Zm10.86-5c4.39-2.19,6.32-3.76,3.12-2.53-.87.33-1.53,0-1.57-.78s-.43-.45-.88.66-2.89,3.05-5.43,4.32c-4.4,2.19-6.33,3.75-3.12,2.52.87-.33,1.52,0,1.56.79s.43.45.88-.66S187.82,167,190.36,165.75Zm-12.7,1.65c-.32-.8-.56-.57-.6.6s.19,1.64.52,1.31a2,2,0,0,0,.08-1.91Zm4.81-2.81c.35-.56-.05-.73-.94-.39-1.73.67-2.05,1.38-.61,1.38a2.11,2.11,0,0,0,1.55-1Zm3.73-3.18c-.61-.62-1.18-.38-1.58.66s-.21,1.36.37,1,1,.2,1.1,1.19c.11,1.7.15,1.7.6,0a3.31,3.31,0,0,0-.49-2.82Zm5.34-2.6c-.34-.33-1.39.21-2.34,1.2-1.65,1.73-1.62,1.75.61.61,1.29-.66,2.06-1.47,1.73-1.81ZM168.42,88.16c-1.07-.78-2.15-1.2-2.41-.94-.55.55,2,2.32,3.41,2.35.52,0,.07-.63-1-1.41Zm8.54.43a6.66,6.66,0,0,0,2.52-4,8.54,8.54,0,0,1,3.08-4.63c1.33-.87,2.42-2.05,2.42-2.64s-1.09,0-2.41,1.2c-2.34,2.2-2.48,2.21-5.09.5-1.95-1.27-4.43-1.71-9-1.59a24.58,24.58,0,0,1-10.65-1.71c-5.85-2.51-12.87-3.77-11.12-2A6,6,0,0,1,148.06,77c.05,1.46.24,1.62.65.55,1.2-3.16,3.71-3.37,9-.77,3.59,1.77,2.48,7.57-1.75,9.08-1.17.41-1.1.55.28.61,1,0,2.66-1.41,3.87-3.46,2.41-4.08,4.1-4,4.94.13l.59,2.91.41-3.5c.38-3.23.7-3.52,4.12-3.81a12.86,12.86,0,0,1,5.75.79c2.83,1.52,2.73,6.42-.19,8.47-2.47,1.73-1.67,2.1,1.21.56Zm-24-2.72a12.83,12.83,0,0,1-3.25-2.07c-1-.9-1.75-1.07-1.75-.42,0,1.34,2.94,3.16,5,3.09,1.33,0,1.33-.11,0-.6Zm50,95.18c0-3.48,4.07-5.15,5.45-2.24.74,1.54.52,2.32-.94,3.39-2.87,2.09-4.51,1.68-4.51-1.15Z" transform="translate(-22.47 -31.81)"/><path class="c" d="M253.47,437.45c-10.06-.93-14.84-2.42-25-7.82-4.95-2.63-12.15-6-16-7.47s-8.57-3.29-10.5-4c-10.28-4-22.4-5.89-36-5.67-10.95.18-15-.17-21.5-1.86-18-4.66-33.21-5.27-50-2-28.28,5.54-56-.41-55.72-11.94.16-5.75,4.91-12.09,15.37-20.52,6.48-5.23,7.8-6.88,11.11-14a120,120,0,0,0,5.37-13.58,35.61,35.61,0,0,1,3.32-8c1-1.37,5.32-9.47,9.7-18a231.6,231.6,0,0,1,16-26.5c7.08-9.64,8.77-12.84,13.78-26,9-23.57,8.92-23.35,7.68-26.07-.77-1.7-.81-4.72-.13-10.17.54-4.26,1.63-14.27,2.43-22.24s1.92-14.64,2.5-14.83,1.06-1.55,1.06-3c0-2.05.91-3.18,4-4.91,4.74-2.71,5.22-2.76,5-.5a53.13,53.13,0,0,0-.06,5.44l.11,3.7,3.47-1.45c4.54-1.89,4.53-1.89,4.55,1.31,0,2,.25,2.38.93,1.3,1.38-2.18-.62-5-4-5.71-2.38-.48-3.13-1.32-4-4.47-.57-2.13-1.27-3.87-1.55-3.87a31.81,31.81,0,0,0-4.46,2l-4,2v-5.69c0-4.24-.62-6.75-2.47-9.9-1.36-2.32-3.78-8.89-5.39-14.59-2.65-9.45-2.78-10.61-1.46-13.18.79-1.55,1.25-3.35,1-4a3.6,3.6,0,0,1,1-2.86c.8-.92,1.7-3.62,2-6a26.47,26.47,0,0,1,1.91-7c1.06-2.1,1.11-3.26.22-5.21-1.53-3.37.59-16.86,3.37-21.41,2.56-4.19,5.18-5.17,13.78-5.17,3.78,0,7.14-.43,7.47-1s-.33-4.54-1.44-8.92a71.68,71.68,0,0,1-2-18.14c0-9.94.1-10.36,4-17.9,2.21-4.25,5.48-9.15,7.27-10.88,3.1-3,3.39-3.09,6.06-1.7,2.47,1.28,3.25,1.27,6.47-.07a52.82,52.82,0,0,1,7.36-2.36c4.17-.94,6.56.58,9.34,6,1.63,3.16,3.33,3.73,5.28,1.77,1.76-1.75,2.7-.21,4.57,7.41,2.12,8.72,2,12.68-.46,21.79-1.13,4.13-2.65,9.83-3.38,12.67a38.86,38.86,0,0,1-2,6.31c-.39.63.19,3.26,1.29,5.84A82.68,82.68,0,0,1,194.44,108c.92,4.91,2.33,10.21,3.14,11.78,1.15,2.22,5.39,21.74,5.39,24.79,0,.34-12.81,8-28.48,17.06S146,178.41,146,178.82c0,1.45,1.84.72,8.47-3.31a89.32,89.32,0,0,1,8.35-4.66A12.07,12.07,0,0,0,166,169a80.51,80.51,0,0,1,8-4.7c3.58-1.9,8.3-4.53,10.5-5.85s4.12-2.27,4.27-2.12,1.23-.63,2.4-1.72,2.52-1.75,3-1.46.85.13.85-.35c0-.75,6.21-4.25,7.54-4.25.25,0,.46.89.46,2s-1.2,2.59-3,3.52c-1.65.86-3,1.78-3,2.05s1.33-.18,2.95-1c3.76-1.95,4.05-1.92,4.05.35a5.42,5.42,0,0,1-2.25,3.53c-2.2,1.61-2.2,1.63-.06.62,3.05-1.43,3.31-1.33,3.31,1.27,0,1.75-1.11,2.85-4.62,4.55-5,2.43-5.41,2.39-5.63-.62-.09-1.12-.69-1.8-1.36-1.54-1.83.7-2.18-3-.42-4.44,1.32-1.08,1.25-1.16-.47-.57a23.07,23.07,0,0,0-4.15,2.05c-1.71,1.09-2.23,1.11-2.57.1-.24-.71-.68-.29-1,.95s-.17,2,.33,1.67.9.5.9,1.81c0,1.73-.95,2.83-3.53,4.06-4.58,2.18-4.79,2.14-4.23-.79.26-1.36.08-2.23-.39-1.93s-.77,1.82-.65,3.39c.21,2.77.29,2.81,3,1.43,3.55-1.84,3.84-1.8,3.84.54,0,1.25-1.26,2.55-3.53,3.63-1.95.92-3.31,1.9-3,2.19s1.18,0,2-.72a2.47,2.47,0,0,1,2.52-.58c.57.35,1,.21,1-.32,0-.74,12.11-7.16,13.5-7.16a5.19,5.19,0,0,1,.81,2.06c.33,1.27,0,2.28-.88,2.61s-1.43,1-1.43,1.5,1,.25,2.23-.61c2.84-2,3.54-2,4,.19.26,1.22.54.92.93-1,.51-2.47.33-2.68-1.8-2.14-1.91.48-2.36.2-2.36-1.49,0-2,4.31-5.14,6.95-5.14,1.44,0,1.33,3.32-.15,4.8-.93.94-.82,1.2.5,1.2,1,0,1.7.79,1.7,2,0,1.46-1.28,2.58-4.59,4-2.52,1.08-4.95,1.75-5.39,1.47s-1.06.18-1.38,1a2.78,2.78,0,0,1-2.48,1.49,4.9,4.9,0,0,0-3.28,1.67c-1.24,1.5-1.11,1.6,1.28,1a44.27,44.27,0,0,0,4.25-1.27c1.28-.49,1.59.11,1.59,3,0,3.18-.29,3.6-2.5,3.6-3,0-3.19,1.63-.42,4.59l2.08,2.21,7.51-2.32a69.3,69.3,0,0,0,7.94-2.75c.25-.25-.62-5.89-1.91-12.55s-2-12.67-1.54-13.39c1.31-2.07,1-6.31-1.73-23.29-1.41-8.8-2.52-18.93-2.48-22.52a71.82,71.82,0,0,0-.8-11.25c-.49-2.6-.67-4.73-.41-4.73,1.67,0,12.48,6.65,15.9,9.78,4.92,4.5,5.9,8.16,6.92,25.76a123.3,123.3,0,0,1-.87,24.5c-.86,6.86-1.84,16.74-2.17,22-.62,9.79-2,16.12-4.11,19.35-.92,1.37-1,2.64-.17,4.9s.75,3.55,0,4.76-.55,5,.84,14.1c2.73,17.69,2.59,23.17-.71,27.49-2.6,3.41-2.63,3.6-1.94,14.68.38,6.17,1.1,14.15,1.6,17.72s1.34,10.36,1.88,15.08c1.29,11.33,3.26,15.34,8.91,18.07,2.44,1.18,7.38,4.89,11,8.25,9.64,9,29.74,30.87,40.25,43.79,5.06,6.22,10.49,11.95,12.07,12.73,3,1.5,4.75,5.07,7.29,15.08,1.34,5.26,1.31,5.61-.79,8-4.68,5.33-4.69,5.39-2.58,9.54,2.39,4.68,2.5,7.28.42,10.25-4.59,6.55-24.52,10.77-42.94,9.08ZM264,399.83c0-1-3.87-5.51-8.6-10.11-4.94-4.79-9.39-10.12-10.46-12.5-2-4.58-5.33-7.55-24.44-22.15-7.15-5.46-15-12-17.52-14.55-8.49-8.66-13.13-20.14-17.55-43.45-3.65-19.18-8.47-31.44-15.2-38.7-2.32-2.49-2.71-2.59-5.12-1.33-5.39,2.83-14,13.62-23.57,29.43-3.12,5.16-6.48,10.11-7.47,11-5.45,4.87-21.95,30.49-34.57,53.68-4.4,8.09-9.91,16.83-12.25,19.42s-4.25,5-4.25,5.36c0,1.17,5,.68,12.84-1.26,4.21-1,9.91-2.21,12.66-2.59A106.77,106.77,0,0,0,119,370c9.12-2.39,26.15-2.86,36.75-1a108.69,108.69,0,0,0,14.09,1.62c5.82,0,18.5,3.11,23.9,5.86a37.51,37.51,0,0,1,7.09,5c2.53,2.36,4.71,3.23,10.43,4.15,9.56,1.53,21.71,4.78,24.39,6.53,1.18.77,6.33,2.57,11.45,4a92,92,0,0,1,11.85,4c3.48,1.9,5.05,1.81,5.05-.27ZM226,331.6c0-1.29-5.81-4.26-7.32-3.74-.65.22.4,1.38,2.32,2.56,3.87,2.37,5,2.64,5,1.18ZM152.63,209.48c12-3.9,22.25-7.48,22.75-8s.54-2.06,0-3.84l-.91-3L170,196.76a38.32,38.32,0,0,1-5.72,2.24,4.16,4.16,0,0,0-2,.88c-1.3,1.3-2.36.7-2.36-1.34a3,3,0,0,1,1.75-2.64c1-.34,4.21-1.71,7.22-3.06,3.54-1.58,5.6-2.05,5.84-1.33s1.28,0,2.4-1.47c2.06-2.62,1.72-4.79-.42-2.65-2,2-4,1.4-3.61-1.06.21-1.43,1-2.2,2.07-2.12s1.75-.23,1.75-.68.94-1.12,2.08-1.48,1.83-.9,1.53-1.2c-.72-.72-15.41,6.56-16.25,8.06-.42.75-.18.73.7-.08,1.94-1.81,2.94-1.55,2.94.77,0,1.3-1,2.38-2.75,3-1.51.55-3.65,1.41-4.75,1.91s-4.92,2.13-8.5,3.62-8.75,3.74-11.5,5-6.91,3-9.26,4c-2.9,1.16-4.45,2.46-4.85,4.09-.82,3.25.16,5.39,2.49,5.39,1.06,0,11.77-3.2,23.78-7.1ZM137,207.71a3,3,0,0,1,2.25-2.69c1.24-.37,4.05-1.48,6.25-2.46,10.55-4.68,11.5-5,11.5-3.43,0,.79,0,1.73.05,2.07s-3.65,2.13-8.17,4C137,210,137,210,137,207.71Zm32.17-19.19a3.51,3.51,0,0,1,1.67-2.73c.9-.3,1.22.29,1,1.85a3.56,3.56,0,0,1-1.67,2.72C169.23,190.66,168.91,190.07,169.14,188.52Zm-12.42,4c2.63-1,3.08-2.16.5-1.26-3.78,1.34-10.25,4.4-10.25,4.86,0,.27,1.69-.23,3.75-1.11S155.49,193,156.72,192.51Zm-5.22-2.74c-.31-.31-1.12,0-1.79.68-1,1-.87,1.1.56.56,1-.37,1.54-.93,1.23-1.24Zm-1.13-3.52c.71-.53.57-.68-.4-.42a2.86,2.86,0,0,0-1.73,2.33c-.16,1.35,0,1.47.4.42a6.64,6.64,0,0,1,1.73-2.33Zm12.29,1.14c-.32-.8-.56-.56-.61.6s.19,1.65.53,1.31a2,2,0,0,0,.08-1.91Zm-2.19-1.48c1.76-1.41,1.78-1.53.17-1a11.46,11.46,0,0,1-2.75.64,1,1,0,0,0-.92,1c0,1.41,1.18,1.19,3.5-.67Zm21.31-1.86c-.31-.31-.87.25-1.24,1.23-.55,1.43-.43,1.54.56.56.68-.68,1-1.48.68-1.79Zm-16.28-1.28c-.31-.31-1.12,0-1.79.68-1,1-.87,1.1.56.56,1-.37,1.54-.93,1.23-1.24Zm-16.13,0c.28-.46-.12-.83-.9-.83s-1.18.37-.89.83.68.84.89.84.62-.38.9-.84Zm20.6-1.33a.89.89,0,0,0-.94-.83,1.91,1.91,0,0,0-1.45.83c-.29.46.14.83.94.83S170,181.87,170,181.41ZM162.41,180c1.07-.8,1.52-1.45,1-1.43a7.58,7.58,0,0,0-2.88,1.5c-1.07.8-1.52,1.45-1,1.43A7.44,7.44,0,0,0,162.41,180Zm11.09-1.27c-.31-.31-1.12,0-1.79.68-1,1-.87,1.1.56.56,1-.37,1.54-.93,1.23-1.24Zm13.35,0a3,3,0,0,1,2.5-.92c1.91.65,4.35-2.72,3.52-4.85-.69-1.75-.76-1.72-.83.36-.08,2.69-2.88,4.11-4.15,2.11-.71-1.11-.89-1-.9.38,0,1-1.14,2.2-2.52,2.73s-2.5,1.13-2.5,1.36c0,.91,3.59.05,4.88-1.17ZM159,177.58c0-.55-.2-1-.44-1s-.72.45-1.06,1-.14,1,.44,1A1,1,0,0,0,159,177.58Zm12.69-2.19c-.32-.8-.56-.56-.61.6s.19,1.65.53,1.31a2,2,0,0,0,.08-1.91Zm-9.19.19c.34-.55.17-1-.38-1a2.19,2.19,0,0,0-1.62,1c-.34.55-.17,1,.38,1A2.19,2.19,0,0,0,162.47,175.58Zm7.5-2.06c0-1.69-.39-2.82-.86-2.53-.81.5-.37,5.59.48,5.59C169.8,176.58,170,175.2,170,173.52Zm-3.5.06c.34-.55.17-1-.38-1a2.19,2.19,0,0,0-1.62,1c-.34.55-.17,1,.38,1A2.19,2.19,0,0,0,166.47,173.58Zm7.31-1.89c-.16-2.11-.62-2.74-1.71-2.32s-1.11.7-.3,1a2.49,2.49,0,0,1,1.2,2.32c0,1.05.23,1.92.52,1.92s.42-1.31.29-2.89Zm8.69-7.11c.34-.55.17-1-.38-1a2.19,2.19,0,0,0-1.62,1c-.34.55-.17,1,.38,1A2.19,2.19,0,0,0,182.47,164.58ZM170.26,89.1a7.05,7.05,0,0,1-4.12-8.2c.42-2.19,5.15-2.92,9.14-1.4,3.51,1.34,3.78,6.2.47,8.52-2.47,1.73-1.67,2.11,1.21.56a6.48,6.48,0,0,0,2.49-3.92,8.36,8.36,0,0,1,3.09-4.53c1.34-.88,2.43-2.14,2.43-2.8s-.95-.24-2.12.92c-2.1,2.1-2.15,2.11-6.25.26a15.52,15.52,0,0,0-9.35-1.27c-3.78.44-5.85.19-7.51-.9a29,29,0,0,0-7.58-2.63c-6.59-1.41-6.86-1.41-5.39.07a6.71,6.71,0,0,1,1.34,3.75c.12,2.35.17,2.37.57.3.34-1.78,1.11-2.25,3.64-2.25,3.83,0,7.65,2.43,7.65,4.86,0,5.2-6.82,7.31-10.19,3.15-1.45-1.8-1.81-1.91-1.81-.58,0,2,5.49,4.51,8.27,3.79,1.08-.29,2.86-2,3.95-3.87,2.92-5,3.54-4.62,5.17,2.73.56,2.53,3.61,4.75,6.61,4.81.83,0,.06-.6-1.71-1.37Zm32.71,92c0-3.53,4.12-5.28,5.28-2.24.88,2.3.24,3.17-3,4.16-1.93.58-2.25.31-2.25-1.92Zm-18-10.44c0-1.75,5.74-6.09,8.06-6.09,1.74,0,1,3.91-1,5-1.54.82-2,.67-2.39-.72s-.48-1.29-.57.4a3.3,3.3,0,0,1-1.7,2.75c-2.28.88-2.42.8-2.42-1.3Zm2-6.56c0-1.39.19-2.53.42-2.53a10.6,10.6,0,0,0,2-.61c2.41-.92,2,3.3-.42,4.61C187.22,166.52,187,166.34,187,164.11Z" transform="translate(-22.47 -31.81)"/><path class="d" d="M252.47,434.88c-6.61-.88-14.53-3.78-25.49-9.34-18.15-9.2-27.92-13.54-36-16-4.12-1.26-8.05-2.71-8.73-3.23-1.19-.93-35.27-2-65.77-2-10.91,0-17.45.49-24,1.87-17.73,3.72-35.89,2-44-4.1a16.34,16.34,0,0,0-4.89-2.65,5,5,0,0,1-2.87-2c-2.43-3.86,2.59-11.62,13.79-21.33,5.84-5.07,7.62-7.4,10.76-14.08a118.64,118.64,0,0,0,5.11-12.5c2.4-7.95,20.88-41.61,29.06-52.9,4.36-6,8.94-13.56,10.18-16.77l7.48-19.26c4.48-11.55,5.07-13.82,4.16-16.22-.7-1.86-.75-5.23-.15-10.07.5-4,1.54-13.95,2.32-22.11s1.7-15.11,2-15.47,1,0,1.56.83c.61,1,.72.26.34-2.12-.54-3.32-.3-3.76,3.28-6,2.12-1.32,4.14-2.53,4.49-2.71s.7,3.89.78,9l.14,9.33-3.78,1.46a17.81,17.81,0,0,1-5.08,1.31c-.93-.1-1.21,1.06-1,4,.26,3.59.64,4.18,2.8,4.41,1.38.15,12.4-3,24.5-7,19.11-6.35,22-7.6,22.32-9.49.66-4.56-.84-5.29-6.32-3.08-2.75,1.11-5.78,2.43-6.73,2.93-2.46,1.29-2.77,1.17-2.77-1.11,0-1.3,1-2.39,2.75-3,1.52-.56,4.55-1.86,6.75-2.9,3.67-1.73,4.11-1.76,5.25-.27.69.89,1.25,1.1,1.25.46s1.39-2.74,3.09-4.67,2.86-4.09,2.58-4.79-.54-.66-.59.41c-.07,1.52-5.07,4.82-7.3,4.82-.5,0-.77-1-.6-2.25.21-1.42,1-2.19,2.07-2.11s1.75-.21,1.75-.65c0-.77,5.48-3.26,7.5-3.41a5,5,0,0,0,2.32-1.33c1.7-1.6,3.17-1.6,3.25,0,0,.69.47.24,1-1a3.57,3.57,0,0,1,2.69-2.28,7.63,7.63,0,0,0,3.72-1.5c2.72-2,3.56-1.84,3.56.93,0,2.37-2.34,4.13-4.09,3.05-.5-.31-.91-.1-.91.48s-1.1,1.31-2.46,1.65a7.93,7.93,0,0,0-3.52,1.9c-.81,1-.46,1.4,1.43,1.76,1.37.26,2.28.14,2-.28-.58-.92,2.1-2,2.93-1.22,1.15,1.16.61,3.39-.66,2.68-1-.57-1-.44,0,.64,1.9,2,1.52,2.94-1.25,2.94-3.16,0-3.31,2.52-.3,5,1.77,1.43,2.87,1.6,5.75.84,5.83-1.53,12.05-4,12.05-4.82,0-.42-.92-5.19-2.05-10.62-1.4-6.74-1.85-11.59-1.44-15.36s-.24-11.06-1.94-22.21c-1.4-9.19-2.52-19.54-2.49-23a68.41,68.41,0,0,0-.9-11.1c-1.09-5.59-1-5.59,7.58-.42,8.13,4.9,12.05,9.45,13.15,15.26,2.09,11.12,2.36,26,.74,40.57-.89,7.92-2,19-2.47,24.54-.58,6.8-1.54,11.52-2.92,14.31-1.68,3.4-1.89,4.82-1.1,7.68.64,2.32.63,3.92,0,4.73s-.39,5.35.92,14.18c2.72,18.18,2.6,22.75-.7,27.07-2.61,3.42-2.63,3.62-2,14.62,1.05,17.31,4.4,41.25,6.34,45.32a12.93,12.93,0,0,0,6.27,5.95,56.37,56.37,0,0,1,9.41,6.61c7.76,6.85,32.06,33.3,42.38,46.14,5.19,6.47,10,11.75,10.67,11.75,2.51,0,4.92,4.22,7.12,12.46l2.26,8.45-4.39,4c-2.42,2.22-5.12,4-6,4s-1.44.34-1.24.75,1,2,1.76,3.54c5.19,10.37-15.64,19-38.46,16ZM263,402.54c1.06-.57,1.93-1.43,1.93-1.91,0-1.77-8.87-11.7-13-14.58a18.19,18.19,0,0,1-6.53-8c-2.34-5.27-4.23-7-25.44-23.43-24.12-18.67-28.06-25.07-34-55.25-1.65-8.4-3.73-17.52-4.61-20.27-2.3-7.19-8-17.79-11.23-20.88l-2.78-2.65-3.39,2.28c-5,3.37-13.58,14.07-21,26.15-3.57,5.84-8.2,12.48-10.29,14.75-7.21,7.82-24.51,35.61-38.84,62.35a56,56,0,0,1-8.23,11.38c-7.59,7.43-4.4,8.37,13.86,4.07,7.43-1.75,14.35-2.82,31.94-4.92,8.69-1.05,24.14.36,32.06,2.92,17.64,5.69,22.2,7.74,25.72,11.53,2.05,2.21,3.74,2.62,16.65,4,7.93.88,17.78,2.65,22,4s11.23,3.28,15.63,4.37A96.5,96.5,0,0,1,255,402c4.2,1.84,5.53,1.94,8.07.58ZM226,331.61c0-1.07-2.39-2.51-6.68-4-2.76-1-2.75-.94.64,2s6,3.86,6,2Zm-11-6.36a16.78,16.78,0,0,0-2.75-2.75l-2.75-2.43,2.43,2.75C214.16,325.39,215,326,215,325.25Zm-17.31-33.86c-.32-.8-.56-.57-.61.6s.19,1.64.53,1.31a2,2,0,0,0,.08-1.91Zm0-9.07c-.27-.68-.5-.12-.5,1.25s.23,1.94.5,1.25A3.83,3.83,0,0,0,197.63,282.32Zm8-44.93c-.32-.8-.56-.57-.61.6s.19,1.64.53,1.31a2,2,0,0,0,.08-1.91Zm-71.24-34.93c1.53-1.43-.66-1-3.45.69l-2.5,1.51L131,204a10,10,0,0,0,3.45-1.54Zm0-4c.54-.5-.48-.41-2.25.21S129,200,129,200.24c0,.69,4.34-.74,5.48-1.81ZM135,194c0-.27-.9,0-2,.57s-2,1.3-2,1.57.9,0,2-.57S135,194.28,135,194Zm2,13.67c0-1.95,5.37-4.61,7.12-3.53.48.3.88.11.88-.44,0-.79,9.76-5.13,11.54-5.13.26,0,.46.82.46,1.81,0,1.27-1.42,2.29-4.75,3.41-2.61.89-7.11,2.55-10,3.69-5.09,2-5.25,2-5.25.19Zm0-7c0-3.42.35-4,3.15-5,3.93-1.37,3.85-1.37,3.85.25,0,.74-1,1.87-2.25,2.51l-2.25,1.15,2.34-.6c3.67-.94,2.35,2.48-1.59,4.13L137,204.48Zm8.33-2.8c.34-2.37-.16-3-3.66-4.75-3-1.49-4.26-2.82-4.89-5.25-.46-1.79-1.06-3.25-1.35-3.25a30.6,30.6,0,0,0-4.43,2l-3.92,2,.06-5.27c0-4-.69-6.77-2.94-11.25A98.73,98.73,0,0,1,118.71,157c-2.21-8.19-2.31-9.38-1-11.84.79-1.5,1.2-3.33.93-4.06S119,139,120,138q1.93-1.74,1.93-5.69a15.8,15.8,0,0,1,1.69-6.8c1.46-2.46,1.51-3.22.36-5.36-1.94-3.62.24-16.8,3.59-21.73,2.8-4.1,5.15-4.86,15.11-4.86h6.5l-.62-3c-.35-1.65-.86-4.46-1.15-6.25-.43-2.62-.35-2.84.42-1.12,1.23,2.75,6.62,4.7,9.19,3.32a10.81,10.81,0,0,0,3.43-4q2.88-5.57,4-.22c1.15,5.36,2.32,7.06,5.32,7.72,3.45.76,9.13-1.7,9.13-4,0-.79,1.41-3,3.14-5s2.92-3.78,2.66-4-1.26.39-2.21,1.45c-1.71,1.88-1.8,1.88-6.05,0a14.57,14.57,0,0,0-8.85-1.29,13.78,13.78,0,0,1-8.86-1.4c-5.35-2.49-14-4-12.08-2.08a6.79,6.79,0,0,1,1.39,3.8c.13,2.35.17,2.38.57.3.34-1.79,1.1-2.25,3.75-2.25A10.2,10.2,0,0,1,158,77.4c1.93,1.55,2.11,2.25,1.28,4.75s-1.45,2.92-4.89,2.92c-3.1,0-4.12-.47-4.9-2.25-.55-1.24-1.51-2.25-2.14-2.25-1.77,0-2.35-3.61-2.36-14.85,0-10.14.06-10.5,4-18.07,2.21-4.25,5.48-9.14,7.27-10.88,3.14-3,3.36-3.1,6.18-1.63s3.31,1.35,7.66-.53c8.39-3.61,11.59-2.53,16.52,5.58,1,1.65,1.41,1.72,3.38.54,2.86-1.71,3.35-1,5.41,8.17,2.35,10.41,2.4,10-4.43,34.45-1.8,6.45-1.87,7.58-.62,10,.78,1.51,2.39,7.46,3.57,13.22s2.76,11.62,3.51,13c1.29,2.37,6,24.86,5.34,25.5-.17.17-12.91,7.6-28.31,16.51S146.29,178,146.06,178.19s-.1.7.29,1.09,1.71.09,2.92-.69c3-1.88,10.7-6,11.26-6,.24,0,.44.65.44,1.44s-2.25,2.66-5,4.16-4.79,2.94-4.53,3.21,1.17-.09,2-.79,1.53-.87,1.54-.39.34.42.75-.13a16.08,16.08,0,0,1,3.73-2.69c2.32-1.3,2.93-2.27,2.68-4.25-.18-1.41.12-2.56.65-2.56s4-1.82,7.63-4,7.65-4.49,8.85-5a39.12,39.12,0,0,0,7.93-4.69c.79-.66,1.74-.9,2.1-.54s.66.16.66-.44.95-1.4,2.11-1.77a30,30,0,0,0,5.64-3.07c4.32-2.93,5.25-3,5.25-.34,0,1.44-1.27,2.65-4.25,4-2.33,1.09-6.05,3.05-8.25,4.35-2.37,1.39-4.25,1.95-4.61,1.37s-.86,0-1.15,1.1-.14,2.08.36,2.08.9.82.9,1.82-1.4,2.48-3.53,3.5C178.05,171,178,171,178,168.73c0-1,1.18-2.37,2.63-3s2.4-1.43,2.13-1.71c-.53-.52-7.76,3.43-7.76,4.24,0,.25.45.18,1-.16s1,.28,1,1.38a3.43,3.43,0,0,1-1,2.62,2.71,2.71,0,0,0-.88,2.31c.1,1.45.18,1.46.54.11.23-.87,2-2.34,3.92-3.25,4.37-2.09,4.42-2.08,4.42.31,0,1.37-1.37,2.6-4.5,4-2.47,1.13-4.5,2.25-4.5,2.5,0,.62,3.25-.61,4.83-1.84.93-.73,1.56-.65,2.11.24s.94.69,1.33-.81c.69-2.66,3.73-2.76,3.73-.13,0,1.29-1.26,2.51-3.75,3.62-2.06.92-7.35,3.36-11.75,5.43-6.61,3.1-8.06,3.48-8.36,2.19a3.59,3.59,0,0,1,1.5-3c1.79-1.39,1.78-1.42-.14-.69a13.67,13.67,0,0,1-3.25.8c-.68,0-1.25.31-1.25.63s-1.28,1.16-2.85,1.86c-2.18,1-2.76,1.8-2.44,3.49s-.34,2.56-3.76,4c-2.3,1-3.95,2-3.66,2.32s2.41-.44,4.71-1.62,4.45-1.89,4.75-1.58,1.07-.16,1.71-1a5.7,5.7,0,0,1,3.84-1.73c1.47-.09,2.9-.72,3.16-1.41.79-2.07,2.71-1.4,2.36.82-.24,1.54-2.22,2.81-7.82,5-4.12,1.61-8.69,3.61-10.15,4.43-3.88,2.18-5,1.88-4.52-1.26Zm6.23-7.8c1.87-1.5,1.85-1.51-.31-.47-1.93.94-2.25.82-2.25-.86a3,3,0,0,1,1-2.46c.56-.28.45-.39-.25-.26-1.43.29-2.41,5.6-1,5.6a7.22,7.22,0,0,0,2.81-1.55Zm4.89-6.55c2-1.15,3.57-1.71,3.58-1.25s.47.1,1-.82a6.74,6.74,0,0,1,3.9-2.31c3.44-.76,4.74-2.12,5.22-5.44s2.57-3.8,3.13-.89c.33,1.73.47,1.49.58-.95l.13-3.27-5,2.55c-3,1.52-4.77,3-4.37,3.65s1,.53,1.59-.54c1.2-2.15,2.82-2.08,2.79.12,0,1.21-2.64,3-8.45,5.75-4.63,2.2-8.45,4.34-8.48,4.75-.07,1.13.51,1,4.4-1.35Zm-7-.73c.28-.46-.14-.83-.94-.83s-1.46.37-1.46.83a.89.89,0,0,0,.94.83A1.91,1.91,0,0,0,149.37,182.74Zm20.6-1.33a.9.9,0,0,0-.94-.84,1.9,1.9,0,0,0-1.45.84c-.29.45.14.83.94.83S170,181.86,170,181.41Zm4-2a.89.89,0,0,0-.93-.84c-.51,0-1.13-1-1.38-2.25-.3-1.5-.42-1.23-.37.84.05,1.82.61,3.08,1.38,3.08s1.3-.38,1.3-.83Zm-18,10.36a2.9,2.9,0,0,1,1.75-2.58c1-.34,2.32-.88,3-1.2s1.25.17,1.25,1.38a2.9,2.9,0,0,1-1.75,2.59c-1,.34-2.31.88-3,1.2S156,191,156,189.77Zm13.17-1.26a3.51,3.51,0,0,1,1.67-2.72c.9-.3,1.22.29,1,1.84a3.58,3.58,0,0,1-1.67,2.73C169.23,190.65,168.91,190.06,169.14,188.51Zm34.43-5.67c-1.4-1.4-.42-4,1.9-5.09,1.38-.62,2.5-.73,2.5-.24a8.38,8.38,0,0,0,.54,2.3c.56,1.46-3.82,4.14-4.94,3Zm-15.42-8.51c.41-2.87,3.82-3.71,3.82-.94a2.91,2.91,0,0,1-1.58,2.58c-2.4.92-2.58.78-2.24-1.64Zm13.82-.15c0-2.16,1.64-3.61,4.09-3.61,1.72,0,.92,3.93-1,5-2.75,1.47-3.07,1.33-3.07-1.36Zm-9.32-1.74a2.44,2.44,0,0,1,1.35-2.88c2.65-1.42,3-1.26,3,1.4,0,3-3.59,4.28-4.32,1.48Zm-7.5-2.11c.41-2.87,3.82-3.71,3.82-.94a2.91,2.91,0,0,1-1.58,2.58c-2.4.92-2.58.78-2.24-1.64ZM198,169.6c0-1.84,4.41-5,6.95-5,2.32,0,.93,4-1.9,5.48-3.91,2-5.05,1.92-5.05-.45Zm-8.27-1a3.17,3.17,0,0,1,3-4.06c2,0,1.55,3.8-.59,4.94-1.51.81-2,.64-2.38-.88Zm5.27-2.86a5.31,5.31,0,0,1,1.25-3.12c1-1.09.87-1.12-.93-.2-3,1.53-3.32,1.43-3.32-.86,0-1.34,1.7-3,5.25-5a38.39,38.39,0,0,1,6-3c1.7,0,.59,3.86-1.5,5.26l-2.25,1.52,2.75-.51c2.23-.41,2.75-.14,2.75,1.41,0,1.28-1.49,2.64-4.52,4.11C195,168,195,168,195,165.77Zm-8-1.66c0-1.4.19-2.54.42-2.54a10.31,10.31,0,0,0,2-.6c2.41-.93,2,3.3-.42,4.6C187.22,166.51,187,166.33,187,164.11Zm-19.05-76.6a6,6,0,0,1-1.75-5.25c.26-2.74.73-3.23,3.36-3.49,5.2-.5,8.44,1.31,8.44,4.72a5.78,5.78,0,0,1-10.05,4Z" transform="translate(-22.47 -31.81)"/><path class="e" d="M253,430.55c-10.37-2.16-21.61-7.14-27.82-12.32-2.3-1.92-5.53-3.79-7.19-4.16a17.27,17.27,0,0,1-6.46-3.91c-3-2.8-3.34-3.64-2.67-6.14.95-3.55,3-4.22,13.64-4.34a46.12,46.12,0,0,1,14.5,1.93c6.1,1.89,19.09,5,21,5,1.21,0,7-5,7-6,0-1.73-10-12.79-13.5-15a15.57,15.57,0,0,1-5.9-7.37c-2.51-5.65-5.36-8.3-25.6-23.79-6.87-5.27-14.78-12-17.56-15-8.31-8.83-13-20.81-16.94-43-2-11.29-4.79-20.4-8.63-28.08-2.84-5.69-8.34-12.8-9.89-12.8-.45,0-3.28,2.26-6.29,5-5.26,4.81-13.33,15.79-21,28.57a70.42,70.42,0,0,1-7.23,9.88c-3.55,3.76-16.77,23.35-23.66,35-5.81,9.87-14.09,24.7-16,28.66a45.14,45.14,0,0,1-6.69,8.82c-3.43,3.58-5,6.13-5.3,8.47-.38,3.23-.28,3.34,2.64,2.93,9.8-1.38,22.65-3.49,26.54-4.35,7.9-1.75,32.87-2.43,40.49-1.1,15.21,2.65,25.33,9.65,22.31,15.42-.53,1-3.07,2.81-5.63,4-4.3,2-6.45,2.16-27.17,2.32q-3.93,0-7.69.1c-20.87.4-37.8,1.78-48.21,4-8,1.67-20.3,1.31-24.06-.71a36.83,36.83,0,0,0-8.34-2.1c-7.75-1.21-11.7-2.75-11.7-4.57,0-.78,1.09-3.53,2.42-6.13,2.3-4.49,6.34-8.85,15-16.12,4.08-3.44,10.54-15.35,12.66-23.33A48.9,48.9,0,0,1,74,341.07c1.54-2.75,6-11.3,10-19a225.42,225.42,0,0,1,15.31-25c8.3-11.28,8.36-11.4,20.91-44.44,1.65-4.34,1.86-6,1-8.24q-1-2.79-.14-9.55c.51-3.72,1.58-13.69,2.39-22.16s1.72-15.65,2-16,1,0,1.4.75.77,0,.69-2.28c-.1-3.21.33-3.88,4-6.1l4.15-2.5v3.47c0,3-.42,3.62-3.4,4.7-1.87.67-3.4,1.6-3.4,2.05s1.33.14,2.95-.7a18.38,18.38,0,0,1,3.5-1.53c.3,0,.55,2.39.55,5.3,0,5.2-.07,5.33-3.75,6.75-2.06.79-4.09,1.6-4.5,1.78s-.75-.3-.75-1.09,1.88-2.17,4.18-3.07,3.91-1.91,3.59-2.23-2,.14-3.7,1-3.56,1.35-4.1,1-1,1.78-1,5.42c0,4.74.38,6.21,1.75,6.9s8.5-1.35,24.75-6.71c20.24-6.68,23-7.86,23.32-9.82.69-4.87-.77-5.26-8.57-2.25-6.67,2.57-7.25,2.65-7.25,1,0-1.24,1.43-2.38,4.46-3.53a41.66,41.66,0,0,1,5.25-1.76,5.49,5.49,0,0,0,2.22-1.5c1.25-1.24,1.61-1.19,2.75.37.73,1,1.32,1.29,1.32.65s1.35-2.69,3-4.57,3-4.33,3-5.43a2.84,2.84,0,0,1,1.44-2.56c2-.79,2.55,1.6.65,3-1.35,1-1.25,1.12.69.63,1.74-.44,2.13-1.05,1.64-2.57a2.91,2.91,0,0,1,2.76-3.74c1.39,0,1.34,3.53-.06,4.6-1.19.9-.87,1.19,1.66,1.56,1.71.26,2.92.14,2.67-.25-.55-.91,2.15-2,3-1.19,1.17,1.17.62,3.39-.65,2.63-1-.6-1-.44,0,.78,1.44,1.78.72,2.85-1.91,2.85s-2.3,3.47.57,5.35c2.22,1.45,2.94,1.41,9.25-.55a47.47,47.47,0,0,0,7.69-2.85c.46-.4-.17-6-1.39-12.49-1.58-8.35-1.95-12.52-1.29-14.36s.23-7.07-1.42-17.6c-1.29-8.25-2.52-18.81-2.72-23.48s-.68-11.13-1.06-14.37l-.68-5.89,5.3,2.87a62.5,62.5,0,0,1,10.26,7.42l5,4.55,1.53,14.2c1.39,13,1.37,15.57-.15,29.95-.92,8.67-2.1,20.41-2.62,26.09-.6,6.63-1.64,11.76-2.9,14.31-1.59,3.2-1.78,4.65-1,7.48.66,2.36.63,3.92-.07,4.77s-.46,5.24.93,14.68c2.71,18.47,2.62,22.22-.67,26.53-2.61,3.42-2.64,3.65-2,14.69.35,6.16,1.49,18,2.54,26.28,2.22,17.57,4,22,9.74,24.78a49.53,49.53,0,0,1,7.68,4.88c5.86,4.64,32.76,33.68,44,47.51,5.48,6.74,10.5,12.25,11.17,12.25a5.07,5.07,0,0,1,2.76,1.75c1.74,2,5.75,14.27,5.75,17.66,0,2.54-5.81,8.59-8.25,8.59-2.16,0-7.74,6-7.74,8.32,0,3.26-1.88,5.41-6.23,7.17-5,2-18.31,2.83-24.78,1.48Zm-27-98.86c0-1.16-4.54-4.12-6.32-4.12-.77,0-3.6-1.85-6.29-4.12l-4.89-4.13,5.07,4.94c7.55,7.36,12.43,10.28,12.43,7.43Zm-18.59-15.62a8.54,8.54,0,0,0-2.08-2.5c-.49,0,.45,1.82,1.95,3.75,1.72,2.23,1.82,1.33.13-1.25Zm-3.06-5c-.33-.85-.81-1.33-1.07-1.06s-.18.95.18,1.54c1,1.59,1.56,1.28.89-.48Zm-6.69-19.71c-.27-.68-.5-.12-.5,1.25s.23,1.94.5,1.25A3.83,3.83,0,0,0,197.63,291.32Zm.05-9c-.24-1.23-.44-.22-.44,2.25s.2,3.49.44,2.25A14.15,14.15,0,0,0,197.68,282.32Zm8-29.93c-.32-.8-.56-.56-.61.6s.19,1.65.53,1.31a2,2,0,0,0,.08-1.91Zm1-7c-.32-.8-.56-.56-.61.6s.19,1.65.53,1.31a2,2,0,0,0,.08-1.91Zm-1-8.07c-.27-.68-.5-.12-.5,1.25s.23,1.94.5,1.25A3.83,3.83,0,0,0,205.63,237.32Zm-4-22.93c-.32-.8-.56-.56-.61.6s.19,1.65.53,1.31a2,2,0,0,0,.08-1.91Zm-68.13-15.28c2.49-1.89.71-1.91-2.56,0-1.6.92-1.94,1.45-.94,1.47a7.07,7.07,0,0,0,3.5-1.43Zm72.14-3.27c-.26-1-.48-.42-.5,1.23s.18,2.45.46,1.77a5.79,5.79,0,0,0,0-3ZM137,207.74c0-1.61,5.77-4.73,6.81-3.69s-.9,3.36-3.73,4.35c-2.66.92-3.08.84-3.08-.66Zm8-3.32c0-1.27,4.3-3.59,9.75-5.28,3.91-1.22,2.65,2.24-1.44,4C147.3,205.59,145,206,145,204.42Zm-8-3.72c0-2.85.47-4,1.75-4.4a36.35,36.35,0,0,0,3.5-1.22c1.24-.51,1.75-.25,1.75.89a1.48,1.48,0,0,1-1.31,1.6,7.16,7.16,0,0,0-3.25,1.45c-1.88,1.4-1.87,1.43.31,1.28,1.24-.08,2.25-.51,2.25-.94a.92.92,0,0,1,1-.79c1.72,0,1.09,3-.75,3.61a25.34,25.34,0,0,0-3.5,1.47c-1.52.82-1.75.44-1.75-3Zm8.22-2.52c.12-1.38.7-2.19,1.39-1.93s3-.47,5.26-1.61c5-2.54,5.13-2.54,5.13-.07,0,2.22-1.54,2.71-2.34.75-.34-.84-.52-.76-.58.27,0,.83-1.88,2.29-4.08,3.25-5.07,2.19-5,2.2-4.78-.66ZM144,193.82c-6.09-2.59-6.49-2.9-6.83-5.35-.51-3.65-1.65-4.22-5-2.48-4.45,2.3-4.78,2.08-4.79-3.17,0-3.29-1-6.74-3.17-11.25a98.61,98.61,0,0,1-5.37-14.81c-1.88-7.14-2-8.8-1-11.74.68-1.89,1-3.83.7-4.31s.35-1.67,1.44-2.66c1.33-1.2,2-3.07,2-5.73a15.84,15.84,0,0,1,1.69-6.8c1.43-2.42,1.5-3.24.41-5.27-1.88-3.51.33-17,3.58-21.81,2.75-4.11,5.09-4.87,15.08-4.87h6.5l-.63-3.75c-.34-2.06-.89-4.87-1.21-6.25l-.58-2.5,1.33,2.42c1.44,2.62,6,4.62,8.38,3.7.82-.31,2.43-2.15,3.57-4.09s2.43-3.53,2.86-3.53,1.3,2,1.93,4.54c.88,3.49,1.76,4.77,3.86,5.57a8.1,8.1,0,0,0,10.41-4A28.81,28.81,0,0,1,183.07,80c1.23-1.31,2-2.63,1.71-2.92s-1.09.16-1.79,1c-1.6,1.93-2.92,1.92-6.9-.07-2.31-1.15-4.51-1.4-8-.92-3.78.52-5.7.24-8.71-1.28C154.84,73.52,146,72,146,73.43a1.64,1.64,0,0,0,1.16,1.36c.78.26.89,1.35.36,3.34l-.81,2.94-.75-2.5c-.42-1.37-.8-7.06-.86-12.64-.1-9.81,0-10.39,3.55-17.25a71,71,0,0,1,7.07-11.1c3.39-3.95,3.45-4,6.4-2.44,2.75,1.42,3.41,1.38,8.47-.51,8.9-3.33,10.86-2.68,15.8,5.28,1.7,2.72,1.84,2.76,3.7,1.09,1.06-1,2.18-1.49,2.49-1.18,1,1,4.39,15.12,4.39,18.25,0,2.91-1.38,8.75-5.78,24.6-2.09,7.49-2.09,7.66-.26,12.5a101.14,101.14,0,0,1,3.53,13.9c.92,5,2.28,10,3,11.1,1.81,2.8,5.77,24.63,4.6,25.35-.5.31-13.33,7.75-28.5,16.53S146,178.61,146,179.33c0,1.07.43,1.08,2.25.07a6.5,6.5,0,0,1,3-1c.41.12.75-.24.75-.79a1.17,1.17,0,0,1,1.25-1,9.3,9.3,0,0,0,3.75-2c3-2.34,4-2.48,4-.55,0,1.4-11.68,8.3-13.22,7.8-.43-.13-.78.2-.78.75,0,1.59,1.95,1.18,5.1-1.06l2.9-2.07v2.07c0,1.17-.65,2.06-1.5,2.06s-1.5.45-1.5,1c0,1.39.4,1.29,4.44-1.1,3.37-2,3.56-2,3.53-.25,0,1.23-1.87,2.79-5.5,4.62-5.24,2.65-5.47,2.68-5.47.75,0-1.11.48-2,1.06-2s.78-.45.43-1c-1.09-1.76-2.49,0-2.49,3.14,0,2.6.29,2.92,2.09,2.34,1.64-.51,2-.28,1.75,1.07-.52,2.65-3.9,3.38-7.84,1.71Zm14-.14c0-2.23,5-4.76,6-3.07.45.71.91.36,1.25-1,.68-2.59,2.73-2.76,2.73-.22,0,1.3-1.53,2.5-5,3.94-4.69,2-5,2-5,.3Zm-5-2.55a2.65,2.65,0,0,1,1-2.06c.55-.34,1,.31,1,1.44s-.45,2.06-1,2.06S153,191.92,153,191.13Zm3-1.53a2.77,2.77,0,0,1,1.75-2.41c1-.34,2.32-.88,3-1.2s1.25.15,1.25,1.28-1.14,2.3-3,3c-2.64,1-3,.91-3-.67Zm13-.84a2.89,2.89,0,0,1,1.57-2.57c1.18-.46,1.49-.06,1.25,1.56C171.38,190.54,169,191.4,169,188.76Zm-6-2.14c0-1.21,1.19-2.61,3-3.55,2-1,3-1.17,3-.41s.89.07,2-1.23c1.4-1.68,2-1.92,2-.86s.28,1.14,1.08-.25c1.24-2.13,3.92-2.31,3.92-.27,0,.81-2.13,2.44-4.75,3.62s-6,2.78-7.5,3.55c-2.55,1.3-2.75,1.26-2.75-.6Zm10,.06c0-2.47,2.73-3.54,3.32-1.3.32,1.21.48,1.05.57-.56.06-1.23.3-2.25.53-2.25a10.31,10.31,0,0,0,2-.6c1.13-.44,1.58,0,1.58,1.48s-1.09,2.55-3.62,3.61c-4.51,1.88-4.38,1.9-4.38-.38Zm-12-4c0-1.68,2.35-3.19,5.5-3.53a3.06,3.06,0,0,0,1.8-1.36c1.1-1.71,2.7-1.57,2.7.24,0,.81-2.25,2.62-5,4-4.69,2.38-5,2.42-5,.64Zm42.63.16c-1.2-1.2-.62-4.09,1-4.69,2.64-1,3.42-.7,3.42,1.36s-3.23,4.47-4.37,3.33ZM156,180.63c0-1.13.45-2.06,1-2.06s1,.65,1,1.44a2.64,2.64,0,0,1-1,2.06C156.42,182.41,156,181.76,156,180.63Zm3-1.44a3.47,3.47,0,0,1,1.87-2.55c1.32-.7,1.73-1.74,1.38-3.53-.26-1.4,0-2.54.51-2.54s4.41-2,8.6-4.57,8.06-4.29,8.62-3.94,1,.17,1-.39.9-1.51,2-2.1c1.7-.91,2-.76,2,1a3.2,3.2,0,0,1-1.75,2.79c-1,.39-5.62,2.85-10.36,5.47-7.57,4.18-8.55,5-8.16,7.11.32,1.65-.1,2.54-1.39,3-1,.36-2.4.91-3.09,1.23s-1.25-.09-1.25-1Zm19.66-.06c-.35-.93.21-1.95,1.46-2.62,1.8-1,2-.83,1.71,1.16C181.41,180.36,179.45,181.27,178.63,179.13Zm12.52-.8a3.08,3.08,0,0,1,2.08-2.57c2.21-.42,3.53,2.7,1.64,3.9-2.5,1.58-4.05,1-3.72-1.33ZM172,177.2a4,4,0,0,1,1.42-2.56c1.12-.93,1.51-.8,1.88.63s.5,1.33.59-.45c.06-1.23.56-2.3,1.11-2.37l1.95-.25a5,5,0,0,0,2.2-1.38c1.81-1.8,2.85-1.54,2.85.72,0,1.42-1.55,2.68-5.53,4.5-6.44,3-6.47,3-6.47,1.16Zm11-.55c0-1.14.19-2.08.42-2.08a11.21,11.21,0,0,0,2.09-.64c1.32-.5,1.6-.13,1.33,1.74-.43,3.06-3.84,3.92-3.84,1Zm13.56.2c-.63-1.62,1.63-4.28,3.63-4.28,1.51,0,.82,4.78-.77,5.4-2.14.82-2.12.83-2.86-1.12Zm-30.38-1.94c.49-2.51,2.82-2.86,2.82-.42,0,1.23-.64,2.08-1.57,2.08A1.25,1.25,0,0,1,166.15,174.91Zm22-.58c.41-2.87,3.82-3.71,3.82-.94a2.91,2.91,0,0,1-1.58,2.58c-2.4.92-2.58.78-2.24-1.64Zm-18-.73c.19-1.3.91-2.56,1.59-2.78,1.8-.59,1.54,2.27-.34,3.83-1.4,1.16-1.55,1-1.25-1.05Zm31.84.15c0-1.82,1.78-3.18,4.16-3.18.54,0,.84,1,.66,2.25-.42,3-4.82,3.83-4.82.93Zm-9-1.64c0-1.4.19-2.54.42-2.54a10.31,10.31,0,0,0,2-.6c2.41-.93,2,3.3-.42,4.6C193.22,174.51,193,174.33,193,172.11Zm-19-1.35a2.92,2.92,0,0,1,1.57-2.58c1.18-.45,1.49-.05,1.25,1.57C176.38,172.54,174,173.4,174,170.76Zm11.18-.43c.41-2.87,3.82-3.71,3.82-.94a2.91,2.91,0,0,1-1.58,2.58c-2.4.92-2.58.78-2.24-1.64ZM198,169.6c0-1.84,4.41-5,6.95-5,2.32,0,.93,4-1.9,5.48-3.91,2-5.05,1.92-5.05-.45Zm-20-1c0-1.77.44-2.1,2.54-2a5.46,5.46,0,0,0,2.07-1.5c2.1-2.1,3.39-1.93,3.39.46,0,1.77-.43,2.11-2.53,2a5.27,5.27,0,0,0-2.07,1.5C179.26,171.14,178,171,178,168.57Zm12-.92c0-1.14.19-2.08.42-2.08a11.21,11.21,0,0,0,2.09-.64c1.32-.5,1.6-.14,1.33,1.74-.43,3.06-3.84,3.92-3.84,1Zm5-2.06c0-1.3,1.36-2.67,4-4,4.88-2.48,6-2.53,6-.22,0,1.15-1.64,2.61-4.52,4C194.94,168.05,195,168.05,195,165.59Zm-8.42-3.48c-.71-3.77-.18-5.54,1.65-5.54a6.31,6.31,0,0,0,3-1.67c1.38-1.25,2.14-1.39,3-.55,1.33,1.34-.79,4.56-2.6,3.94-.6-.2-1.92.49-2.94,1.55-1.8,1.88-1.79,1.91.34,1.24,1.86-.59,2.13-.35,1.85,1.64-.56,3.91-3.49,3.49-4.26-.61Zm5.42-.46c0-1.29,1.8-3,5.38-5C203.66,153,204,153,204,155.5c0,1.28-1.79,3-5.37,5C192.28,164.11,192,164.17,192,161.65Zm3.67-6.74c-1.29-1.29-.64-2.38,2.58-4.35,4.07-2.48,4.75-2.48,4.75,0,0,1.17-1.19,2.59-2.95,3.5-3.36,1.74-3.48,1.76-4.38.86ZM170.47,88.8c-2.71-.54-4.5-3-4.5-6.31,0-3.88,4.26-5.12,9.46-2.76A3.76,3.76,0,0,1,178,83.61c0,3.79-3.25,6-7.5,5.19ZM150,84.14c-.66-.79-1.05-2.93-.88-4.75.27-2.8.76-3.37,3.14-3.64a9.41,9.41,0,0,1,5.34,1.33c2,1.34,2.39,2.17,1.85,4.31a6.66,6.66,0,0,1-1.84,3.41c-1.95,1.24-6.35.86-7.61-.66Z" transform="translate(-22.47 -31.81)"/><path class="f" d="M254.33,426.59a21.09,21.09,0,0,1-6.15-2.87c-1.66-1.18-3.1,4-3.88,4-1.88,0-37.87-21.1-30-24.83,2-.93,43.43-5.25,42.14,6.11-.42,3.67-3,3,2.56-2.17,3.28-3,6-5.88,6-6.33,0-1.69-8.15-11-12.6-14.4a23.63,23.63,0,0,1-6.88-8.32c-2.4-5.17-5.27-7.81-26-23.94-16.24-12.63-20.45-17-24.84-25.82-4-8-5.59-13.73-9.63-34.19-2.19-11.05-3.85-16.53-7-23.14-3.8-7.93-9.17-15.17-11.26-15.17-1.62,0-10.84,9.36-15.67,15.91-2.68,3.63-7,10.19-9.7,14.59A142,142,0,0,1,130.74,301c-6.37,7.61-21.39,31.43-32.27,51.21-3.85,7-9.36,15.34-12.25,18.54-3.16,3.5-5.25,6.74-5.25,8.14,0,2.51-4.71,7.67-7.06,7.72-2,0-4.36,2-5.81,4.72-1.35,2.53-1.17,2.64,2.07,1.32,5.11-2.09,21.2-6.05,36.4-9.18,13.09-2.7,25.53-4.78,29.69-4.52,13.68.86,20.76.23,18.25,2.91-.26.27.32,1.07-3.71,2.19-14.71,4.08-50.42,11.87-46.59,9.11,14.31-10.35,41.43-14.7,54.93-12.63,12.44,1.9,11.91,9.84,10.84,10.21-2.22.79-76.95,4.84-80.23,4.84a48.69,48.69,0,0,0-11.33,1.56c-6,1.74-15.08,1.61-14.74-.2.13-.69-1.34-.39-3.7.75-6.67,3.23-20,1.92-20-1.95s6.31-12.37,13.58-18.57c6.16-5.26,8.31-7.91,11.51-14.17a72.49,72.49,0,0,0,5-12.31,36.51,36.51,0,0,1,3.14-8.11c1.11-1.92,5.61-10.47,10-19a220.47,220.47,0,0,1,16-26.45c6.19-8.4,9-13.31,12-21,2.12-5.53,5.58-14.36,7.67-19.64,3.5-8.85,3.69-9.8,2.38-12.29a7.42,7.42,0,0,1-.79-4.67c.35-1.08,1.45-10.78,2.45-21.55,1.92-20.64,3.93-28.2,3.22-12.11-.31,7.22-.08,9.55,1,10.47s6.21-.38,24.86-6.53l23.43-7.73,0-4.5c0-5.4,1.4-8.08,5.83-11.46a11.37,11.37,0,0,1,12.72-1c3.1,1.61,3.11,3.46,0,3.46-2.54,0-3.19,1-2.05,3.11,1.9,3.57,4.21,3.92,11.53,1.75,3.8-1.13,7.31-2.43,7.8-2.9s-.06-5.7-1.39-12.45c-1.77-9-2-12.14-1.19-14s.43-6.72-1.87-21.7c-1.63-10.62-2.87-21.33-2.75-23.81a70.11,70.11,0,0,0-.62-10.38l-.84-5.88,5.23,2.88c7.38,4.08,13.72,9.88,14.92,13.66,2.18,6.89,3.37,26.8,2.18,36.72-.62,5.23-1.57,15.58-2.09,23-1,14.16-2.29,21-4.67,24.81-1.14,1.85-1.19,3-.27,5.79.86,2.62.86,3.82,0,4.86s-.66,4.63.91,14.89c2.74,18,2.68,21.42-.44,25.65-2.19,3-2.5,4.4-2.47,11.45,0,13.52,4.32,44.39,6.83,49.3,1.2,2.34,2.57,4.25,3,4.25,5.09,0,32.57,27.11,53.2,52.49,5.57,6.85,11.57,13.3,13.32,14.34,2.66,1.56,3.57,3.13,5.39,9.28a57.2,57.2,0,0,1,2.19,9.45c0,2.56-5.94,8.44-8.51,8.44-1.06,0-3.73,1.76-6,3.9-6.45,6.24-13.87,9.58-21.53,9.72a54.14,54.14,0,0,1-9.64-.6Zm-28.36-95c0-1.28-6.1-5.05-7.13-4.41-.87.54-8.3-6.48-11.74-11.08-1.69-2.26-1.95-2.4-1.06-.58,1.32,2.7,11.07,12.77,14.9,15.39,2.78,1.9,5,2.2,5,.68Zm-22.7-22.48c-.91-1.91-1.84-3.31-2.05-3.09-.46.46,2.57,6.58,3.26,6.58.25,0-.29-1.57-1.21-3.49Zm-4.62-12.7c-.32-.79-.56-.56-.6.61s.19,1.64.52,1.31a2,2,0,0,0,.08-1.92Zm-1-12.56c-.22-2.06-.4-.37-.4,3.75s.18,5.82.4,3.75A44.72,44.72,0,0,0,197.7,283.82Zm.93-7.5c-.28-.68-.5-.12-.5,1.25s.22,1.94.5,1.25A3.83,3.83,0,0,0,198.63,276.32Zm7.18-23.75c0-1.37-.63,0-1.38,3a45.6,45.6,0,0,0-1.31,6.5C203.24,264.08,205.81,255,205.81,252.57Zm.85-7.73c-.25-1-.48-.42-.5,1.23s.19,2.45.46,1.77a5.69,5.69,0,0,0,0-3ZM205,234.53l-1.08-2.46.52,2.5a45.4,45.4,0,0,1,.67,5l.17,2.5.39-2.54a10.66,10.66,0,0,0-.67-5Zm-2.5-8c-.76-2.45-1.42-3.74-1.46-2.86-.07,1.84,2,8.17,2.51,7.66.19-.18-.28-2.34-1-4.8Zm-.18-13.46c.43-2.79.34-3.39-.3-2-.87,1.92-1.43,7.28-.67,6.42A20.76,20.76,0,0,0,202.31,213.07Zm1.34-6.69c-.32-.79-.56-.56-.6.61s.19,1.64.52,1.31a2,2,0,0,0,.08-1.92Zm1-4c-.32-.79-.56-.56-.6.61s.19,1.64.52,1.31a2,2,0,0,0,.08-1.92Zm1-6.56c-.25-1-.46-.17-.46,1.75s.21,2.71.46,1.75A8.26,8.26,0,0,0,205.66,195.82ZM117.47,390.9c-2.46-.67-27,4.49-27,3.25,0-.52,24.63-8.62,27.2-9.76,5.42-2.4,13.77-2.07,18,.7l31.51,3.83-31.21-.11c-1.74,1.62,36.77-.12,31.21.11-3.92.15-48.58,2.28-49.68,2ZM137,208c0-1.48,5.79-5,6.71-4.09,1.15,1.15-.71,3.42-3.63,4.44-2.5.87-3.08.81-3.08-.35Zm-10-.85c0-.77.9-1.62,2-1.91,2.4-.63,2.78,1.78.42,2.68s-2.42.79-2.42-.77Zm5-2.21c0-.78.19-1.41.42-1.41a9.87,9.87,0,0,0,2-.61c1-.38,1.58-.06,1.58.89s-.9,1.72-2,2c-1.3.34-2,0-2-.88Zm13-.83c0-.78,1.34-1.72,3-2.08s3.24-1.07,3.56-1.58c.89-1.44,2.45-1.08,2.45.57,0,.81-1.63,2.16-3.62,3-4.5,1.87-5.38,1.89-5.38.09Zm-17.43-.46c-.27-.44-.09-2.1.39-3.71.76-2.54.88-2.62.95-.6.05,1.27.54,2,1.09,1.69s1,0,1,.83c0,1.63-2.67,3-3.43,1.79Zm9.43-.58a3.63,3.63,0,0,1,2-2.54c1.52-.82,2-.76,2,.22a4.07,4.07,0,0,1-2,2.55C137.31,204.37,137,204.34,137,203.11Zm-5-1.79c0-1,.18-1.75.41-1.75a11.56,11.56,0,0,0,2.13-.66c1.13-.43,1.58-.23,1.31.57s-.8,1.17-1.27,1.08-1.25.44-1.71,1.17c-.65,1-.85.93-.87-.41Zm23-.69c0-1.13.45-2.06,1-2.06s1,.65,1,1.44a2.65,2.65,0,0,1-1,2.06C155.42,202.41,155,201.76,155,200.63Zm-13-.56c0-.83.45-1.5,1-1.5s1,.67,1,1.5-.45,1.5-1,1.5S142,200.89,142,200.07Zm-5-1a3.63,3.63,0,0,1,2-2.54c1.52-.82,2-.76,2,.22a4.07,4.07,0,0,1-2,2.55C137.31,200.37,137,200.34,137,199.11Zm8.22-.93c.12-1.45.69-2.2,1.45-1.91s2.62-.2,4.29-1c2.89-1.44,3-1.42,3,.51,0,1.34-.48,1.85-1.42,1.49a1.56,1.56,0,0,0-2,1c-.32.82-1,1.23-1.51.92a1.15,1.15,0,0,0-1.57.43c-1.15,1.86-2.49,1-2.29-1.37Zm14.78.36a1.78,1.78,0,0,1,1.5-2A1.46,1.46,0,0,1,163,198a2.38,2.38,0,0,1-1.5,2C160.45,200.32,160,199.88,160,198.54ZM130.05,198c0-1.17.28-1.41.6-.61a2,2,0,0,1-.08,1.92c-.33.33-.57-.26-.52-1.31Zm1.92-1c0-.78.19-1.41.42-1.41a9.87,9.87,0,0,0,2-.61c1-.38,1.58-.06,1.58.88s-.9,1.73-2,2c-1.3.34-2,0-2-.88Zm32,.59v-1.75c0-.41.56-.75,1.25-.75a4.77,4.77,0,0,0,2.64-1.33c1-1,1.59-1,2.12-.16s.89.68,1.32-.43c.86-2.24,2.67-2,2.67.42a1.76,1.76,0,0,1-1.94,2,3.36,3.36,0,0,0-2.57,1,1.13,1.13,0,0,1-1.49.49,1.12,1.12,0,0,0-1.49.48c-.81,1.31-2.51,1.32-2.51,0Zm-22-1.5c0-.83.45-1.5,1-1.5s1,.67,1,1.5-.45,1.5-1,1.5S142,196.89,142,196.07Zm-14.65-1c-.88-2.29-.08-3.39,4.41-6.07,3.21-1.91,4.24-2.17,4.24-1.08a2.42,2.42,0,0,1-1.5,2,2.12,2.12,0,0,0-1.42,1.86c.06,1,.19,1,.58,0a1.9,1.9,0,0,1,1.42-1.25c2.46,0,.44,2.69-3.14,4.2-3.42,1.43-4.13,1.47-4.59.28Zm4.63-3.23c0-1-.33-1.32-.76-.75a12,12,0,0,1-1.65,1.75c-.5.41-.15.75.76.75a1.68,1.68,0,0,0,1.65-1.75Zm23,3.31a2.65,2.65,0,0,1,1-2.06c.55-.34,1,.31,1,1.44s-.45,2.06-1,2.06S155,195.92,155,195.13Zm3-1.59a1.78,1.78,0,0,1,1.5-2A1.46,1.46,0,0,1,161,193a2.38,2.38,0,0,1-1.5,2C158.45,195.32,158,194.88,158,193.54Zm-16-.46a6.5,6.5,0,0,1-4.62-4.59c-1.35-4-2.68-4.61-5.88-2.52-3.61,2.37-4,2.05-4-3.2,0-3.41-.94-6.68-3.22-11.25a94.46,94.46,0,0,1-5.47-15.13c-2.16-8.32-2.18-8.82-.55-12.25,1.14-2.39,1.32-3.57.55-3.57s-.18-1,1-2.32a8.53,8.53,0,0,0,2.18-6,15.73,15.73,0,0,1,2-6.9c1.81-3,1.84-3.37.38-5s-1.44-2.65-.27-9.89c1.69-10.41,4.74-15.47,9.83-16.31a74.52,74.52,0,0,1,9.48-.61h5.87l-.62-3.91a41.61,41.61,0,0,0-1.3-5.75c-.52-1.45-.25-1.36,1.25.41,2.31,2.7,7.32,3.77,9.43,2a13.89,13.89,0,0,0,2.8-4.16c1.53-3.45,3.05-2.5,4.08,2.56,1.42,7,10.95,7.59,14.28,1a28.65,28.65,0,0,1,3.75-5.54c2.63-2.79,2.73-4.48.14-2.13-1.85,1.67-2.17,1.67-6.46,0a16.54,16.54,0,0,0-9-1,11.9,11.9,0,0,1-8.29-1.25,33.87,33.87,0,0,0-8.47-2.6l-4.66-.68.39,4.3c.31,3.4.21,3.78-.49,1.8-.48-1.38-.93-6.93-1-12.34-.1-9.8-.08-9.89,4.42-18.6,2.49-4.81,5.65-9.81,7-11.1,2.24-2.11,2.83-2.23,5.76-1.17,2.75,1,4.08.87,8.49-.8,8.1-3.08,9.67-2.74,13.79,3,3.47,4.84,3.63,4.94,5.93,3.43,2.63-1.73,2.28-2.43,5.59,11,1.32,5.39.4,12.62-3.06,24-4,13.27-4.15,14.12-2.5,18.07a107.76,107.76,0,0,1,3.61,13.88c1.13,5.6,2.68,11.3,3.44,12.68,1.19,2.17,5.78,24.06,5.14,24.55-.13.09-12.94,7.51-28.48,16.46-15.9,9.17-28.25,16.91-28.25,17.7s.38,1.17.85.88.63.65.36,2.09-.1,2.37.39,2.06.75,1.83.56,4.85c-.37,5.81-.55,5.93-6.16,3.92Zm7.26-2.76c0-2.34.24-3.35.5-2.25a4.92,4.92,0,0,0,1.5,2.65c1.17.74.27,3.85-1.11,3.85-.5,0-.9-1.91-.89-4.25Zm12.41,1.84c-.56-1.47.09-2.59,1.5-2.59,1.11,0,1.06,2.74-.07,3.43-.49.31-1.13-.07-1.43-.84Zm-8.67-1a2.65,2.65,0,0,1,1-2.06c.55-.34,1,.31,1,1.44s-.45,2.06-1,2.06S153,191.92,153,191.13Zm3-1.65c0-2.08,2-2.71,2.06-.66,0,.69.47.24,1-1,1.08-2.69,3-3,3-.47,0,1.06-1.21,2.24-3,2.91-2.68,1-3,.93-3-.78Zm9,.7a2.35,2.35,0,0,1,1.5-2c1-.39,1.5,0,1.5,1.39a1.8,1.8,0,0,1-1.5,2A1.45,1.45,0,0,1,165,190.18Zm4-1.42a2.88,2.88,0,0,1,1.57-2.58c1.17-.45,1.49-.06,1.25,1.57C171.38,190.53,169,191.4,169,188.76Zm-18.17-1.3c-.09-1-.2-2.68-.25-3.64a3.52,3.52,0,0,0-1-2.4c-.49-.36-.55-1.48-.12-2.5.66-1.59.89-1.43,1.64,1.15a9.51,9.51,0,0,1,.44,4.17,1.43,1.43,0,0,0,1,1.71c.79.31,1.44.15,1.44-.34s1.35-1.57,3-2.39c2.73-1.37,3-1.35,3,.18,0,1-1.86,2.55-4.5,3.81-4.31,2.07-4.48,2.08-4.64.25Zm12.17-.92a1.78,1.78,0,0,1,1.5-2A1.46,1.46,0,0,1,166,186a2.38,2.38,0,0,1-1.5,2C163.45,188.32,163,187.88,163,186.54Zm10,.22a2.88,2.88,0,0,1,1.57-2.58c1.17-.45,1.49-.06,1.25,1.57C175.38,188.53,173,189.4,173,186.76Zm-6.33-1.6c-.56-1.47.09-2.59,1.5-2.59,1.11,0,1.06,2.74-.07,3.43-.49.31-1.13-.07-1.43-.84Zm10.33,0a4.12,4.12,0,0,1,1.49-2.61c1.21-1,1.61-.92,2.14.48a2.1,2.1,0,0,1-.74,2.59c-2,1.27-2.89,1.12-2.89-.46Zm17.43-1.1c-1.7-1.28-1.73-1.46-.24-1.49a3,3,0,0,1,2.35,1c1.09,1.77-.06,2-2.11.46ZM161,182.79c0-1.61,4.81-4.73,5.79-3.75s-.8,3.65-1.79,3c-.56-.34-1-.19-1,.33s-.68,1.21-1.5,1.53c-1,.37-1.5,0-1.49-1.14Zm9,.34c0-2,2.05-3.09,3-1.61.51.83.92.56,1.3-.87.62-2.37,3.73-2.86,3.73-.59,0,.81-1.63,2.16-3.62,3-4.43,1.84-4.38,1.84-4.38.07Zm12-.33a2.87,2.87,0,0,1,1.5-2.59c.87-.34,1.5,0,1.5.77a4.17,4.17,0,0,1-1.5,2.59C182.22,184.61,182,184.48,182,182.8Zm-29-.73c0-.83.45-1.5,1-1.5s1,.67,1,1.5-.45,1.5-1,1.5S153,182.89,153,182.07Zm50.63.8c-1.21-1.21-.62-4.09,1-4.69,2.63-1,3.42-.7,3.42,1.35s-3.23,4.48-4.37,3.34ZM156,180.63c0-1.13.45-2.06,1-2.06s1,.65,1,1.44a2.65,2.65,0,0,1-1,2.06C156.42,182.41,156,181.76,156,180.63Zm30.5,1c-.73-1.19,1.16-4,2.69-4,1.33,0,.56,4.26-.85,4.72a1.69,1.69,0,0,1-1.84-.71ZM159.12,179a3.1,3.1,0,0,1,1.69-2.23c.87-.29,1.23.19,1,1.33a3.12,3.12,0,0,1-1.69,2.23C159.26,180.64,158.9,180.16,159.12,179Zm9,0a3.1,3.1,0,0,1,1.69-2.23c.87-.29,1.23.19,1,1.33a3.12,3.12,0,0,1-1.69,2.23C168.26,180.64,167.9,180.16,168.12,179Zm10.85-.26a2.9,2.9,0,0,1,1.57-2.58c1.17-.45,1.49-.06,1.25,1.57C181.38,180.53,179,181.4,179,178.76Zm12.67,1.14a2.26,2.26,0,0,1,1-3.76c2.4-.92,4,1,2.37,2.89-1.39,1.67-2.33,1.91-3.37.87ZM152,178.07c0-.83.45-1.5,1-1.5s1,.67,1,1.5-.45,1.5-1,1.5S152,178.89,152,178.07Zm11-.88a2.71,2.71,0,0,1,1-2.12c.55-.34,1,.06,1,.88a2.71,2.71,0,0,1-1,2.12C163.42,178.41,163,178,163,177.19Zm9.15-.17a3.11,3.11,0,0,1,1.7-2.23c.86-.29,1.22.19,1,1.33a3.13,3.13,0,0,1-1.7,2.23C172.26,178.64,171.9,178.16,172.12,177Zm10.85-.45c0-1.1.19-2,.42-2a9.87,9.87,0,0,0,2-.61c1.12-.43,1.58,0,1.58,1.39a2.92,2.92,0,0,1-1.58,2.61c-2.3.88-2.42.81-2.42-1.39Zm13.6.41c-.78-2-.13-3,2.39-3.7,1.58-.41,2,0,2,1.78a3.21,3.21,0,0,1-1.58,2.9c-2.14.82-2.12.83-2.82-1Zm-41.6-.3c0-1.15,5-4.43,5.71-3.73.92.92-.64,3.78-1.7,3.12-.56-.34-1-.14-1,.44s-.67,1.06-1.5,1.06-1.5-.4-1.5-.89ZM166.12,175a3.11,3.11,0,0,1,1.7-2.23c.86-.29,1.22.19,1,1.33a3.13,3.13,0,0,1-1.7,2.23C166.26,176.64,165.9,176.16,166.12,175Zm9.85.17a4.12,4.12,0,0,1,1.49-2.61c1.21-1,1.61-.92,2.14.48a2.11,2.11,0,0,1-.73,2.59c-2,1.27-2.9,1.12-2.9-.46Zm12.18-.86c.41-2.88,3.82-3.72,3.82-.94a2.88,2.88,0,0,1-1.58,2.57c-2.4.92-2.59.79-2.24-1.63Zm13.82-.65c0-1.74,1.8-3.11,4.08-3.11,1.57,0,1,3.75-.66,4.39-2.62,1-3.42.7-3.42-1.28Zm-40-.51c0-1.22,15.7-11.6,17.53-11.6.26,0,.47.79.46,1.75,0,1.17-3,3.33-9,6.56-6.6,3.53-9,4.4-9,3.29Zm8.15-.15a3.11,3.11,0,0,1,1.7-2.23c.86-.29,1.22.19,1,1.33a3.13,3.13,0,0,1-1.7,2.23C170.26,174.64,169.9,174.16,170.12,173Zm10.47,0c-.31-.8.31-1.88,1.42-2.47,1.63-.88,2-.73,2,.88,0,2.34-2.62,3.57-3.38,1.59ZM193,172.8c0-1.88,1.78-4.23,3.2-4.23,1.67,0,.71,4-1.2,5-1.66.89-2,.76-2-.77ZM174.12,171a3.11,3.11,0,0,1,1.7-2.23c.86-.29,1.22.19,1,1.33a3.13,3.13,0,0,1-1.7,2.23C174.26,172.64,173.9,172.16,174.12,171Zm11-.61a3.15,3.15,0,0,1,2.08-2.65c2.48-.48,2.22,2.49-.33,3.85-1.85,1-2,.86-1.75-1.2Zm12.83-.72c0-1.9,5.68-5.44,7.21-4.49,1.7,1.05.65,3.39-2.16,4.84-3.88,2-5.05,1.93-5.05-.35Zm-20-1c0-2.25,2.62-3.56,3.34-1.67.51,1.33-1.08,3.56-2.54,3.56C178.33,170.57,178,169.72,178,168.68Zm12-1c0-1.14.19-2.07.42-2.07a11.21,11.21,0,0,0,2.09-.64c1.31-.51,1.59-.14,1.33,1.74-.44,3.05-3.84,3.92-3.84,1Zm-7.45-.8a2.08,2.08,0,0,1,.67-2.43c2-1.28,2.78-1,2.78,1.05,0,2.43-2.64,3.48-3.45,1.38ZM195,165.59c0-2.43,7.67-6.75,9.23-5.19s.2,2.91-4.26,5.18c-4.8,2.45-5,2.45-5,0Zm-8-1.32c0-1.44,1.95-3.7,3.2-3.7,1.49,0,.81,3.78-.78,4.39-2.2.85-2.42.78-2.42-.69Zm-6-2.17a3.63,3.63,0,0,1,2-2.53c1.68-.9,2-.76,2,.86a2.84,2.84,0,0,1-1.58,2.53C181.16,163.82,181,163.75,181,162.1Zm11-.44c0-1.32,1.74-2.88,5.45-4.9,3-1.62,5.7-2.7,6-2.4,1.6,1.59-.06,3.49-5.45,6.21-5.56,2.81-6,2.89-6,1.09Zm-5.83-2.26c.18-1.28,1-2.33,1.75-2.33,2.32,0,2.36,2.28.06,3.51-1.93,1-2.11.91-1.81-1.18Zm4.49-2.28c-.65-1.69,1.82-4,3.3-3.08s1.25,2.35-.86,3.48c-1.42.76-2,.66-2.44-.4Zm5-3c-.35-.92.66-2.21,2.76-3.5,4.11-2.54,4.58-2.55,4.58-.08,0,1.18-1.19,2.59-2.95,3.5C196.4,155.91,196.32,155.91,195.63,154.12Zm-28.69-67.6c-2.87-5.36.67-9,6.94-7.1,4.33,1.3,5.17,3.27,3.06,7.21-1.5,2.8-8.48,2.72-10-.11Zm-16.3-2.2c-1.3-1-1.73-2.33-1.5-4.8.29-3,.7-3.49,3.41-3.75a7.61,7.61,0,0,1,5.5,1.69c2.3,1.88,2.34,2.13.89,4.8a5.55,5.55,0,0,1-8.3,2.06Z" transform="translate(-22.47 -31.81)"/><path class="g" d="M252.44,425.69a10.53,10.53,0,0,1-3.31-2.43c-1.91-2.3.75-6.7,8.95-14.78,3.79-3.74,6.9-7.59,6.9-8.54s-4.06-5.68-9-10.49c-5.33-5.16-9.66-10.31-10.58-12.56-1.81-4.42-.23-3-22.51-20.41-9.56-7.47-19.13-15.53-21.27-17.9-7.16-7.94-12.15-21.41-16.11-43.5-2.91-16.23-9.16-31.47-15.56-38-1.92-1.94-2-1.94-5.44-.09-4.61,2.48-13.54,13.48-22,27.07-3.75,6.05-7.62,11.76-8.58,12.69-5.16,5-19.71,26.8-28.46,42.64C93.2,361.62,89.68,367.32,85.64,371.5c-2.43,2.52-4.69,5.74-5,7.17-.89,3.85-4.49,7.91-7,7.91-1.32,0-4,1.85-6.67,4.58-7.83,8-15.49,10.32-23.49,7-3.94-1.65-3.88-1.5-2.26-5.25,2.49-5.78,6.87-11.14,13.6-16.65,6-4.9,7.51-6.85,11-14a81.66,81.66,0,0,0,4.73-11.66c1.4-6.4,21.35-43,29.35-53.85,7.18-9.74,8.44-12.21,15.47-30.42,7.27-18.84,7.57-20,6.2-22.62-.8-1.55-1.19-3.07-.86-3.4s1.43-9.9,2.46-21.29,2.1-20.93,2.37-21.21.5,3.81.5,9.07c0,7.8.29,9.67,1.58,10.16.88.34,12.13-2.8,25-7L176,202.42v-5.08c0-5.9,3-10.68,7.92-12.73a13.25,13.25,0,0,1,11.66,1.45c1.84,1.39,1.8,1.46-.72,1.49-3.81,0-4.5,2.85-1.45,5.9,2.3,2.3,2.8,2.4,6.27,1.34,2.4-.74,4.12-.81,4.73-.2s0,5.08-1.73,12.35c-3.23,13.7-3.24,14.07-.57,21.92,4.6,13.58,4.3,20.87-1.66,39.86-5.62,17.95-4.8,28,3.58,43.77,3.76,7.05,17.86,21.09,21.19,21.09.43,0,.78-.79.77-1.75,0-1.71-5-5.25-7.35-5.25s-10.52-9.24-14-15.81c-8-15.32-8.48-24.89-2.12-44.19,3.34-10.13,3.79-12.63,3.75-21,0-7.11-.58-11-2.18-15.41-2.64-7.3-2.67-12.91-.13-22.59a61.24,61.24,0,0,0,2-11.25c0-2.06.44-3.75.95-3.75a14,14,0,0,0,3.36-.92l2.41-.92-2.37-12.33c-1.77-9.16-2.12-12.92-1.36-14.62s.33-6.8-1.62-19.5c-1.46-9.47-2.74-21-2.84-25.71a92.9,92.9,0,0,0-1-12.29l-.78-3.8,5.37,3.14c7.28,4.26,11.61,7.62,13.45,10.43,2.22,3.4,4.29,26.86,3.31,37.52-.43,4.68-1.25,14.58-1.83,22-1.36,17.68-1.85,20.69-4.21,25.69-1.64,3.48-1.8,4.84-.94,7.94.72,2.61.71,4.12,0,5s-.62,4.52.48,12.57c3.16,22.92,3.16,23.42.25,27.24-2.4,3.14-2.6,4.16-2.56,13.22,0,14,4.19,44.32,6.62,48.48,1.13,1.93,4,4.33,6.83,5.81,7.51,3.86,34,31.31,53.39,55.29,3.45,4.27,7.54,8.43,9.11,9.23,2.17,1.12,3.31,2.94,4.87,7.74,3.86,11.87,3.83,13.06-.5,16.63-2.1,1.72-4.45,3.14-5.22,3.14s-3.13,1.56-5.23,3.46c-7,6.29-13.35,8.85-22.91,9.21-4.68.18-9.42-.08-10.54-.56ZM137,207.58a1,1,0,1,1,1,1A1,1,0,0,1,137,207.58Zm3.08-1.59c0-1.16.29-1.4.61-.6a2.05,2.05,0,0,1-.08,1.92c-.34.33-.57-.26-.53-1.32Zm-8-1c0-1.16.29-1.4.61-.6a2.05,2.05,0,0,1-.08,1.92c-.34.33-.57-.26-.53-1.32Zm9.92.65a2.14,2.14,0,0,1,1-1.56c.55-.34,1,.08,1,.94s-.45,1.56-1,1.56A1,1,0,0,1,142,205.64Zm4.08-1.65c0-1.16.29-1.4.61-.6a2.05,2.05,0,0,1-.08,1.92c-.34.33-.57-.26-.53-1.32ZM134,203.58a1,1,0,1,1,1,1A1,1,0,0,1,134,203.58Zm15.08-.59c0-1.16.29-1.4.61-.6a2.05,2.05,0,0,1-.08,1.92c-.34.33-.57-.26-.53-1.32Zm-20.88-1.91c0-1.65.24-2.21.5-1.23a5.8,5.8,0,0,1,0,3c-.28.67-.48-.12-.46-1.77Zm1.88.91c0-1.16.29-1.4.61-.6a2.05,2.05,0,0,1-.08,1.92c-.34.33-.57-.26-.53-1.32Zm6.92.53c0-.58.45-.78,1-.44s1,.81,1,1.06-.45.44-1,.44A1,1,0,0,1,137,202.52Zm15-.38c0-.86.45-1.56,1-1.56a1,1,0,0,1,1,.94,2.14,2.14,0,0,1-1,1.56C152.42,203.42,152,203,152,202.14ZM132.05,201c0-1.16.29-1.4.61-.6a2.05,2.05,0,0,1-.08,1.92c-.34.33-.57-.26-.53-1.32Zm8,0c0-1.16.29-1.4.61-.6a2.05,2.05,0,0,1-.08,1.92c-.34.33-.57-.26-.53-1.32Zm-6.08-.85c0-.86.45-1.56,1-1.56a1,1,0,0,1,1,.94,2.14,2.14,0,0,1-1,1.56C134.42,201.42,134,201,134,200.14Zm8,.5a2.14,2.14,0,0,1,1-1.56c.55-.34,1,.08,1,.94s-.45,1.56-1,1.56A1,1,0,0,1,142,200.64Zm13-.56c0-.83.45-1.5,1-1.5s1,.67,1,1.5-.45,1.5-1,1.5S155,200.9,155,200.08Zm-10-1c0-.83.45-1.5,1-1.5s1,.67,1,1.5-.45,1.5-1,1.5S145,199.9,145,199.08ZM130.05,198c0-1.16.29-1.4.61-.6a2.05,2.05,0,0,1-.08,1.92c-.34.33-.57-.26-.53-1.32Zm29.92.09c0-.83.45-1.5,1-1.5s1,.67,1,1.5-.45,1.5-1,1.5S160,198.9,160,198.08ZM132.05,197c0-1.16.29-1.4.61-.6a2.05,2.05,0,0,1-.08,1.92c-.34.33-.57-.26-.53-1.32Zm8,0c0-1.16.29-1.4.61-.6a2.05,2.05,0,0,1-.08,1.92c-.34.33-.57-.26-.53-1.32Zm8.92.09c0-.83.18-1.5.4-1.5s.65.67,1,1.5.14,1.5-.39,1.5S149,197.9,149,197.08Zm15,.06a2.64,2.64,0,0,1,1-2.06c.55-.34,1,.31,1,1.44s-.45,2.06-1,2.06S164,197.93,164,197.14Zm-30-1c0-.86.45-1.56,1-1.56a1,1,0,0,1,1,.94,2.14,2.14,0,0,1-1,1.56C134.42,197.42,134,197,134,196.14Zm8,0c0-.86.45-1.56,1-1.56a1,1,0,0,1,1,.94,2.14,2.14,0,0,1-1,1.56C142.42,197.42,142,197,142,196.14Zm10,0c0-.86.45-1.56,1-1.56a1,1,0,0,1,1,.94,2.14,2.14,0,0,1-1,1.56C152.42,197.42,152,197,152,196.14Zm-23.77-2.56c0-1.93.21-2.72.46-1.75a8.26,8.26,0,0,1,0,3.5C128.41,196.29,128.2,195.5,128.2,193.58ZM155,195.19a2.71,2.71,0,0,1,1-2.11c.55-.34,1,0,1,.88a2.73,2.73,0,0,1-1,2.12C155.42,196.42,155,196,155,195.19Zm13-.11c0-.83.45-1.5,1-1.5s1,.67,1,1.5-.45,1.5-1,1.5S168,195.9,168,195.08Zm4-1.44c0-1.14.45-2.06,1-2.06s1,.65,1,1.44a2.65,2.65,0,0,1-1,2.06C172.42,195.42,172,194.77,172,193.64ZM142,193.09a6.58,6.58,0,0,1-4.57-4.57C136.08,184.44,135,184,131,186L128,187.63v-4.29a25.67,25.67,0,0,0-2.91-10.28,118.79,118.79,0,0,1-5.62-15.38c-2.58-9-2.62-9.55-1.06-12.82.89-1.88,1.37-3.84,1.05-4.36s.12-1.64,1-2.5,1.56-3.22,1.57-5.25a15.8,15.8,0,0,1,2-7c1.82-3,1.86-3.49.5-5.58s-1.33-3.24.13-11.1c2.35-12.67,4.08-14.34,15.73-15.2l8.86-.66-.6-4.39c-.6-4.37-.59-4.38,1.61-2.84,3.88,2.72,7.57,2,9.9-2,2.59-4.4,3.47-4.41,4.29,0a7.65,7.65,0,0,0,7.25,6.53c3.76,0,7.34-2.21,8-4.93a16.72,16.72,0,0,1,3.68-5.82c3.11-3.3,1.93-4.7-1.41-1.68-1.58,1.43-2,1.42-5-.12-2.38-1.23-4.7-1.55-8.51-1.16s-6.07.09-8.57-1.25a31,31,0,0,0-8.54-2.5l-5.19-.72.45,3.84c.44,3.71.42,3.74-.57.84-.56-1.65-.92-7-.8-12,.2-8.06.59-9.72,3.9-16.5,2-4.14,5.33-9.1,7.33-11,3.17-3,3.91-3.31,5.61-2.25,2.56,1.61,4.46,1.55,7.93-.25A28.12,28.12,0,0,1,176.83,33c4-.64,4.1-.61,7.26,4.47,3.25,5.24,4.58,6,6.67,3.94,1.72-1.72,2.27-.73,4.33,7.9s1.58,14.09-2.08,25.29c-3.91,11.93-4.39,15.67-2.59,20.16a111.29,111.29,0,0,1,3.65,14.09c1.1,5.48,2.61,10.93,3.35,12.11,1.49,2.36,5,20.45,4.4,23-.19.9-12.58,8.69-27.85,17.53-24.23,14-27.48,16.19-27.33,18.25.1,1.29.5,5.16.89,8.6.8,6.92.7,7-5.51,4.76Zm15.95,0c0-.83.45-1.5,1-1.5s1,.67,1,1.5-.45,1.5-1,1.5S158,193.9,158,193.08Zm-24-.39a2.18,2.18,0,0,1,1-1.61c.55-.34,1-.17,1,.38a2.19,2.19,0,0,1-1,1.62C134.42,193.42,134,193.24,134,192.69Zm16-.05a2.14,2.14,0,0,1,1-1.56c.55-.34,1,.08,1,.94s-.45,1.56-1,1.56A1,1,0,0,1,150,192.64Zm12-.45a2.71,2.71,0,0,1,1-2.11c.55-.34,1,0,1,.88a2.73,2.73,0,0,1-1,2.12C162.42,193.42,162,193,162,192.19Zm-9-1.05c0-.86.45-1.56,1-1.56a1,1,0,0,1,1,.94,2.14,2.14,0,0,1-1,1.56C153.42,192.42,153,192,153,191.14Zm3-.95a2.71,2.71,0,0,1,1-2.11c.55-.34,1,0,1,.88a2.73,2.73,0,0,1-1,2.12C156.42,191.42,156,191,156,190.19Zm9.49.36a1.53,1.53,0,0,1,.63-2.05c1.67-1,2.56.8,1.11,2.25-.67.67-1.25.6-1.74-.2ZM132,189.68c0-.49.71-1.16,1.58-1.5,2.45-.94,2.77-.73,1.42.9S132,191.07,132,189.68Zm28-1.49a2.71,2.71,0,0,1,1-2.11c.55-.34,1,0,1,.88a2.73,2.73,0,0,1-1,2.12C160.42,189.42,160,189,160,188.19Zm9-.11a1.5,1.5,0,1,1,1.5,1.5A1.5,1.5,0,0,1,169,188.08Zm-18-.44a2.14,2.14,0,0,1,1-1.56c.55-.34,1,.08,1,.94s-.45,1.56-1,1.56A1,1,0,0,1,151,187.64Zm22.18-.73a2.89,2.89,0,0,1,1.57-2.08c1.84-.62,1.53,2.43-.32,3.14-1.1.42-1.48.1-1.25-1.06ZM163,186.08c0-.83.45-1.5,1-1.5s1,.67,1,1.5-.45,1.5-1,1.5S163,186.9,163,186.08Zm-8.5-.5c-.34-.55-.17-1,.38-1a2.19,2.19,0,0,1,1.62,1c.34.55.17,1-.38,1A2.19,2.19,0,0,1,154.47,185.58Zm23.18-.41c-.57-1.47.08-2.59,1.49-2.59,1.12,0,1.07,2.73-.06,3.43-.49.31-1.14-.07-1.43-.84Zm-27.68-1a2.71,2.71,0,0,1,1-2.11c.55-.34,1,0,1,.88a2.73,2.73,0,0,1-1,2.12C150.42,185.42,150,185,150,184.19Zm8-.11c0-.83.45-1.5,1-1.5s1,.67,1,1.5-.45,1.5-1,1.5S158,184.9,158,184.08Zm9,0c0-.83.45-1.5,1-1.5s1,.67,1,1.5-.45,1.5-1,1.5S167,184.9,167,184.08Zm4-1.44c0-1.14.45-2.06,1-2.06s1,.65,1,1.44a2.65,2.65,0,0,1-1,2.06C171.42,184.42,171,183.77,171,182.64Zm23.5.94c-.34-.55-.14-1,.44-1a1,1,0,0,1,1.06,1c0,.55-.2,1-.44,1S194.81,184.13,194.47,183.58ZM153,182.14c0-.86.45-1.56,1-1.56a1,1,0,0,1,1,.94,2.14,2.14,0,0,1-1,1.56C153.42,183.42,153,183,153,182.14Zm8,.5a2.14,2.14,0,0,1,1-1.56c.55-.34,1,.08,1,.94s-.45,1.56-1,1.56A1,1,0,0,1,161,182.64Zm21-.48a1.59,1.59,0,0,1,1.59-1.58c1.76,0,1.45,2.15-.4,2.77-.65.22-1.19-.32-1.19-1.19Zm-17-1a2.71,2.71,0,0,1,1-2.11c.55-.34,1,0,1,.88a2.73,2.73,0,0,1-1,2.12C165.42,182.42,165,182,165,181.19Zm10-.64c0-2.28,1.53-2.64,2.33-.56a1.53,1.53,0,0,1-.89,2c-.95.37-1.44-.11-1.44-1.41Zm28.65.54c-.49-1.28,1.92-3.51,3.79-3.51,1.31,0,.43,3.84-1,4.39-2.13.82-2.12.82-2.77-.88Zm-54.65-1c0-.86.45-1.56,1-1.56a1,1,0,0,1,1,.94,2.14,2.14,0,0,1-1,1.56C149.42,181.42,149,181,149,180.14Zm7,.5a2.14,2.14,0,0,1,1-1.56c.55-.34,1,.08,1,.94s-.45,1.56-1,1.56A1,1,0,0,1,156,180.64Zm31-.46a2.39,2.39,0,0,1,1.5-2c1-.39,1.5.06,1.5,1.4a1.79,1.79,0,0,1-1.5,2A1.46,1.46,0,0,1,187,180.18Zm-28-1a2.71,2.71,0,0,1,1-2.11c.55-.34,1,0,1,.88a2.73,2.73,0,0,1-1,2.12C159.42,180.42,159,180,159,179.19Zm9.49.36a1.53,1.53,0,0,1,.63-2.05c1.67-1,2.56.8,1.11,2.25-.67.67-1.25.6-1.74-.2Zm10.51-.89c0-1.23.65-2.08,1.58-2.08a1.25,1.25,0,0,1,1.25,1.66C181.31,180.75,179,181.1,179,178.66Zm13.18-.26a3.37,3.37,0,0,1,1.57-2.58c1.85-.61,1.54,3.43-.32,4.14C192.23,180.42,191.91,180,192.15,178.4Zm-40.18.24a2.14,2.14,0,0,1,1-1.56c.55-.34,1,.08,1,.94s-.45,1.56-1,1.56A1,1,0,0,1,152,178.64Zm11-1.45a2.71,2.71,0,0,1,1-2.11c.55-.34,1,0,1,.88a2.73,2.73,0,0,1-1,2.12C163.42,178.42,163,178,163,177.19Zm9.16-.17a3.12,3.12,0,0,1,1.69-2.23c.86-.28,1.22.2,1,1.34a3.12,3.12,0,0,1-1.69,2.23C172.27,178.65,171.91,178.16,172.13,177Zm11.26.43c-.85-1.38,1.11-3.29,2.5-2.43a2.23,2.23,0,0,1,1.08,1.51c0,1.33-2.87,2.06-3.58.92Zm13.75-1a3.18,3.18,0,0,1,2.08-2.65c2.48-.47,2.23,2.49-.33,3.86-1.85,1-2,.86-1.75-1.21Zm-41.63.24a1.16,1.16,0,0,1,.45-1.56c.55-.35,1,.07,1,.93,0,1.75-.6,2-1.46.63ZM166,175.27a2.49,2.49,0,0,1,1.57-2.08c1.1-.42,1.48-.1,1.25,1.06C168.38,176.36,166,177.24,166,175.27Zm10.68-.1c-.57-1.47.08-2.59,1.49-2.59,1.12,0,1.07,2.73-.06,3.43-.5.31-1.14-.07-1.43-.84Zm11.32-.45c0-1.93,2.28-3.54,3.4-2.41s.63,2.18-1.4,3.27c-1.68.89-2,.76-2-.86Zm-29-.08a2.14,2.14,0,0,1,1-1.56c.55-.34,1,.08,1,.94s-.45,1.56-1,1.56A1,1,0,0,1,159,174.64Zm43.41-.22c-.39-.63.12-1.76,1.14-2.5,1.6-1.17,2-1.13,2.77.27,1.38,2.46-2.43,4.63-3.91,2.23ZM162,173.19a2.71,2.71,0,0,1,1-2.11c.55-.34,1,0,1,.88a2.73,2.73,0,0,1-1,2.12C162.42,174.42,162,174,162,173.19Zm8.16-.17a3.12,3.12,0,0,1,1.69-2.23c.86-.28,1.22.2,1,1.34a3.12,3.12,0,0,1-1.69,2.23C170.27,174.65,169.91,174.16,170.13,173Zm10.84-.37a2.76,2.76,0,0,1,1.5-2.44q1.5-.57,1.5,1.29a2.74,2.74,0,0,1-1.5,2.44C181.47,174.32,181,173.9,181,172.65Zm12.19-.81c.42-2.16,3.81-3,3.81-.94a2.49,2.49,0,0,1-1.58,2.07c-2.35.9-2.6.77-2.23-1.13Zm-19-.82a3.12,3.12,0,0,1,1.69-2.23c.86-.28,1.22.2,1,1.34a3.12,3.12,0,0,1-1.69,2.23C174.27,172.65,173.91,172.16,174.13,171ZM166,170.7c0-1.17,1.39-2.18,8.35-6.09,4.85-2.73,5.79-3,5.5-1.51-.19,1-3,3.28-6.35,5.12-6.33,3.51-7.5,3.9-7.5,2.48Zm19-.52c0-1.69,2.71-2.89,3.53-1.56a2.07,2.07,0,0,1,0,2C187.55,172.07,185,171.78,185,170.18Zm13.6.67c-1.39-1.39-.39-3,2.8-4.52s3.43-1.52,3.88.19c.33,1.29-.46,2.25-2.8,3.37-1.8.85-3.55,1.29-3.88,1Zm-20.42-1.94a2.89,2.89,0,0,1,1.57-2.08c1.84-.62,1.53,2.43-.32,3.14-1.1.42-1.48.1-1.25-1.06Zm12-1.07c.41-2.16,3.81-3,3.81-.94a2.49,2.49,0,0,1-1.58,2.07c-2.35.9-2.6.77-2.23-1.13Zm-7-1.82a3.12,3.12,0,0,1,1.69-2.23c.86-.28,1.22.2,1,1.34a3.12,3.12,0,0,1-1.69,2.23C183.27,167.65,182.91,167.16,183.13,166Zm11.84-.24c0-1.09,1.58-2.72,3.89-4,4.61-2.59,4.73-2.61,5.47-.68.41,1-.9,2.24-4.39,4-4.57,2.32-5,2.37-5,.69Zm-8-1.64c0-2,2-3,3.33-1.63.87.87.79,1.38-.34,2.09-2.11,1.34-3,1.2-3-.46Zm-5.35-2a1.54,1.54,0,0,1,1-1.94c2.15-.83,2.35-.75,2.35.81,0,1.9-2.71,2.81-3.35,1.13Zm10.35-.21c0-2,9.36-7.83,11-6.81,1.85,1.14,1,2-5,5.33-5.25,2.89-6,3.08-6,1.48ZM186.13,159a3.12,3.12,0,0,1,1.69-2.23c.86-.28,1.22.2,1,1.34a3.12,3.12,0,0,1-1.69,2.23C186.27,160.65,185.91,160.16,186.13,159Zm4.84-2.37a2.76,2.76,0,0,1,1.5-2.44q1.5-.57,1.5,1.29a2.74,2.74,0,0,1-1.5,2.44C191.47,158.32,191,157.9,191,156.65Zm5-2.93c0-1.65,3.65-4.14,6.05-4.14s.65,2.77-2.55,4.3-3.5,1.58-3.5-.16ZM168.25,87.33c-3.58-4.63-2.32-7.75,3.13-7.75,4.43,0,6.59,1.32,6.59,4C178,87.5,170.57,90.32,168.25,87.33ZM150.49,84c-2.2-2.2-1.65-7.74.81-8.2a10.49,10.49,0,0,1,4.75.86,4.62,4.62,0,0,1-1.71,9A6.26,6.26,0,0,1,150.49,84Z" transform="translate(-22.47 -31.81)"/></svg>