<?xml version="1.0" encoding="utf-8"?>
<!-- Generator: Adobe Illustrator 19.2.1, SVG Export Plug-In . SVG Version: 6.00 Build 0)  -->
<svg version="1.1" id="Layer_1" xmlns="http://www.w3.org/2000/svg" xmlns:xlink="http://www.w3.org/1999/xlink" x="0px" y="0px"
	 viewBox="0 0 600 565.1" style="enable-background:new 0 0 600 565.1;" xml:space="preserve">
<style type="text/css">
	.st0{fill:url(#SVGID_1_);stroke:#000000;stroke-width:2;stroke-miterlimit:10;}
	.st1{fill:url(#SVGID_2_);stroke:#000000;stroke-width:2;stroke-miterlimit:10;}
	.st2{fill:url(#SVGID_3_);stroke:#000000;stroke-width:2;stroke-miterlimit:10;}
	.st3{fill:none;stroke:#DDDDDD;stroke-width:2;stroke-linejoin:bevel;stroke-dasharray:6;}
	.st4{fill:none;stroke:#BBBBBB;stroke-width:2;stroke-linejoin:bevel;stroke-dasharray:6;}
	.st5{fill:#FFFFFF;stroke:#000000;stroke-width:2;stroke-miterlimit:10;}
	.st6{fill:#FFFFFF;stroke:#BBBBBB;stroke-width:2;stroke-miterlimit:10;}
	.st7{fill:#1D1D1B;}
	.st8{fill:#BBBBBB;}
</style>
<title>cc-colour-graph</title>
<linearGradient id="SVGID_1_" gradientUnits="userSpaceOnUse" x1="267.362" y1="234.83" x2="581" y2="234.83" gradientTransform="matrix(1 0 0 -1 0 565.89)">
	<stop  offset="0" style="stop-color:#000000"/>
	<stop  offset="1" style="stop-color:#FF0000"/>
</linearGradient>
<rect x="267.4" y="322.1" class="st0" width="313.6" height="18"/>
<linearGradient id="SVGID_2_" gradientUnits="userSpaceOnUse" x1="91.107" y1="332.614" x2="403.751" y2="332.614" gradientTransform="matrix(6.123234e-17 -1 -1 -6.123234e-17 590.975 413.166)">
	<stop  offset="0" style="stop-color:#000000"/>
	<stop  offset="1" style="stop-color:#00FF00"/>
</linearGradient>
<rect x="249.4" y="9.4" class="st1" width="18" height="312.6"/>
<g>
	<path d="M564.1,364.4h3.2v-11.1l-3.5,0.7v-1.8l3.5-0.7h2v12.9h3.2v1.7h-8.4L564.1,364.4L564.1,364.4z"/>
	<path d="M580.7,351.2c1.5-0.1,2.9,0.7,3.7,1.9c1.7,3.6,1.7,7.7,0,11.2c-1.5,2.1-4.3,2.6-6.4,1.1c-0.4-0.3-0.8-0.7-1.1-1.1
		c-1.7-3.6-1.7-7.7,0-11.2C577.8,351.9,579.2,351.1,580.7,351.2z M580.7,352.8c-1,0-1.9,0.6-2.3,1.5c-1,2.9-1,6.1,0,9
		c0.6,1.3,2,1.8,3.3,1.3c0.6-0.3,1-0.7,1.3-1.3c1-2.9,1-6.1,0-9C582.6,353.3,581.7,352.8,580.7,352.8L580.7,352.8z"/>
	<path d="M593.4,351.2c1.5-0.1,2.9,0.7,3.7,1.9c1.7,3.6,1.7,7.7,0,11.2c-1.5,2.1-4.3,2.6-6.4,1.1c-0.4-0.3-0.8-0.7-1.1-1.1
		c-1.7-3.6-1.7-7.7,0-11.2C590.5,351.9,591.9,351.1,593.4,351.2z M593.4,352.8c-1,0-1.9,0.6-2.3,1.5c-1,2.9-1,6.1,0,9
		c0.6,1.3,2,1.8,3.3,1.3c0.6-0.3,1-0.7,1.3-1.3c1-2.9,1-6.1,0-9C595.3,353.3,594.4,352.8,593.4,352.8L593.4,352.8z"/>
</g>
<g>
	<path d="M204.7,15.5h3.2V4.4l-3.5,0.7V3.3l3.5-0.7h2v12.9h3.2v1.7h-8.4L204.7,15.5L204.7,15.5z"/>
	<path d="M221.3,2.4c1.5-0.1,2.9,0.7,3.7,1.9c1,1.7,1.4,3.7,1.3,5.6c0.1,2-0.3,3.9-1.3,5.6c-1.5,2.1-4.3,2.6-6.4,1.1
		c-0.4-0.3-0.8-0.7-1.1-1.1c-1-1.7-1.4-3.7-1.3-5.6c-0.1-2,0.3-3.9,1.3-5.6C218.3,3,219.8,2.3,221.3,2.4z M221.3,3.9
		c-1,0-1.9,0.6-2.3,1.5c-0.6,1.4-0.9,3-0.8,4.5c-0.1,1.5,0.2,3.1,0.8,4.5c0.6,1.3,2,1.8,3.3,1.3c0.6-0.3,1-0.7,1.3-1.3
		c0.6-1.4,0.9-3,0.8-4.5c0.1-1.5-0.2-3.1-0.8-4.5C223.2,4.5,222.3,3.9,221.3,3.9L221.3,3.9z"/>
	<path d="M234,2.4c1.5-0.1,2.9,0.7,3.7,1.9c1,1.7,1.4,3.7,1.3,5.6c0.1,2-0.3,3.9-1.3,5.6c-1.5,2.1-4.3,2.6-6.4,1.1
		c-0.4-0.3-0.8-0.7-1.1-1.1c-1-1.7-1.4-3.7-1.3-5.6c-0.1-2,0.3-3.9,1.3-5.6C231.1,3,232.5,2.3,234,2.4z M234,3.9
		c-1,0-1.9,0.6-2.3,1.5c-0.6,1.4-0.9,3-0.8,4.5c-0.1,1.5,0.2,3.1,0.8,4.5c0.6,1.3,2,1.8,3.3,1.3c0.6-0.3,1-0.7,1.3-1.3
		c0.6-1.4,0.9-3,0.8-4.5c0.1-1.5-0.2-3.1-0.8-4.5C235.9,4.5,235,3.9,234,3.9L234,3.9z"/>
</g>
<linearGradient id="SVGID_3_" gradientUnits="userSpaceOnUse" x1="1068.8409" y1="196.4525" x2="1382.479" y2="196.4525" gradientTransform="matrix(-0.7071 0.7071 0.7071 0.7071 873.3682 -561.5306)">
	<stop  offset="0" style="stop-color:#000000"/>
	<stop  offset="1" style="stop-color:#0000FF"/>
</linearGradient>
<polygon class="st2" points="262.9,339.5 41.1,561.3 28.4,548.6 250.1,326.8 "/>
<g>
	<path d="M2.5,524.4h3.2v-11.1L2.2,514v-1.8l3.5-0.7h2v12.9h3.2v1.7H2.5V524.4L2.5,524.4z"/>
	<path d="M19.1,511.2c1.5-0.1,2.9,0.7,3.7,1.9c1.7,3.6,1.7,7.7,0,11.2c-0.8,1.3-2.2,2-3.7,1.9c-1.5,0.1-2.9-0.7-3.7-1.9
		c-1.7-3.6-1.7-7.7,0-11.2C16.2,511.9,17.6,511.1,19.1,511.2z M19.1,512.8c-1,0-1.9,0.6-2.3,1.5c-1,2.9-1,6.1,0,9
		c0.6,1.3,2,1.8,3.3,1.3c0.6-0.3,1-0.7,1.3-1.3c1-2.9,1-6.1,0-9C21,513.3,20.1,512.8,19.1,512.8z"/>
	<path d="M31.8,511.2c1.5-0.1,2.9,0.7,3.7,1.9c1.7,3.6,1.7,7.7,0,11.2c-0.8,1.3-2.2,2-3.7,1.9c-1.5,0.1-2.9-0.7-3.7-1.9
		c-1.7-3.6-1.7-7.7,0-11.2C28.9,511.9,30.3,511.1,31.8,511.2z M31.8,512.8c-1,0-1.9,0.6-2.3,1.5c-1,2.9-1,6.1,0,9
		c0.6,1.3,2,1.8,3.3,1.3c0.6-0.3,1-0.7,1.3-1.3c1-2.9,1-6.1,0-9C33.7,513.3,32.8,512.8,31.8,512.8z"/>
</g>
<g>
	<polyline class="st3" points="138.5,495.6 273.6,359.5 381.3,359.5 	"/>
	<polygon class="st4" points="135.4,315.1 275.5,174.9 384.2,174.9 243.1,315.1 	"/>
	<polyline class="st4" points="243.1,499.9 135.4,499.9 135.4,317.7 	"/>
	<polyline class="st4" points="384.1,179 384.1,359 243.1,500.9 243.1,319.1 	"/>
	<circle class="st5" cx="243.1" cy="315.1" r="8"/>
	<line class="st3" x1="275.4" y1="355.4" x2="275.4" y2="180.9"/>
	<circle class="st6" cx="275.4" cy="359.5" r="8"/>
</g>
<path class="st7" d="M225.2,287.7h2.2l5.6,14.6H231l-1.3-3.7h-6.6l-1.3,3.7h-2.1L225.2,287.7z M226.3,289.6l-2.7,7.3h5.4
	L226.3,289.6z"/>
<path class="st8" d="M283.5,373.6h5c1.2-0.1,2.5,0.3,3.5,0.9c0.8,0.6,1.3,1.6,1.2,2.7c0,0.8-0.2,1.5-0.6,2.1c-0.5,0.6-1.1,0.9-1.8,1
	c1.8,0.3,3.2,1.9,3.1,3.8c0.1,1.2-0.4,2.3-1.3,3c-1.1,0.8-2.4,1.2-3.8,1.1h-5.2L283.5,373.6L283.5,373.6L283.5,373.6z M285.4,375.2
	v4.4h2.9c0.8,0.1,1.5-0.1,2.2-0.5c0.5-0.4,0.8-1,0.7-1.7c0-0.6-0.2-1.2-0.7-1.6c-0.6-0.4-1.4-0.6-2.2-0.5L285.4,375.2L285.4,375.2z
	 M285.4,381.2v5.3h3.2c0.8,0.1,1.7-0.2,2.4-0.7c0.5-0.5,0.8-1.3,0.8-2c0.1-0.8-0.2-1.5-0.8-2c-0.7-0.5-1.5-0.7-2.4-0.6H285.4z"/>
</svg>
