<?xml version="1.0" encoding="utf-8"?>
<!-- Generator: Adobe Illustrator 19.2.1, SVG Export Plug-In . SVG Version: 6.00 Build 0)  -->
<svg version="1.1" id="Layer_1" xmlns="http://www.w3.org/2000/svg" xmlns:xlink="http://www.w3.org/1999/xlink" x="0px" y="0px"
	 viewBox="0 0 600 116.8" style="enable-background:new 0 0 600 116.8;" xml:space="preserve">
<style type="text/css">
	.st0{fill:url(#SVGID_1_);stroke:#000000;stroke-width:2;stroke-miterlimit:10;}
	.st1{fill:#1D1D1B;}
	.st2{fill:none;stroke:#000000;stroke-width:2;stroke-miterlimit:10;stroke-dasharray:6;}
	.st3{fill:#FFFFFF;stroke:#000000;stroke-width:2;stroke-miterlimit:10;}
</style>
<title>cc-greyscale-graph</title>
<linearGradient id="SVGID_1_" gradientUnits="userSpaceOnUse" x1="6.716" y1="773.0805" x2="572.749" y2="773.0805" gradientTransform="matrix(1 0 0 1 0 -695.78)">
	<stop  offset="0" style="stop-color:#FFFFFF"/>
	<stop  offset="1" style="stop-color:#000000"/>
</linearGradient>
<rect x="6.7" y="63" class="st0" width="566" height="28.6"/>
<path class="st1" d="M265.3,3.7h2.2l5.6,14.6h-2.1l-1.3-3.7h-6.6l-1.3,3.7h-2.1L265.3,3.7z M266.5,5.7l-2.7,7.3h5.4L266.5,5.7z"/>
<path class="st1" d="M539.7,3.7h5c1.2-0.1,2.5,0.3,3.5,0.9c0.8,0.6,1.3,1.6,1.2,2.7c0,0.8-0.2,1.5-0.6,2.1c-0.5,0.6-1.1,0.9-1.8,1
	c1.8,0.3,3.2,1.9,3.1,3.8c0.1,1.2-0.4,2.3-1.3,3c-1.1,0.8-2.4,1.2-3.8,1.1h-5.2L539.7,3.7L539.7,3.7L539.7,3.7z M541.7,5.4v4.4h2.9
	c0.8,0.1,1.5-0.1,2.2-0.5c0.5-0.4,0.8-1,0.7-1.7c0-0.6-0.2-1.2-0.7-1.7c-0.6-0.4-1.4-0.6-2.2-0.5L541.7,5.4L541.7,5.4z M541.7,11.4
	v5.3h3.2c0.8,0.1,1.7-0.2,2.4-0.7c0.5-0.5,0.8-1.3,0.8-2c0.1-0.8-0.2-1.5-0.8-2c-0.7-0.5-1.5-0.7-2.4-0.6H541.7z"/>
<path class="st1" d="M7.4,100.4c1.5-0.1,2.9,0.7,3.7,1.9c1,1.7,1.4,3.7,1.3,5.6c0.1,2-0.3,3.9-1.3,5.6c-0.8,1.3-2.2,2-3.7,1.9
	c-1.5,0.1-2.9-0.7-3.7-1.9c-1-1.7-1.4-3.7-1.3-5.6c-0.1-2,0.3-3.9,1.3-5.6C4.4,101.1,5.9,100.3,7.4,100.4z M7.4,101.9
	c-1,0-1.9,0.6-2.3,1.5c-0.6,1.4-0.9,3-0.8,4.5c-0.1,1.5,0.2,3.1,0.8,4.5c0.6,1.3,2,1.8,3.3,1.3c0.6-0.3,1-0.7,1.3-1.3
	c0.6-1.4,0.9-3,0.8-4.5c0.1-1.5-0.2-3.1-0.8-4.5C9.3,102.5,8.4,101.9,7.4,101.9z"/>
<g>
	<path class="st1" d="M555.2,113.6h3.2v-11.1l-3.5,0.7v-1.8l3.5-0.7h2v12.9h3.2v1.7h-8.4L555.2,113.6L555.2,113.6z"/>
	<path class="st1" d="M571.8,100.4c1.5-0.1,2.9,0.7,3.7,1.9c1,1.7,1.4,3.7,1.3,5.6c0.1,2-0.3,3.9-1.3,5.6c-1.5,2.1-4.3,2.6-6.4,1.1
		c-0.4-0.3-0.8-0.7-1.1-1.1c-1-1.7-1.4-3.7-1.3-5.6c-0.1-2,0.3-3.9,1.3-5.6C568.9,101.1,570.3,100.3,571.8,100.4z M571.8,101.9
		c-1,0-1.9,0.6-2.3,1.5c-0.6,1.4-0.9,3-0.8,4.5c-0.1,1.5,0.2,3.1,0.8,4.5c0.6,1.3,2,1.8,3.3,1.3c0.6-0.3,1-0.7,1.3-1.3
		c0.6-1.4,0.9-3,0.8-4.5c0.1-1.5-0.2-3.1-0.8-4.5C573.7,102.5,572.8,101.9,571.8,101.9z"/>
	<path class="st1" d="M584.6,100.4c1.5-0.1,2.9,0.7,3.7,1.9c1,1.7,1.4,3.7,1.3,5.6c0.1,2-0.3,3.9-1.3,5.6c-1.5,2.1-4.3,2.6-6.4,1.1
		c-0.4-0.3-0.8-0.7-1.1-1.1c-1-1.7-1.4-3.7-1.3-5.6c-0.1-2,0.3-3.9,1.3-5.6C581.6,101.1,583.1,100.3,584.6,100.4z M584.6,101.9
		c-1,0-1.9,0.6-2.3,1.5c-0.6,1.4-0.9,3-0.8,4.5c-0.1,1.5,0.2,3.1,0.8,4.5c0.6,1.3,2,1.8,3.3,1.3c0.6-0.3,1-0.7,1.3-1.3
		c0.6-1.4,0.9-3,0.8-4.5c0.1-1.5-0.2-3.1-0.8-4.5C586.5,102.5,585.6,101.9,584.6,101.9z"/>
</g>
<line class="st2" x1="265.2" y1="38" x2="536.2" y2="38"/>
<circle class="st3" cx="266.5" cy="38" r="8"/>
<circle class="st3" cx="544.2" cy="38" r="8"/>
<g>
	<path d="M290.7,3.1c-1.5,1.9-2.8,3.9-3.9,6.1c-0.8,1.8-1.2,3.7-1.3,5.6c0,1,0.1,2.1,0.4,3.1c0.3,1,0.6,2.1,1.1,3h-1.6
		c-0.6-1-1-2.1-1.3-3.3c-0.3-1-0.4-2.1-0.4-3.1c0-2,0.5-4,1.3-5.7c1-2.1,2.4-4,4.1-5.7L290.7,3.1L290.7,3.1z"/>
	<path d="M298.5,3.7h2.5l-1.9,9.5h2.1l-0.3,1.6h-2.1l-0.6,3.4h-2l0.7-3.4h-6.6l0.4-1.9L298.5,3.7z M298.7,5.4l-6.5,7.8h5L298.7,5.4z
		"/>
	<path d="M314.3,3.7L314,5.4h-6L307.2,9c0.3-0.1,0.6-0.2,0.9-0.2c0.3,0,0.6-0.1,0.9-0.1c1.2-0.1,2.3,0.3,3.2,1.1
		c0.8,0.8,1.2,1.8,1.2,2.9c0,0.9-0.2,1.7-0.6,2.5c-0.4,0.8-1,1.5-1.7,2.1c-0.6,0.4-1.2,0.8-1.9,1c-0.8,0.2-1.6,0.3-2.5,0.3
		c-0.6,0-1.2-0.1-1.8-0.2c-0.7-0.1-1.3-0.3-1.9-0.5l0.4-1.8c0.6,0.3,1.2,0.5,1.8,0.7c0.6,0.1,1.2,0.2,1.8,0.2c1.2,0,2.3-0.4,3.1-1.1
		c0.8-0.7,1.3-1.8,1.2-2.9c0-0.7-0.3-1.5-0.8-2c-0.6-0.5-1.5-0.8-2.3-0.7c-0.5,0-1.1,0.1-1.6,0.2c-0.6,0.1-1.2,0.3-1.7,0.5l1.4-7.3
		H314.3L314.3,3.7z"/>
	<path d="M314.1,20.9c1.6-1.9,2.9-3.9,3.9-6.1c0.8-1.8,1.2-3.7,1.3-5.6c0-1-0.1-2.1-0.4-3.1c-0.3-1-0.6-2.1-1.1-3h1.6
		c0.6,1,1,2.1,1.3,3.3c0.3,1,0.4,2.1,0.4,3.1c0,2-0.5,4-1.4,5.8c-1,2.1-2.4,4-4,5.7L314.1,20.9L314.1,20.9z"/>
</g>
<g>
	<path d="M566.4,3.1c-1.5,1.9-2.8,3.9-3.9,6.1c-0.8,1.8-1.2,3.7-1.3,5.6c0,1,0.1,2.1,0.4,3.1c0.3,1,0.6,2.1,1.1,3h-1.6
		c-0.6-1-1-2.1-1.3-3.3c-0.3-1-0.4-2.1-0.4-3.1c0-2,0.5-4,1.3-5.7c1-2.1,2.4-4,4.1-5.7L566.4,3.1L566.4,3.1z"/>
	<path d="M566.6,18l0.4-1.8c0.4,0.3,0.8,0.4,1.3,0.6c0.5,0.1,1,0.2,1.6,0.2c1.2,0.1,2.4-0.4,3.3-1.3c1-1.1,1.6-2.5,1.8-4
		c-0.9,1.1-2.3,1.7-3.7,1.7c-1,0.1-2.1-0.3-2.8-1c-0.7-0.7-1.1-1.7-1-2.8c0-0.9,0.2-1.8,0.5-2.7c0.3-0.8,0.9-1.6,1.5-2.1
		c0.5-0.4,1-0.8,1.6-1c0.6-0.2,1.3-0.3,1.9-0.3c1.2-0.1,2.4,0.4,3.2,1.3c0.8,1,1.2,2.2,1.2,3.5c0,1.3-0.2,2.7-0.5,4
		c-0.3,1.2-0.8,2.3-1.5,3.3c-0.6,0.9-1.5,1.7-2.4,2.3c-1,0.5-2.1,0.8-3.2,0.8C568.5,18.6,567.5,18.4,566.6,18z M569.2,9.1
		c0,0.7,0.2,1.4,0.6,2c0.4,0.5,1.1,0.8,1.7,0.7c1,0,1.9-0.4,2.5-1.2c0.7-0.8,1.1-1.8,1-2.9c0-0.7-0.2-1.4-0.6-2
		c-0.4-0.5-1.1-0.8-1.7-0.7c-1,0-1.9,0.4-2.5,1.2C569.5,7,569.2,8.1,569.2,9.1L569.2,9.1z"/>
	<path d="M590,3.7l-0.3,1.6h-6L583,9c0.3-0.1,0.6-0.2,0.9-0.2c0.3,0,0.6-0.1,0.9-0.1c1.2-0.1,2.3,0.3,3.2,1.1
		c0.8,0.8,1.2,1.8,1.2,2.9c0,0.9-0.2,1.7-0.6,2.5c-0.4,0.8-1,1.5-1.7,2.1c-0.6,0.4-1.2,0.8-1.9,1c-0.8,0.2-1.6,0.3-2.5,0.3
		c-0.6,0-1.2-0.1-1.8-0.2c-0.7-0.1-1.3-0.3-1.9-0.5l0.4-1.8c0.6,0.3,1.2,0.5,1.8,0.7c0.6,0.1,1.2,0.2,1.8,0.2c1.2,0,2.3-0.4,3.1-1.1
		c0.8-0.7,1.3-1.8,1.2-2.9c0-0.7-0.3-1.5-0.8-2c-0.6-0.5-1.5-0.8-2.3-0.7c-0.5,0-1.1,0.1-1.6,0.2c-0.6,0.1-1.2,0.3-1.7,0.5l1.4-7.3
		L590,3.7L590,3.7z"/>
	<path d="M589.9,20.9c1.6-1.9,2.9-3.9,3.9-6.1c0.8-1.8,1.2-3.7,1.3-5.6c0-1-0.1-2.1-0.4-3.1c-0.3-1-0.6-2.1-1.1-3h1.6
		c0.6,1,1,2.1,1.3,3.3c0.3,1,0.4,2.1,0.4,3.1c0,2-0.5,4-1.4,5.8c-1,2.1-2.4,4-4,5.7L589.9,20.9L589.9,20.9z"/>
</g>
</svg>
