<svg xmlns="http://www.w3.org/2000/svg" xmlns:xlink="http://www.w3.org/1999/xlink" viewBox="0 0 600 116.777">
  <defs>
    <style>
      .a, .c, .d, .e {
        stroke: #000;
        stroke-miterlimit: 10;
        stroke-width: 2px;
      }

      .a {
        fill: url(#a);
      }

      .b {
        fill: #1d1d1b;
      }

      .c, .d {
        fill: none;
      }

      .d {
        stroke-dasharray: 6;
      }

      .e {
        fill: #fff;
      }
    </style>
    <linearGradient id="a" x1="6.716" y1="68.809" x2="572.749" y2="68.809" gradientTransform="matrix(1, 0, 0, -1, 0, 146.11)" gradientUnits="userSpaceOnUse">
      <stop offset="0" stop-color="#fff"/>
      <stop offset="1"/>
    </linearGradient>
  </defs>
  <title>cc-greyscale-graph</title>
  <rect class="a" x="6.716" y="62.977" width="566.033" height="28.647"/>
  <path class="b" d="M265.346,3.73h2.236l5.557,14.58h-2.051l-1.328-3.74h-6.572l-1.328,3.74h-2.08Zm1.113,1.943-2.676,7.256h5.361Z"/>
  <path class="b" d="M539.712,3.73h5.037a5.607,5.607,0,0,1,3.477.938,3.162,3.162,0,0,1,1.223,2.666,3.34,3.34,0,0,1-.625,2.129,2.8,2.8,0,0,1-1.836.986,3.637,3.637,0,0,1,3.066,3.779,3.645,3.645,0,0,1-1.328,3.018,5.906,5.906,0,0,1-3.777,1.064h-5.234V3.73h0Zm1.973,1.621V9.746h2.92a3.524,3.524,0,0,0,2.153-.542,1.951,1.951,0,0,0,.708-1.655,1.953,1.953,0,0,0-.708-1.65,3.5,3.5,0,0,0-2.153-.547h-2.92Zm0,6v5.342h3.164a3.552,3.552,0,0,0,2.358-.659,2.513,2.513,0,0,0,.767-2.017A2.5,2.5,0,0,0,547.207,12a3.592,3.592,0,0,0-2.358-.649h-3.164Z"/>
  <path class="b" d="M7.358,100.383a4.227,4.227,0,0,1,3.742,1.939,10.148,10.148,0,0,1,1.294,5.63,10.127,10.127,0,0,1-1.294,5.62,4.227,4.227,0,0,1-3.742,1.938,4.227,4.227,0,0,1-3.745-1.938,10.127,10.127,0,0,1-1.294-5.62,10.148,10.148,0,0,1,1.294-5.63A4.227,4.227,0,0,1,7.358,100.383Zm0,1.563a2.452,2.452,0,0,0-2.29,1.5,10.259,10.259,0,0,0-.768,4.506,10.229,10.229,0,0,0,.767,4.5,2.506,2.506,0,0,0,4.59,0,10.229,10.229,0,0,0,.767-4.5,10.259,10.259,0,0,0-.767-4.507A2.459,2.459,0,0,0,7.358,101.946Z"/>
  <g>
    <path class="b" d="M555.229,113.567h3.22V102.444l-3.506.7v-1.8l3.486-.7H560.4v12.92h3.223v1.66h-8.4v-1.66Z"/>
    <path class="b" d="M571.831,100.383a4.228,4.228,0,0,1,3.745,1.938,10.144,10.144,0,0,1,1.294,5.63,10.123,10.123,0,0,1-1.294,5.62,4.587,4.587,0,0,1-7.49,0,10.123,10.123,0,0,1-1.294-5.62,10.144,10.144,0,0,1,1.294-5.63A4.228,4.228,0,0,1,571.831,100.383Zm0,1.563a2.452,2.452,0,0,0-2.29,1.5,10.252,10.252,0,0,0-.767,4.507,10.222,10.222,0,0,0,.767,4.5,2.506,2.506,0,0,0,4.59,0,10.222,10.222,0,0,0,.767-4.5,10.252,10.252,0,0,0-.767-4.507A2.459,2.459,0,0,0,571.831,101.946Z"/>
    <path class="b" d="M584.555,100.383a4.228,4.228,0,0,1,3.745,1.938,10.144,10.144,0,0,1,1.294,5.63,10.123,10.123,0,0,1-1.294,5.62,4.587,4.587,0,0,1-7.49,0,10.123,10.123,0,0,1-1.294-5.62,10.144,10.144,0,0,1,1.294-5.63A4.228,4.228,0,0,1,584.555,100.383Zm0,1.563a2.452,2.452,0,0,0-2.29,1.5,10.252,10.252,0,0,0-.767,4.507,10.222,10.222,0,0,0,.767,4.5,2.506,2.506,0,0,0,4.59,0,10.222,10.222,0,0,0,.767-4.5,10.252,10.252,0,0,0-.767-4.507A2.459,2.459,0,0,0,584.555,101.946Z"/>
  </g>
  <line class="c" x1="265.86" y1="53.11" x2="265.86" y2="62.977"/>
  <line class="c" x1="543.582" y1="53.11" x2="543.582" y2="62.977"/>
  <line class="d" x1="265.25" y1="38" x2="536.167" y2="38"/>
  <circle class="e" cx="266.46" cy="38" r="8.042"/>
  <circle class="e" cx="544.209" cy="38" r="8.042"/>
  <g>
    <path d="M290.661,3.12A28.061,28.061,0,0,0,286.8,9.258a13.915,13.915,0,0,0-1.274,5.6,12.848,12.848,0,0,0,.371,3.062,14.518,14.518,0,0,0,1.113,3.013h-1.562a16.025,16.025,0,0,1-1.338-3.267,11.622,11.622,0,0,1-.439-3.11,13.356,13.356,0,0,1,1.343-5.747,21.867,21.867,0,0,1,4.058-5.688h1.592Z"/>
    <path d="M298.532,3.716h2.48l-1.865,9.5h2.08L300.9,14.858h-2.08L298.17,18.3h-1.963l0.664-3.437H290.29l0.381-1.9Zm0.176,1.719-6.5,7.783h4.98Z"/>
    <path d="M314.273,3.716l-0.3,1.641h-6.035l-0.7,3.6a5.608,5.608,0,0,1,.913-0.215,6.42,6.42,0,0,1,.942-0.068,4.519,4.519,0,0,1,3.193,1.084,3.808,3.808,0,0,1,1.172,2.939,5.461,5.461,0,0,1-.6,2.49,6.386,6.386,0,0,1-1.7,2.09,5.563,5.563,0,0,1-1.909.962,8.582,8.582,0,0,1-2.466.337,10.667,10.667,0,0,1-1.8-.156,15.116,15.116,0,0,1-1.924-.469l0.361-1.836a8.9,8.9,0,0,0,1.8.659,7.686,7.686,0,0,0,1.821.22,4.478,4.478,0,0,0,3.149-1.143,3.722,3.722,0,0,0,1.245-2.861,2.463,2.463,0,0,0-.815-1.973,3.382,3.382,0,0,0-2.28-.7,7.62,7.62,0,0,0-1.606.181,10.114,10.114,0,0,0-1.714.542l1.416-7.324h7.842Z"/>
    <path d="M314.137,20.933A27.678,27.678,0,0,0,318,14.795a13.955,13.955,0,0,0,1.27-5.6,13.019,13.019,0,0,0-.366-3.062A14.278,14.278,0,0,0,317.8,3.12h1.563A16.329,16.329,0,0,1,320.7,6.382a11.463,11.463,0,0,1,.439,3.1,13.412,13.412,0,0,1-1.353,5.776,21.691,21.691,0,0,1-4.048,5.679h-1.6Z"/>
  </g>
  <g>
    <path d="M566.409,3.12a28.08,28.08,0,0,0-3.862,6.138,13.915,13.915,0,0,0-1.274,5.6,12.873,12.873,0,0,0,.371,3.062,14.574,14.574,0,0,0,1.113,3.013h-1.562a16.053,16.053,0,0,1-1.338-3.267,11.622,11.622,0,0,1-.439-3.11,13.363,13.363,0,0,1,1.343-5.747,21.89,21.89,0,0,1,4.058-5.688h1.592Z"/>
    <path d="M566.556,17.974l0.361-1.8a4.462,4.462,0,0,0,1.289.566,5.953,5.953,0,0,0,1.553.2,4.322,4.322,0,0,0,3.257-1.279,8.259,8.259,0,0,0,1.841-3.984,4.828,4.828,0,0,1-3.721,1.7,3.864,3.864,0,0,1-2.827-1.03,3.7,3.7,0,0,1-1.05-2.769,6.753,6.753,0,0,1,.518-2.651A6.089,6.089,0,0,1,569.3,4.78a4.737,4.737,0,0,1,1.582-.986,5.348,5.348,0,0,1,1.914-.342,4.107,4.107,0,0,1,3.193,1.284,5,5,0,0,1,1.172,3.5,14.619,14.619,0,0,1-.542,3.984,11.327,11.327,0,0,1-1.5,3.33,6.982,6.982,0,0,1-2.441,2.256,6.535,6.535,0,0,1-3.164.771A7.567,7.567,0,0,1,566.556,17.974Zm2.656-8.857a2.861,2.861,0,0,0,.645,1.968,2.205,2.205,0,0,0,1.738.728,3.252,3.252,0,0,0,2.539-1.162,4.21,4.21,0,0,0,1.025-2.891,2.963,2.963,0,0,0-.635-2.017,2.2,2.2,0,0,0-1.748-.728A3.225,3.225,0,0,0,570.237,6.2,4.3,4.3,0,0,0,569.212,9.116Z"/>
    <path d="M590.022,3.716l-0.3,1.641h-6.035l-0.7,3.6a5.608,5.608,0,0,1,.913-0.215,6.42,6.42,0,0,1,.942-0.068,4.519,4.519,0,0,1,3.193,1.084A3.808,3.808,0,0,1,589.2,12.7a5.461,5.461,0,0,1-.6,2.49,6.386,6.386,0,0,1-1.7,2.09,5.563,5.563,0,0,1-1.909.962,8.582,8.582,0,0,1-2.466.337,10.667,10.667,0,0,1-1.8-.156,15.116,15.116,0,0,1-1.924-.469l0.361-1.836a8.9,8.9,0,0,0,1.8.659,7.686,7.686,0,0,0,1.821.22,4.478,4.478,0,0,0,3.149-1.143,3.722,3.722,0,0,0,1.245-2.861,2.463,2.463,0,0,0-.815-1.973,3.382,3.382,0,0,0-2.28-.7,7.62,7.62,0,0,0-1.606.181,10.114,10.114,0,0,0-1.714.542l1.416-7.324h7.842Z"/>
    <path d="M589.886,20.933a27.678,27.678,0,0,0,3.867-6.138,13.955,13.955,0,0,0,1.27-5.6,13.019,13.019,0,0,0-.366-3.062,14.278,14.278,0,0,0-1.108-3.013h1.563a16.329,16.329,0,0,1,1.338,3.262,11.463,11.463,0,0,1,.439,3.1,13.412,13.412,0,0,1-1.353,5.776,21.691,21.691,0,0,1-4.048,5.679h-1.6Z"/>
  </g>
</svg>
