<svg xmlns="http://www.w3.org/2000/svg" xmlns:xlink="http://www.w3.org/1999/xlink" viewBox="0 0 600 565.069">
  <defs>
    <style>
      .a, .b, .f {
        fill: none;
      }

      .a, .c, .d, .e, .f {
        stroke: #000;
      }

      .a, .b, .c, .d, .e, .f {
        stroke-miterlimit: 10;
        stroke-width: 2px;
      }

      .a, .b {
        stroke-dasharray: 6;
      }

      .b {
        stroke: #bbb;
      }

      .c {
        fill: url(#a);
      }

      .d {
        fill: url(#b);
      }

      .e {
        fill: #fff;
      }
    </style>
    <linearGradient id="a" x1="81.897" y1="521.259" x2="581" y2="521.259" gradientUnits="userSpaceOnUse">
      <stop offset="0" stop-color="#fff"/>
      <stop offset="1"/>
    </linearGradient>
    <linearGradient id="b" x1="42.23" y1="182.489" x2="539.751" y2="182.489" gradientTransform="translate(-223.416 75.687)" gradientUnits="userSpaceOnUse">
      <stop offset="0" stop-color="#fff"/>
      <stop offset="1" stop-color="#64350d"/>
    </linearGradient>
  </defs>
  <title>cc-sepia-graph</title>
  <line class="a" x1="221.152" y1="333.527" x2="528.86" y2="257.569"/>
  <polyline class="b" points="528.86 257.569 528.86 333.527 221.152 333.527"/>
  <path d="M36.538,500.357a4.227,4.227,0,0,1,3.745,1.938,12.873,12.873,0,0,1,0,11.25,4.227,4.227,0,0,1-3.745,1.938,4.227,4.227,0,0,1-3.745-1.938,12.873,12.873,0,0,1,0-11.25A4.227,4.227,0,0,1,36.538,500.357Zm0,1.563a2.452,2.452,0,0,0-2.29,1.5,13.6,13.6,0,0,0,0,9,2.506,2.506,0,0,0,4.59,0,13.6,13.6,0,0,0,0-9A2.459,2.459,0,0,0,36.538,501.919Z"/>
  <rect class="c" x="81.897" y="506.936" width="499.103" height="28.647"/>
  <g>
    <path d="M219.848,356.689h2.236l5.557,14.58H225.59l-1.328-3.74H217.69l-1.328,3.74h-2.08Zm1.113,1.943-2.676,7.256h5.361Z"/>
    <path d="M222.66,380.093a28.061,28.061,0,0,0-3.862,6.138,13.915,13.915,0,0,0-1.274,5.6,12.848,12.848,0,0,0,.371,3.062,14.518,14.518,0,0,0,1.113,3.013h-1.562a16.025,16.025,0,0,1-1.338-3.267,11.622,11.622,0,0,1-.439-3.11,13.356,13.356,0,0,1,1.343-5.747,21.867,21.867,0,0,1,4.058-5.688h1.592Z"/>
    <path d="M225.092,381.05a16.613,16.613,0,0,1,2.085-.469,12.957,12.957,0,0,1,1.987-.156,4.955,4.955,0,0,1,3.066.859,2.745,2.745,0,0,1,1.133,2.3,3.556,3.556,0,0,1-.894,2.432A4.575,4.575,0,0,1,230,387.408a3.374,3.374,0,0,1,1.807,1.094,3.114,3.114,0,0,1,.576,1.963,4.5,4.5,0,0,1-.562,2.2,5.238,5.238,0,0,1-1.616,1.768,5.648,5.648,0,0,1-1.914.845,10.644,10.644,0,0,1-2.568.278,9.816,9.816,0,0,1-1.855-.181,11.775,11.775,0,0,1-1.9-.542l0.361-1.865a8.168,8.168,0,0,0,1.851.757,7.369,7.369,0,0,0,1.909.249,4.728,4.728,0,0,0,3.12-.991,3.186,3.186,0,0,0,1.2-2.573,1.821,1.821,0,0,0-.762-1.567,3.67,3.67,0,0,0-2.178-.552h-1.7l0.3-1.6h1.8a3.992,3.992,0,0,0,2.554-.742,2.435,2.435,0,0,0,.933-2.012,1.66,1.66,0,0,0-.684-1.421,3.2,3.2,0,0,0-1.924-.5,9.564,9.564,0,0,0-1.919.2,13.236,13.236,0,0,0-2.036.6Z"/>
    <path d="M242.289,380.425a3.647,3.647,0,0,1,3.032,1.318,5.962,5.962,0,0,1,1.05,3.789,14.416,14.416,0,0,1-.493,3.726,12.622,12.622,0,0,1-1.382,3.315,6.676,6.676,0,0,1-2.134,2.222,5.053,5.053,0,0,1-2.71.757,3.546,3.546,0,0,1-2.959-1.328,5.989,5.989,0,0,1-1.045-3.779,14.177,14.177,0,0,1,.5-3.716,12.457,12.457,0,0,1,1.4-3.315,6.715,6.715,0,0,1,2.1-2.227A4.834,4.834,0,0,1,242.289,380.425Zm-0.117,1.563a2.73,2.73,0,0,0-1.411.4,3.924,3.924,0,0,0-1.206,1.167,10.461,10.461,0,0,0-1.431,3.218,14.812,14.812,0,0,0-.532,3.96,4.282,4.282,0,0,0,.571,2.437,1.918,1.918,0,0,0,1.685.825,2.774,2.774,0,0,0,1.445-.4,3.943,3.943,0,0,0,1.2-1.167,10.319,10.319,0,0,0,1.411-3.208,15.126,15.126,0,0,0,.522-3.97,4.282,4.282,0,0,0-.571-2.437A1.918,1.918,0,0,0,242.172,381.988Z"/>
    <path d="M249.174,392.789h2.061l-0.322,1.68-2.217,3.125h-1.26l1.406-3.125Z"/>
    <path d="M263.256,381.05a16.613,16.613,0,0,1,2.085-.469,12.957,12.957,0,0,1,1.987-.156,4.955,4.955,0,0,1,3.066.859,2.745,2.745,0,0,1,1.133,2.3,3.556,3.556,0,0,1-.894,2.432,4.575,4.575,0,0,1-2.466,1.387,3.374,3.374,0,0,1,1.807,1.094,3.114,3.114,0,0,1,.576,1.963,4.5,4.5,0,0,1-.562,2.2,5.238,5.238,0,0,1-1.616,1.768,5.648,5.648,0,0,1-1.914.845,10.644,10.644,0,0,1-2.568.278,9.816,9.816,0,0,1-1.855-.181,11.775,11.775,0,0,1-1.9-.542l0.361-1.865a8.168,8.168,0,0,0,1.851.757,7.369,7.369,0,0,0,1.909.249,4.728,4.728,0,0,0,3.12-.991,3.186,3.186,0,0,0,1.2-2.573,1.821,1.821,0,0,0-.762-1.567,3.67,3.67,0,0,0-2.178-.552h-1.7l0.3-1.6h1.8a3.992,3.992,0,0,0,2.554-.742,2.435,2.435,0,0,0,.933-2.012,1.66,1.66,0,0,0-.684-1.421,3.2,3.2,0,0,0-1.924-.5,9.564,9.564,0,0,0-1.919.2,13.236,13.236,0,0,0-2.036.6Z"/>
    <path d="M284.438,380.689l-0.3,1.641H278.1l-0.7,3.6a5.584,5.584,0,0,1,.913-0.215,6.41,6.41,0,0,1,.942-0.068,4.519,4.519,0,0,1,3.193,1.084,3.808,3.808,0,0,1,1.172,2.939,5.461,5.461,0,0,1-.6,2.49,6.392,6.392,0,0,1-1.7,2.09,5.567,5.567,0,0,1-1.909.962,8.585,8.585,0,0,1-2.466.337,10.663,10.663,0,0,1-1.8-.156,15.076,15.076,0,0,1-1.924-.469l0.361-1.836a8.877,8.877,0,0,0,1.8.659,7.679,7.679,0,0,0,1.821.22,4.478,4.478,0,0,0,3.149-1.143,3.722,3.722,0,0,0,1.245-2.861,2.465,2.465,0,0,0-.815-1.973,3.382,3.382,0,0,0-2.28-.7,7.617,7.617,0,0,0-1.606.181,10.114,10.114,0,0,0-1.714.542l1.416-7.324h7.842Z"/>
    <path d="M284.3,397.906a27.714,27.714,0,0,0,3.867-6.138,13.963,13.963,0,0,0,1.27-5.6,13.019,13.019,0,0,0-.366-3.062,14.305,14.305,0,0,0-1.108-3.013h1.563a16.358,16.358,0,0,1,1.338,3.262,11.463,11.463,0,0,1,.439,3.1,13.419,13.419,0,0,1-1.353,5.776,21.7,21.7,0,0,1-4.048,5.679h-1.6Z"/>
  </g>
  <g>
    <path d="M523.963,197.689H529a5.607,5.607,0,0,1,3.477.938,3.162,3.162,0,0,1,1.221,2.666,3.34,3.34,0,0,1-.625,2.129,2.8,2.8,0,0,1-1.836.986,3.637,3.637,0,0,1,3.066,3.779,3.645,3.645,0,0,1-1.328,3.018,5.906,5.906,0,0,1-3.779,1.064h-5.234v-14.58Zm1.973,1.621V203.7h2.92a3.524,3.524,0,0,0,2.153-.542,2.283,2.283,0,0,0,0-3.306,3.5,3.5,0,0,0-2.153-.547h-2.92Zm0,6v5.342H529.1a3.552,3.552,0,0,0,2.358-.659,3.036,3.036,0,0,0,0-4.033,3.592,3.592,0,0,0-2.358-.649h-3.164Z"/>
    <path d="M530.535,221.093a28.08,28.08,0,0,0-3.862,6.138,13.915,13.915,0,0,0-1.274,5.6,12.873,12.873,0,0,0,.371,3.062,14.574,14.574,0,0,0,1.113,3.013H525.32a16.053,16.053,0,0,1-1.338-3.267,11.622,11.622,0,0,1-.439-3.11,13.363,13.363,0,0,1,1.343-5.747,21.89,21.89,0,0,1,4.058-5.688h1.592Z"/>
    <path d="M530.681,235.947l0.361-1.8a4.462,4.462,0,0,0,1.289.566,5.953,5.953,0,0,0,1.553.2,4.322,4.322,0,0,0,3.257-1.279,8.259,8.259,0,0,0,1.841-3.984,4.828,4.828,0,0,1-3.721,1.7,3.864,3.864,0,0,1-2.827-1.03,3.7,3.7,0,0,1-1.05-2.769,6.753,6.753,0,0,1,.518-2.651,6.089,6.089,0,0,1,1.523-2.144,4.737,4.737,0,0,1,1.582-.986,5.348,5.348,0,0,1,1.914-.342,4.107,4.107,0,0,1,3.193,1.284,5,5,0,0,1,1.172,3.5,14.619,14.619,0,0,1-.542,3.984,11.327,11.327,0,0,1-1.5,3.33,6.982,6.982,0,0,1-2.441,2.256,6.535,6.535,0,0,1-3.164.771A7.567,7.567,0,0,1,530.681,235.947Zm2.656-8.857a2.861,2.861,0,0,0,.645,1.968,2.205,2.205,0,0,0,1.738.728,3.252,3.252,0,0,0,2.539-1.162,4.21,4.21,0,0,0,1.025-2.891,2.963,2.963,0,0,0-.635-2.017,2.2,2.2,0,0,0-1.748-.728,3.225,3.225,0,0,0-2.539,1.187A4.3,4.3,0,0,0,533.338,227.09Z"/>
    <path d="M550.164,221.425a3.646,3.646,0,0,1,3.032,1.318,5.959,5.959,0,0,1,1.05,3.789,14.4,14.4,0,0,1-.493,3.726,12.589,12.589,0,0,1-1.382,3.315,6.671,6.671,0,0,1-2.134,2.222,5.05,5.05,0,0,1-2.71.757,3.548,3.548,0,0,1-2.959-1.328,5.993,5.993,0,0,1-1.045-3.779,14.2,14.2,0,0,1,.5-3.716,12.489,12.489,0,0,1,1.4-3.315,6.725,6.725,0,0,1,2.1-2.227A4.836,4.836,0,0,1,550.164,221.425Zm-0.117,1.563a2.733,2.733,0,0,0-1.411.4,3.934,3.934,0,0,0-1.206,1.167A10.484,10.484,0,0,0,546,227.768a14.831,14.831,0,0,0-.532,3.96,4.282,4.282,0,0,0,.571,2.437,1.918,1.918,0,0,0,1.685.825,2.771,2.771,0,0,0,1.445-.4,3.932,3.932,0,0,0,1.2-1.167,10.3,10.3,0,0,0,1.411-3.208,15.105,15.105,0,0,0,.522-3.97,4.282,4.282,0,0,0-.571-2.437A1.918,1.918,0,0,0,550.047,222.988Z"/>
    <path d="M557.048,233.789h2.061l-0.322,1.68-2.217,3.125h-1.26l1.406-3.125Z"/>
    <path d="M579.588,221.689l-0.3,1.641H573.25l-0.7,3.6a5.608,5.608,0,0,1,.913-0.215,6.42,6.42,0,0,1,.942-0.068,4.519,4.519,0,0,1,3.193,1.084,3.808,3.808,0,0,1,1.172,2.939,5.461,5.461,0,0,1-.6,2.49,6.386,6.386,0,0,1-1.7,2.09,5.563,5.563,0,0,1-1.909.962,8.582,8.582,0,0,1-2.466.337,10.667,10.667,0,0,1-1.8-.156,15.116,15.116,0,0,1-1.924-.469l0.361-1.836a8.9,8.9,0,0,0,1.8.659,7.686,7.686,0,0,0,1.821.22,4.478,4.478,0,0,0,3.149-1.143,3.722,3.722,0,0,0,1.245-2.861,2.463,2.463,0,0,0-.815-1.973,3.382,3.382,0,0,0-2.28-.7,7.62,7.62,0,0,0-1.606.181,10.114,10.114,0,0,0-1.714.542l1.416-7.324h7.842Z"/>
    <path d="M588.328,221.425a3.646,3.646,0,0,1,3.032,1.318,5.959,5.959,0,0,1,1.05,3.789,14.4,14.4,0,0,1-.493,3.726,12.589,12.589,0,0,1-1.382,3.315A6.671,6.671,0,0,1,588.4,235.8a5.05,5.05,0,0,1-2.71.757,3.548,3.548,0,0,1-2.959-1.328,5.993,5.993,0,0,1-1.045-3.779,14.2,14.2,0,0,1,.5-3.716,12.489,12.489,0,0,1,1.4-3.315,6.725,6.725,0,0,1,2.1-2.227A4.836,4.836,0,0,1,588.328,221.425Zm-0.117,1.563a2.733,2.733,0,0,0-1.411.4,3.934,3.934,0,0,0-1.206,1.167,10.484,10.484,0,0,0-1.431,3.218,14.831,14.831,0,0,0-.532,3.96,4.282,4.282,0,0,0,.571,2.437,1.918,1.918,0,0,0,1.685.825,2.771,2.771,0,0,0,1.445-.4,3.932,3.932,0,0,0,1.2-1.167,10.3,10.3,0,0,0,1.411-3.208,15.105,15.105,0,0,0,.522-3.97,4.282,4.282,0,0,0-.571-2.437A1.918,1.918,0,0,0,588.211,222.988Z"/>
    <path d="M592.175,238.906a27.678,27.678,0,0,0,3.867-6.138,13.955,13.955,0,0,0,1.27-5.6,13.019,13.019,0,0,0-.366-3.062,14.278,14.278,0,0,0-1.108-3.013H597.4a16.329,16.329,0,0,1,1.338,3.262,11.463,11.463,0,0,1,.439,3.1,13.412,13.412,0,0,1-1.353,5.776,21.691,21.691,0,0,1-4.048,5.679h-1.6Z"/>
  </g>
  <rect class="d" x="-181.187" y="243.852" width="497.521" height="28.647" transform="translate(-190.602 325.749) rotate(-90)"/>
  <path d="M81.931,548.759a4.227,4.227,0,0,1,3.745,1.938,12.873,12.873,0,0,1,0,11.25,4.587,4.587,0,0,1-7.49,0,12.873,12.873,0,0,1,0-11.25A4.227,4.227,0,0,1,81.931,548.759Zm0,1.563a2.452,2.452,0,0,0-2.29,1.5,13.6,13.6,0,0,0,0,9,2.506,2.506,0,0,0,4.59,0,13.6,13.6,0,0,0,0-9A2.459,2.459,0,0,0,81.931,550.321Z"/>
  <g>
    <path d="M564.054,561.943h3.223V550.82l-3.506.7v-1.8l3.486-.7h1.973v12.92h3.223v1.66h-8.4v-1.66Z"/>
    <path d="M580.656,548.759A4.228,4.228,0,0,1,584.4,550.7a12.873,12.873,0,0,1,0,11.25,4.587,4.587,0,0,1-7.49,0,12.873,12.873,0,0,1,0-11.25A4.226,4.226,0,0,1,580.656,548.759Zm0,1.563a2.451,2.451,0,0,0-2.29,1.5,13.6,13.6,0,0,0,0,9,2.506,2.506,0,0,0,4.59,0,13.6,13.6,0,0,0,0-9A2.46,2.46,0,0,0,580.656,550.321Z"/>
    <path d="M593.381,548.759a4.228,4.228,0,0,1,3.745,1.938,12.873,12.873,0,0,1,0,11.25,4.587,4.587,0,0,1-7.49,0,12.873,12.873,0,0,1,0-11.25A4.226,4.226,0,0,1,593.381,548.759Zm0,1.563a2.451,2.451,0,0,0-2.29,1.5,13.6,13.6,0,0,0,0,9,2.506,2.506,0,0,0,4.59,0,13.6,13.6,0,0,0,0-9A2.46,2.46,0,0,0,593.381,550.321Z"/>
  </g>
  <g>
    <path d="M6.661,15.54H9.884V4.417l-3.506.7v-1.8l3.486-.7h1.973V15.54H15.06V17.2h-8.4V15.54Z"/>
    <path d="M23.263,2.357A4.227,4.227,0,0,1,27.008,4.3,10.148,10.148,0,0,1,28.3,9.925a10.127,10.127,0,0,1-1.294,5.62,4.227,4.227,0,0,1-3.745,1.938,4.227,4.227,0,0,1-3.745-1.938,10.127,10.127,0,0,1-1.294-5.62A10.148,10.148,0,0,1,19.518,4.3,4.227,4.227,0,0,1,23.263,2.357Zm0,1.563a2.452,2.452,0,0,0-2.29,1.5,10.259,10.259,0,0,0-.767,4.507,10.229,10.229,0,0,0,.767,4.5,2.506,2.506,0,0,0,4.59,0,10.229,10.229,0,0,0,.767-4.5,10.259,10.259,0,0,0-.767-4.507A2.459,2.459,0,0,0,23.263,3.919Z"/>
    <path d="M35.987,2.357A4.227,4.227,0,0,1,39.733,4.3a10.148,10.148,0,0,1,1.294,5.63,10.127,10.127,0,0,1-1.294,5.62,4.227,4.227,0,0,1-3.745,1.938,4.227,4.227,0,0,1-3.745-1.938,10.127,10.127,0,0,1-1.294-5.62A10.148,10.148,0,0,1,32.242,4.3,4.227,4.227,0,0,1,35.987,2.357Zm0,1.563a2.452,2.452,0,0,0-2.29,1.5,10.259,10.259,0,0,0-.767,4.507,10.229,10.229,0,0,0,.767,4.5,2.506,2.506,0,0,0,4.59,0,10.229,10.229,0,0,0,.767-4.5,10.259,10.259,0,0,0-.767-4.507A2.459,2.459,0,0,0,35.987,3.919Z"/>
  </g>
  <circle class="e" cx="221.152" cy="333.527" r="8.042"/>
  <circle class="e" cx="528.86" cy="257.569" r="8.042"/>
  <line class="f" x1="231.152" y1="497.066" x2="231.152" y2="506.934"/>
  <line class="f" x1="528.86" y1="497.066" x2="528.86" y2="506.934"/>
  <line class="f" x1="91.939" y1="258.146" x2="82.072" y2="258.146"/>
  <line class="f" x1="91.939" y1="332.854" x2="82.072" y2="332.854"/>
  <polyline class="b" points="513.016 333.715 513.016 317.256 528.62 317.256"/>
</svg>
