<?xml version="1.0" encoding="utf-8"?>
<!-- Generator: Adobe Illustrator 19.2.1, SVG Export Plug-In . SVG Version: 6.00 Build 0)  -->
<svg version="1.1" id="Layer_1" xmlns="http://www.w3.org/2000/svg" xmlns:xlink="http://www.w3.org/1999/xlink" x="0px" y="0px"
	 viewBox="0 0 600 282.5" style="enable-background:new 0 0 600 282.5;" xml:space="preserve">
<style type="text/css">
	.st0{fill:none;stroke:#BBBBBB;stroke-width:2;stroke-linejoin:bevel;stroke-dasharray:6;}
	.st1{fill:#0000FF;stroke:#000000;stroke-width:2;stroke-linejoin:bevel;}
	.st2{fill:#0000FF;stroke:#000000;stroke-width:2;stroke-miterlimit:10;}
	.st3{fill:#00FF00;stroke:#000000;stroke-width:2;stroke-miterlimit:10;}
	.st4{fill:#FF0000;stroke:#000000;stroke-width:2;stroke-miterlimit:10;}
</style>
<circle class="st0" cx="460" cy="140.9" r="138.1"/>
<path class="st1" d="M385.1,257l74.8-116l-132,40.6C337.6,212.9,358.1,239.5,385.1,257z"/>
<line class="st0" x1="141.1" y1="141" x2="141.1" y2="2.9"/>
<circle class="st0" cx="141.1" cy="140.9" r="138.1"/>
<path class="st2" d="M141,279c51.1,0,95.7-27.8,119.6-69l-119.6-69L21.4,210C45.2,251.2,89.9,279,141,279z"/>
<path class="st3" d="M202,140.9C202,107.3,174.7,80,141,80c0,0-0.1,0-0.1,0v60.9l52.8,30.5C199,162.5,202,152.1,202,140.9z"/>
<path class="st4" d="M141,53.1c-48.5,0.1-87.8,39.4-87.8,87.9c0,16,4.3,31,11.7,43.9l76-43.9V53.1z"/>
<line class="st0" x1="459.9" y1="140.9" x2="459.9" y2="2.8"/>
<path class="st4" d="M372.1,140.9c0,9,1.4,17.7,3.9,25.8l84-25.8V53.1C411.4,53.1,372.1,92.4,372.1,140.9z"/>
<path class="st3" d="M460,80l0,60.9l-33,51.2c9.5,6.1,20.8,9.7,33,9.7c33.7,0,60.9-27.3,60.9-60.9C520.9,107.3,493.6,80,460,80z"/>
</svg>
